<svg width="144" height="78" viewBox="0 0 144 78" fill="none" xmlns="http://www.w3.org/2000/svg">
<path d="M19.4882 11.4629C8.72546 11.4629 0 20.1884 0 30.9511C0 41.7154 8.72546 50.4394 19.4882 50.4394C30.251 50.4394 38.9765 41.7139 38.9765 30.9511C38.9765 20.1869 30.251 11.4629 19.4882 11.4629ZM19.4882 41.7783C13.5092 41.7783 8.66113 36.9301 8.66113 30.9511C8.66113 24.9707 13.5092 20.124 19.4882 20.124C25.4673 20.124 30.3154 24.9721 30.3154 30.9511C30.3154 36.9316 25.4673 41.7783 19.4882 41.7783Z" fill="white"/>
<path d="M23.9294 4.58505C23.9294 7.11848 21.9407 9.1701 19.4873 9.1701C17.034 9.1701 15.0452 7.11705 15.0452 4.58505C15.0452 2.05305 17.034 7.46256e-07 19.4873 7.46256e-07C21.9407 -0.00142895 23.9294 2.05162 23.9294 4.58505ZM35.5371 4.58505C35.5371 7.11848 33.5484 9.1701 31.0951 9.1701C28.6417 9.1701 26.653 7.11705 26.653 4.58505C26.653 2.05305 28.6417 7.46256e-07 31.0951 7.46256e-07C33.5484 -0.00142895 35.5371 2.05162 35.5371 4.58505ZM7.87672 9.1701C5.42479 9.1701 3.4375 7.11705 3.4375 4.58505C3.4375 2.05305 5.42622 7.46256e-07 7.87672 7.46256e-07C10.3287 7.46256e-07 12.3159 2.05305 12.3159 4.58505C12.3174 7.11705 10.3287 9.1701 7.87672 9.1701Z" fill="white"/>
<path d="M10.7095 71.947C10.7095 72.6904 10.5808 73.3738 10.3249 73.9972C10.0675 74.6205 9.71296 75.1609 9.25832 75.6142C8.8051 76.0674 8.26897 76.4234 7.64991 76.6793C7.03085 76.9352 6.35746 77.0639 5.63403 77.0639C4.90917 77.0639 4.23864 76.9352 3.61815 76.6793C2.99909 76.4234 2.46295 76.0674 2.00974 75.6142C1.55509 75.1609 1.1991 74.6205 0.943184 73.9972C0.687267 73.3738 0.558594 72.6904 0.558594 71.947C0.558594 71.2035 0.687267 70.5201 0.943184 69.8968C1.1991 69.2734 1.55509 68.7344 2.00974 68.2812C2.46295 67.8266 2.99909 67.4706 3.61815 67.2147C4.23721 66.9588 4.90917 66.8301 5.63403 66.8301C6.35889 66.8301 7.03085 66.9588 7.64991 67.2147C8.26897 67.4706 8.8051 67.8266 9.25832 68.2812C9.71296 68.7344 10.0675 69.2734 10.3249 69.8968C10.5808 70.5201 10.7095 71.2035 10.7095 71.947ZM9.66436 71.9527C9.66436 71.3851 9.57286 70.8447 9.38843 70.3314C9.20543 69.8182 8.9395 69.3692 8.59065 68.9789C8.2418 68.5886 7.81861 68.2798 7.31822 68.0525C6.81782 67.8237 6.25595 67.7093 5.6326 67.7093C5.00925 67.7093 4.44881 67.8237 3.94699 68.0525C3.44802 68.2812 3.0234 68.59 2.67455 68.9789C2.3257 69.3692 2.06121 69.8182 1.87678 70.3314C1.69235 70.8447 1.60085 71.3851 1.60085 71.9527C1.60085 72.5217 1.69235 73.0607 1.87678 73.574C2.05978 74.0872 2.3257 74.5347 2.67455 74.9193C3.0234 75.3039 3.44802 75.6113 3.94699 75.84C4.44738 76.0688 5.00782 76.1832 5.6326 76.1832C6.25738 76.1832 6.81782 76.0674 7.31822 75.84C7.81718 75.6113 8.2418 75.3053 8.59065 74.9193C8.9395 74.5347 9.20543 74.0858 9.38843 73.574C9.57286 73.0621 9.66436 72.5217 9.66436 71.9527Z" fill="white"/>
<path d="M12.5391 67.0762H13.5298V71.2995H18.8398V67.0762H19.8305V76.8167H18.8398V72.2088H13.5298V76.8167H12.5391V67.0762Z" fill="white"/>
<path d="M22.1139 76.8167H21.0273L25.2364 67.0762H26.1986L30.3819 76.8167H29.281L25.691 68.3143L22.1139 76.8167Z" fill="white"/>
<path d="M31.235 76.8167H30.1484L34.3575 67.0762H35.3197L39.503 76.8167H38.4021L37.3284 74.2576H32.2944L31.235 76.8167ZM32.6661 73.3511H36.9567L34.8121 68.177L32.6661 73.3511Z" fill="white"/>
<path d="M47.384 67.0761H48.6221V76.8167H47.6313V68.4386H47.6041L41.9354 76.8167H40.6973V67.0761H41.688V75.3712H41.7152L47.384 67.0761ZM42.9276 64.3525C43.0463 64.6828 43.255 64.9602 43.5538 65.1846C43.8512 65.4105 44.2215 65.522 44.6604 65.522C45.1007 65.522 45.4696 65.4105 45.767 65.1846C46.0644 64.9602 46.2745 64.6828 46.3932 64.3525L47.0952 64.6828C47.0208 64.893 46.9136 65.0946 46.7721 65.2876C46.6305 65.4806 46.459 65.6507 46.2559 65.798C46.0544 65.9438 45.8199 66.0582 45.5554 66.1411C45.2895 66.224 44.9907 66.2655 44.6604 66.2655C44.3301 66.2655 44.0328 66.224 43.7654 66.1411C43.4995 66.0596 43.2664 65.9438 43.0648 65.798C42.8618 65.6507 42.6903 65.4806 42.5487 65.2876C42.4072 65.0946 42.2985 64.893 42.2256 64.6828L42.9276 64.3525Z" fill="white"/>
<path d="M50.9746 67.0762H51.9654V71.2995H57.2753V67.0762H58.2661V76.8167H57.2753V72.2088H51.9654V76.8167H50.9746V67.0762Z" fill="white"/>
<path d="M63.0673 73.8733H59.9863V73.0898H63.0673V73.8733Z" fill="white"/>
<path d="M64.7871 76.8167V67.0762H65.7779V71.218C66.0338 71.218 66.2797 71.2266 66.5128 71.2466C66.7472 71.2652 66.9788 71.2866 67.2076 71.3152L70.9077 67.0776H71.9942L68.2527 71.5497C69.3993 71.8986 70.2857 72.5148 70.9134 73.3997C71.541 74.2847 71.9614 75.4256 72.1729 76.8182H71.0864C70.9391 75.9832 70.7304 75.2669 70.4602 74.665C70.1899 74.0631 69.8411 73.5742 69.4151 73.1924C68.989 72.8121 68.4772 72.5348 67.881 72.3589C67.2848 72.1859 66.5842 72.1087 65.7765 72.1259V76.8167H64.7871Z" fill="white"/>
<path d="M75.0765 75.3733L80.7453 67.0781H81.9834V76.8187H80.9926V68.4406H80.9655L75.2967 76.8187H74.0586V67.0781H75.0494V75.3733H75.0765Z" fill="white"/>
<path d="M84.334 67.0762H85.3248V71.2995H90.6347V67.0762H91.6255V76.8167H90.6347V72.2088H85.3248V76.8167H84.334V67.0762Z" fill="white"/>
<path d="M103.608 71.947C103.608 72.6904 103.48 73.3738 103.224 73.9972C102.966 74.6205 102.612 75.1609 102.157 75.6142C101.704 76.0674 101.168 76.4234 100.549 76.6793C99.9298 76.9352 99.2564 77.0639 98.533 77.0639C97.8096 77.0639 97.1376 76.9352 96.5185 76.6793C95.8995 76.4234 95.3633 76.0674 94.9101 75.6142C94.4555 75.1609 94.0995 74.6205 93.8436 73.9972C93.5876 73.3738 93.459 72.6904 93.459 71.947C93.459 71.2035 93.5876 70.5201 93.8436 69.8968C94.0995 69.2734 94.4555 68.7344 94.9101 68.2812C95.3633 67.8266 95.8995 67.4706 96.5185 67.2147C97.1376 66.9588 97.8096 66.8301 98.533 66.8301C99.2564 66.8301 99.9298 66.9588 100.549 67.2147C101.168 67.4706 101.704 67.8266 102.157 68.2812C102.612 68.7344 102.966 69.2734 103.224 69.8968C103.48 70.5201 103.608 71.2035 103.608 71.947ZM102.563 71.9527C102.563 71.3851 102.472 70.8447 102.287 70.3314C102.103 69.8182 101.838 69.3692 101.49 68.9789C101.141 68.5886 100.718 68.2798 100.217 68.0525C99.7168 67.8237 99.1549 67.7093 98.5316 67.7093C97.9082 67.7093 97.3478 67.8237 96.8459 68.0525C96.347 68.2812 95.9223 68.59 95.5735 68.9789C95.2247 69.3692 94.9602 69.8182 94.7757 70.3314C94.5927 70.8447 94.4998 71.3851 94.4998 71.9527C94.4998 72.5217 94.5913 73.0607 94.7757 73.574C94.9587 74.0872 95.2247 74.5347 95.5735 74.9193C95.9223 75.3039 96.347 75.6113 96.8459 75.84C97.3463 76.0688 97.9068 76.1832 98.5316 76.1832C99.1549 76.1832 99.7168 76.0674 100.217 75.84C100.716 75.6113 101.141 75.3053 101.49 74.9193C101.838 74.5347 102.104 74.0858 102.287 73.574C102.47 73.0621 102.563 72.5217 102.563 71.9527Z" fill="white"/>
<path d="M108.559 76.8172H107.57V67.9574H104.309V67.0781H111.82V67.9574H108.559V76.8172Z" fill="white"/>
<path d="M114.036 75.9375H119.25V76.8167H113.045V67.0762H119.085V67.9554H114.036V71.2981H118.755V72.1788H114.036V75.9375Z" fill="white"/>
<path d="M120.887 76.8167H119.801L124.01 67.0762H124.972L129.155 76.8167H128.054L126.981 74.2576H121.947L120.887 76.8167ZM122.318 73.3511H126.609L124.464 68.177L122.318 73.3511Z" fill="white"/>
<path d="M133.475 76.8172H132.486V67.9574H129.225V67.0781H136.736V67.9574H133.475V76.8172Z" fill="white"/>
<path d="M137.959 67.0762H140.711C141.206 67.0762 141.655 67.1305 142.059 67.2349C142.463 67.3407 142.81 67.5008 143.099 67.7167C143.388 67.9311 143.609 68.2028 143.766 68.5273C143.922 68.8547 144.001 69.2364 144.001 69.6754C144.001 70.1171 143.921 70.4989 143.759 70.8234C143.599 71.1508 143.375 71.4196 143.086 71.6355C142.797 71.8499 142.448 72.0144 142.041 72.123C141.633 72.2331 141.182 72.2874 140.687 72.2874H138.954V76.8139H137.963V67.0762H137.959ZM138.95 71.4525H140.628C141.407 71.4525 141.999 71.3009 142.402 70.9978C142.806 70.6962 143.009 70.2544 143.009 69.6768C143.009 69.072 142.8 68.6288 142.382 68.3486C141.965 68.0698 141.38 67.9297 140.628 67.9297H138.95V71.4525Z" fill="white"/>
<path d="M123.811 11.4629C113.048 11.4629 104.322 20.1884 104.322 30.9511C104.322 41.7154 113.048 50.4394 123.811 50.4394C134.573 50.4394 143.299 41.7139 143.299 30.9511C143.3 20.1869 134.575 11.4629 123.811 11.4629ZM123.811 41.7783C117.831 41.7783 112.983 36.9301 112.983 30.9511C112.983 24.9707 117.831 20.124 123.811 20.124C129.79 20.124 134.638 24.9721 134.638 30.9511C134.638 36.9316 129.791 41.7783 123.811 41.7783Z" fill="white"/>
<path d="M57.6524 33.0901L72.9445 50.441H61.5784L52.4855 40.7033L50.1565 44.1374V50.441H41.248V41.3681V28.2163V14.8614V0.364258H50.1565V24.7607V28.242L51.5033 26.2576L61.7457 11.463H71.938L57.6524 33.0901Z" fill="white"/>
<path d="M92.045 33.0901L107.336 50.441H95.9695L86.8781 40.7033L84.5477 44.1374V50.441H75.6406V41.3681V28.2163V14.8614V0.364258H84.5477V24.7607V28.242L85.8944 26.2576L96.1383 11.463H106.331L92.045 33.0901Z" fill="white"/>
</svg>
