<svg width="105" height="105" viewBox="0 0 105 105" fill="none" xmlns="http://www.w3.org/2000/svg">
<path d="M36.9235 73.9296C23.1728 74.7344 27.7187 57.4088 12.2436 60.6248C12.1761 60.3594 15.0371 57.5642 15.0371 57.5642L13.3461 56.03L16.7343 53.7902L14.1097 51.6854C14.1097 51.6854 16.6629 48.8796 17.4038 48.3678C16.6635 47.38 15.4198 46.3853 15.4198 46.3853L19.0848 45.8617C19.0848 45.8617 17.4757 44.0618 16.6781 43.095C24.5511 40.2783 33.5606 61.8617 46.0145 47.5504C50.3225 57.7127 46.2092 70.0894 36.9235 73.9296Z" fill="#6C43BF"/>
<path d="M36.7672 73.7799C34.6305 73.8979 32.4673 73.581 30.6187 72.4345C29.1355 71.5144 27.9776 70.1528 26.9759 68.6959C25.9579 67.2163 25.0688 65.6381 23.9887 64.2054C22.9191 62.7857 21.6304 61.5406 20.0365 60.8097C17.9471 59.8507 15.6086 59.8184 13.3619 60.166C13.0061 60.221 12.6516 60.2872 12.297 60.36C12.3907 60.4166 12.4828 60.4732 12.5765 60.5298C12.5777 60.5427 12.583 60.6608 12.5777 60.6204C12.5738 60.5848 12.5525 60.6576 12.5729 60.6333C12.5964 60.6042 12.614 60.5638 12.6345 60.533C12.6692 60.4813 12.6817 60.4667 12.6989 60.4441C12.7397 60.3924 12.782 60.3406 12.8243 60.2889C13.0373 60.035 13.2607 59.7925 13.4872 59.5515C13.9698 59.0373 14.4643 58.5361 14.9634 58.0397C15.0788 57.9249 15.1927 57.8117 15.3081 57.6985C15.3954 57.6128 15.4049 57.4398 15.3148 57.3557C14.7594 56.8399 14.2023 56.3256 13.6468 55.8098C13.629 55.9375 13.6112 56.0637 13.5934 56.1914C14.5787 55.5382 15.5656 54.8833 16.5509 54.2284C16.6919 54.1346 16.8329 54.0408 16.9739 53.9471C17.1334 53.842 17.1161 53.6382 16.9822 53.5282C16.2284 52.9105 15.4746 52.2945 14.7209 51.6768C14.6111 51.5862 14.5012 51.4973 14.3914 51.4067C14.4042 51.5345 14.417 51.6606 14.4297 51.7883C15.2628 50.8715 16.108 49.9595 16.9964 49.1025C17.2162 48.8891 17.4578 48.6546 17.678 48.4994C17.8113 48.4056 17.8252 48.2455 17.7314 48.1178C17.1626 47.3497 16.4588 46.6787 15.7306 46.0836C15.7093 46.2307 15.688 46.3795 15.6668 46.5266C16.7277 46.3763 17.7887 46.2243 18.8497 46.0739C19.003 46.0529 19.1564 46.0302 19.3097 46.0092C19.4906 45.9834 19.5218 45.7214 19.4186 45.6034C18.6173 44.6865 17.816 43.7664 17.0489 42.8172C17.0126 42.9531 16.9763 43.0873 16.94 43.2231C18.529 42.6588 20.1531 43.1747 21.5915 43.9638C23.4095 44.9599 25.0292 46.3214 26.661 47.6086C28.4193 48.9944 30.2066 50.3818 32.1956 51.3908C34.1044 52.3594 36.2118 52.9448 38.3612 52.6457C41.0227 52.2738 43.3454 50.6375 45.2463 48.6809C45.5522 48.3656 45.8491 48.0406 46.1385 47.7091C46.0181 47.693 45.8991 47.6768 45.7787 47.6606C46.5648 49.58 47.076 51.6385 47.2807 53.7309C47.4777 55.7521 47.4047 57.8154 47.0454 59.8254C46.6963 61.7803 46.0882 63.6932 45.2152 65.4686C44.3613 67.2069 43.2624 68.8126 41.9356 70.187C40.6011 71.5679 39.0468 72.6982 37.349 73.505C37.136 73.6069 36.9216 73.7023 36.7043 73.7912C36.4314 73.9044 36.5399 74.375 36.8174 74.2586C38.6133 73.5099 40.2737 72.4282 41.7165 71.0602C43.1313 69.7197 44.3264 68.1205 45.2645 66.379C46.2216 64.602 46.9187 62.6713 47.3433 60.6856C47.7814 58.6352 47.9364 56.5218 47.8003 54.4375C47.6593 52.2901 47.2196 50.1751 46.4809 48.1797C46.3851 47.9226 46.2862 47.6655 46.1811 47.4116C46.1243 47.2726 45.9151 47.2548 45.8213 47.3631C43.9611 49.5007 41.6798 51.4427 38.9479 52.0507C36.8748 52.5115 34.7735 52.0749 32.883 51.1887C30.8713 50.246 29.0651 48.8844 27.3082 47.5083C25.6566 46.2131 24.0357 44.837 22.2343 43.773C20.7775 42.9127 19.094 42.2287 17.382 42.5973C17.1947 42.6378 17.0101 42.6911 16.8285 42.7558C16.6576 42.8156 16.6061 43.021 16.7195 43.1617C17.4866 44.1109 18.2879 45.0309 19.0892 45.9478C19.1255 45.812 19.1618 45.6778 19.1981 45.5419C18.1372 45.6923 17.0762 45.8443 16.0152 45.9946C15.8619 46.0157 15.7086 46.0383 15.5553 46.0593C15.3329 46.0916 15.3605 46.3956 15.4914 46.5024C15.4959 46.5072 15.502 46.5105 15.5065 46.5153C15.4418 46.4619 15.5049 46.5153 15.5185 46.525C15.5666 46.5654 15.6148 46.6059 15.6613 46.6479C15.8342 46.7983 16.0039 46.9519 16.1705 47.1087C16.6117 47.5259 17.0372 47.9674 17.402 48.4622C17.4198 48.3345 17.4376 48.2083 17.4554 48.0806C16.9189 48.4573 16.4531 48.9731 15.9928 49.4437C15.4684 49.9821 14.953 50.5303 14.4422 51.0833C14.3312 51.203 14.2218 51.3226 14.1109 51.4439C13.9984 51.5684 14.0334 51.7301 14.1492 51.8255C14.903 52.4432 15.6567 53.0593 16.4105 53.677C16.5203 53.7676 16.6301 53.8565 16.74 53.9471C16.7427 53.808 16.7455 53.6673 16.7482 53.5282C15.7629 54.1831 14.7761 54.8364 13.7908 55.4913C13.6498 55.585 13.5088 55.6788 13.3678 55.7726C13.2501 55.8502 13.1988 56.0475 13.3144 56.1542C13.8699 56.67 14.4269 57.1843 14.9824 57.7001C14.9846 57.5853 14.9869 57.4721 14.9892 57.3573C14.1239 58.2046 13.234 59.0583 12.46 60.0027C12.3159 60.1773 12.0881 60.4101 12.1289 60.6624C12.1507 60.7982 12.2933 60.8548 12.4084 60.8322C14.7035 60.3585 17.1496 60.2065 19.359 61.0522C20.9841 61.6748 22.3094 62.8439 23.4042 64.2281C24.499 65.6122 25.3779 67.1678 26.364 68.6377C27.3694 70.135 28.4971 71.5596 29.9583 72.5816C31.685 73.7895 33.7407 74.2844 35.8121 74.2957C36.1271 74.2973 36.4422 74.2876 36.756 74.2715C37.0515 74.2488 37.0626 73.7637 36.7672 73.7799Z" fill="#1D0932"/>
<path d="M55.7466 77.3752C69.2617 73.3565 73.9279 94.8702 87.721 88.8706C85.7278 88.0286 85.0765 82.3071 85.0765 82.3071L89.5425 81.8228L86.7413 77.6495L91.6505 76.3934C91.6505 76.3934 91.3424 73.4318 90.1742 72.2412C91.7659 72.0231 94.5961 69.1415 94.5961 69.1415L89.9345 66.9139L94.2527 61.2762C94.2527 61.2762 79.5915 70.6609 69.8542 59.9146L55.7466 77.3752Z" fill="#6C43BF"/>
<path d="M55.9086 77.5766C58.2217 76.891 60.6063 76.9398 62.8449 77.7894C64.9602 78.5936 66.8233 79.9894 68.5466 81.4744C70.3529 83.0291 72.0491 84.7248 73.8758 86.2536C75.6166 87.7094 77.5007 89.0453 79.6471 89.7522C81.9244 90.5029 84.3457 90.3993 86.6274 89.5938C86.9563 89.4771 87.2807 89.349 87.6024 89.208C87.8204 89.1124 87.8258 88.8352 87.6115 88.7395C87.227 88.5693 86.9264 88.1802 86.7052 87.8122C86.4097 87.3227 86.1934 86.7812 86.0125 86.2333C85.6724 85.199 85.4483 84.1178 85.2855 83.0349C85.2597 82.8631 85.2355 82.6912 85.2128 82.5177C85.2061 82.4675 85.201 82.4156 85.1943 82.3654C85.1903 82.3346 85.1813 82.2487 85.1942 82.3702C85.116 82.4513 85.0377 82.5323 84.9595 82.6134C86.2546 82.4741 87.5498 82.3363 88.8449 82.197C89.0308 82.1776 89.2152 82.1565 89.4011 82.1371C89.5562 82.1209 89.7147 81.9361 89.6076 81.7707C88.8037 80.5435 87.9983 79.3164 87.1944 78.0892C87.0812 77.9157 86.9666 77.7422 86.8535 77.5687C86.8052 77.6871 86.7568 77.8071 86.7085 77.9254C88.1353 77.5608 89.5606 77.1945 90.9874 76.8298C91.1908 76.778 91.3927 76.7261 91.5961 76.6743C91.6839 76.6516 91.7796 76.5413 91.7693 76.4392C91.7132 75.8572 91.608 75.2785 91.4704 74.7127C91.2448 73.7822 90.9195 72.7804 90.2676 72.0898C90.2312 72.226 90.1949 72.3605 90.1585 72.4967C90.9657 72.3784 91.7307 71.8273 92.3842 71.3377C93.0533 70.8353 93.6897 70.2809 94.2989 69.7006C94.427 69.579 94.5552 69.4558 94.6788 69.3294C94.7773 69.2289 94.7754 69.0133 94.6402 68.9468C93.2917 68.2902 91.9446 67.6336 90.5961 66.9754C90.4047 66.883 90.2149 66.7889 90.0235 66.6965C90.0364 66.8246 90.0492 66.951 90.0621 67.0791C90.5482 66.4453 91.0328 65.8098 91.519 65.176C92.2978 64.1581 93.0781 63.1401 93.8569 62.1221C94.0363 61.8887 94.2141 61.6553 94.3934 61.4219C94.5476 61.2209 94.3656 60.8837 94.1219 61.0393C93.6344 61.3521 93.1216 61.6228 92.6105 61.8854C91.3422 62.5353 90.0282 63.0881 88.6886 63.5386C86.8969 64.1415 85.0489 64.5645 83.18 64.7216C81.0746 64.8982 78.9482 64.736 76.9306 64.1133C74.6462 63.408 72.5757 62.1143 70.8601 60.3926C70.621 60.1527 70.3898 59.9047 70.1632 59.6502C70.0853 59.561 69.9184 59.5497 69.8382 59.6502C69.3669 60.2337 68.8971 60.8156 68.4257 61.3992C67.3007 62.7932 66.1742 64.1873 65.0492 65.5813C63.6839 67.272 62.3185 68.9627 60.9547 70.6534C59.7794 72.109 58.6041 73.5646 57.4274 75.0203C56.857 75.727 56.2791 76.4273 55.7163 77.1389C55.7085 77.1486 55.7006 77.1583 55.6928 77.1681C55.4995 77.4063 55.8162 77.7533 56.0111 77.5118C56.4824 76.9282 56.9522 76.3463 57.4236 75.7627C58.5486 74.3687 59.6751 72.9746 60.8001 71.5806C62.1654 69.8899 63.5308 68.1992 64.8946 66.5085C66.0699 65.0529 67.2451 63.5973 68.4219 62.1416C68.8085 61.6618 69.1965 61.1836 69.583 60.7038C69.7606 60.4834 69.9826 60.2645 70.133 60.023C70.1393 60.0133 70.1487 60.0036 70.1565 59.9938C70.0477 59.9938 69.9404 59.9938 69.8315 59.9938C71.5297 61.9019 73.6037 63.4048 75.9505 64.2916C77.9807 65.0585 80.1628 65.3488 82.3277 65.2598C84.281 65.1805 86.2246 64.8061 88.1094 64.2275C89.5809 63.7754 91.0211 63.1983 92.4127 62.5143C92.8554 62.2971 93.2923 62.0686 93.7232 61.8255C93.917 61.7169 94.1443 61.6164 94.3188 61.4737C94.3266 61.4673 94.3359 61.4624 94.3452 61.4575C94.2542 61.3294 94.1647 61.203 94.0737 61.0749C93.5875 61.7087 93.1029 62.3441 92.6168 62.9779C91.8379 63.9959 91.0576 65.0139 90.2788 66.0319C90.0994 66.2653 89.9216 66.4987 89.7423 66.7322C89.6589 66.8424 89.6335 67.0418 89.7808 67.1147C91.1294 67.7713 92.4764 68.428 93.825 69.0862C94.0163 69.1786 94.2061 69.2726 94.3975 69.3651C94.3847 69.237 94.3718 69.1105 94.359 68.9825C93.4079 69.9518 92.3501 70.8904 91.1931 71.5663C90.8333 71.777 90.4524 71.9666 90.0435 72.0249C89.8667 72.0509 89.8247 72.3151 89.9344 72.4318C90.5411 73.0754 90.8277 74.0205 91.0347 74.8862C91.1224 75.2574 91.1948 75.6319 91.2518 76.0112C91.2695 76.1247 91.2842 76.2381 91.2988 76.3532C91.3028 76.3857 91.3036 76.4213 91.3106 76.4538C91.2923 76.3711 91.3068 76.4148 91.3094 76.4375C91.3676 76.3597 91.4244 76.2819 91.4826 76.2025C90.0558 76.5671 88.6305 76.9334 87.2037 77.2981C87.0003 77.3499 86.7985 77.4018 86.5951 77.4536C86.4595 77.4877 86.3667 77.6838 86.4501 77.8103C87.254 79.0375 88.0594 80.2647 88.8633 81.4919C88.9764 81.6653 89.0911 81.8388 89.2042 82.0122C89.2725 81.8907 89.3408 81.7691 89.4107 81.6459C88.1155 81.7852 86.8204 81.923 85.5253 82.0623C85.3394 82.0817 85.155 82.1028 84.9691 82.1222C84.8585 82.1335 84.7187 82.2243 84.7344 82.3653C84.8095 83.0689 84.9277 83.7659 85.0706 84.4565C85.3213 85.6691 85.6478 86.9287 86.2648 87.9889C86.5629 88.5012 86.9448 88.9664 87.4798 89.2048C87.4828 89.0491 87.4859 88.8919 87.489 88.7363C85.2237 89.7201 82.7834 90.0896 80.4146 89.4686C78.2639 88.9043 76.3613 87.6511 74.6256 86.2504C72.7812 84.7605 71.0925 83.0729 69.3095 81.5036C67.5627 79.9667 65.7146 78.5109 63.6019 77.5754C61.4374 76.6173 59.0769 76.3578 56.749 76.8601C56.4287 76.9298 56.1098 77.0125 55.7952 77.1049C55.5099 77.1924 55.6218 77.6609 55.9086 77.5766Z" fill="#1D0932"/>
<path d="M53.3548 24.29C55.0893 24.3188 56.8252 24.0506 58.4873 23.5034C58.7755 23.4084 58.6596 22.9296 58.3698 23.0262C56.7437 23.562 55.0563 23.8237 53.3607 23.795C53.0615 23.7893 53.0541 24.2843 53.3548 24.29Z" fill="#1D0932"/>
<path d="M54.6291 77.7154C54.6151 77.7251 54.5994 77.7398 54.5854 77.7511C54.5416 77.7868 54.4979 77.8209 54.451 77.863C50.8388 80.8011 32.9096 94.8598 14.3984 88.0669C14.4659 87.9826 14.5212 87.8918 14.5749 87.7979C14.578 87.7979 14.5781 87.7946 14.5781 87.7946C15.2733 86.6038 15.8166 85.3211 16.1857 83.9838C16.3394 83.443 16.4621 82.8942 16.5557 82.3357C16.5387 82.3293 16.5188 82.318 16.5034 82.3083C16.5248 82.2031 16.5432 82.0947 16.56 81.9878C14.6239 81.0874 12.9751 78.9694 10.6448 79.429C10.7181 79.1327 10.7849 78.8559 10.8281 78.6163L10.8312 78.6131C10.8313 78.6066 10.8344 78.6034 10.8376 78.5953C11.2364 77.8614 11.8376 77.2744 12.4522 76.7245C16.8643 72.7622 22.215 70.1862 27.2286 67.111C29.7595 65.5603 34.5006 61.628 34.5881 61.5583L34.5912 61.5583C34.9749 61.5477 35.3584 61.5502 35.7387 61.5656C35.8546 61.5718 35.9721 61.5748 36.0927 61.5826C38.692 61.7551 41.2463 62.567 43.4747 63.9604C45.6065 65.2957 47.4075 67.1172 49.1556 68.9598C51.5373 71.4694 53.9575 74.2443 54.6291 77.7154Z" fill="#FFFFA5"/>
<path d="M54.3866 77.5663C53.8584 77.9892 53.3893 78.3762 52.8349 78.8023C52.1291 79.3456 51.4111 79.8741 50.6843 80.3848C48.6723 81.8013 46.584 83.0975 44.4323 84.2537C41.7598 85.6896 38.9837 86.9091 36.1224 87.8341C32.95 88.8599 29.6721 89.5213 26.3717 89.6767C22.794 89.845 19.2157 89.4082 15.8083 88.3173C15.3586 88.1741 14.9139 88.0177 14.4723 87.8533C14.5036 87.99 14.5348 88.125 14.5661 88.2617C14.8581 87.8762 15.0822 87.424 15.2998 86.988C15.5318 86.5228 15.7425 86.0445 15.9319 85.5582C16.3284 84.5382 16.6256 83.4775 16.8156 82.3973C16.8329 82.2948 16.8106 82.1728 16.7147 82.1223C16.6979 82.1126 16.6796 82.1044 16.6629 82.0947C16.6965 82.1858 16.7301 82.2785 16.7638 82.3696C16.7858 82.2623 16.8048 82.1549 16.8223 82.0475C16.8395 81.9499 16.819 81.8181 16.7214 81.7726C14.7255 80.8138 13.0978 78.7099 10.678 79.1616C10.7715 79.2608 10.8634 79.3617 10.9569 79.4626C11.0002 79.2935 11.0434 79.1226 11.0821 78.9518C11.0989 78.8753 11.1189 78.7973 11.1312 78.7192C11.1171 78.7289 11.1016 78.7387 11.0875 78.7501C11.1001 78.7338 11.1127 78.7175 11.1238 78.7013C11.2397 78.4329 11.4384 78.184 11.6211 77.9612C12.0024 77.496 12.4456 77.0926 12.8917 76.6974C13.8105 75.8825 14.7728 75.1262 15.7621 74.4107C17.7358 72.9843 19.8125 71.7305 21.9038 70.5125C23.8925 69.353 25.9246 68.2569 27.8583 66.9949C29.3058 66.05 30.685 64.9815 32.0504 63.9081C32.9893 63.1697 33.9116 62.4102 34.84 61.6604C34.7857 61.6848 34.7298 61.7075 34.6755 61.7319C35.5572 61.7321 36.4277 61.7535 37.2993 61.8806C38.1739 62.0077 39.0378 62.2113 39.8774 62.4831C41.584 63.0367 43.1724 63.8961 44.6101 64.9979C46.0553 66.1045 47.3442 67.4177 48.5973 68.7553C49.7629 70.0001 50.9219 71.2645 51.923 72.6639C53.023 74.2032 53.9163 75.9279 54.2766 77.8445C54.3338 78.152 54.7825 78.0219 54.7238 77.7144C54.3425 75.6872 53.38 73.8779 52.2124 72.2572C50.9937 70.5682 49.5626 69.0483 48.1292 67.5659C46.6203 66.0053 45.0086 64.5164 43.1538 63.4243C41.3157 62.3436 39.2809 61.6533 37.1844 61.3714C36.681 61.3029 36.1739 61.2637 35.6665 61.2441C35.3944 61.2343 35.1236 61.2326 34.8512 61.2358C34.7096 61.2374 34.6235 61.2341 34.5048 61.3235C34.28 61.4927 34.0671 61.6846 33.8483 61.8619C32.7791 62.7337 31.6994 63.5908 30.6063 64.4267C29.3946 65.3538 28.1663 66.2564 26.8695 67.0451C25.0184 68.1721 23.1332 69.2307 21.2673 70.3268C19.4061 71.418 17.5612 72.5434 15.7937 73.8022C14.9186 74.4251 14.0628 75.0805 13.2355 75.7766C12.4317 76.4532 11.5905 77.1493 10.9842 78.0359C10.9114 78.1432 10.8385 78.2522 10.7763 78.3661C10.77 78.3775 10.7063 78.4897 10.7139 78.493C10.7314 78.4637 10.7473 78.436 10.7648 78.4067C10.7349 78.4376 10.7158 78.4734 10.7027 78.5141C10.6622 78.6182 10.6551 78.7516 10.6299 78.8606C10.593 79.0184 10.5547 79.1746 10.5147 79.3307C10.4664 79.5227 10.6207 79.6627 10.7936 79.6318C13.0204 79.2175 14.6452 81.3117 16.4825 82.1939C16.4488 82.1028 16.4152 82.01 16.3816 81.9189C16.3626 82.0263 16.3436 82.1336 16.3231 82.241C16.3027 82.3419 16.3296 82.4655 16.424 82.516C16.4407 82.5258 16.459 82.5339 16.4758 82.5436C16.4421 82.4525 16.4085 82.3598 16.3749 82.2687C16.1952 83.2936 15.919 84.3022 15.5511 85.2734C15.3761 85.7354 15.1797 86.1876 14.9635 86.6301C14.7521 87.0611 14.5369 87.5361 14.2495 87.9167C14.1374 88.0648 14.1676 88.26 14.3433 88.3251C17.7671 89.6014 21.4004 90.2238 25.0522 90.2002C28.4055 90.1783 31.7566 89.6275 35.0029 88.6847C37.9691 87.8232 40.8538 86.6362 43.6291 85.2166C45.9056 84.0539 48.1113 82.7318 50.2364 81.2778C51.6084 80.3378 52.9462 79.3425 54.2465 78.2918C54.37 78.191 54.492 78.0885 54.617 77.9877C54.8483 77.799 54.6256 77.376 54.3866 77.5663Z" fill="#1D0932"/>
<path d="M34.3591 61.7077C34.3266 61.7384 34.291 61.7658 34.2554 61.7948C34.2321 61.8174 34.2164 61.8432 34.2067 61.8723C34.1924 61.9013 34.1842 61.932 34.185 61.9659C34.1828 61.9997 34.1898 62.0304 34.203 62.0595C34.2115 62.0901 34.2262 62.1159 34.2486 62.1369C34.2636 62.1498 34.2785 62.1627 34.2935 62.174C34.3281 62.1966 34.3675 62.2063 34.4086 62.2063C34.4284 62.2031 34.4498 62.1998 34.4696 62.1982C34.5079 62.1869 34.5418 62.166 34.5713 62.1353C34.6054 62.1063 34.6425 62.0789 34.675 62.0482C34.6983 62.0256 34.7141 61.9998 34.7238 61.9708C34.7381 61.9417 34.7463 61.9111 34.7454 61.8772C34.7476 61.8433 34.7406 61.8126 34.7275 61.7836C34.719 61.7529 34.7043 61.7271 34.6819 61.7062C34.6669 61.6932 34.6519 61.6803 34.6369 61.669C34.6024 61.6464 34.563 61.6368 34.5219 61.6368C34.502 61.64 34.4807 61.6432 34.4609 61.6448C34.4226 61.6561 34.3871 61.6771 34.3591 61.7077Z" fill="#1D0932"/>
<path d="M69.1768 60.2709C67.5769 63.4593 66.01 65.7559 65.2617 66.6768C61.9876 70.6999 58.676 74.7552 54.6951 78.0152C54.0303 74.5687 51.6238 71.814 49.2586 69.3211C47.5214 67.4919 45.7302 65.6838 43.613 64.3584C41.3996 62.9738 38.8591 62.1701 36.275 61.9995C36.1552 61.9934 36.0399 61.9904 35.9231 61.9827C35.5759 61.9626 35.2272 61.9329 34.8865 61.8887C40.1481 57.5556 44.6287 52.257 47.1237 45.9204C47.1619 45.8191 47.2031 45.7193 47.2398 45.618C47.2939 45.4717 47.3496 45.327 47.4006 45.1806C47.4374 45.1902 47.4727 45.2013 47.5094 45.2109C49.6894 45.8403 51.8767 46.4923 54.0023 47.281C54.2701 47.3816 54.5333 47.4806 54.798 47.5844C55.3258 47.7904 55.8505 48.0045 56.3719 48.2314C56.6319 48.3416 56.8902 48.4583 57.147 48.5798C57.6576 48.8148 58.1618 49.0626 58.6597 49.3217C59.1668 49.5872 59.6676 49.8672 60.1605 50.1601C64.0303 52.4694 67.4648 55.874 69.1336 60.1585L69.1336 60.1617L69.1367 60.1617C69.1485 60.2002 69.1649 60.2355 69.1768 60.2709Z" fill="#6C43BF"/>
<path d="M68.8627 60.1839C68.1526 61.5932 67.3837 62.9702 66.5441 64.2987C66.0132 65.1382 65.4552 65.9615 64.8326 66.7283C62.7665 69.2708 60.6896 71.8117 58.4288 74.1669C57.1512 75.4955 55.8153 76.7627 54.4021 77.9267C54.5296 77.9622 54.6555 77.9977 54.783 78.0332C54.1333 74.5544 51.8286 71.8134 49.5685 69.3662C48.3271 68.0215 47.0611 66.6913 45.662 65.5274C44.2494 64.3523 42.6998 63.395 41.0022 62.7396C40.0755 62.3813 39.1164 62.1133 38.1403 61.9374C37.1078 61.7517 36.0643 61.742 35.0263 61.6064C35.077 61.7437 35.1292 61.8825 35.1799 62.0197C37.3037 60.2617 39.3133 58.3423 41.1313 56.2308C42.9135 54.1613 44.513 51.9093 45.8262 49.4831C46.5769 48.0964 47.2419 46.65 47.7797 45.1584C47.6839 45.2149 47.5897 45.2714 47.494 45.3279C51.1853 46.3997 54.8899 47.5669 58.3229 49.3555C61.2544 50.8825 63.9669 52.9084 66.0797 55.5542C66.65 56.2677 67.1706 57.0248 67.6308 57.8223C67.858 58.2145 68.0698 58.6165 68.2661 59.0281C68.3643 59.2331 68.4578 59.4413 68.5482 59.6512C68.5935 59.7561 68.6372 59.8611 68.6793 59.9676C68.6953 60.0064 68.7098 60.0451 68.7258 60.0839C68.7418 60.1226 68.7563 60.1613 68.7708 60.2001C68.7952 60.2792 68.7998 60.2776 68.7861 60.1985C68.7835 60.3292 68.8866 60.4406 69.0102 60.4406C69.0117 60.4406 69.0117 60.4406 69.0132 60.4406C68.9412 60.3809 68.8691 60.3227 68.7955 60.263C68.8054 60.3001 68.8185 60.3357 68.833 60.3712C68.8795 60.4923 68.98 60.5762 69.112 60.5407C69.2209 60.51 69.323 60.3631 69.2781 60.242C69.2636 60.2065 69.2505 60.171 69.2406 60.1339C69.209 60.0322 69.1297 59.9563 69.0228 59.9563C69.0213 59.9563 69.0213 59.9563 69.0198 59.9563C69.0945 60.037 69.1692 60.1177 69.2439 60.1985C69.2472 60.029 69.1171 59.8191 69.0561 59.6657C68.9731 59.464 68.887 59.2638 68.7979 59.0652C68.6269 58.6875 68.4419 58.3178 68.2431 57.9562C67.8427 57.2201 67.3896 56.5195 66.8978 55.8496C65.9173 54.5114 64.7737 53.3136 63.5283 52.2514C60.7163 49.8542 57.4208 48.2125 54.022 46.9357C51.9228 46.1463 49.7767 45.4861 47.6253 44.8614C47.4994 44.8243 47.3849 44.9066 47.3397 45.0309C46.4048 47.6218 45.0867 50.0691 43.5542 52.3242C42.0107 54.5956 40.2222 56.678 38.2891 58.5861C37.1903 59.6709 36.0438 60.6992 34.8601 61.6791C34.6817 61.826 34.8432 62.0698 35.0136 62.0923C35.9207 62.2102 36.8362 62.215 37.7397 62.3619C38.6067 62.5023 39.4631 62.7154 40.2951 63.0011C41.9547 63.5677 43.4925 64.4314 44.8885 65.521C46.3025 66.6235 47.5661 67.9246 48.7988 69.2435C49.9418 70.4671 51.0768 71.7117 52.052 73.0919C53.1192 74.6028 53.9844 76.2898 54.3348 78.1656C54.3721 78.3609 54.5885 78.377 54.7157 78.2721C57.2349 76.1977 59.4966 73.8021 61.6412 71.3048C62.7158 70.0537 63.762 68.7752 64.8052 67.495C65.4668 66.6814 66.0875 65.8517 66.662 64.9671C67.6095 63.511 68.4652 61.9887 69.2515 60.4309C69.3928 60.1516 69.0025 59.9063 68.8627 60.1839Z" fill="#1D0932"/>
<path d="M16.2732 82.0928C16.1879 82.5381 16.0843 82.9739 15.9624 83.4049C15.5947 84.7284 15.0577 85.9962 14.3686 87.1764C14.2982 87.2934 14.2309 87.4073 14.1392 87.5084C12.6436 87.1868 10.2938 86.2092 9.72382 84.7742C9.28151 83.6592 9.93599 81.3455 10.3778 79.6103C12.713 79.0876 14.3515 81.183 16.2732 82.0928Z" fill="#1D0932"/>
<path d="M16.038 82.0313C15.8492 82.9849 15.5787 83.9225 15.2269 84.8262C15.0557 85.2685 14.862 85.6994 14.6518 86.1224C14.4463 86.5341 14.2396 87.0085 13.9443 87.3574C14.0191 87.3365 14.0923 87.3156 14.1671 87.2947C12.9715 87.0278 11.718 86.5406 10.7639 85.7254C10.3459 85.3684 9.9691 84.9197 9.8712 84.3408C9.75831 83.6751 9.88649 82.9482 10.0134 82.2889C10.1842 81.3996 10.4246 80.5264 10.6514 79.65C10.5971 79.7063 10.5429 79.7626 10.4886 79.8188C12.704 79.3411 14.321 81.4107 16.1375 82.3015C16.3991 82.4301 16.6396 82.0136 16.3749 81.885C15.3675 81.3913 14.5095 80.6323 13.5524 80.0486C12.5787 79.4553 11.5153 79.108 10.3764 79.3525C10.3017 79.3686 10.2334 79.4442 10.2136 79.5213C10 80.3447 9.77583 81.168 9.60756 82.0027C9.4578 82.7456 9.32244 83.5287 9.40622 84.2845C9.55673 85.6611 10.8489 86.5004 11.9332 87.0198C12.607 87.343 13.3126 87.5955 14.0381 87.7578C14.1136 87.7755 14.205 87.7627 14.261 87.6951C14.5718 87.3285 14.7921 86.8573 15.0086 86.4263C15.2283 85.9889 15.4284 85.5402 15.6105 85.0851C15.9874 84.1395 16.2755 83.1553 16.4743 82.1551C16.5349 81.856 16.0987 81.7274 16.038 82.0313Z" fill="#1D0932"/>
<path d="M53.0605 13.2708C52.9041 13.3375 52.742 13.3814 52.5771 13.4139C52.6155 13.5702 52.6524 13.7282 52.6908 13.8845C52.8529 13.8422 53.0135 13.7935 53.1742 13.7414C53.2314 13.7235 53.2828 13.6844 53.3146 13.6291C53.3448 13.577 53.3586 13.4988 53.3413 13.4402C53.324 13.3816 53.2913 13.3246 53.2382 13.2936C53.1835 13.2659 53.1208 13.2512 53.0605 13.2708C52.9013 13.3228 52.7407 13.3732 52.5771 13.4139C52.5215 13.4285 52.4669 13.4741 52.4367 13.5262C52.4065 13.5783 52.3927 13.6564 52.41 13.715C52.4273 13.7737 52.46 13.8307 52.5131 13.8616C52.5693 13.8942 52.626 13.8991 52.6908 13.8861C52.8542 13.852 53.0178 13.8081 53.1742 13.743C53.205 13.7349 53.2314 13.7203 53.2533 13.6991C53.2783 13.6812 53.2987 13.6584 53.3146 13.6307C53.3448 13.5786 53.3586 13.5005 53.3413 13.4419C53.324 13.3832 53.2913 13.3262 53.2382 13.2953C53.1865 13.2676 53.1163 13.2464 53.0605 13.2708Z" fill="#1D0932"/>
<path d="M14.0519 87.4017C13.3982 87.1512 12.7528 86.873 12.1185 86.5751C12.0054 86.5227 11.8709 86.539 11.8007 86.6632C11.7417 86.7677 11.7629 86.9459 11.8776 86.9983C12.5501 87.3125 13.2291 87.6087 13.9211 87.8739C14.0375 87.9181 14.175 87.8234 14.2097 87.7025C14.2446 87.5669 14.1683 87.4476 14.0519 87.4017Z" fill="#1D0932"/>
<path d="M68.8844 60.5775C68.8588 60.5632 68.8392 60.5473 68.8167 60.533L68.8136 60.533L68.8137 60.5298C67.1643 56.2822 63.7739 52.907 59.9548 50.6184C56.0605 48.2805 51.7069 46.9322 47.3658 45.6777C47.5319 45.2285 47.6845 44.7713 47.8266 44.3078C48.4388 42.3326 48.8424 40.2956 49.3079 38.2809C50.4359 33.3834 51.9224 28.5681 53.7455 23.8922C53.6742 23.8923 53.6045 23.8893 53.5332 23.8894C53.3209 23.8834 53.1011 23.8727 52.9065 23.7871C52.6817 23.6872 52.5079 23.5061 52.3402 23.3249C50.7035 21.564 49.1682 19.6946 47.7462 17.7342C47.518 17.4194 47.2868 17.0903 47.1959 16.702C47.0906 16.2453 47.1874 15.7644 47.2885 15.3009C47.3961 14.8024 47.5068 14.3023 47.6144 13.8007C47.6899 13.4471 47.767 13.0904 47.8456 12.732C49.4702 13.6078 51.4135 13.8351 53.2058 13.3669C53.3761 13.3316 53.5375 13.2867 53.6823 13.2259C55.5418 12.5937 57.1513 11.1866 58.101 9.397C62.1017 11.2125 61.5758 19.6526 64.6447 23.151C65.345 23.9536 66.2035 24.5793 66.9837 25.2927C77.5114 37.1926 73.1105 52.062 68.8844 60.5775Z" fill="#FFFFA5"/>
<path d="M68.7127 60.4392C68.6536 60.3993 68.6034 60.361 68.5301 60.3609C68.6034 60.4407 68.6768 60.5205 68.7502 60.6003C68.7531 60.444 68.634 60.2461 68.5782 60.1073C68.4995 59.9111 68.4163 59.7181 68.33 59.525C68.1575 59.1405 67.9714 58.7656 67.7717 58.397C67.3751 57.6647 66.9255 56.9643 66.4394 56.2973C65.441 54.9282 64.2706 53.7058 62.9958 52.6285C60.2191 50.2823 56.9767 48.6743 53.6378 47.4252C51.628 46.6728 49.5769 46.0449 47.5225 45.4345C47.5731 45.5318 47.6236 45.6307 47.6742 45.7296C48.7021 42.9309 49.2255 39.9741 49.9393 37.0811C50.645 34.2216 51.4698 31.3957 52.4092 28.6097C52.9414 27.0309 53.5123 25.4665 54.1174 23.9149C54.1755 23.7666 54.0392 23.6134 53.906 23.6117C53.5019 23.6067 53.1564 23.5921 52.8477 23.2889C52.5375 22.9841 52.255 22.6395 51.9677 22.3107C51.3858 21.6437 50.8176 20.9639 50.2646 20.2698C49.7205 19.5868 49.1914 18.8927 48.6762 18.1842C48.4178 17.8284 48.1414 17.4773 47.9196 17.0912C47.6904 16.6939 47.6336 16.2872 47.6991 15.8215C47.7714 15.3127 47.9095 14.8072 48.0192 14.3048C48.1368 13.7753 48.2499 13.2458 48.3689 12.7179C48.2588 12.7657 48.1471 12.8135 48.037 12.8613C49.5086 13.6612 51.1948 13.9444 52.8449 13.6726C54.3524 13.4246 55.7676 12.6693 56.9016 11.5709C57.5312 10.9604 58.0669 10.2445 58.4886 9.45841C58.3863 9.48707 58.2825 9.51573 58.1802 9.54438C59.4356 10.1368 60.1755 11.4053 60.6947 12.7055C61.3184 14.2689 61.6764 15.9455 62.0997 17.5806C62.5075 19.1599 62.9414 20.7823 63.7341 22.1911C64.1949 23.0112 64.8037 23.6814 65.4868 24.2959C65.9167 24.6837 66.3907 25.0349 66.7931 25.4546C67.1999 25.8775 67.5619 26.3737 67.9184 26.846C70.4578 30.2018 72.1543 34.2094 72.7722 38.5003C73.3159 42.2744 73.0342 46.1629 72.212 49.8948C71.4765 53.2312 70.3223 56.4653 68.8792 59.5381C68.7233 59.8682 68.5646 60.1966 68.4028 60.5235C68.2675 60.7978 68.6492 61.0405 68.786 60.7646C70.2789 57.754 71.5023 54.5838 72.3386 51.3049C73.2879 47.5762 73.733 43.6782 73.3819 39.8484C72.9924 35.5895 71.6023 31.5263 69.3213 28.0383C68.6823 27.0602 67.9826 26.1284 67.231 25.2475C66.8355 24.7847 66.3258 24.4176 65.8767 24.0154C65.4586 23.6419 65.0496 23.2525 64.6971 22.8089C63.7229 21.5818 63.2229 19.9706 62.8006 18.4471C62.3362 16.7721 61.9818 15.0572 61.4331 13.4109C60.9694 12.0198 60.3524 10.5791 59.2364 9.655C58.9829 9.44432 58.7092 9.26876 58.4154 9.12983C58.3071 9.07873 58.1721 9.09138 58.1069 9.21576C57.4107 10.5137 56.3892 11.5978 55.1617 12.326C53.8328 13.1148 52.3138 13.4187 50.8199 13.2536C49.9311 13.1558 49.0635 12.8778 48.2736 12.4483C48.1521 12.3828 47.9776 12.4322 47.9417 12.5917C47.7214 13.5693 47.4772 14.5517 47.2972 15.5389C47.2121 16.0094 47.1808 16.4879 47.3461 16.9378C47.4957 17.3446 47.7559 17.6845 48.001 18.0275C49.1258 19.6072 50.3236 21.1263 51.5885 22.5785C51.9285 22.9678 52.2603 23.4035 52.6492 23.7386C53.019 24.0562 53.4406 24.0852 53.9031 24.0902C53.8331 23.9897 53.7631 23.8876 53.6917 23.7871C52.612 26.5538 51.6437 29.3669 50.7974 32.2199C49.9575 35.0506 49.2876 37.9165 48.619 40.7935C48.2415 42.4187 47.8224 44.0358 47.247 45.6002C47.2028 45.7214 47.29 45.8618 47.3987 45.8953C50.9388 46.9452 54.4914 48.0525 57.7993 49.761C60.7291 51.2731 63.4493 53.2779 65.5722 55.9204C66.1458 56.6352 66.6706 57.3932 67.1348 58.1925C67.3639 58.5882 67.5795 58.9935 67.7768 59.4083C67.8792 59.6221 67.9755 59.8375 68.0687 60.0544C68.1103 60.1517 68.1504 60.249 68.1906 60.3464C68.2106 60.3958 68.2292 60.4437 68.2492 60.4932C68.2621 60.5251 68.3035 60.7149 68.3056 60.5984C68.3032 60.7276 68.4045 60.8378 68.5257 60.8378C68.5122 60.8426 68.4971 60.8458 68.4836 60.8506C68.7215 61.015 68.9552 60.602 68.7127 60.4392Z" fill="#1D0932"/>
<path d="M53.0605 13.2708C52.9041 13.3375 52.742 13.3814 52.5771 13.4139C52.6155 13.5702 52.6524 13.7282 52.6908 13.8845C52.8529 13.8422 53.0135 13.7935 53.1742 13.7414C53.2314 13.7235 53.2828 13.6844 53.3146 13.6291C53.3448 13.577 53.3586 13.4988 53.3413 13.4402C53.324 13.3816 53.2913 13.3246 53.2382 13.2936C53.1835 13.2659 53.1208 13.2512 53.0605 13.2708C52.9013 13.3228 52.7407 13.3732 52.5771 13.4139C52.5215 13.4285 52.4669 13.4741 52.4367 13.5262C52.4065 13.5783 52.3927 13.6564 52.41 13.715C52.4273 13.7737 52.46 13.8307 52.5131 13.8616C52.5693 13.8942 52.626 13.8991 52.6908 13.8861C52.8542 13.852 53.0178 13.8081 53.1742 13.743C53.205 13.7349 53.2314 13.7203 53.2533 13.6991C53.2783 13.6812 53.2987 13.6584 53.3146 13.6307C53.3448 13.5786 53.3586 13.5005 53.3413 13.4419C53.324 13.3832 53.2913 13.3262 53.2382 13.2953C53.1865 13.2676 53.1163 13.2464 53.0605 13.2708Z" fill="#1D0932"/>
<path d="M55.3535 12.7171C55.9094 12.8561 56.4147 13.1527 56.8277 13.5959C57.4443 14.2592 57.7367 15.1755 57.7885 16.1044C57.8348 16.9266 57.7198 17.7487 57.5351 18.5484C57.4654 18.8479 57.8946 18.9756 57.9643 18.6761C58.2705 17.3571 58.4149 15.8961 57.953 14.6116C57.6603 13.7925 57.1324 13.0991 56.4192 12.6588C56.1283 12.4786 55.8083 12.3398 55.4798 12.2567C55.2019 12.1849 55.0726 12.6468 55.3535 12.7171Z" fill="#1D0932"/>
<path d="M64.7128 26.6105C66.5533 28.6132 68.1501 30.9133 69.2145 33.5074C70.3536 36.2822 70.7927 39.3822 70.2698 42.4063C69.9211 44.426 69.184 46.3405 68.2045 48.1056C68.0581 48.37 68.4341 48.6099 68.5805 48.3455C70.2588 45.317 71.1891 41.8452 70.865 38.3334C70.5861 35.3081 69.4626 32.4683 67.8906 29.9891C67.0467 28.6567 66.0796 27.4192 65.0275 26.2751C64.8315 26.0592 64.5154 26.3947 64.7128 26.6105Z" fill="#1D0932"/>
<path d="M48.4661 9.30883C48.5139 9.19706 48.5695 9.07879 48.6708 9.01869C48.7658 8.96185 48.8818 8.96645 48.9915 8.97431C50.4322 9.06996 52.0199 9.16529 53.1761 8.23872C53.3495 8.09917 53.5202 7.93375 53.7342 7.89122C53.9575 7.84704 54.1791 7.94366 54.3853 8.04033C55.3698 8.49947 56.5226 9.11036 57.5331 9.59372C57.6776 9.663 57.742 9.83769 57.6767 9.99319C57.0936 11.3733 54.1179 17.2334 47.0675 13.2267C47.0659 13.2251 47.9869 10.4071 48.4661 9.30883Z" fill="#1D0932"/>
<path d="M48.7003 9.41103C48.7662 9.26457 48.7952 9.19458 48.9568 9.19136C49.08 9.18975 49.2043 9.20769 49.3272 9.21585C49.5946 9.23379 49.862 9.24848 50.1312 9.25341C50.6218 9.26488 51.1145 9.24379 51.6023 9.16087C52.0716 9.07958 52.5346 8.92668 52.9532 8.67776C53.1649 8.55085 53.3466 8.3849 53.5463 8.24009C53.7991 8.05623 54.0118 8.11322 54.2772 8.23532C55.2823 8.70092 56.2535 9.24299 57.2489 9.73137C57.3709 9.79161 57.4768 9.80303 57.4279 9.94623C57.4051 10.0097 57.3716 10.0731 57.3428 10.1334C57.2754 10.2766 57.205 10.4181 57.1316 10.5565C56.153 12.405 54.5683 13.9313 52.5458 14.2939C50.6792 14.6272 48.8046 13.932 47.2036 13.0106C47.2372 13.1018 47.2709 13.1945 47.3045 13.2857C47.7355 11.9887 48.1547 10.664 48.7003 9.41103C48.8242 9.12625 48.432 8.8772 48.3065 9.16523C47.7433 10.4573 47.3049 11.8177 46.8623 13.1586C46.8296 13.2579 46.8779 13.3848 46.9632 13.4337C48.5429 14.3436 50.353 15.0275 52.197 14.8325C53.4781 14.6976 54.6674 14.138 55.6552 13.2528C56.4004 12.5841 57.0179 11.751 57.4998 10.8543C57.6545 10.5663 57.9715 10.083 57.9025 9.7494C57.8419 9.45808 57.6005 9.3669 57.3704 9.25295C57.1021 9.11946 56.837 8.98434 56.5703 8.84922C56.0446 8.58062 55.5191 8.30714 54.9902 8.04504C54.507 7.80574 53.9586 7.43948 53.4233 7.75348C53.1961 7.88689 53.0076 8.08702 52.7818 8.22694C52.5592 8.36523 52.3217 8.4726 52.074 8.55067C51.5663 8.71333 51.0391 8.76371 50.5143 8.77014C50.245 8.77335 49.9759 8.76515 49.7084 8.75209C49.4425 8.73902 49.1695 8.69341 48.9031 8.70476C48.612 8.71773 48.4301 8.89673 48.3096 9.16686C48.1795 9.45 48.5733 9.69743 48.7003 9.41103Z" fill="#1D0932"/>
<path d="M58.9439 21.1941C58.8216 21.7107 58.5218 22.129 58.0847 22.4558C57.342 23.0112 56.4285 23.2771 55.5535 23.4662C54.7638 23.6374 53.9631 23.7334 53.1614 23.8C52.8658 23.8243 52.8537 24.3148 53.1524 24.2904C54.4694 24.1817 55.8246 24.0125 57.079 23.531C57.7949 23.2551 58.5099 22.8631 58.9839 22.2094C59.1742 21.948 59.3111 21.6456 59.3865 21.3268C59.4617 21.0179 59.0176 20.8852 58.9439 21.1941Z" fill="#1D0932"/>
<path d="M14.8478 82.1739C17.2814 81.8122 19.6852 81.2128 22.0217 80.3888C24.366 79.5616 26.6462 78.5097 28.8185 77.2495C30.0408 76.5408 31.2272 75.765 32.3759 74.9284C32.6223 74.7483 32.3975 74.322 32.1495 74.5037C30.1236 75.9804 27.9756 77.2635 25.7355 78.3318C23.4953 79.4001 21.1629 80.2504 18.7835 80.8727C17.4468 81.2223 16.0943 81.498 14.7323 81.7C14.4372 81.744 14.5542 82.2178 14.8478 82.1739Z" fill="#1D0932"/>
<path d="M67.5102 49.8051C67.5118 49.725 67.5133 49.6466 67.5148 49.5666C67.517 49.533 67.5101 49.5026 67.4971 49.4738C67.4887 49.4434 67.4741 49.4177 67.452 49.3969C67.4314 49.3729 67.4077 49.3569 67.3808 49.3473C67.354 49.3329 67.3256 49.3249 67.294 49.3265C67.2744 49.3297 67.2533 49.3328 67.2337 49.3344C67.1959 49.3456 67.1625 49.3664 67.1333 49.3968C67.0918 49.4432 67.0652 49.5008 67.0639 49.5664C67.0624 49.6464 67.0609 49.7249 67.0593 49.8049C67.0572 49.8385 67.0641 49.8689 67.0771 49.8977C67.0855 49.9281 67.1 49.9537 67.1222 49.9745C67.1427 49.9985 67.1665 50.0145 67.1934 50.0241C67.2201 50.0386 67.2485 50.0466 67.2801 50.045C67.2997 50.0418 67.3208 50.0386 67.3404 50.037C67.3782 50.0258 67.4117 50.005 67.4408 49.9746C67.4823 49.9282 67.509 49.8707 67.5102 49.8051Z" fill="#1D0932"/>
<path d="M33.0052 73.477C33.0042 73.5268 33.0033 73.5749 33.0023 73.6247C32.9962 73.9344 33.4494 73.9345 33.4555 73.6248C33.4564 73.575 33.4574 73.5269 33.4584 73.4771C33.4644 73.1674 33.0113 73.1657 33.0052 73.477C33.0042 73.5268 33.0033 73.5749 33.0023 73.6247C32.9962 73.9344 33.4494 73.9345 33.4555 73.6248C33.4564 73.575 33.4574 73.5269 33.4584 73.4771C33.4644 73.1674 33.0113 73.1657 33.0052 73.477Z" fill="#1D0932"/>
<path d="M34.6287 74.8841C34.9218 74.8841 34.9313 74.4005 34.6383 74.4004C34.3453 74.4004 34.3342 74.884 34.6287 74.8841Z" fill="#1D0932"/>
<path d="M36.966 75.346C37.259 75.346 37.2686 74.8624 36.9756 74.8623C36.6826 74.8623 36.673 75.3459 36.966 75.346Z" fill="#1D0932"/>
<path d="M57.486 71.4226C57.5003 71.3044 57.5231 71.3699 57.5313 71.3331C57.5343 71.3347 57.5373 71.3363 57.5388 71.3379C57.5581 71.3507 57.5553 71.3379 57.5304 71.3012C57.5287 71.234 57.5209 71.1717 57.5237 71.1029C57.5335 70.9015 57.5494 70.7001 57.5637 70.5003C57.5891 70.1118 57.6115 69.7233 57.6414 69.3349C57.6655 69.0152 57.6994 68.6587 57.882 68.3854C58.0151 68.1856 58.2982 68.005 58.5263 68.1106C58.7693 68.2226 58.8556 68.5887 59.0385 68.7774C59.2051 68.9501 59.4274 69.0461 59.6618 69.0525C60.1608 69.0655 60.6429 68.7027 60.9127 68.2727C61.2771 67.6925 61.2374 66.9316 61.2725 66.2714C61.3028 65.7023 61.4286 65.1747 61.6893 64.6713C62.1592 63.7634 62.8767 63.0362 63.5065 62.2579C64.1948 61.4076 64.8236 60.4486 64.8469 59.296C64.8528 58.9875 64.4017 58.9873 64.3958 59.2959C64.374 60.3685 63.7421 61.254 63.1003 62.0339C62.4183 62.8634 61.6393 63.6609 61.1901 64.6679C60.9231 65.2673 60.8364 65.8732 60.8105 66.5286C60.7843 67.192 60.7772 67.9657 60.1978 68.3844C60.0164 68.5155 59.7829 68.6177 59.5644 68.5601C59.2846 68.4849 59.1858 68.1444 59.02 67.9285C58.615 67.4009 57.882 67.5925 57.5265 68.1023C57.3039 68.4204 57.2361 68.8248 57.2003 69.2053C57.1585 69.6625 57.1378 70.1213 57.1066 70.5785C57.0834 70.9286 56.9637 71.4497 57.249 71.7119C57.5032 71.9438 57.8944 71.7761 57.9341 71.426C57.9716 71.1158 57.5204 71.1173 57.486 71.4226Z" fill="#1D0932"/>
</svg>
