<svg width="105" height="105" viewBox="0 0 105 105" fill="none" xmlns="http://www.w3.org/2000/svg">
<path d="M75.2377 55.5107C75.5103 55.5107 75.5103 55.0869 75.2377 55.0869C74.965 55.0869 74.965 55.5107 75.2377 55.5107Z" fill="#1D0932"/>
<path d="M75.131 56.9582C75.131 56.9921 75.131 57.0274 75.131 57.0613C75.1296 57.091 75.1367 57.1178 75.1494 57.1432C75.1579 57.1701 75.172 57.1927 75.1932 57.211C75.213 57.2322 75.2356 57.2464 75.261 57.2548C75.2864 57.2676 75.3133 57.2746 75.3429 57.2732C75.3613 57.2704 75.3811 57.2675 75.3994 57.2661C75.4348 57.2562 75.4658 57.2379 75.4927 57.211C75.504 57.1969 75.5153 57.1828 75.5252 57.1687C75.545 57.1362 75.5534 57.0994 75.5534 57.0613C75.5534 57.0274 75.5534 56.9921 75.5534 56.9582C75.5548 56.9285 75.5478 56.9017 75.5351 56.8762C75.5266 56.8494 75.5125 56.8268 75.4913 56.8084C75.4715 56.7872 75.4489 56.7731 75.4235 56.7646C75.398 56.7519 75.3712 56.7449 75.3415 56.7463C75.3232 56.7491 75.3034 56.7519 75.285 56.7533C75.2497 56.7632 75.2186 56.7816 75.1918 56.8084C75.1805 56.8226 75.1692 56.8367 75.1593 56.8508C75.1395 56.8833 75.131 56.9186 75.131 56.9582Z" fill="#1D0932"/>
<path d="M12.2859 62.6111L83.9741 28.8024C86.0677 27.8149 88.6633 28.9638 89.7699 31.367L91.5219 35.1734C92.6285 37.5766 91.8274 40.3267 89.7338 41.3141L18.0456 75.1228C15.9521 76.1102 13.3565 74.9614 12.2499 72.5582L10.4979 68.7517C9.39129 66.3486 10.1906 63.5989 12.2859 62.6111Z" fill="#6C43BF"/>
<path d="M12.8507 62.4609C13.6322 62.0899 14.4121 61.7192 15.1937 61.3482C17.2909 60.3518 19.3887 59.3575 21.4859 58.3611C24.5426 56.9105 27.6009 55.4595 30.6575 54.0088C34.2851 52.2878 37.912 50.5647 41.5412 48.8434C45.3795 47.0217 49.2194 45.1996 53.0576 43.3779C56.7389 41.631 60.4202 39.884 64.1033 38.1367C67.2692 36.6338 70.4352 35.1309 73.6 33.6304C75.8592 32.5583 78.1201 31.4858 80.3793 30.4136C81.3766 29.9409 82.3706 29.4625 83.3708 28.9934C85.3416 28.0718 87.7764 29.2447 88.8993 31.6146C89.3217 32.5073 89.73 33.4071 90.1444 34.3035C90.6386 35.3714 91.1669 36.3942 91.2261 37.5755C91.3199 39.4467 90.404 40.8764 89.0029 41.5426C88.5985 41.7341 88.1958 41.9253 87.7914 42.1168C85.9762 42.9786 84.1611 43.8405 82.3453 44.7004C79.4931 46.0538 76.641 47.4072 73.7888 48.7605C70.2677 50.4321 66.7484 52.1032 63.2268 53.7727C59.4061 55.5866 55.5838 57.4007 51.7625 59.2126C48.0082 60.9937 44.256 62.7764 40.5016 64.5575C37.1833 66.1321 33.865 67.7067 30.5467 69.2813C28.0321 70.4739 25.518 71.6685 23.0034 72.8612C21.6589 73.4988 20.3132 74.1388 18.9687 74.7764C18.2251 75.129 17.4613 75.3569 16.5797 75.2037C15.1183 74.9508 13.8329 73.8102 13.1107 72.2868C12.671 71.3576 12.2472 70.4208 11.8154 69.4879C11.3497 68.4838 10.8656 67.5236 10.7969 66.4119C10.689 64.6324 11.5054 63.1282 12.8507 62.4609C13.1486 62.3126 12.8534 61.7632 12.5554 61.9115C11.2685 62.5499 10.4068 63.8966 10.2721 65.551C10.1699 66.8101 10.5449 67.9724 11.088 69.1463C11.5683 70.1833 12.0485 71.2204 12.5287 72.2574C13.1098 73.5101 13.9032 74.5709 15.0318 75.2286C16.4023 76.0284 17.8237 76.0128 19.0764 75.4195C19.4984 75.2201 19.9198 75.0188 20.3417 74.8194C22.222 73.9272 24.1006 73.0353 25.9809 72.143C28.9186 70.7487 31.8563 69.3543 34.794 67.96C38.3898 66.254 41.9851 64.546 45.5826 62.8396C49.4876 60.9872 53.3921 59.1327 57.2971 57.2803C61.0753 55.4879 64.8529 53.6936 68.6311 51.9012C71.9335 50.3341 75.236 48.7671 78.5384 47.2C80.9658 46.0487 83.3927 44.8953 85.8201 43.744C86.9839 43.1924 88.1495 42.6404 89.3128 42.0868C90.7089 41.4216 91.6538 40.045 91.7561 38.2346C91.8255 36.9929 91.4305 35.8622 90.8985 34.7155C90.4172 33.6745 89.9341 32.6339 89.4528 31.5929C88.874 30.3418 88.0477 29.2984 86.9218 28.6634C85.662 27.9526 84.2953 27.8872 83.1254 28.4232C82.8943 28.5281 82.6655 28.6409 82.4355 28.7498C80.8707 29.4922 79.3058 30.2346 77.741 30.9771C75.0253 32.2663 72.3079 33.5558 69.5922 34.845C66.1233 36.491 62.6543 38.1369 59.1859 39.7848C55.3143 41.6219 51.4427 43.4589 47.5716 45.298C43.7334 47.1197 39.8952 48.9414 36.057 50.7631C32.6011 52.4042 29.1446 54.0433 25.687 55.6848C23.0126 56.9549 20.336 58.2233 17.6617 59.4934C16.1574 60.2085 14.6526 60.9216 13.1483 61.6366C12.9501 61.7305 12.7536 61.824 12.5554 61.9179C12.2569 62.0515 12.5522 62.6009 12.8507 62.4609Z" fill="#1D0932"/>
<path d="M64.304 23.7221L81.3424 60.5185C82.2992 62.5852 81.6051 64.9522 79.7888 65.8035L76.1777 67.4975C74.363 68.3483 72.1146 67.364 71.1573 65.2956L54.1189 28.4991C53.1621 26.4325 53.8562 24.0655 55.6725 23.2143L59.2836 21.5202C61.0999 20.669 63.3472 21.6555 64.304 23.7221Z" fill="#43005C"/>
<path d="M63.7228 23.6987C63.9644 24.2195 64.2055 24.7384 64.4471 25.2591C65.0824 26.6268 65.7181 27.9963 66.3549 29.3636C67.256 31.3041 68.1581 33.2425 69.0591 35.183C70.0966 37.4168 71.1361 39.652 72.1735 41.8858C73.2211 44.1384 74.2671 46.3913 75.3142 48.6421C76.2429 50.6416 77.1732 52.6407 78.1019 54.6401C78.7769 56.0928 79.452 57.5454 80.127 58.9981C80.428 59.6454 80.7301 60.2906 81.028 60.9386C81.5676 62.1073 81.6058 63.4387 81.1149 64.4762C80.8105 65.1156 80.3295 65.5918 79.7359 65.8782C79.4957 65.9945 79.254 66.1054 79.0132 66.2198C78.1846 66.6119 77.3575 67.0037 76.5288 67.3958C76.1606 67.5709 75.788 67.7127 75.3701 67.7497C74.6769 67.8113 73.9294 67.595 73.2843 67.1634C72.587 66.6951 72.0625 66.0141 71.6895 65.2123C71.5652 64.9451 71.4414 64.6796 71.317 64.4124C70.7658 63.2251 70.2151 62.0397 69.6624 60.8528C68.8107 59.0201 67.9594 57.1892 67.1077 55.3564C66.0944 53.1747 65.0796 50.9933 64.0668 48.8134C63.0067 46.533 61.9465 44.2526 60.8879 41.9718C59.9204 39.891 58.9539 37.808 57.9864 35.7272C57.2364 34.115 56.4879 32.5025 55.7373 30.8886C55.3346 30.0207 54.9299 29.1513 54.5272 28.2834C54.3062 27.8079 54.121 27.3211 54.0458 26.804C53.8109 25.1899 54.5021 23.74 55.7323 23.1468C56.4345 22.8075 57.1417 22.4805 57.8454 22.1466C58.5696 21.8046 59.3238 21.3252 60.1507 21.2721C61.5732 21.1795 63.0083 22.1914 63.7228 23.6987C63.8783 24.0261 64.2817 23.7905 64.1261 23.4631C63.3703 21.8654 61.8634 20.7523 60.3494 20.7192C59.4096 20.6987 58.6331 21.1504 57.827 21.5302C57.0542 21.8955 56.2814 22.2609 55.5091 22.628C54.3296 23.1878 53.5734 24.4324 53.521 25.9461C53.4915 26.7874 53.7106 27.6248 54.0781 28.4125C54.2079 28.6938 54.3393 28.9748 54.4687 29.2543C55.04 30.4849 55.6109 31.7137 56.1837 32.944C57.0561 34.822 57.9305 36.7014 58.8028 38.5793C59.8428 40.8164 60.8813 43.0537 61.9213 45.2908C62.993 47.5955 64.0632 49.9005 65.1349 52.2051C66.1029 54.2878 67.0709 56.3704 68.0389 58.453C68.7663 60.0185 69.4937 61.584 70.2211 63.1495C70.5785 63.9183 70.9359 64.6872 71.2938 65.4578C71.6965 66.3257 72.2898 67.0799 73.04 67.5925C74.2232 68.3978 75.5404 68.4811 76.663 67.9502C77.4661 67.571 78.2686 67.19 79.0716 66.8108C79.3697 66.6693 79.6683 66.5295 79.9663 66.3879C80.4949 66.1359 80.9462 65.7515 81.2881 65.2413C82.1049 64.0165 82.1476 62.2632 81.445 60.7287C81.3751 60.5757 81.3031 60.4213 81.2316 60.2687C80.7539 59.2413 80.2762 58.2139 79.7984 57.1865C78.9865 55.4388 78.1745 53.691 77.3631 51.9451C76.3513 49.7688 75.341 47.5921 74.3292 45.4158C73.253 43.1007 72.1767 40.7855 71.102 38.47C70.0968 36.3057 69.092 34.1432 68.0852 31.9791C67.2854 30.2574 66.4855 28.5357 65.6861 26.8158C65.227 25.8264 64.7669 24.8391 64.3079 23.8497C64.248 23.7213 64.1875 23.5912 64.1276 23.4628C63.9736 23.1351 63.5702 23.3707 63.7228 23.6987Z" fill="#1D0932"/>
<path d="M76.897 21.415L91.2705 52.3955C92.3053 54.6259 91.5525 57.18 89.5901 58.0987L86.4817 59.5531C84.5193 60.4718 82.0883 59.4074 81.0535 57.177L66.6801 26.1964C65.6452 23.966 66.3981 21.4119 68.3605 20.4932L71.4688 19.0388C73.4328 18.1197 75.8617 19.1828 76.897 21.415Z" fill="#43005C"/>
<path d="M76.3254 21.4135C76.5434 21.8813 76.7609 22.3473 76.9789 22.8151C77.5515 24.0427 78.1226 25.2707 78.6947 26.4965C79.499 28.2234 80.3053 29.9518 81.1096 31.6787C82.0262 33.6455 82.9433 35.6141 83.8599 37.5808C84.7643 39.5215 85.6688 41.4622 86.5732 43.4029C87.3512 45.0704 88.1282 46.7401 88.9062 48.4076C89.4317 49.5363 89.9573 50.6649 90.4839 51.7915C90.835 52.5445 91.2245 53.2837 91.3599 54.104C91.5984 55.553 91.1297 56.982 90.155 57.7623C89.613 58.1962 88.9102 58.4383 88.2933 58.7313C87.7149 59.0049 87.1411 59.2833 86.5591 59.55C85.424 60.07 84.0181 59.7975 82.9105 58.8765C82.3383 58.3998 81.9029 57.7709 81.5771 57.0738C81.4643 56.8321 81.3515 56.5904 81.2387 56.3487C80.7415 55.2809 80.2427 54.2134 79.7455 53.1456C78.9857 51.5144 78.2259 49.8831 77.4651 48.254C76.5678 46.3271 75.6689 44.4005 74.772 42.4754C73.8514 40.4999 72.9302 38.5226 72.0096 36.5471C71.1927 34.7923 70.3747 33.0397 69.5578 31.2849C68.9594 29.9997 68.36 28.7166 67.7616 27.4314C67.5066 26.8835 67.2486 26.3363 66.9952 25.7881C66.4819 24.6741 66.3862 23.4111 66.747 22.3551C66.9642 21.7194 67.3444 21.1664 67.8373 20.7903C68.0913 20.5969 68.3725 20.4608 68.6578 20.3277C69.3905 19.9822 70.1231 19.6368 70.8557 19.2913C71.0588 19.1961 71.2599 19.0936 71.468 19.005C72.0365 18.7601 72.6837 18.7163 73.3231 18.8494C74.5753 19.1078 75.7061 20.106 76.3254 21.4135C76.4802 21.7419 76.8866 21.5056 76.7303 21.1776C76.0644 19.7729 74.8583 18.7025 73.5236 18.3525C72.869 18.1825 72.2036 18.1786 71.5935 18.3616C71.3034 18.4481 71.036 18.5813 70.764 18.7098C70.0185 19.0617 69.273 19.4136 68.526 19.7659C68.2782 19.8818 68.0253 19.9911 67.7942 20.1378C67.2498 20.4807 66.8016 20.9886 66.4974 21.6041C65.8941 22.8301 65.9042 24.412 66.5029 25.8267C66.5791 26.0073 66.6657 26.1839 66.7476 26.3614C67.1624 27.2499 67.5762 28.1405 67.991 29.029C68.7067 30.5664 69.4235 32.1017 70.1393 33.6391C71.0346 35.5588 71.9285 37.4788 72.8233 39.3967C73.7672 41.4207 74.7091 43.4433 75.653 45.4673C76.5134 47.3142 77.3759 49.1625 78.2363 51.0094C78.8914 52.4163 79.548 53.8229 80.2035 55.2317C80.5273 55.9274 80.853 56.6245 81.1768 57.3202C81.5329 58.0855 82.0249 58.7598 82.6439 59.2879C83.7682 60.2455 85.2198 60.6 86.4341 60.201C87.0859 59.9866 87.6981 59.6355 88.3171 59.3439C88.9418 59.0493 89.6205 58.8027 90.2027 58.4196C91.2738 57.7166 91.913 56.3973 91.9074 54.9137C91.9049 54.0851 91.686 53.2629 91.3259 52.489C91.0026 51.7951 90.6799 51.1031 90.3567 50.4092C89.7021 49.004 89.0476 47.5989 88.3915 46.194C87.5275 44.3403 86.6635 42.4866 85.7995 40.6328C84.8592 38.6157 83.9193 36.6003 82.9805 34.5828C82.0882 32.6682 81.1964 30.7554 80.3041 28.8408C79.5848 27.2965 78.8639 25.7526 78.1441 24.2065C77.7278 23.3126 77.3115 22.4187 76.8952 21.5248C76.8401 21.4085 76.786 21.29 76.7308 21.1737C76.577 20.849 76.1721 21.0849 76.3254 21.4135Z" fill="#1D0932"/>
<path d="M21.4208 45.2708L38.1872 81.4824C39.2186 83.7099 41.6415 84.7731 43.5972 83.8557L46.695 82.4034C48.6507 81.4861 49.4009 78.9353 48.3694 76.7078L31.6031 40.4962C30.5716 38.2687 28.1488 37.2055 26.193 38.1229L23.0952 39.5752C21.1395 40.4926 20.3893 43.0433 21.4208 45.2708Z" fill="#43005C"/>
<path d="M21.3209 45.0632C21.5654 45.5889 21.8095 46.1129 22.0526 46.639C22.6957 48.0239 23.3389 49.4088 23.9836 50.7933C24.8924 52.751 25.8029 54.7083 26.7122 56.6678C27.7555 58.9115 28.7977 61.1573 29.841 63.401C30.8842 65.6447 31.9264 67.8905 32.9697 70.1342C33.8786 72.0919 34.789 74.0492 35.6983 76.0086C36.3415 77.3935 36.9846 78.7784 37.6293 80.163C37.8739 80.6888 38.1154 81.2152 38.361 81.7388C39.1025 83.3145 40.5196 84.4442 42.0169 84.6518C42.7068 84.7487 43.3753 84.6332 43.9774 84.3546C44.2487 84.228 44.5191 84.0979 44.79 83.9696C45.4997 83.6344 46.2119 83.3025 46.9201 82.962C48.187 82.3498 48.9874 80.9497 49.0049 79.3159C49.0147 78.4559 48.7886 77.6049 48.4147 76.7996C48.2889 76.527 48.162 76.2565 48.0362 75.9839C47.4771 74.7794 46.9165 73.5753 46.3574 72.3708C45.4988 70.5245 44.6418 68.6779 43.7832 66.8316C42.7596 64.6295 41.738 62.4288 40.7144 60.2267C39.659 57.957 38.6047 55.6851 37.5494 53.4154C36.5962 51.3623 35.6416 49.3095 34.6884 47.2564C33.9692 45.7084 33.2496 44.1586 32.5305 42.6106C32.1777 41.8524 31.8264 41.0938 31.4741 40.3373C31.076 39.48 30.5068 38.7303 29.7871 38.1869C28.5377 37.2413 27.0367 37.0554 25.8063 37.6295C25.0711 37.9719 24.3398 38.3229 23.6076 38.6703C23.3608 38.7861 23.1156 38.9015 22.8693 39.019C22.2343 39.3254 21.7047 39.8306 21.3374 40.483C20.603 41.7763 20.6205 43.5303 21.3209 45.0632C21.4718 45.3914 21.8751 45.1558 21.7241 44.8275C21.0187 43.2824 21.1466 41.4793 22.0683 40.347C22.6503 39.6331 23.5103 39.3315 24.2984 38.9573C24.7326 38.7514 25.1668 38.5455 25.6015 38.3415C25.8811 38.2094 26.1572 38.0591 26.4549 37.969C27.798 37.5617 29.3672 38.152 30.4039 39.4593C30.9127 40.1016 31.2349 40.9308 31.5831 41.6786C32.173 42.9471 32.7607 44.2141 33.3506 45.4826C34.2111 47.3361 35.0727 49.1875 35.9333 51.041C36.9498 53.2294 37.9659 55.4159 38.9825 57.6043C40.0187 59.8342 41.0544 62.0624 42.0906 64.2923C43.0226 66.2984 43.9541 68.3028 44.8862 70.3089C45.5887 71.8203 46.2918 73.3336 46.9943 74.8451C47.336 75.5809 47.6777 76.3168 48.0194 77.0526C48.4014 77.8752 48.5894 78.7703 48.5021 79.6311C48.3612 81.0127 47.6119 82.0123 46.5315 82.525C45.7404 82.8998 44.9493 83.2746 44.1592 83.6474C43.8709 83.7831 43.5871 83.935 43.2788 84.0216C42.6068 84.212 41.8705 84.1646 41.1645 83.8808C40.1295 83.4634 39.2686 82.5801 38.7503 81.47C38.6546 81.2653 38.5605 81.0603 38.4654 80.8574C37.9632 79.7763 37.4609 78.6951 36.9592 77.6157C36.1514 75.8768 35.3432 74.1361 34.534 72.3976C33.5456 70.27 32.5572 68.1424 31.5688 66.0147C30.5236 63.7638 29.4773 61.5151 28.432 59.2642C27.4638 57.1799 26.4955 55.0957 25.5272 53.0115C24.7593 51.3576 23.9918 49.7055 23.2223 48.0519C22.7805 47.1009 22.3386 46.1499 21.8972 45.2007C21.8404 45.0774 21.7815 44.9526 21.7246 44.8293C21.5732 44.4993 21.1699 44.7349 21.3209 45.0632Z" fill="#1D0932"/>
<path d="M10.9926 52.0392L25.366 83.0197C26.4008 85.2502 28.8318 86.3146 30.7942 85.3959L33.9026 83.9415C35.865 83.0228 36.6178 80.4687 35.583 78.2383L21.2095 47.2577C20.1747 45.0273 17.7437 43.9628 15.7813 44.8816L12.673 46.336C10.709 47.255 9.95726 49.807 10.9926 52.0392Z" fill="#43005C"/>
<path d="M10.8953 51.8548C11.1209 52.3382 11.3445 52.8201 11.5701 53.3034C12.1599 54.5694 12.7497 55.8355 13.3395 57.1015C14.163 58.8682 14.987 60.6368 15.8105 62.4036C16.7432 64.4051 17.6755 66.4049 18.6083 68.4064C19.5238 70.3696 20.4379 72.3331 21.3534 74.2963C22.1258 75.9554 22.8993 77.6124 23.6717 79.2715C24.1719 80.3444 24.6722 81.4173 25.1704 82.4887C25.2787 82.7199 25.3849 82.9496 25.4932 83.1808C25.8751 83.9979 26.416 84.7136 27.094 85.2486C28.2544 86.1663 29.6977 86.4444 30.8985 85.991C31.5259 85.753 32.1236 85.4259 32.7313 85.1405C33.3657 84.8401 34.0736 84.5931 34.6452 84.1722C35.6783 83.4141 36.2721 82.0661 36.2111 80.5767C36.1791 79.7999 35.9634 79.042 35.6255 78.3187C35.5086 78.0683 35.3918 77.818 35.2749 77.5676C34.763 76.4704 34.2526 75.3729 33.7407 74.2757C32.9622 72.6064 32.1853 70.9368 31.4073 69.2693C30.4867 67.2938 29.5656 65.3165 28.6449 63.3411C27.7137 61.3449 26.7835 59.3466 25.8522 57.3505C25.0327 55.5924 24.2133 53.8344 23.3933 52.0745C22.8172 50.84 22.2421 49.6033 21.6659 48.3688C21.4115 47.8228 21.1756 47.2558 20.8883 46.726C20.1469 45.3598 18.8883 44.3936 17.553 44.1352C16.8803 44.0051 16.2109 44.0745 15.6091 44.311C15.383 44.3996 15.1665 44.5109 14.948 44.6151C14.2056 44.9663 13.4612 45.3161 12.7188 45.6674C12.4268 45.8057 12.1378 45.9435 11.8767 46.1402C11.3647 46.5298 10.9513 47.0629 10.6905 47.7057C10.1849 48.9611 10.2672 50.4862 10.8953 51.8548C11.047 52.1838 11.4519 51.9478 11.3002 51.6189C10.6716 50.2484 10.6967 48.6879 11.3584 47.5432C11.6849 46.9784 12.1591 46.5585 12.7118 46.2921C12.9041 46.1991 13.0974 46.1097 13.2902 46.0185C14.0156 45.6764 14.7426 45.334 15.4675 44.9902C16.3497 44.5739 17.3105 44.4807 18.313 44.9125C19.3094 45.3399 20.1375 46.2042 20.6424 47.2761C20.7249 47.4497 20.8042 47.6239 20.8852 47.7979C21.3333 48.7595 21.7815 49.7211 22.2297 50.6828C22.9556 52.2391 23.6804 53.7974 24.4063 55.3537C25.294 57.2578 26.1818 59.1619 27.068 61.0663C27.9932 63.0523 28.9199 65.0379 29.8455 67.0257C30.6852 68.8273 31.5254 70.6306 32.3651 72.4322C33.004 73.8043 33.6444 75.1762 34.2832 76.5483C34.5979 77.223 34.912 77.8959 35.2251 78.5709C35.5716 79.3133 35.7502 80.1018 35.7232 80.8889C35.6755 82.2977 34.9424 83.461 33.8513 83.9871C33.2554 84.2738 32.657 84.5516 32.0581 84.8333C31.419 85.1346 30.7722 85.5253 30.0591 85.6304C28.8328 85.8107 27.4864 85.1963 26.5744 84.0653C26.2692 83.6879 26.0412 83.2603 25.8348 82.8168C25.4746 82.0429 25.113 81.2693 24.7528 80.4953C24.0821 79.0554 23.4098 77.6158 22.7386 76.1741C21.8822 74.3359 21.0258 72.4978 20.1674 70.6582C19.2397 68.6689 18.313 66.6775 17.3853 64.6883C16.5102 62.8121 15.6371 60.9373 14.762 59.0611C14.063 57.5603 13.3624 56.0599 12.6628 54.5573C12.2592 53.6913 11.8555 52.8253 11.4518 51.9593C11.3992 51.8462 11.3461 51.7314 11.2935 51.6183C11.149 51.2917 10.7425 51.528 10.8953 51.8548Z" fill="#1D0932"/>
<path d="M58.8375 51.9803C55.2077 53.7344 51.5757 55.4869 47.9458 57.241C46.9268 57.7334 45.9078 58.2258 44.8899 58.7159C44.5875 58.862 44.8839 59.4237 45.1862 59.2776C48.8161 57.5234 52.4481 55.771 56.0779 54.0168C57.097 53.5244 58.116 53.032 59.1339 52.542C59.4345 52.3962 59.1382 51.8345 58.8375 51.9803Z" fill="#1D0932"/>
<path d="M16.0044 71.9274C15.6923 71.9901 15.851 72.5464 16.1631 72.4838C16.4769 72.4208 16.3181 71.8644 16.0044 71.9274Z" fill="#1D0932"/>
<path d="M43.0851 59.439C42.773 59.5017 42.9317 60.0581 43.2438 59.9954C43.5559 59.9327 43.3988 59.376 43.0851 59.439Z" fill="#1D0932"/>
<path d="M41.2693 79.1889C40.9573 79.2516 41.116 79.8079 41.4281 79.7453C41.7401 79.6826 41.5814 79.1263 41.2693 79.1889Z" fill="#1D0932"/>
<path d="M39.6672 78.4516C39.6759 78.5001 39.6867 78.5501 39.6954 78.5986C39.8543 78.5665 40.0131 78.5344 40.1719 78.5023C40.1646 78.4825 40.1589 78.4624 40.1559 78.4398C40.1594 78.4642 40.1635 78.4904 40.1687 78.5145C40.1651 78.4901 40.1647 78.4651 40.1648 78.4418C40.1631 78.4654 40.1614 78.4889 40.1597 78.5125C40.1625 78.4752 40.1712 78.4405 40.1814 78.4056C40.1739 78.4264 40.1664 78.4473 40.1605 78.4679C40.2018 78.3531 40.2758 78.2647 40.3283 78.1593C40.4016 78.0092 40.4482 77.8122 40.3906 77.6266C40.3552 77.5139 40.2898 77.4073 40.1992 77.3366C40.1176 77.2739 40.0273 77.2573 39.9405 77.2652C39.8231 77.2774 39.7178 77.3682 39.6659 77.4754C39.6269 77.5568 39.6141 77.6599 39.6421 77.7587C39.6773 77.883 39.7725 77.9817 39.8833 78.0231C40.0126 78.0704 40.1584 78.0042 40.1809 77.8585C40.2028 77.7168 40.1261 77.5525 39.9889 77.501C39.9815 77.4986 39.9757 77.4959 39.9694 77.4914C39.9894 77.5028 40.0094 77.5142 40.0289 77.5238C40.0231 77.5211 40.0184 77.5163 40.0142 77.5133C40.0321 77.529 40.05 77.5447 40.0663 77.5607C40.0615 77.5559 40.0589 77.5526 40.0542 77.5477C40.0683 77.568 40.0825 77.5884 40.0967 77.6087C40.094 77.6054 40.093 77.6017 40.0904 77.5984C40.1003 77.6215 40.1107 77.6465 40.119 77.6699C40.1175 77.6645 40.1159 77.659 40.1144 77.6535C40.1179 77.6779 40.122 77.7041 40.1272 77.7282C40.1267 77.7206 40.1262 77.713 40.1257 77.7053C40.124 77.7289 40.1223 77.7524 40.1205 77.776C40.1211 77.7662 40.1233 77.7561 40.1271 77.7457C40.1195 77.7665 40.112 77.7874 40.1061 77.8079C40.112 77.7932 40.1184 77.7803 40.1264 77.7671C40.1147 77.7849 40.1029 77.8027 40.0907 77.8188C40.1013 77.8031 40.1131 77.791 40.1285 77.7802C40.112 77.7932 40.0955 77.8062 40.0791 77.8192C40.0913 77.809 40.1045 77.8024 40.1194 77.7956C40.0998 77.8034 40.0786 77.8115 40.0584 77.8175C40.0706 77.8131 40.0833 77.8106 40.0966 77.8098C40.0749 77.8104 40.0516 77.8112 40.0304 77.8135C40.0389 77.8138 40.0474 77.814 40.0563 77.816C40.0347 77.8107 40.013 77.8055 39.9914 77.8002C40.0004 77.8022 40.0077 77.8046 40.0162 77.8106C39.9961 77.7992 39.9761 77.7878 39.9566 77.7782C39.965 77.7842 39.9729 77.7884 39.9803 77.7966C39.9624 77.7809 39.9445 77.7652 39.9282 77.7491C39.9377 77.7588 39.9477 77.7703 39.9561 77.7822C39.9419 77.7618 39.9277 77.7415 39.9136 77.7212C39.923 77.7366 39.9303 77.7506 39.9387 77.7683C39.9288 77.7452 39.9183 77.7202 39.91 77.6967C39.9173 77.7165 39.923 77.7367 39.9276 77.7589C39.9241 77.7345 39.92 77.7083 39.9148 77.6842C39.9184 77.7144 39.9203 77.7449 39.917 77.7746C39.9187 77.7511 39.9204 77.7275 39.9221 77.704C39.9187 77.7453 39.9095 77.7838 39.8966 77.8213C39.9041 77.8004 39.9116 77.7796 39.9176 77.759C39.8757 77.8777 39.799 77.9686 39.7449 78.0801C39.6732 78.23 39.6351 78.4155 39.7002 78.5977C39.7257 78.6698 39.7639 78.7337 39.825 78.7774C39.8798 78.8166 39.9584 78.8393 40.0162 78.8238C40.0771 78.8076 40.1344 78.7728 40.1617 78.7093C40.1901 78.6436 40.1921 78.5794 40.1767 78.5013C40.168 78.4528 40.1571 78.4028 40.1484 78.3543C40.1361 78.2871 40.0763 78.2122 40.0236 78.1746C39.9688 78.1354 39.8902 78.1126 39.8324 78.1281C39.7715 78.1443 39.7142 78.1791 39.6869 78.2426C39.6537 78.3093 39.6523 78.3753 39.6672 78.4516Z" fill="#1D0932"/>
<path d="M39.7791 79.7515C39.467 79.8141 39.6258 80.3704 39.9378 80.3077C40.2499 80.2451 40.0911 79.6888 39.7791 79.7515Z" fill="#1D0932"/>
<path d="M27.0368 81.3263C26.7587 80.5586 26.4826 79.7924 26.2046 79.0247C26.1538 78.8833 26.0383 78.7782 25.9078 78.806C25.7953 78.8299 25.7038 78.979 25.7546 79.1204C26.0327 79.8881 26.3087 80.6544 26.5868 81.4221C26.6376 81.5635 26.7531 81.6686 26.8836 81.6408C26.9961 81.6169 27.0875 81.4677 27.0368 81.3263Z" fill="#1D0932"/>
<path d="M28.0628 80.6523C28.0507 80.6099 28.0392 80.5694 28.0271 80.5271C27.9259 80.1715 27.4447 80.2684 27.5459 80.6239C27.5579 80.6663 27.5695 80.7068 27.5815 80.7492C27.6828 81.1047 28.164 81.0078 28.0628 80.6523C28.0507 80.6099 28.0392 80.5694 28.0271 80.5271C27.9259 80.1715 27.4447 80.2684 27.5459 80.6239C27.5579 80.6663 27.5695 80.7068 27.5815 80.7492C27.6828 81.1047 28.164 81.0078 28.0628 80.6523Z" fill="#1D0932"/>
<path d="M88.3871 53.8894C88.4063 53.9572 88.425 54.0231 88.4442 54.0908C88.4535 54.1296 88.4714 54.1628 88.495 54.1928C88.5144 54.2257 88.5387 54.2518 88.5693 54.2708C88.5993 54.2937 88.63 54.3069 88.6617 54.3121C88.695 54.3228 88.7279 54.3258 88.7607 54.3172C88.7804 54.3094 88.8016 54.3012 88.8218 54.2952C88.8579 54.2744 88.8862 54.2435 88.9065 54.2026C88.9141 54.1817 88.9216 54.1608 88.9275 54.1403C88.9379 54.0937 88.9339 54.0441 88.9199 53.9947C88.9007 53.927 88.882 53.8611 88.8628 53.7933C88.8535 53.7545 88.8356 53.7214 88.812 53.6913C88.7926 53.6584 88.7683 53.6324 88.7377 53.6134C88.7077 53.5904 88.677 53.5773 88.6453 53.5721C88.612 53.5614 88.5791 53.5583 88.5462 53.5669C88.5266 53.5747 88.5054 53.5829 88.4852 53.5889C88.4491 53.6098 88.4208 53.6406 88.4005 53.6815C88.3929 53.7024 88.3854 53.7233 88.3795 53.7439C88.3712 53.792 88.3747 53.8397 88.3871 53.8894Z" fill="#1D0932"/>
<path d="M88.6717 51.5073C88.3596 51.57 88.5183 52.1263 88.8304 52.0636C89.1425 52.0009 88.9837 51.4446 88.6717 51.5073Z" fill="#1D0932"/>
<path d="M87.6297 53.0852C87.6697 53.0051 87.6799 52.9096 87.6558 52.8131C87.648 52.7797 87.6327 52.7438 87.6157 52.7141C87.5983 52.6826 87.5765 52.6539 87.5526 52.6295C87.4648 52.542 87.3507 52.487 87.24 52.486C87.1619 52.4861 87.1116 52.4943 87.0435 52.5236C86.992 52.5456 86.9522 52.5848 86.9214 52.6319C86.8756 52.6976 86.8565 52.7735 86.8565 52.8631C86.8578 52.9095 86.8667 52.9584 86.8782 53.0047C86.8902 53.053 86.9108 53.1014 86.9314 53.144C86.9975 53.2806 87.1193 53.3924 87.2365 53.4759C87.2999 53.5196 87.3666 53.5568 87.4327 53.5922C87.5393 53.6506 87.661 53.5949 87.7342 53.5237C87.7751 53.4824 87.8064 53.4196 87.818 53.3589C87.8313 53.2861 87.8241 53.2252 87.8096 53.1503C87.7991 53.1017 87.7764 53.0518 87.7532 53.0058C87.7294 52.958 87.6964 52.914 87.6646 52.8737C87.6301 52.83 87.5891 52.7935 87.5476 52.761C87.5081 52.7299 87.4618 52.7042 87.4169 52.6899C87.3502 52.6702 87.3202 52.6665 87.256 52.6736C87.2228 52.6764 87.1923 52.6884 87.1644 52.7037C87.1065 52.7329 87.0591 52.7872 87.0293 52.8497C87.0001 52.9081 86.9938 52.9873 87.0142 53.0591C87.0336 53.1273 87.0824 53.2031 87.1405 53.2401C87.2007 53.2787 87.2707 53.3035 87.3339 53.2869C87.3971 53.2703 87.4513 53.2341 87.4811 53.1716C87.4843 53.1651 87.4892 53.1583 87.4924 53.1518C87.4805 53.1697 87.4687 53.1877 87.4563 53.2038C87.4622 53.1949 87.4687 53.1877 87.4756 53.1824C87.459 53.1955 87.4423 53.2086 87.4257 53.2217C87.4327 53.2164 87.4396 53.2111 87.4493 53.2091C87.4295 53.217 87.408 53.2252 87.3877 53.2313C87.3952 53.2278 87.4032 53.2262 87.4118 53.2264C87.3898 53.227 87.3663 53.2278 87.3449 53.2302C87.355 53.2301 87.3641 53.2321 87.3748 53.2339C87.3529 53.2286 87.331 53.2232 87.3091 53.2179C87.3219 53.2211 87.3337 53.2266 87.3454 53.232C87.3251 53.2205 87.3049 53.209 87.2851 53.1993C87.3033 53.2093 87.3203 53.2215 87.3363 53.2358C87.3182 53.22 87.3001 53.2041 87.2836 53.188C87.3065 53.2087 87.3245 53.2304 87.3421 53.256C87.3277 53.2356 87.3134 53.2151 87.2991 53.1946C87.3161 53.2184 87.3298 53.2429 87.3409 53.2699C87.3309 53.2466 87.3203 53.2215 87.3119 53.1979C87.3193 53.2178 87.3266 53.2377 87.3292 53.2586C87.3256 53.234 87.3215 53.2076 87.3163 53.1833C87.3183 53.1966 87.3183 53.2083 87.3182 53.22C87.3199 53.1962 87.3217 53.1725 87.3234 53.1488C87.3228 53.1587 87.3206 53.1688 87.3168 53.1793C87.3244 53.1583 87.332 53.1373 87.338 53.1166C87.3353 53.125 87.3321 53.1315 87.3272 53.1383C87.3391 53.1203 87.3509 53.1024 87.3633 53.0862C87.3585 53.0931 87.3531 53.098 87.3461 53.1033C87.3628 53.0902 87.3794 53.0772 87.3961 53.0641C87.388 53.0715 87.3773 53.0756 87.3666 53.0797C87.3864 53.0718 87.4079 53.0636 87.4282 53.0576C87.4234 53.0586 87.4191 53.0614 87.4143 53.0623C87.4581 53.0672 87.5019 53.072 87.5469 53.0746C87.5426 53.0716 87.5389 53.0704 87.533 53.0677C87.5532 53.0792 87.5735 53.0907 87.5932 53.1003C87.5165 53.0574 87.4419 53.0101 87.3737 52.9498C87.3918 52.9656 87.4099 52.9814 87.4264 52.9976C87.3945 52.969 87.3652 52.9378 87.3398 52.9021C87.3541 52.9226 87.3684 52.9431 87.3827 52.9635C87.3658 52.9397 87.3515 52.9134 87.3404 52.8864C87.3504 52.9097 87.361 52.9348 87.3694 52.9584C87.3594 52.9351 87.3531 52.913 87.3495 52.8884C87.3531 52.913 87.3572 52.9395 87.3624 52.9637C87.3588 52.945 87.3584 52.9256 87.3579 52.9062C87.3562 52.9299 87.3545 52.9537 87.3527 52.9774C87.3528 52.9657 87.355 52.9555 87.3593 52.9468C87.3517 52.9678 87.3441 52.9888 87.3381 53.0095C87.3424 53.0009 87.3451 52.9925 87.3511 52.9835C87.3392 53.0015 87.3273 53.0195 87.315 53.0356C87.3209 53.0266 87.3273 53.0195 87.3359 53.0139C87.3193 53.0269 87.3026 53.04 87.286 53.0531C87.2972 53.045 87.309 53.0387 87.3225 53.0321C87.3026 53.04 87.2812 53.0482 87.2608 53.0543C87.278 53.0489 87.2972 53.045 87.3154 53.0433C87.2935 53.0438 87.27 53.0447 87.2486 53.047C87.2705 53.0465 87.2946 53.0475 87.317 53.0547C87.2951 53.0493 87.2732 53.044 87.2513 53.0387C87.2678 53.0431 87.2833 53.0498 87.2993 53.0582C87.2791 53.0467 87.2588 53.0352 87.2391 53.0256C87.2492 53.0313 87.2577 53.0374 87.2668 53.0453C87.2487 53.0295 87.2306 53.0136 87.2141 52.9975C87.221 53.0039 87.2258 53.0088 87.2316 53.0173C87.2173 52.9968 87.203 52.9764 87.1886 52.9559C87.1918 52.9611 87.195 52.9663 87.1982 52.9715C87.1881 52.9482 87.1776 52.923 87.1692 52.8994C87.1707 52.9049 87.1723 52.9105 87.1744 52.9178C87.1708 52.8933 87.1667 52.8668 87.1615 52.8426C87.1614 52.8484 87.1635 52.8558 87.1619 52.8619C87.1636 52.8382 87.1654 52.8145 87.1671 52.7908C87.166 52.7988 87.1649 52.8068 87.1622 52.8151C87.1698 52.7941 87.1774 52.7731 87.1834 52.7525C87.1817 52.7586 87.1785 52.7651 87.1747 52.7698C87.1455 52.8282 87.1397 52.9093 87.1596 52.9792C87.179 53.0474 87.2278 53.1233 87.2859 53.1602C87.3461 53.1988 87.416 53.2236 87.4793 53.207C87.5457 53.1839 87.5983 53.148 87.6297 53.0852Z" fill="#1D0932"/>
<path d="M86.2895 46.8748C86.3087 46.9425 86.3274 47.0084 86.3466 47.0762C86.3559 47.115 86.3737 47.1481 86.3974 47.1782C86.4168 47.2111 86.441 47.2371 86.4716 47.2561C86.5017 47.2791 86.5323 47.2922 86.5641 47.2974C86.5974 47.3081 86.6302 47.3112 86.6631 47.3026C86.6827 47.2948 86.704 47.2866 86.7241 47.2806C86.7603 47.2597 86.7885 47.2289 86.8089 47.188C86.8164 47.1671 86.8239 47.1462 86.8299 47.1256C86.8402 47.079 86.8363 47.0295 86.8222 46.9801C86.803 46.9123 86.7843 46.8464 86.7651 46.7787C86.7558 46.7399 86.738 46.7067 86.7143 46.6767C86.6949 46.6438 86.6707 46.6177 86.6401 46.5987C86.61 46.5758 86.5794 46.5626 86.5476 46.5574C86.5143 46.5467 86.4815 46.5437 86.4486 46.5523C86.429 46.5601 86.4077 46.5683 86.3876 46.5743C86.3514 46.5951 86.3232 46.626 86.3028 46.6669C86.2953 46.6878 86.2878 46.7087 86.2818 46.7292C86.2736 46.7773 86.2754 46.8254 86.2895 46.8748Z" fill="#1D0932"/>
<path d="M84.7088 43.5161C84.3967 43.5788 84.5555 44.1351 84.8675 44.0724C85.1796 44.0097 85.0208 43.4534 84.7088 43.5161Z" fill="#1D0932"/>
</svg>
