<svg xmlns="http://www.w3.org/2000/svg" viewBox="0 0 547.62 684.89"><defs><style>.cls-1{fill:#fff;stroke: #fff;}.cls-2{fill:#6c43bf;}.cls-3,.cls-4{fill:#ffffa5;}.cls-4,.cls-5{fill-rule:evenodd;}.cls-5{fill:#1a082c;}</style></defs><g id="Layer_2" data-name="Layer 2"><g id="Layer_1-2" data-name="Layer 1"><path class="cls-1" d="M345.31,61.34c0,33.91-26.6,61.34-59.32,61.34s-59.32-27.42-59.32-61.34S253.27,0,286,0,345.31,27.55,345.31,61.34Zm155.06,0c0,33.91-26.6,61.34-59.32,61.34s-59.32-27.42-59.32-61.34S408.33,0,441.05,0,500.37,27.55,500.37,61.34ZM130.93,122.68c-32.73,0-59.32-27.43-59.32-61.34S98.2,0,130.93,0s59.32,27.43,59.32,61.34S163.65,122.68,130.93,122.68Z"/><path class="cls-1" d="M270.71,270.84c-5.17-4.18-10.38-8.32-15.56-12.48-4.25-3.39-8.48-6.8-12.62-10.33a84.77,84.77,0,0,1-8.26-7.7l-.37-.41-1.29-2a37,37,0,0,0,1.9-3.9,25.93,25.93,0,0,0,2.39-11.29,14.15,14.15,0,0,0-3.65-9,10.54,10.54,0,0,0-5.06-3.05l-.18,0a10.48,10.48,0,0,0-4-.25,29.57,29.57,0,0,0-7.85,2.46h-.09a7.55,7.55,0,0,0-1.89.5,2.09,2.09,0,0,1-.3-.14c.11-.34-.21-.76-.42-1-.46-.64-.95-1.27-1.44-1.89-.79-1-1.58-2-2.39-3h0s0-.07,0-.11l-.12-.07L207,204c-4.18-5.14-8.39-10.24-12.5-15.43a83.82,83.82,0,0,0-5.93-7l-.49.19-.57.24a259.94,259.94,0,0,0-27.61,13.32,3.75,3.75,0,0,1-.44.24l-.67.39a34.14,34.14,0,0,0,1.43,9.83A43.24,43.24,0,0,0,166,218.09v.06l.09.08a0,0,0,0,1,0,0l.16.23c.67.95,1.38,1.88,2.11,2.78a.45.45,0,0,0,.26.17l-.07.14a1.17,1.17,0,0,1-1.58.36,4.87,4.87,0,0,1-1-.63c0,.26,0,.53.05.79a15.42,15.42,0,0,0-2.46.24,52.55,52.55,0,0,0-10.77,1,28,28,0,0,0-8.29,3.3h-.05l-.1.09a43.32,43.32,0,0,0-8.5,6.77c-4.71,4.69-8.77,10-13.63,14.53s-11,8.62-11.9,15.81c-.06.47-.09.93-.11,1.4v.68a.86.86,0,0,1,0,.16c0,.11,0,.22,0,.32a18.65,18.65,0,0,0,2.29,7.72h0l.1.24h0a29.19,29.19,0,0,0,5.28,6.83c.67.65,1.37,1.27,2.09,1.85l.21.32a8.14,8.14,0,0,1,1,2.12,25.36,25.36,0,0,0,.42,7.39,51,51,0,0,0,6.12,16.48,2.45,2.45,0,0,0,.22.54c1,1.84,2.16,3.62,3.36,5.34,3.29,5,7,9.84,10.31,14.68.13.17.25.35.37.53l.3.58.34.35c.57.85,1.14,1.7,1.69,2.56a27.5,27.5,0,0,1,1.07,2.64,21.71,21.71,0,0,1,1.21,6.38,40.58,40.58,0,0,1-.85,8.07,38.79,38.79,0,0,0-.77,7.83,20.29,20.29,0,0,0,1.52,6.68,19.07,19.07,0,0,0,4.49,7c.06-.16.13-.33.19-.5s.17-.44.25-.65A145.49,145.49,0,0,1,171,336.23c.56-.74,1.13-1.48,1.7-2.21A145.17,145.17,0,0,1,190,315.53l1.38-1.22a144.72,144.72,0,0,1,21.88-15.85h0l1-.61.3-.17h0a143.18,143.18,0,0,1,17.14-8.4l.05,0,.28-.12.2-.07h0l.7-.28.05,0c4.16-1.66,8.42-3.14,12.77-4.41,1.36-.41,2.73-.79,4.11-1.15l.18,0,.05,0,.59-.15.16,0,.09,0,.52-.13h0a145.91,145.91,0,0,1,25.4-4l1.69-.11.77,0,.86,0Q275.47,274.68,270.71,270.84Z"/><path class="cls-1" d="M547,405.9c9.83,144-98.7,268.57-242.45,278.38s-268.2-98.9-278-242.86A261.26,261.26,0,0,1,158.76,195.94a34.84,34.84,0,0,0,1.43,9.83A43.66,43.66,0,0,0,166,218.09v.06l.09.08a0,0,0,0,1,0,0l.16.23c.67.95,1.37,1.88,2.11,2.78a.45.45,0,0,0,.26.17l-.07.14a1.17,1.17,0,0,1-1.58.36,4.87,4.87,0,0,1-1-.63c0,.26,0,.53.05.79a15.42,15.42,0,0,0-2.46.24,52.55,52.55,0,0,0-10.77,1,28,28,0,0,0-8.29,3.3h-.05l-.1.09a43.32,43.32,0,0,0-8.5,6.77c-4.71,4.69-8.77,10-13.63,14.53s-11,8.62-11.9,15.81a13.2,13.2,0,0,0-.11,1.4v0c0,.22,0,.44,0,.66a.86.86,0,0,0,0,.16c0,.11,0,.22,0,.32a18.65,18.65,0,0,0,2.29,7.72h0l.1.24h0a28.93,28.93,0,0,0,5.28,6.83c.67.65,1.37,1.27,2.09,1.85l.21.32a8.48,8.48,0,0,1,1,2.12,25,25,0,0,0,.42,7.39,51,51,0,0,0,6.12,16.48,2.45,2.45,0,0,0,.22.54c1,1.84,2.16,3.62,3.36,5.34,3.29,5,6.95,9.84,10.31,14.68.13.17.25.35.37.53l.29.58.35.35c.57.85,1.14,1.7,1.69,2.56a27.5,27.5,0,0,1,1.07,2.64,22,22,0,0,1,1.21,6.38,40.58,40.58,0,0,1-.85,8.07,38.79,38.79,0,0,0-.77,7.83,20,20,0,0,0,1.52,6.68,19.07,19.07,0,0,0,4.49,7,145.28,145.28,0,0,0,128.69,196h.38c.25,0,.49,0,.74,0a144.88,144.88,0,0,0,124.81-62l.41-.6.3-.43a144.68,144.68,0,0,0,24.94-91.79c-5.38-78.86-72.69-138.69-151.14-135.1q-4.71-3.9-9.47-7.74c-5.18-4.18-10.38-8.32-15.57-12.48-4.24-3.4-8.48-6.8-12.61-10.33a84.77,84.77,0,0,1-8.26-7.7l-.37-.41-1.29-2a40.11,40.11,0,0,0,1.9-3.9,25.92,25.92,0,0,0,2.38-11.29,14.14,14.14,0,0,0-3.64-9,10.51,10.51,0,0,0-5.06-3.05l-.18,0a10.48,10.48,0,0,0-4-.25,29.57,29.57,0,0,0-7.85,2.46h-.09a7.44,7.44,0,0,0-1.89.5,2.09,2.09,0,0,1-.3-.14c.1-.34-.21-.76-.42-1-.46-.65-.95-1.27-1.44-1.89-.79-1-1.58-2-2.39-3h0s0-.07,0-.1a.42.42,0,0,1-.12-.08L207,204c-4.18-5.14-8.39-10.24-12.5-15.43a83.82,83.82,0,0,0-5.93-7A259.91,259.91,0,0,1,269,163C412.73,153.23,537.18,261.93,547,405.9Z"/><path class="cls-2" d="M431.33,409.41c0,.25,0,.49,0,.73A145,145,0,0,1,367.52,534c-.2.15-.41.28-.61.42a78,78,0,0,0-6.73-7.45c-1.37-2-2.44-4.1-4.16-5.8a.93.93,0,0,0-.8-.31c-3.65-5.12-7.65-10-11.36-15.13-.16-.12-.32-.23-.47-.36-1.35-1.14-2.66-2.3-3.95-3.47a28.58,28.58,0,0,0-3.94-5.6,1,1,0,0,0-.63-.34,78.91,78.91,0,0,0-7.52-9.11c-.34-.33-.77-2-1.1-1.91a42.77,42.77,0,0,0-4.86-6.7c-4.16-4.06-7.07-8.79-11.22-12.86.49-.41.06-.87-.55-1.44-2-1.86-3.62-4-5.4-6a21.31,21.31,0,0,0-3.81-3.72,5.72,5.72,0,0,0-.67-.41l-.08-.05a1,1,0,0,0-1.43.46l0,0c-4.14,3.43-8.22,6.94-12.35,10.38L264,484c-1.5.48-11.2,7-12.14,8.2a130.54,130.54,0,0,0-12.95,3.28,1.09,1.09,0,0,0-.48.29c-.73.09-1.83-.46-2.56-.35-1.35.19-2.71.42-4.06.57-.56,0-1.14.08-1.7.17-4.75-.42-9.21-1.37-12.46-4.8-.78-.29-1.53-.61-2.27-1-2.31-1.09-3.22-2.83-4.42-4.85-2-1.22-2.07-3.34-3.15-5.35l-.13-.08c-.22-.14-.45-.27-.67-.42l-.38-.09c-8.58-2.12-18.72-4.19-27.25-6.31a10.69,10.69,0,0,1-1.88.31c-2.44-1.08-7.18-3.14-9.83-2.89-1.43-.58-3.67-.92-4.78-2.08a22.66,22.66,0,0,1-2.23-2.65c-2.41-1.72-2.21-2.93-3.3-5.71l-.38-.29c-1.81-1.78-1.21-6.6-2-9l-.09-.6c0-.26-.09-.53-.13-.79a3.1,3.1,0,0,0-.54.24h0c-1.51.78-3.6,2.73-5,2.79a13.19,13.19,0,0,1-2.55-.12,19.89,19.89,0,0,1-5.38-1.82,12.23,12.23,0,0,1-3.51-2.6c-1.82-1.88-4.68-3.5-5.35-6.06,0-.06,0-.12-.05-.18a6.73,6.73,0,0,1-1.18-2.81,3.9,3.9,0,0,0-.64-1.25l-.08-.09c-.47-.52-.94-1-1.42-1.54a1.17,1.17,0,0,0-.06-.44,20.66,20.66,0,0,0-5.78-8,10.31,10.31,0,0,0-2.92-1.82l-.24-.1c-1.12-.46-2.37-.86-3.91-1.52a15.22,15.22,0,0,0-2.33-1.28,68.82,68.82,0,0,0-8.74-2.87,46.08,46.08,0,0,1-4.44-1.49l-.2-.09h0c-3.93-.43-6.54-2.19-10.23-3.83a32.93,32.93,0,0,1-4-2.15A13.59,13.59,0,0,1,82.53,410c-.21-.19-.4-.39-.6-.59-1.56-1.36-3.65-2.51-4.84-4.16a4.82,4.82,0,0,1-1.31-.87,5.67,5.67,0,0,1-.58-.62c-.67-.84-1.13-1.82-1.73-2.74l-.18-.27h0l-.48,0-.43,0a2.64,2.64,0,0,0-1-1.59h0a2.32,2.32,0,0,0-.31-.19,4.24,4.24,0,0,0-.5-.18,19.07,19.07,0,0,0-3.19-.32c-1.93-.16-3.86-.55-5.77-.55h-.21l-.45-.2c-3.08-1.39-5.52-3.55-8.36-5.87A12.58,12.58,0,0,1,48.35,385h0a11.93,11.93,0,0,1-.27-1.45,15.15,15.15,0,0,1,.3-5.61,14.71,14.71,0,0,1,.88-2.57c0-1.28.9-3.15.85-4.5a1.33,1.33,0,0,0,.26-.47,26.4,26.4,0,0,0,.68-5.65c.86-1.49.73-2.93.74-5,.05-6.69,1.77-12.11,2.93-18.73l.17-.11.14-.14a15.55,15.55,0,0,0,3.24-6.32l0-.08a8.46,8.46,0,0,0,.81-.78c1-1.07,1.89-2.41,3.27-3.06a2.81,2.81,0,0,0,1-1.23,2.28,2.28,0,0,1,1.05-1.16.67.67,0,0,1,.52-.44c.4-.09.9,0,1.13-.49.12-.25.26-.49.4-.73a12.8,12.8,0,0,1,1.36-1.79l.16-.17a16.14,16.14,0,0,1,1.84-1.65l-.51-.61a4.93,4.93,0,0,0,1.16-.06,1.18,1.18,0,0,0,1.06-1.23l0-.15a1.14,1.14,0,0,0-1.2-.9,8.89,8.89,0,0,1-2.72-.17h-.13l0-.05-.63-1C59.56,316,53,311.8,48.8,305.39a27.86,27.86,0,0,1-3.75-8.84c-2.94-12.47,7.58-22.39,18.64-19.23a15.17,15.17,0,0,1,1.86.64c.36.15.55,0,.91.12.76-.58,2.63.86,3.47.43l.23.17,2.62,1,2.79.31a13.11,13.11,0,0,0,3.16.91c1.79.92,3,.63,5,1.53a40,40,0,0,0,5,1.82c.43.12.85.23,1.28.33h0a18.22,18.22,0,0,0,6,.42h.15l.08.07h0a1,1,0,0,0,.3.17,33.28,33.28,0,0,0,6.26,2.07,1.51,1.51,0,0,0,.37,0l.32-.06a2.69,2.69,0,0,0,.45-.16l.09-.05,0,0a3.78,3.78,0,0,0,.43-.26c.56-.38,1-.9.89-1.28v0a.31.31,0,0,0-.06-.13s0,0,.1.07v0c.13.15.32.42.34.37a2,2,0,0,0-.12-.55l-.06-.2,0-.14v-.11l.19-.14a11.32,11.32,0,0,0,3.27-4.05,1.86,1.86,0,0,0,.1-.25l.57-.44a16.59,16.59,0,0,1,3.83-2.42h0a8.72,8.72,0,0,1,5.67-.19,15.47,15.47,0,0,1,3,1.07,15,15,0,0,1,6.07,5.51c.14.23.29.47.43.72a18.86,18.86,0,0,1,1,1.9,30.67,30.67,0,0,1,1.84,5.21,13,13,0,0,1,.2,3.62l0,.32a.28.28,0,0,1,0,.09h0l.12.05.9.34.15,0,2.21.84,4,1.51c10.23,1,21.07.83,31.29,1.84.49-.43,1.79.49,2.5.16s1.94,0,2.75-.24a1,1,0,0,0,.56.16,97.59,97.59,0,0,0,9.82.2,1.07,1.07,0,0,0,1,.56c2.52-.12,5,0,7.56.09l2.21.1c3.1.55,5.75.48,8.68,1.12.39.08.79.18,1.18.29,1.49.12,2.87.1,4.23.12H211a23.68,23.68,0,0,1,4.31.37h0l.92.22,1.23,0h.92a8.26,8.26,0,0,1,2.91.08l1.46.17c3.48,0,7.22.36,10.78.44.66,0,1.31,0,1.95,0a14.9,14.9,0,0,1,6.23,1.18,12.39,12.39,0,0,1,2.7,1.57l.07.06.42,0c6.73.48,12.46.79,18.11,3.79,3.49.88,6.53,1.44,9.76,3,1.62-.2,3.14,1.09,4.78,1.22.08.27.91.16,1.22.32a29.24,29.24,0,0,0,3.49,1.76c.85.76,1.73,1.46,2.64,2.13,2.57,1.89,5.3,3.48,8,5.25a53.29,53.29,0,0,1,5.76,4.2c1.14,2.16,3.68,3.56,4.44,5.9a123,123,0,0,0,11.14,10c2.45.74,4.85,1.33,7.19,1.9h0l1.66.41c4.78,1.18,9.25,2.44,13.18,5,2.29.16,4.48,2.29,6.66,3.92,0,.32.7.31,1,.6a51.62,51.62,0,0,1,7.82,11.08s0,0,0,0c.11.2.21.38.31.58a.59.59,0,0,0,0,.13,1,1,0,0,0,.32.87l.09.06h0l.22.13.06,0a1.2,1.2,0,0,0,.84.37l1.33.6a1.13,1.13,0,0,0,.49.41c3,1.36,5.88,3.17,8.84,4.7l1.28,1.19,1.89,1.23c3.56,2.28,6.89,4.15,10.19,5.88,6.13,3.21,12.11,6,19.14,10.07a3.24,3.24,0,0,1,.9-.28,1.2,1.2,0,0,0,.45.41c2.34,1.22,5.36,3,7.89,3.67,1.49,1,3,2,4.45,2.79C416.93,403.86,424.51,406.18,431.33,409.41Z"/><path class="cls-3" d="M107.88,284.83a1.54,1.54,0,0,0-1.13.54,6.36,6.36,0,0,0-1.75,1.69h0l-.3.42a2.06,2.06,0,0,0-.28,1,2.2,2.2,0,0,0-1,1.22c-2.69,3-5.26,6.18-7.68,9.46a12.12,12.12,0,0,0-2.13,3.3A5.05,5.05,0,0,0,94,306c.49,1.26.15,3,.89,4-.93,2.14,1.16,3.78,2.45,5.26,1.83,2.11,6.76,5,9.44,2.63a2.69,2.69,0,0,0,1.59-.72,14.69,14.69,0,0,0,1.86-2.72l1.94-3c2.62-4.12,4.62-8.16,5-13.18.29-4.07-.44-9-3.27-11.77a5.93,5.93,0,0,0-.56-.43A5.22,5.22,0,0,0,107.88,284.83Z"/><path class="cls-3" d="M170.21,321.62a2,2,0,0,0-.66.64l-2.34.19a17.23,17.23,0,0,0-4.64-.58,10.35,10.35,0,0,0-2.84-.43,5.83,5.83,0,0,0-2.38.5,3.63,3.63,0,0,0-2.84.83c-.84.75-.33,1.3-.1,2.22-.57,1-.49,2-.21,3.4s-.13,3.56,1.08,4.6a5.5,5.5,0,0,0,4.3,3.38c.45.09-.08.65.36.65.23.67,1.58.41,2.39.55,3,.5,5.49-.73,8-2.06,1.15-.61,2.7-.39,3.66-1.2a5,5,0,0,0,.93-.37,7.62,7.62,0,0,0,2.35-2c.71-.46.92-1.74,1.23-2.57a5,5,0,0,0,0-2.37c-.74-2.66-1.08-2.29-1.91-4.82C174.58,322.4,172.08,320.61,170.21,321.62Z"/><path d="M300.49,452.6l.37.44,2.17,2.6q10.14,12.23,20.12,24.6c6.6,8.14,13.18,16.3,19.82,24.42s13.53,16.45,20.43,24.57c1.37,1.61,2.74,3.22,4.12,4.81l-.61.42-.32.21c-2.07-2.41-4.13-4.84-6.19-7.26Q350,515.13,339.88,502.63q-10-12.3-20-24.65-9.67-11.94-19.48-23.75l-.46-.56-.36-.43a.47.47,0,0,1,.06-.69l.11-.08A.57.57,0,0,1,300.49,452.6Z"/><path d="M319.42,441.06a144.17,144.17,0,0,0-34.1,22.83C275.24,473,266,483.36,254,490c-8.68,4.75-19.39,6.9-29.1,4.36a24.76,24.76,0,0,1-12.35-7.38c-4.47-5.05-6.64-11.61-8.9-17.84-4-10.93-7.86-22-9.95-33.47a86.72,86.72,0,0,1-1.51-16.94,65.91,65.91,0,0,1,.72-8.76,23.49,23.49,0,0,1,2.62-8.34,17.82,17.82,0,0,1,7-6.35c3-1.69,6.25-3,9.39-4.44L231,382.14c4.53-2.06,9.31-4.19,14.36-4.38a12.24,12.24,0,0,1,12.3,7.88c2.52,5.78,2.38,12.38,2.63,18.55.13,3.11.39,6.24.3,9.35-.08,2.54-.48,5.33-2.19,7.33-3.08,3.62-8.13,2.24-11.49-.18a17.71,17.71,0,0,1-4.79-5.26c-1.65-2.72-3-5.63-4.59-8.35a19.3,19.3,0,0,0-6-6.58c-.6-.38-1.3.48-.7.86,5.69,3.59,7.45,10.48,11,15.76,2.45,3.61,6.68,6.89,11.19,7.09a7.59,7.59,0,0,0,5.86-2.28c1.85-1.89,2.5-4.6,2.69-7.16a79.1,79.1,0,0,0-.17-9.11c-.14-3.41-.19-6.82-.49-10.22-.51-5.8-1.85-12.47-6.8-16.19-4.17-3.13-9.48-3-14.3-1.72a50.73,50.73,0,0,0-7.13,2.61c-3.14,1.38-6.24,2.83-9.37,4.24l-9.93,4.52c-3.17,1.44-6.38,2.81-9.5,4.36a23.68,23.68,0,0,0-8,5.82,19.36,19.36,0,0,0-3.65,8.21,64.36,64.36,0,0,0-1,17.58c.76,11.9,4.05,23.5,7.88,34.74,1,2.82,2,5.63,3,8.44,1.13,3.1,2.22,6.22,3.49,9.26,2.41,5.71,5.72,11.07,11,14.52,8.53,5.58,19.59,5.6,29.08,2.78,12.53-3.72,22.44-12.95,31.7-21.74,5.11-4.86,10.21-9.72,15.75-14.1a141.76,141.76,0,0,1,17.62-11.91c3-1.71,6-3.29,9.1-4.78C320.44,441.79,320.06,440.75,319.42,441.06Z"/><path d="M241.59,415.85c-.07,0-.16-.05-.2,0s.07-.15,0,0,0,.17.06.24a5.57,5.57,0,0,1,.11,1c0,.65,0,1.3.14,1.95l1,7.11q1,7,2,14.07c1.11,8,2.13,16.49-1.3,24a17.89,17.89,0,0,1-8.74,9.21c-.65.29-.27,1.33.39,1a18.61,18.61,0,0,0,8.66-8.38,28,28,0,0,0,3.1-12.06,73.3,73.3,0,0,0-.89-13.15c-.67-4.89-1.37-9.78-2-14.67-.2-1.4-.4-2.8-.59-4.2-.18-1.24-.42-2.5-.52-3.75-.06-.93.19-4-1.52-3.46C240.52,415,240.91,416.05,241.59,415.85Z"/><path d="M247.05,442.73c6.9,1,14.63,2.22,19.34,7.95A12.42,12.42,0,0,1,269,455.8c.15.69,1.26.59,1.1-.1a15,15,0,0,0-6.1-8.77,26.93,26.93,0,0,0-10.31-4.2c-2.12-.46-4.28-.78-6.42-1.09A.55.55,0,0,0,247.05,442.73Z"/><path d="M207.19,479.6l-29.05-6.81c-4.24-1-8.72-1.75-12.66-3.69a16.12,16.12,0,0,1-7.67-8.19,38.55,38.55,0,0,1-2.47-11.12c-.42-3.92-.65-7.86-1.33-11.75a46.09,46.09,0,0,0-4.17-12.27c-2-4.07-4.31-8-6.32-12-3.21-6.49-5.61-14-4-21.28a16.53,16.53,0,0,1,6-9.42,45.8,45.8,0,0,1,5.9-3.73l6.46-3.59,26.17-14.54,13.08-7.27,6.49-3.6a35.76,35.76,0,0,1,6-2.9,11.26,11.26,0,0,1,10.1,1.61,32.39,32.39,0,0,1,7.36,7.6,56.8,56.8,0,0,1,3.32,4.94c.82,1.39,1.55,2.82,2.32,4.24a46,46,0,0,0,2.73,4.44c.6.85,1.31,1.64,1.85,2.53a7.74,7.74,0,0,1,1,2.55,9,9,0,0,1,.21,2.07,4.18,4.18,0,0,0-.08.68c0,.1-.08,0,0,0s.65-.08.6-.06.08.08.06,0c-.32-.64-1.36-.26-1,.38.2.42.63.81,1.1.48a1.52,1.52,0,0,0,.45-1.17,9.69,9.69,0,0,0-.88-4.74,16,16,0,0,0-1.8-2.69c-.59-.8-1.16-1.63-1.69-2.48-.89-1.41-1.68-2.89-2.46-4.36a59.88,59.88,0,0,0-6.35-9.56c-2.26-2.77-4.87-5.47-8.14-7a12,12,0,0,0-4.94-1.19,14.05,14.05,0,0,0-6.12,1.49c-2.17,1-4.25,2.25-6.34,3.41l-6.8,3.78-27.2,15.11L153.25,377c-4.16,2.31-8.69,4.52-11.66,8.38-4.56,5.94-4.27,14.05-2.25,20.91,2.53,8.65,8.17,15.94,11.44,24.28a47.41,47.41,0,0,1,2.8,12.6c.43,4.11.66,8.26,1.48,12.31a22.68,22.68,0,0,0,4.46,10.31c2.76,3.28,6.62,5,10.67,6.15,4.75,1.33,9.61,2.31,14.41,3.44L199.7,479l7.32,1.72C207.71,480.85,207.89,479.76,207.19,479.6Z"/><path d="M323,347.85a.56.56,0,0,1-.35,0l-1.2-.26h0a25.59,25.59,0,0,1-4.52-1.53h0l-.79-.37a42.42,42.42,0,0,1-11.5-8.7c-1.73-1.76-3.37-3.61-4.95-5.5-1-1.21-2-2.47-3.09-3.62a36.66,36.66,0,0,0-3.68-3.37,51.71,51.71,0,0,0-8-5.25l-1.33-.7a99.53,99.53,0,0,0-17.67-6.8,196,196,0,0,0-20.84-4.7l-.17,0-.48-.09c-7.3-1.25-14.65-2.2-22-3-1.64-.17-3.29-.33-4.94-.48l-2.15-.2h0L211,303h-.08c-1.81-.15-3.61-.28-5.41-.41q-3-.23-6-.4c-1.85-.12-3.69-.23-5.54-.33-5.4-.3-10.8-.55-16.2-.79-6.39-.27-12.78-.51-19.17-.79-5.07-.24-10.14-.48-15.2-.93a52.39,52.39,0,0,1-9.81-1.5c-.68-.2-.51-1.3.17-1.09.43.12.86.23,1.29.32l.53.12a86.26,86.26,0,0,0,11.22,1.31c5.42.39,10.85.63,16.29.86,6.64.28,13.28.53,19.92.83q6.12.29,12.22.63c3.31.19,6.61.39,9.92.63,7.68.54,15.36,1.22,23,2.12l5.34.67q4.09.56,8.18,1.2c2.93.47,5.85,1,8.76,1.56a167.46,167.46,0,0,1,20.2,5.15,85.15,85.15,0,0,1,16.75,7.32,44.8,44.8,0,0,1,12.14,10.21c5.83,7.11,12.87,14.7,22.14,16.91h0c.37.09.76.17,1.14.24a.47.47,0,0,1,.27.14A.58.58,0,0,1,323,347.85Z"/><path d="M182.84,391.75a25.57,25.57,0,0,0,8.9,12.87c.57.43,1.27-.43.7-.87a24.47,24.47,0,0,1-8.56-12.38C183.67,390.68,182.64,391.07,182.84,391.75Z"/><path d="M200.23,460.48q-4.12-2.3-8.46-4.17c.1.24.19.49.28.73a81,81,0,0,0,3.48-12.68.55.55,0,0,0-1.09-.18,79.68,79.68,0,0,1-3.4,12.41.57.57,0,0,0,.28.73c2.88,1.25,5.7,2.65,8.46,4.17C200.4,461.84,200.85,460.82,200.23,460.48Z"/><path d="M359.34,404.05c-2.39-6.24-3-12.92-3.82-19.5s-1.77-13.23-4.77-19.19a33.55,33.55,0,0,0-14.57-14.7c-6.2-3.18-13.24-4.18-20.11-4.62a97.74,97.74,0,0,0-10.55-.28,24,24,0,0,0-10,2.26,16.34,16.34,0,0,0-2.16,1.31.55.55,0,0,0,.64.9c5.66-4.06,13.22-3.56,19.82-3.22s13.63,1,19.89,3.72A32.52,32.52,0,0,1,349,364.33c3.26,5.68,4.43,12.2,5.24,18.61s1.34,13,3.31,19.24c.24.76.5,1.5.79,2.25A.55.55,0,0,0,359.34,404.05Z"/><path d="M127.18,281.49A26,26,0,0,1,132,292c.32,1.37.58,2.75.77,4.15a42.84,42.84,0,0,1,0,10.87c-.12,1-.29,2.05-.49,3.06a42.18,42.18,0,0,1-3.91,11.21s0,.08-.07.13a.45.45,0,0,1-.1.13l-.12.1-.12,0a.65.65,0,0,1-.58-.15.43.43,0,0,1-.12-.17.49.49,0,0,1,0-.42,42,42,0,0,0,2-4.32,41.53,41.53,0,0,0,2.52-19.25,35.79,35.79,0,0,0-2.49-10.18c-1.41-3.38-3.63-6.62-6.89-8.42l-.72-.37c-.3-.14-.61-.27-.92-.38a10.07,10.07,0,0,0-7.13-.22l-.06,0c-2.91,1.11-4.83,3.66-6.46,6.27-.11.16-.21.32-.31.48h0L106,286h0l-.15.26-.07.11-.1.17h0c-.39.65-.78,1.3-1.19,1.94l-.17.26a1,1,0,0,1-.11.17.22.22,0,0,1,0,.08c-1.06,1.68-2.17,3.32-3.32,4.95l-.47.66h0q-3,4.27-6.47,8.26l-.08.1-.13.15h0l-.11.13-.5.57c0,.06-.09.1-.13.15-.36.41-.72.82-1.09,1.22a122.42,122.42,0,0,1-16.68,15.42c-.19.15-.38.3-.58.44q-1.26,1-2.55,1.89c-5.29,3.88-10.76,7.78-14.15,13.5-3.22,5.44-4.3,11.76-5,18-.25,2.29-.45,4.58-.68,6.87,0,.43-.08.87-.13,1.3s-.1,1-.16,1.46c-.13,1.19-.3,2.38-.48,3.56-.14.88-.29,1.75-.46,2.62-.21,1.15-.45,2.29-.71,3.43-.73,3.23-1.5,6.55-1.21,9.88a13.43,13.43,0,0,0,4,8.4c4.48,4.41,11.2,6.18,17.36,6.2h.58a.59.59,0,0,1,.43,1l-.07,0h0l-.15,0-.11,0H70.7c-.6,0-1.19,0-1.79,0-.93,0-1.86-.12-2.78-.25a28.94,28.94,0,0,1-8.31-2.38c-.08,0-.17-.07-.25-.12h0a18.74,18.74,0,0,1-6.42-4.87l-.2-.25a.58.58,0,0,0-.1-.12l-.39-.54v0c-.27-.38-.51-.78-.75-1.19-3.55-6.31-1-13.23.24-19.79s1.36-13.21,2.37-19.77a43.71,43.71,0,0,1,2.84-10.49l.07-.16a28.33,28.33,0,0,1,4.73-7.57A53.62,53.62,0,0,1,68,324.48l.86-.65c3.23-2.4,6.49-4.75,9.57-7.32A123,123,0,0,0,92.33,302.9l1-1.15c.78-.91,1.54-1.84,2.29-2.77q3.8-4.75,7.12-9.88l.42-.67c.27-.43.53-.86.79-1.3l.85-1.43a29.59,29.59,0,0,1,4.86-6.62,10.9,10.9,0,0,1,3.34-2.15l.17-.07a10.63,10.63,0,0,1,5.75-.49A14.18,14.18,0,0,1,127.18,281.49Z"/><path d="M117.69,292.11a13.39,13.39,0,0,1,.39,7.29,30.77,30.77,0,0,1-2.57,7.08c-1.28,2.71-2.6,5.41-4,8.07a10.21,10.21,0,0,1-2.49,3.4,6.27,6.27,0,0,1-1.4.86l-.43.16-.18.06-.15.05a7.62,7.62,0,0,1-.82.22,9.54,9.54,0,0,1-6.6-1.34c-4.74-2.87-6-8.76-6.61-13.9a.28.28,0,0,0,0-.09l-.06-.57a.48.48,0,0,1,.37-.56h0a.67.67,0,0,1,.37,0l.11.06a.21.21,0,0,1,.08.06.1.1,0,0,1,0,.05.45.45,0,0,1,.12.28c0,.15,0,.31,0,.46.1.86.22,1.75.37,2.65h0c.77,4.53,2.37,9.22,6.79,11.17a7.82,7.82,0,0,0,5.5.45,4.59,4.59,0,0,0,.48-.17h0l.06,0h0a5.29,5.29,0,0,0,1.67-1.19h0a12.43,12.43,0,0,0,2-3.2h0l0,0h0l.56-1.16.36-.73c1.06-2.14,2.14-4.27,3.13-6.43a29.56,29.56,0,0,0,1.9-5.24h0c0-.15.07-.31.1-.46v0c.05-.22.09-.44.13-.66s.07-.41.09-.61h0a12.33,12.33,0,0,0-.06-3.74h0a10.6,10.6,0,0,0-.65-2.26,11.84,11.84,0,0,0-4.06-5.09,9.7,9.7,0,0,0-1.52-.91h0a11.56,11.56,0,0,0-1.47-.59l-.59-.17h0a3.36,3.36,0,0,0-1.26-.09,1.54,1.54,0,0,0-.85.32,6.66,6.66,0,0,0-.66.53,2.5,2.5,0,0,0-.24.22l-.37.37h0l-.36.42-.25.3h0a5,5,0,0,0-.38.56,2.92,2.92,0,0,0-.15.33c-.05.14,0,.09,0,.13a.39.39,0,0,1,0,.18.4.4,0,0,1,0,.19.45.45,0,0,1-.11.17.38.38,0,0,1-.16.11h0a.71.71,0,0,1-.22.06.63.63,0,0,1-.27,0h0a.48.48,0,0,1-.26-.25l0-.05,0-.17a.61.61,0,0,1,0-.14,1.59,1.59,0,0,1,.1-.64,4.59,4.59,0,0,1,.24-.5,7.31,7.31,0,0,1,1.23-1.52s.05,0,.07-.07l.25-.25c.17-.17.35-.34.54-.5l.13-.11a4,4,0,0,1,.83-.53,2.72,2.72,0,0,1,.55-.18l.12,0a4.61,4.61,0,0,1,1.77.07,8.81,8.81,0,0,1,1.17.35s0,0,.07,0a12,12,0,0,1,3.13,1.7,13.34,13.34,0,0,1,1.59,1.42h0A13,13,0,0,1,117.69,292.11Z"/><path d="M175.18,321.27l-.15,0a.8.8,0,0,0-.23,0h-.21l-.48,0-2.21,0-7.69.07-1.44,0-4,0H158c-.91,0-1.81,0-2.72,0h-.82l-1.44,0h0l-9.93.07-1.28,0-10.13.05h-4.26c-.69,0-1.39,0-2.09,0a38,38,0,0,0-7.82.83,18.1,18.1,0,0,0-7.22,3.51,19.76,19.76,0,0,0-3.86,4.18c-.43.63-.83,1.26-1.21,1.92a59.81,59.81,0,0,0-4,8.74l-.78,2c-1,2.44-2,4.83-3.12,7.15a53.54,53.54,0,0,1-2.75,4.89c-1.72,2.69-3.62,5.25-5.57,7.76-.75,1-1.5,1.92-2.26,2.87-5.28,6.65-10.89,13.36-14,21.38a34.37,34.37,0,0,0-1.71,6,14,14,0,0,0-.25,5.26s0,0,0,.05a5.54,5.54,0,0,0,.21.8l.09.25a.06.06,0,0,0,0,0c.09.22.18.44.29.65a12.72,12.72,0,0,0,.82,1.37,32.14,32.14,0,0,0,4.1,4.53l.6.57c.71.67,1.45,1.32,2.19,2,1,.85,2,1.65,3.08,2.42a55.57,55.57,0,0,0,8.4,5.06c.43.21.86.4,1.29.6,1.08.5,2.18.95,3.3,1.36l.16.07.22.08.23.08c1.56.57,3.14,1.07,4.73,1.55,2.74.82,5.52,1.56,8.26,2.4.73.22,1.46.45,2.18.69a50.72,50.72,0,0,1,6.09,2.41c.53.25,1,.52,1.55.8.83.46,1.64.95,2.42,1.49a22.26,22.26,0,0,1,4.76,4.43,40.79,40.79,0,0,1,4.09,7,38.43,38.43,0,0,0,4,6.77,20.4,20.4,0,0,0,5.18,4.49,19.34,19.34,0,0,0,7.77,3,10.77,10.77,0,0,0,3.58-.15,8.83,8.83,0,0,0,3.92-2c.19-.16.37-.33.55-.51l.25-.27c.49-.52-.38-1.22-.86-.69l-.09.1a8.57,8.57,0,0,1-7.68,2.3,14,14,0,0,1-2.88-.75,22,22,0,0,1-5.56-3.06,18.74,18.74,0,0,1-4.84-5.35c-.73-1.18-1.37-2.4-2-3.63l-.64-1.25a33.84,33.84,0,0,0-5.17-8.11,23.87,23.87,0,0,0-4.76-3.87c-.18-.11-.36-.23-.54-.33-.37-.23-.74-.44-1.12-.64a37.48,37.48,0,0,0-4.16-1.95c-4.12-1.64-8.42-2.75-12.68-4a81.94,81.94,0,0,1-8-2.71l-1.21-.5-.08,0c-1.36-.59-2.71-1.23-4-1.95a53.76,53.76,0,0,1-12.18-9.06c-.93-.93-1.84-1.88-2.69-2.88l-.55-.67-.2-.27a8.43,8.43,0,0,1-1.3-2.44c-.64-2.15,0-4.66.47-6.78,2-8.18,7-15.12,12.16-21.61,5.24-6.66,10.86-13.21,14.46-21,1.17-2.53,2.14-5.14,3.14-7.73.67-1.73,1.35-3.44,2.11-5.13a38.76,38.76,0,0,1,1.83-3.57,21.35,21.35,0,0,1,4.51-5.57,15.22,15.22,0,0,1,1.69-1.27c3.84-2.47,8.48-2.92,13-3h1.29c3.5,0,7,0,10.51,0,5.64,0,11.26-.08,16.9-.13h1.37l4.23,0,7.32-.07h0l1.33,0h1.26l3.74,0H175l.13,0h0l.09-.05.09-.06.05-.06h0a.48.48,0,0,0,.12-.39.68.68,0,0,0-.14-.31A.62.62,0,0,0,175.18,321.27Z"/><path d="M128.65,358.79a87.61,87.61,0,0,0-.65,17.36c.3,5.77,1.43,12-.72,17.56a11.8,11.8,0,0,1-6,6.77c-.66.29-.27,1.33.38,1,5.54-2.42,7.7-8.69,7.92-14.32a89.3,89.3,0,0,0-.39-9.11c-.2-3-.32-6-.29-9a76,76,0,0,1,.81-10.1A.55.55,0,0,0,128.65,358.79Z"/><path d="M118.1,352.78c4.49,3.54,9.26,7.19,15.09,7.94,5.43.7,10.83-.91,15.87-2.75,3-1.09,6-2.26,9-3.4a96.51,96.51,0,0,0,9.44-3.82,18.29,18.29,0,0,0,7-5.8,22.67,22.67,0,0,0,3.22-7.41,40.33,40.33,0,0,0,1.18-8.25c.1-2.45-.17-5.62-2.26-7.27a4.42,4.42,0,0,0-1.65-.79c-.7-.18-.87.92-.18,1.1,2.52.65,3,3.87,3,6.06a32.32,32.32,0,0,1-.29,3.93,38,38,0,0,1-.65,4,22.81,22.81,0,0,1-2.78,7.26,16.53,16.53,0,0,1-6.19,5.75,67.18,67.18,0,0,1-9,3.76c-2.95,1.12-5.89,2.25-8.84,3.36-4.81,1.81-9.9,3.59-15.11,3.37a19,19,0,0,1-7.64-2,40.71,40.71,0,0,1-6.92-4.55l-1.65-1.29A.55.55,0,0,0,118.1,352.78Z"/><path d="M154,322.54a26.64,26.64,0,0,0,.09,8.17,9.79,9.79,0,0,0,4,6.27,9.14,9.14,0,0,0,6.84.87,38.11,38.11,0,0,0,7.15-2.27c2.66-1.13,5.27-2.71,6.67-5.33.33-.63-.68-1.08-1-.45a11,11,0,0,1-5.4,4.45,41,41,0,0,1-6.64,2.29,9.53,9.53,0,0,1-6.26-.09,8.13,8.13,0,0,1-4.14-5.33c-.77-2.72-.48-5.63-.23-8.41C155.14,322,154.05,321.82,154,322.54Z"/><path d="M131.55,386.45l6,1.48a.55.55,0,0,0,.63-.45.56.56,0,0,0-.45-.64l-6-1.49a.57.57,0,0,0-.64.46A.58.58,0,0,0,131.55,386.45Z"/><path d="M241.37,415.77c2.53,2.05,6.25,3.86,9.12,1.39,2.11-1.81,3-4.85,3.22-7.54a6.66,6.66,0,0,0-.41-3.48.57.57,0,0,0-.71-.33.56.56,0,0,0-.32.72,5.14,5.14,0,0,1,.37,2.53,13.33,13.33,0,0,1-.63,3.58c-.72,2.19-2.17,4.57-4.72,4.63-1.95.05-3.77-1.19-5.22-2.36A.55.55,0,0,0,241.37,415.77Z"/><path d="M102.3,288l.06,0a.18.18,0,0,1-.13-.06Z"/><path d="M103.16,287.35a.55.55,0,0,1,0,.41.51.51,0,0,1-.77.24.76.76,0,0,1-.21-.19.32.32,0,0,0,.08.13l-.11,0a16.33,16.33,0,0,0-1.64-.51c-1-.28-2-.54-3-.8-2.5-.67-5-1.32-7.5-2h0l-1-.25-.33-.08c-5.87-1.52-11.74-3-17.57-4.63a62,62,0,0,0-7.76-1.8,25.39,25.39,0,0,0-4.27-.27,15.24,15.24,0,0,0-5.83,1.27,12.63,12.63,0,0,0-4.5,3.44A16.9,16.9,0,0,0,45,292.94a21.19,21.19,0,0,0,4,12l.06.08a34.9,34.9,0,0,0,9.81,9.22,42.31,42.31,0,0,0,12.53,5.47.59.59,0,0,1,.13,1.08.46.46,0,0,1-.31,0c-1.13-.29-2.24-.61-3.34-1l-.27-.09h0l-.16-.06a43.51,43.51,0,0,1-12-6.48,34.09,34.09,0,0,1-7-7.07,28.62,28.62,0,0,1-2.18-3.55A20.22,20.22,0,0,1,44.15,290a16.89,16.89,0,0,1,5.65-10.25c4.13-3.42,9.17-3.65,14.17-2.85A87.47,87.47,0,0,1,72.89,279c6.38,1.75,12.79,3.37,19.2,5L96,285l.23.06h0c1.24.32,2.47.65,3.7,1,.76.21,1.52.43,2.28.67C102.54,286.87,103,287,103.16,287.35Z"/><path d="M431.31,408.89c0,.17,0,.35,0,.52s0,.49,0,.73q-4.17-2-8.38-3.95c-8.15-3.77-16.49-7.11-24.53-11.12-7.07-3.53-14-7.37-20.83-11.3l-2.25-1.28-7.94-4.59c-4.87-2.82-9.74-5.61-14.67-8.32a.54.54,0,0,1-.28-.35h0c-.11-.41.26-.92.73-.66l2.82,1.56c7.58,4.22,15.05,8.64,22.59,12.95s15.33,8.6,23.25,12.43,16.41,7.24,24.53,11.05Z"/><path class="cls-4" d="M204.21,322.15l3.61-4.19a4.61,4.61,0,0,1-.39-6.41,4.51,4.51,0,0,1,1.63-1.2L111.14,226a9.09,9.09,0,0,1-13.24-11.4L49.64,173a4.6,4.6,0,0,1-7.45,2.27l-.09-.09-3.62,4.19.11.09a4.61,4.61,0,0,1-6,7l-.1-.09-3.61,4.19.1.09a4.61,4.61,0,1,1-6,7l-.1-.09-3.61,4.19.05,0,.05,0a4.61,4.61,0,1,1-6,7l0,0,0,0,0,0h0l-3.61,4.19a.39.39,0,0,1,.1.08,4.61,4.61,0,1,1-6,7l-.06,0,0,0L0,224.06l.1.08a4.6,4.6,0,0,1,.57,6.4l48,41.34a9.08,9.08,0,0,1,13.11,11.29l97.64,84.13a4.6,4.6,0,0,1,6.31-.47l3.61-4.19a4.61,4.61,0,0,1,6-7l3.61-4.19a4.61,4.61,0,0,1,6-7l3.62-4.19a4.61,4.61,0,0,1,6-7l3.61-4.19a4.61,4.61,0,0,1,6-7Zm-139-56.48a1.32,1.32,0,1,0,.14,1.86A1.33,1.33,0,0,0,65.25,265.67Zm3.3-5.84a1.32,1.32,0,1,1,.13,1.85A1.31,1.31,0,0,1,68.55,259.83Zm7-6.12a1.32,1.32,0,1,0,.13,1.86A1.32,1.32,0,0,0,75.56,253.71Zm3.29-5.85a1.32,1.32,0,1,1,.14,1.86A1.32,1.32,0,0,1,78.85,247.86Zm7-6.12A1.32,1.32,0,1,0,86,243.6,1.31,1.31,0,0,0,85.86,241.74Zm3.3-5.84a1.32,1.32,0,1,1,.14,1.86A1.33,1.33,0,0,1,89.16,235.9Zm7-6.12a1.31,1.31,0,1,0,.14,1.85A1.3,1.3,0,0,0,96.17,229.78Z"/><path class="cls-5" d="M13.23,208.7h0l0,0,0,0,0,0,.1.09a4.61,4.61,0,0,0,6-7l-.1-.09-.05,0-.05,0,3.61-4.19.1.09.1.08a4.61,4.61,0,0,0,6-7,.39.39,0,0,0-.1-.08l-.1-.09,3.61-4.19.1.09.1.08a4.6,4.6,0,0,0,6-7l-.09-.09-.11-.09,3.62-4.19.09.09.11.08a4.6,4.6,0,0,0,6.39-.56,3.47,3.47,0,0,0,.29-.38,4.23,4.23,0,0,0,.66-1.41L97.9,214.59A9.09,9.09,0,0,0,111.14,226l97.92,84.36a4.39,4.39,0,0,0-1.3.86l-.33.34a4.61,4.61,0,0,0,.39,6.41l-3.61,4.19a4.61,4.61,0,0,0-6,7l-3.61,4.19a4.61,4.61,0,0,0-6,7L185,344.49a4.61,4.61,0,0,0-6,7l-3.61,4.19a4.61,4.61,0,0,0-6,7l-3.61,4.19a4.6,4.6,0,0,0-6.31.47L61.77,283.17a9.08,9.08,0,0,0-13.11-11.29l-48-41.34a4.61,4.61,0,0,0-.47-6.31l-.1-.09-.1-.08,3.61-4.2,0,0,.06,0,.1.09a4.61,4.61,0,0,0,6-7l-.1-.09a.39.39,0,0,0-.1-.08Zm.26,2-1.85,2.15a6.11,6.11,0,0,1-7.77,9L2,224a6.13,6.13,0,0,1,.6,6.23l46.23,39.83a10.58,10.58,0,0,1,14.68,12.64l95.89,82.61a6.1,6.1,0,0,1,6-.44l1.94-2.25a6.11,6.11,0,0,1,7.68-8.92l1.94-2.25a6.11,6.11,0,0,1,7.68-8.92l1.94-2.25a6.11,6.11,0,0,1,7.69-8.92l1.93-2.25a6.11,6.11,0,0,1,7.69-8.92l1.93-2.24a6.11,6.11,0,0,1,.45-7.38c.11-.13.22-.24.33-.35L111,227.82A10.58,10.58,0,0,1,96.12,215l-46-39.62-.29.36a6.12,6.12,0,0,1-7.48,1.42l-1.85,2.15a6.11,6.11,0,0,1-7.77,9l-1.85,2.15a6.11,6.11,0,0,1-7.77,9l-1.85,2.15a6.11,6.11,0,0,1-7.77,9Zm48.77,54.13a2.81,2.81,0,1,1,.29,4A2.81,2.81,0,0,1,62.26,264.83Zm5.15-6a2.82,2.82,0,1,1,.29,4A2.82,2.82,0,0,1,67.41,258.85Zm5.15-6a2.82,2.82,0,1,1,.3,4A2.82,2.82,0,0,1,72.56,252.87Zm5.16-6a2.81,2.81,0,1,1,.29,4A2.82,2.82,0,0,1,77.72,246.88Zm5.15-6a2.82,2.82,0,1,1,.3,4A2.81,2.81,0,0,1,82.87,240.9Zm5.16-6a2.81,2.81,0,1,1,.29,4A2.82,2.82,0,0,1,88,234.92Zm5.15-6a2.82,2.82,0,1,1,.3,4A2.81,2.81,0,0,1,93.18,228.94ZM63.39,265.81a1.32,1.32,0,1,1,.14,1.86A1.33,1.33,0,0,1,63.39,265.81Zm7-6.12a1.32,1.32,0,1,0,.14,1.86A1.31,1.31,0,0,0,70.4,259.69Zm3.3-5.84a1.32,1.32,0,1,1,.14,1.85A1.32,1.32,0,0,1,73.7,253.85Zm7-6.12a1.32,1.32,0,1,0,.14,1.85A1.32,1.32,0,0,0,80.71,247.73Zm3.3-5.85a1.32,1.32,0,1,1,.14,1.86A1.31,1.31,0,0,1,84,241.88Zm7-6.12a1.32,1.32,0,1,0,.14,1.86A1.33,1.33,0,0,0,91,235.76Zm3.3-5.85a1.32,1.32,0,1,1,.14,1.86A1.3,1.3,0,0,1,94.32,229.91Z"/><path class="cls-4" d="M186,361.38l5-2.38a4.6,4.6,0,0,1,2.23-6,4.51,4.51,0,0,1,2-.45L139.68,235.84a9.09,9.09,0,0,1-7.51-15.77l-27.39-57.52a4.39,4.39,0,0,1-1.59,1.25,4.61,4.61,0,0,1-6.14-2.18l0-.07v-.05l-5,2.38.06.12a4.61,4.61,0,1,1-8.32,4l0-.12-5,2.37.06.13a4.61,4.61,0,0,1-8.32,3.95s0-.08-.05-.12l-5,2.38.06.12a4.61,4.61,0,0,1-8.32,4l0-.07v-.05l-5,2.38,0,.06,0,.06a4.6,4.6,0,1,1-8.31,4l-.06-.12-5,2.38a1.17,1.17,0,0,1,0,.11,4.61,4.61,0,0,1-2.06,6.09L64,252.61a9.09,9.09,0,0,1,7.44,15.63l55.41,116.37a4.6,4.6,0,0,1,6,2.11l5-2.37a4.61,4.61,0,0,1,8.32-4l5-2.38a4.61,4.61,0,0,1,8.32-4l5-2.38a4.61,4.61,0,0,1,8.32-4l5-2.38a4.61,4.61,0,0,1,8.32-3.95ZM81.68,253.63a1.32,1.32,0,0,0-2.38,1.13,1.32,1.32,0,0,0,2.38-1.13Zm5.37-4a1.31,1.31,0,1,1-.62,1.75A1.31,1.31,0,0,1,87.05,249.62Zm8.89-2.78A1.32,1.32,0,0,0,93.56,248a1.32,1.32,0,1,0,2.38-1.13Zm5.37-4a1.31,1.31,0,1,1-.62,1.75A1.3,1.3,0,0,1,101.31,242.83Zm8.89-2.78a1.32,1.32,0,0,0-2.38,1.13,1.32,1.32,0,1,0,2.38-1.13Zm5.37-4a1.31,1.31,0,1,1-.62,1.75A1.31,1.31,0,0,1,115.57,236Zm8.88-2.78a1.31,1.31,0,1,0-.62,1.76A1.32,1.32,0,0,0,124.45,233.26Z"/><path class="cls-5" d="M57.07,180.51v.05l0,.07.06.12a4.61,4.61,0,0,0,8.32-4l-.06-.12-.06-.12,5-2.38s0,.09.05.12a.67.67,0,0,0,.06.12,4.61,4.61,0,0,0,8.32-3.95,1.34,1.34,0,0,0-.06-.12l-.06-.13,5-2.37,0,.12.06.12a4.61,4.61,0,0,0,8.32-4l-.06-.12-.06-.12,5-2.38v.05l0,.07.06.12a4.6,4.6,0,0,0,6.08,2.06,2.82,2.82,0,0,0,.42-.23,4.26,4.26,0,0,0,1.17-1l27.39,57.52a9.09,9.09,0,0,0,7.51,15.77l55.56,116.69a4.58,4.58,0,0,0-1.54.27,4.07,4.07,0,0,0-.44.18,4.6,4.6,0,0,0-2.23,6l-5,2.38a4.61,4.61,0,0,0-8.32,3.95l-5,2.38a4.61,4.61,0,0,0-8.32,4l-5,2.38a4.61,4.61,0,0,0-8.32,4l-5,2.38a4.61,4.61,0,0,0-8.32,4l-5,2.37a4.6,4.6,0,0,0-6-2.11L71.43,268.24A9.09,9.09,0,0,0,64,252.61L36.76,195.43a4.62,4.62,0,0,0,2.12-6l-.06-.12a1.17,1.17,0,0,0,0-.11l5-2.38.06.12a.61.61,0,0,0,0,.12,4.61,4.61,0,0,0,8.32-4l-.06-.12,0-.06,0-.06Zm-.57,1.94-2.56,1.21a6.11,6.11,0,0,1-10.75,5.12L40.63,190a6.15,6.15,0,0,1-2,5.94L64.9,251a10.58,10.58,0,0,1,8.33,17.49L127.64,382.8a6.11,6.11,0,0,1,5.67,2l2.68-1.28a6.11,6.11,0,0,1,10.63-5.06l2.68-1.28a6.11,6.11,0,0,1,10.63-5.06l2.68-1.27a6.11,6.11,0,0,1,10.63-5.06l2.68-1.28a6.11,6.11,0,0,1,10.63-5.06l2.68-1.27a6.11,6.11,0,0,1,3.39-6.58,3.93,3.93,0,0,1,.43-.18l-54.27-114a10.58,10.58,0,0,1-8.43-17.69l-26.09-54.82a4.23,4.23,0,0,1-.42.22,6.11,6.11,0,0,1-7.42-1.72l-2.56,1.22a6.11,6.11,0,0,1-10.75,5.12L80.55,171a6.1,6.1,0,0,1-10.74,5.12l-2.56,1.22a6.11,6.11,0,0,1-10.75,5.12Zm22.78,69.2A2.82,2.82,0,1,1,78,255.41,2.82,2.82,0,0,1,79.28,251.65Zm7.13-3.39A2.82,2.82,0,1,1,85.07,252,2.82,2.82,0,0,1,86.41,248.26Zm7.13-3.39a2.81,2.81,0,1,1-1.33,3.75A2.81,2.81,0,0,1,93.54,244.87Zm7.13-3.4a2.82,2.82,0,1,1-1.34,3.76A2.82,2.82,0,0,1,100.67,241.47Zm7.13-3.39a2.81,2.81,0,1,1-1.34,3.75A2.81,2.81,0,0,1,107.8,238.08Zm7.13-3.4a2.82,2.82,0,1,1-1.33,3.75A2.82,2.82,0,0,1,114.93,234.68Zm7.13-3.39a2.81,2.81,0,1,1-1.34,3.75A2.81,2.81,0,0,1,122.06,231.29ZM79.92,253a1.33,1.33,0,0,1,1.76.62,1.32,1.32,0,1,1-1.76-.62Zm8.89-2.77a1.32,1.32,0,1,0-.63,1.75A1.31,1.31,0,0,0,88.81,250.24Zm5.37-4a1.32,1.32,0,1,1,1.13,2.38,1.32,1.32,0,0,1-1.13-2.38Zm8.88-2.77a1.31,1.31,0,1,0-.62,1.75A1.3,1.3,0,0,0,103.06,243.45Zm5.38-4a1.32,1.32,0,1,1,1.13,2.38,1.32,1.32,0,0,1-1.13-2.38Zm8.89-2.77a1.32,1.32,0,1,0-.63,1.75A1.31,1.31,0,0,0,117.33,236.66Zm5.37-4a1.32,1.32,0,1,1-.62,1.76A1.32,1.32,0,0,1,122.7,232.64Z"/><path class="cls-2" d="M176.15,328.56c0,.07.09.14.13.22a6.8,6.8,0,0,1,.41,1,15.1,15.1,0,0,1,.14,2.53h0a.71.71,0,0,0,0,.14v0c0,.15,0,.31,0,.47a2.29,2.29,0,0,1,0,.25h0a27.29,27.29,0,0,1-.58,4,39.91,39.91,0,0,1-2.19,6c-.84,2.12-1.26,4.53-2.75,6.31a1.53,1.53,0,0,0-.18.29h0a.36.36,0,0,0,0,.11l-.28.21h0a28.28,28.28,0,0,1-7.73,3.82,105.37,105.37,0,0,0-11.49,4.52c-.73.35-1.45.72-2.15,1.12-2.13.1-4.29.7-5.39,2.4a66.88,66.88,0,0,1-11.58,1.88h0l-.48,0h-.43l-.07-.06-.09-.09a1.2,1.2,0,0,0-1.16-.18h0l-.15,0h0a1.4,1.4,0,0,0-.26.16,1,1,0,0,0-.15.14h0a.86.86,0,0,0-.13,1.08,1.07,1.07,0,0,0,.13.19h0l0,0a.83.83,0,0,0,0,.15c-.05.12-.09.24-.13.36h0a6.6,6.6,0,0,0-.25,2.72l-.19.27h0l-.2.3c0,.39.07.77.11,1.15h0c0,.41.07.82.1,1.24a38.12,38.12,0,0,0,.34,4.88v0c.06.29.14.59.23.88a2.13,2.13,0,0,1-.11,1.66,2.28,2.28,0,0,1-.52.63,1,1,0,0,1-.2.15c.07.11.15.2.22.3s.37.46.57.68c0,0,0,0,0,0,0,.34,0,.69,0,1,0,.64.06,1.27.13,1.89a3.47,3.47,0,0,0-.5-.2,3.74,3.74,0,0,0-1.1-.21,3.19,3.19,0,0,0-1.32.22,3.41,3.41,0,0,0-3.35,2.89c-1.82.71-2.59,3.25-1.74,5.2a3.8,3.8,0,0,0-1.59,4,6,6,0,0,0-.59,2.43,6.08,6.08,0,0,0,1.61,4.17,43.9,43.9,0,0,0-1.47,5.33c-4.43,6.24-3.78,13.23-.5,20.1,0,.21,0,.42-.07.63a1.34,1.34,0,0,0-.53.67l-.06.17-.27-.08-.24-.07c-1-.29-2-.54-3-.76l-1.33-.26-.48-.08-.58-.29c-1.1-.56-2.22-1.11-3.34-1.64l-.36-.14L104,423.75l-.23,0-1-.21a1.72,1.72,0,0,1-.72-.15c-1.18-.25-2.35-.54-3.51-.86s-2.33-.68-3.48-1.06c-2-.68-4-1.45-5.86-2.31a2.23,2.23,0,0,1-.5-.31l-.09-.06a2,2,0,0,1-.55-.82,27.12,27.12,0,0,1-7.54-4.57,26,26,0,0,1-3.38-2.09c-.57-.4-1.11-.83-1.64-1.28a2.33,2.33,0,0,1-.56-.68,1.86,1.86,0,0,1-.21-.72L74.1,408l-.7-.67a2.17,2.17,0,0,1-.48-.68c-.09-.09-.16-.19-.25-.29a1.88,1.88,0,0,1-1.4-1.45,4.42,4.42,0,0,0-.17-.55l-.87-.08h-.06a8,8,0,0,0-.89-.75,8.43,8.43,0,0,0-2-1.15l-.36-.13-.23-.08-.31-.09a1,1,0,0,0-.74-.43c-1.1-.13-2.19-.21-3.27-.23-.68-.07-1.37-.16-2-.28-.32-.06-.63-.14-1-.21h0a8.82,8.82,0,0,1-1.89-.71,7.06,7.06,0,0,1-.69-.42,1.21,1.21,0,0,0-.76-.2l-.19,0h0l-.22-.13h0c-.51-.3-1-.62-1.53-.95-1-.61-1.88-1.28-2.8-2,0,0,0,0,0,0l-.6-.47a11.47,11.47,0,0,1-1.45-1.42l-.2-.25-.1-.13-.39-.54h0a12.31,12.31,0,0,1-1.71-3.76,13.45,13.45,0,0,1-.38-1.91h0a15.83,15.83,0,0,1,.06-4.4h.24a35.06,35.06,0,0,1,1.89-9.65,2,2,0,0,1,.38-.7l.16-.16a.92.92,0,0,1,.22-.17,12.51,12.51,0,0,0,.09-1.61c0-.23,0-.45,0-.68a20.46,20.46,0,0,0-.21-2.2,10.43,10.43,0,0,0,.86-2.82,11,11,0,0,0,.13-1.3c0-.17,0-.33,0-.5,0-6.69,1.57-13.28,2.72-19.9.06-.34.12-.67.17-1,0-.15.06-.31.08-.46l0-.14,0,0,.15-.09c1.09-.73,1.65-2.67,2.06-3.71l.18-.45.67-.58.71-.56c0-.1.08-.2.13-.3.72-1.63,2.29-2.73,3.83-3.74.15-.19.31-.38.46-.55a16.94,16.94,0,0,1,1.57-1.6,15.58,15.58,0,0,1,1.54-1.22l.19-.14a2.19,2.19,0,0,1,1.07-.39c.42-.3.84-.6,1.27-.88a15.34,15.34,0,0,1,1.41-1.25c.52-.26,1-.54,1.51-.84.16-.09.31-.19.46-.29a21,21,0,0,0,2.15-1.6l.52-.44A47.31,47.31,0,0,0,78,318.36a33.33,33.33,0,0,0,5.29-4.93,14.78,14.78,0,0,0,6.93-7.34c0-.06,0-.13.08-.2a.14.14,0,0,0,0-.06c.29-.37.56-.75.83-1.14l.13.06.07,0a1.06,1.06,0,0,0,.53,0,1,1,0,0,0,.46-.23h0a.49.49,0,0,0,.13-.12,48.44,48.44,0,0,0,3.85-4.65l0,0a13.77,13.77,0,0,0,1.21-2.16.58.58,0,0,0,0-.16,1.27,1.27,0,0,0,.13-.19c.13-.24.26-.47.4-.7h0c1-1.62,2.19-3,3.06-4.74l.08-.16h0s0-.07,0-.1a7.17,7.17,0,0,1,.67-1.1,1.24,1.24,0,0,0,.33-.41l0-.08a.76.76,0,0,0,.11-.14,10.1,10.1,0,0,0,.89-1.28l0,0h0s0,0,0,0a3,3,0,0,0,.17-.36,1.73,1.73,0,0,0,.1-.24.94.94,0,0,0,.06-.15,1.82,1.82,0,0,0,.07-.25,7.18,7.18,0,0,0,1.79-2.81,13.74,13.74,0,0,1,1.41-1l.43-.25a2.11,2.11,0,0,1,.24-.44,1.66,1.66,0,0,1,.31-.35,9.12,9.12,0,0,1,3.52-2.07h0a9.93,9.93,0,0,1,5.51-.07,10.64,10.64,0,0,1,1.69.6,7.77,7.77,0,0,1,.82.4l.09,0,.22,0h.31a5.33,5.33,0,0,1,2.6,1,9.39,9.39,0,0,1,3.12,3.24,2.56,2.56,0,0,1,.35,1.27.86.86,0,0,1,0,.16c.16.18.3.36.44.55s.51.69.74,1,.17.58.26.87c.53,1.72,1.07,3.43,1.6,5.14a7.58,7.58,0,0,1,0,.83c0,.15,0,.3-.05.44l0,.31.33,1.22v0c.08.29.15.58.22.87,0,.1.06.22.08.32l0,.14a2.32,2.32,0,0,1,.05.53c.2,3.55.81,7.1.88,10.68,0,.3,0,.61,0,.92v.27a.94.94,0,0,0,.06.39c-.1.28-.2.55-.31.82l-.25.66c-.26.68-.53,1.35-.77,2a11.51,11.51,0,0,0-.87,3.4c-.46,1.31-1.05,2.58-1.62,3.83a1.12,1.12,0,0,0-.1.52l-.34.18a1.2,1.2,0,0,0-.76,1.28,1.54,1.54,0,0,0,0,.17.08.08,0,0,0,0,.05.37.37,0,0,0,0,.11l0,0a1.13,1.13,0,0,0,1.36.51c.31-.14.6-.3.9-.47l.15.08a1.1,1.1,0,0,0,1.27-.27,1.15,1.15,0,0,0,.3-.51.94.94,0,0,0,0-.16l.13.15a2.2,2.2,0,0,0,.2.23,2.3,2.3,0,0,1,.72-.08l6.16.28,1.68-.54L140,324l.52.27.48.22.38.18,4.69.21h.09a2.23,2.23,0,0,1,.75.18l.75-.16.14,0a2.16,2.16,0,0,1,1.5-.34l.4,0q.61-.09,1.23-.15h0c.56-.07,1.12-.13,1.69-.17l.21,0h0a46,46,0,0,1,7.87.08c1.12.11,2.24.27,3.35.46h0a2,2,0,0,1,1,.48,7.14,7.14,0,0,1,1.43-.43h0c.34-.07.67-.12,1-.18h0l.73-.11h0c.55-.09,1.05-.16,1.54-.2h.15a5.39,5.39,0,0,1,2.15.28l.13,0h0l.08,0,.05,0h0a6.78,6.78,0,0,1,.81.4h0l0,0a6.36,6.36,0,0,1,1.54,1.2A4.69,4.69,0,0,1,176.15,328.56Z"/><path class="cls-3" d="M105.38,290.37a1.57,1.57,0,0,0-1.11.47,5.47,5.47,0,0,0-1.7,1.46h0c-.09.12-.19.24-.28.38a1.58,1.58,0,0,0-.25.86,1.9,1.9,0,0,0-.92,1.08q-3.89,4-7.39,8.29a10.21,10.21,0,0,0-2,2.91,4.27,4.27,0,0,0,.45,3.16,16.47,16.47,0,0,0,1.94,3.19c-.87,1.9.29,3.87,1.61,5.24,1.87,1.93,6.85,4.66,9.45,2.6a2.66,2.66,0,0,0,1.56-.61,12,12,0,0,0,1.78-2.39l1.85-2.68c2.51-3.63,4.39-7.21,4.63-11.71.19-3.64-.66-8.12-3.54-10.64a5.45,5.45,0,0,0-.57-.41A5.81,5.81,0,0,0,105.38,290.37Z"/><path class="cls-3" d="M167.12,325.59a2.18,2.18,0,0,0-.56.61l-1.92.24a12.66,12.66,0,0,0-3.8-.42,7.65,7.65,0,0,0-2.32-.32,4.65,4.65,0,0,0-2,.53,2.86,2.86,0,0,0-2.36.84,2.48,2.48,0,0,0-.68,2.38,5.06,5.06,0,0,0-.53,3.31,6.06,6.06,0,0,0,1.84,3.52,4.18,4.18,0,0,0,3.18,3.17c.37.07.25.64.61.63.17.61,1.1.58,1.76.68a10,10,0,0,0,6.86-1.5,16.58,16.58,0,0,0,2.62-2.09,4.93,4.93,0,0,0,.77-.36,7.07,7.07,0,0,0,2-1.91,3.76,3.76,0,0,0,1.35-1.81,4,4,0,0,0,.18-1.89,5.35,5.35,0,0,0-1.86-5.27A4.41,4.41,0,0,0,167.12,325.59Z"/><path class="cls-3" d="M106,294l.06,0h0Z"/><path class="cls-3" d="M109.41,289.05a2.28,2.28,0,0,0-.64,0,4.65,4.65,0,0,0-3.67-.36,2.16,2.16,0,0,0-1,.67l-.22.06a3.31,3.31,0,0,0-1,.5,2.36,2.36,0,0,0-.94,1.44,2,2,0,0,0,0,.25,1.83,1.83,0,0,0-.49.43,12.51,12.51,0,0,0-1.35,2.1c-.14.28-.25.58-.37.88,0,.12-.09.24-.14.37a2.25,2.25,0,0,0-.52,3,2.18,2.18,0,0,0,2.59.82,2.3,2.3,0,0,0,3,.4,2.26,2.26,0,0,0,.6-3.07c-.16-.32.08-.93.18-1.23s.44-.74.46-1.09A.36.36,0,0,1,106,294a3.16,3.16,0,0,1-.49.11,3.18,3.18,0,0,0,.53-.14h0a2.45,2.45,0,0,0,.83-.51,1.52,1.52,0,0,1,.67.28,2.11,2.11,0,0,1,.55.64,2.38,2.38,0,0,0,1.57,1.42,3.19,3.19,0,0,1,.2.75,2.16,2.16,0,0,0,.54,1.2l.06.35a2,2,0,0,0-.24.68,2.56,2.56,0,0,0,.34,1.62l.06.13a.36.36,0,0,0,0,.09s0,.08,0,.13A2.38,2.38,0,0,0,111,302a1.93,1.93,0,0,0,.32.7,2.25,2.25,0,0,0,3.07.61,2.36,2.36,0,0,0,1.08-2.26,1.94,1.94,0,0,0,.26-1.23c-.39-2.52-.56-5.2-2.26-7C112.64,291,111.54,289.35,109.41,289.05Z"/><path class="cls-3" d="M108.07,311.56a2.24,2.24,0,0,0-2.58,1.78,13.73,13.73,0,0,0-.07,1.7,2.05,2.05,0,0,0-1.47,1.67l-.12,0-.13.06a2.25,2.25,0,0,0-1.21,0c-1.13.29-1.37.27-2.22-.49l-.1-.09a2.23,2.23,0,0,0-1.11-2.37,6.09,6.09,0,0,1-2.5-2.81c-.55-1.24-.39-2.56-.74-3.84-.74-2.76-4.92-1.31-4.19,1.44.23.82.14,1.77.36,2.63a9.94,9.94,0,0,0,1.09,2.63,9.15,9.15,0,0,0,.85,1.25,1.93,1.93,0,0,0,.47,1.34,21.17,21.17,0,0,0,4.19,4.16,4.29,4.29,0,0,0,1.94.73,2.52,2.52,0,0,0,.77.29,6.87,6.87,0,0,0,4.5-1,5,5,0,0,0,2.1-1.87,3.76,3.76,0,0,0,1.71-2.2,5.87,5.87,0,0,0,.23-1.62c0-.2,0-.41,0-.62v-.1s0-.08,0-.15A2.26,2.26,0,0,0,108.07,311.56Z"/><path d="M125.32,284.43A26,26,0,0,1,130.09,295q.49,2.12.78,4.26a42.82,42.82,0,0,1,.36,5.78,44.06,44.06,0,0,1-.47,6c-.07.5-.15,1-.24,1.48a42.21,42.21,0,0,1-4.06,11.85.59.59,0,0,1,0,.08.56.56,0,0,1-.17.2.37.37,0,0,1-.19.09l-.14,0a.63.63,0,0,1-.35-.11.39.39,0,0,1-.17-.19.45.45,0,0,1,0-.45,41.09,41.09,0,0,0,2-4.33,41.64,41.64,0,0,0,2.52-19.24c0-.53-.12-1.05-.19-1.58a.44.44,0,0,0,0-.1c-.05-.39-.11-.79-.19-1.18a0,0,0,0,0,0,0c-.09-.52-.18-1-.3-1.53a32.24,32.24,0,0,0-1.79-5.78c-1.41-3.37-3.63-6.62-6.89-8.42-.21-.12-.43-.23-.65-.33a12.19,12.19,0,0,0-2.82-1,9.52,9.52,0,0,0-5.36.35l-.08,0c-2.88,1.13-4.78,3.67-6.4,6.27-.09.15-.18.3-.28.45-.26.42-.5.83-.75,1.25a1.76,1.76,0,0,0-.14.23c0,.09-.11.18-.17.27l-.1.17h0c-.14.23-.28.46-.43.69h0l-1,1.53-.07.11c-1.13,1.78-2.31,3.54-3.54,5.26h0s0,0,0,0h0c-2.15,3-4.44,5.95-6.85,8.76l-.09.11-.21.24h0l-.1.12-.48.54h0a.86.86,0,0,1-.13.14l-1,1.08A124.1,124.1,0,0,1,72.65,324l-.08.06c-.71.54-1.43,1.07-2.15,1.6-5.39,4-11,7.9-14.47,13.73-3.22,5.44-4.3,11.76-5,18-.35,3.21-.6,6.43-1,9.63-.16,1.44-.37,2.87-.61,4.3-.09.59-.2,1.19-.31,1.78-.22,1.18-.47,2.35-.73,3.53-.73,3.23-1.51,6.55-1.21,9.88a13.36,13.36,0,0,0,4,8.4c4.44,4.38,11.09,6.15,17.21,6.2H69c.63,0,.79.86.32,1.06a.12.12,0,0,1-.09,0h-.59q-1,0-2-.06c-.81-.05-1.6-.12-2.4-.23a31.22,31.22,0,0,1-4-.8l-.75-.22-.66-.2c-.48-.16-1-.33-1.44-.52s-1-.39-1.45-.61a20.87,20.87,0,0,1-2-1,19.78,19.78,0,0,1-2.8-2s0,0,0,0a15.23,15.23,0,0,1-3.36-4.07,13.12,13.12,0,0,1-1.1-2.51,14.65,14.65,0,0,1-.65-3.37,23.58,23.58,0,0,1,.3-5.61c.44-2.78,1.17-5.57,1.68-8.3,1.22-6.53,1.36-13.21,2.38-19.77a44.62,44.62,0,0,1,2.62-10c.1-.24.2-.47.31-.71a28.35,28.35,0,0,1,4.71-7.54,51.47,51.47,0,0,1,7.78-7l1.16-.87c3.23-2.4,6.48-4.76,9.57-7.33a122.24,122.24,0,0,0,13.66-13.36l1.13-1.32c.8-.94,1.59-1.89,2.36-2.85a121.12,121.12,0,0,0,7.11-9.88l.31-.47c.07-.13.15-.25.23-.37v0c.22-.37.45-.74.67-1.12.08-.13.15-.24.22-.37h0l.73-1.23a28.08,28.08,0,0,1,4.76-6.43,10.54,10.54,0,0,1,3.19-2.09l.17-.07a10.48,10.48,0,0,1,5.89-.54A14.19,14.19,0,0,1,125.32,284.43Z"/><path d="M90.94,306.34c.57,5.16,1.67,11.4,6.44,14.41a9.75,9.75,0,0,0,6.53,1.54,6.87,6.87,0,0,0,3-1.17,8.67,8.67,0,0,0,2.52-3.11c1.42-2.61,2.66-5.33,4-8a35.18,35.18,0,0,0,2.68-6.91,14.14,14.14,0,0,0,0-7.25,12.81,12.81,0,0,0-3.85-6,12.55,12.55,0,0,0-3-2,6.2,6.2,0,0,0-2.25-.69,5.57,5.57,0,0,0-4.55,2.31,10.53,10.53,0,0,0-1.1,1.78c-.32.64.69,1.1,1,.46.81-1.63,2.14-3.25,4.08-3.43a3,3,0,0,1,1.38.18,11.07,11.07,0,0,1,3,1.59,11.8,11.8,0,0,1,3.94,5.18,12.23,12.23,0,0,1,.46,6.65,26.66,26.66,0,0,1-2.21,6.36c-1.09,2.38-2.28,4.72-3.44,7.07-1,2.13-2,4.58-4.42,5.52a7.73,7.73,0,0,1-6-.39c-5.36-2.45-6.51-9-7.09-14.22A.55.55,0,0,0,90.94,306.34Z"/><path class="cls-3" d="M168.86,324.29a1.93,1.93,0,0,0-1.46.58A27.11,27.11,0,0,0,162,325a2.12,2.12,0,0,0-1.28-.3,17.64,17.64,0,0,1-2.81-.22,14.31,14.31,0,0,0-1.73-.08c-.25,0-.48,0-.72.07l-.29.06-.2,0a2.24,2.24,0,0,0-2.56,1.78,2.84,2.84,0,0,0,0,.58,2.43,2.43,0,0,0,0,1c.19.69.33,1.37.46,2.07a9.37,9.37,0,0,0,.74,4.42l.06.32a5,5,0,0,0,3.69,4.09c2.26.51,3.36-2.42,1.85-3.86a7.06,7.06,0,0,1-1.39-1.87c-.11-.88-.17-1.89-.21-2.1q-.1-.63-.24-1.26a2.26,2.26,0,0,0,.11-.43,2.39,2.39,0,0,0,1.7,1.42,2.12,2.12,0,0,0,2.22-1c.2,0,.73-.21.92-.25a16.09,16.09,0,0,1,1.69-.16,28.3,28.3,0,0,1,3.19-.05,2.62,2.62,0,0,0,1.89-.57h.13c.43,0,1.63-.12,1.92.29a10.35,10.35,0,0,1-.12,1.64.81.81,0,0,0,0,.24l-.08.17a6,6,0,0,1-.71,1l-.71.94a8.79,8.79,0,0,0-1.28.75c-1.43,1.06-1.21,3.81.84,4a3.67,3.67,0,0,0,3.33-1.33,8.15,8.15,0,0,0,2-1.3,3.68,3.68,0,0,0,.93-1.67,2.43,2.43,0,0,0,.49-.41c1.23-1.41.58-3.74-.06-5.28a2.2,2.2,0,0,0-.75-1,4,4,0,0,0-.6-.76C172.86,324.46,170.85,324.29,168.86,324.29Z"/><path d="M173.44,324.35a.59.59,0,0,1,0,.77s0,0,0,0l-.07.05h0a.34.34,0,0,1-.12,0,.27.27,0,0,1-.13,0h-5.88l-2.81,0h0c-3.5-.05-7-.14-10.52-.22h-1.59l-4.6-.1-1.5,0h0c-6.41-.09-12.82,0-19.22.47-1.22.09-2.44.21-3.66.33-2.21.24-4.41.53-6.6.89-.87.15-1.75.28-2.6.47a8.34,8.34,0,0,0-2,1c-1.17.62-2.35,1.22-3.46,1.92-.31.2-.62.4-.92.62a12,12,0,0,0-1.87,1.62,6.5,6.5,0,0,0-1.28,2.24c-.14.37-.29.74-.43,1.1-.53,1.35-1.1,2.69-1.7,4q-1.07,2.37-2.25,4.69t-2.51,4.67c-.77,1.36-1.57,2.7-2.38,4-2.64,4.31-5.46,8.49-8.33,12.65-4,5.89-8.18,11.73-11.91,17.82a48.52,48.52,0,0,0-2.42,4.26c-.51,1.05-1,2.1-1.52,3.16a20,20,0,0,0-2,6.79,9.65,9.65,0,0,0,1.69,6.1c.19.3.4.6.62.89.57.75,1.16,1.46,1.79,2.15l.58.62a39.51,39.51,0,0,0,5.12,4.47c.54.4,1.08.78,1.63,1.15a61.83,61.83,0,0,0,10.38,5.58l.09,0c2.43,1,4.91,2,7.42,2.85a1.25,1.25,0,0,0,.25.09c1.47.52,3,1,4.44,1.5,2.92.95,5.84,1.88,8.74,2.87q2.59.87,5.15,1.84l.81.3a.46.46,0,0,1,.31.34.5.5,0,0,1,0,.32v0a.56.56,0,0,1-.73.33l-.75-.29c-1-.36-1.91-.71-2.88-1.06l-1.06-.37-.61-.21c-5.58-1.91-11.38-3.63-17-5.73l-1.48-.56-.22-.08-.16-.07c-1.11-.43-2.21-.88-3.3-1.36l-1.2-.54A50.78,50.78,0,0,1,74,409.17a25,25,0,0,1-4.72-5.7c-.21-.41-.41-.82-.58-1.24a.14.14,0,0,1,0-.06c-.06-.14-.11-.29-.16-.44s0,0,0,0a5.76,5.76,0,0,1-.18-.59s0,0,0-.06a12.16,12.16,0,0,1,.18-6.36,39.86,39.86,0,0,1,2.79-6.77,85,85,0,0,1,4.92-8.4c7.61-11.87,16.44-23,22.88-35.55a2.26,2.26,0,0,0,.11-.22c1.46-2.85,2.79-5.76,4-8.74.14-.34.27-.69.4-1a7.28,7.28,0,0,1,1.22-2.24,12.23,12.23,0,0,1,1.77-1.68,19.17,19.17,0,0,1,1.68-1.15c.85-.52,1.73-1,2.6-1.45s1.46-.77,2.17-1.18a6.67,6.67,0,0,1,2.34-.59c1.73-.31,3.46-.58,5.19-.8.91-.12,1.83-.22,2.74-.32l2-.19h.16l.4,0,.55,0,.11,0c1.15-.09,2.31-.17,3.46-.23h.17l.82-.05c13.89-.69,27.8.36,41.7.17H173A.58.58,0,0,1,173.44,324.35Z"/><path d="M128.79,362.73c-.89,6.24-.46,12.55-.18,18.81,0,.71,1.13.61,1.1-.1-.28-6.17-.7-12.39.18-18.53A.56.56,0,0,0,128.79,362.73Z"/><path d="M116.24,355.72c4.48,3.54,9.26,7.19,15.09,7.95,5.43.7,10.82-.91,15.87-2.75,3-1.1,6-2.27,9-3.41a100.07,100.07,0,0,0,9.44-3.81,18.48,18.48,0,0,0,7-5.81,22.79,22.79,0,0,0,3.22-7.41,40.33,40.33,0,0,0,1.18-8.25c.1-2.45-.18-5.62-2.26-7.27a4.63,4.63,0,0,0-1.66-.79c-.69-.18-.86.92-.17,1.1,2.52.65,3,3.87,3,6.06a30.42,30.42,0,0,1-.28,3.93c-.16,1.33-.37,2.66-.65,4a23,23,0,0,1-2.78,7.26,16.6,16.6,0,0,1-6.19,5.75,66,66,0,0,1-9,3.76q-4.41,1.69-8.84,3.36c-4.81,1.81-9.89,3.59-15.11,3.37a19.1,19.1,0,0,1-7.64-2,41,41,0,0,1-6.91-4.55l-1.65-1.29A.55.55,0,0,0,116.24,355.72Z"/><path d="M152.32,324.68a35.34,35.34,0,0,0-.24,8.22,10.13,10.13,0,0,0,3.73,6.73,8.88,8.88,0,0,0,7.12,1.19,29.19,29.19,0,0,0,7.23-2.43,14.51,14.51,0,0,0,6.61-5.82c.34-.63-.68-1.08-1-.46a12.64,12.64,0,0,1-5.31,4.88,28.28,28.28,0,0,1-6.6,2.49c-2.19.56-4.6.82-6.66-.28a8.54,8.54,0,0,1-3.92-5.85c-.55-2.78-.11-5.71.15-8.5C153.48,324.15,152.39,324,152.32,324.68Z"/></g></g></svg>