<svg width="105" height="105" viewBox="0 0 105 105" fill="none" xmlns="http://www.w3.org/2000/svg">
<g clip-path="url(#clip0)">
<path d="M40.7483 73.3815C40.5099 76.0978 40.8238 78.9917 41.7828 81.5462C41.2917 80.8615 40.9394 79.9966 40.722 78.9163C39.641 73.4981 39.7334 68.1008 39.8389 62.5997C39.8393 62.5249 39.8166 62.4665 39.7772 62.4226C45.0914 59.3393 50.045 55.3703 54.3945 50.7804C54.1415 55.7775 54.5287 60.9133 54.6202 65.9061C54.6996 70.4414 55.4245 76.0552 53.3199 80.2083C53.4609 78.868 53.5039 77.5125 53.4675 76.1608C53.4296 74.7052 53.4866 72.3206 52.8927 70.9741C51.8223 68.5542 47.3853 69.3323 45.4732 69.6233C42.7252 70.0385 41.0331 70.1976 40.7483 73.3815Z" fill="#6C43BF"/>
<path d="M50.5325 39.8222C52.2574 41.2976 51.9714 43.5624 51.698 45.4426C50.7943 45.369 49.8585 45.4428 48.9804 45.6522C47.1489 46.087 45.5092 46.9596 43.8721 47.7511C42.9048 48.2177 41.9335 48.6761 40.9642 49.1406C40.7987 47.73 40.607 46.1341 40.7511 44.6171C40.8661 44.5845 40.9543 44.5039 40.9404 44.3645C40.9207 44.1564 40.8947 43.9484 40.875 43.7403C41.2101 42.0226 42.0851 40.4888 44.0717 39.5683C45.9033 38.7196 48.949 38.4619 50.5325 39.8222Z" fill="#6C43BF"/>
<path d="M52.151 81.7432C52.1552 79.0797 52.0843 76.4116 52.0426 73.7458C51.9982 70.8055 51.8646 64.752 51.8772 64.7334C52.853 60.8194 51.2598 45.2848 51.067 43.5247C53.1343 37.4315 61.0935 35.9263 64.7825 41.3194C66.6964 44.114 65.6971 47.7576 65.4486 51.1579C65.182 54.8409 64.9007 58.5258 64.6236 62.2066C64.0936 69.3293 63.5679 76.4478 63.0317 83.5705C62.8629 85.7902 62.5185 88.0443 61.5369 89.6087C62.3568 87.4466 62.6998 85.0823 62.429 82.6939C62.3413 81.9282 62.2743 80.83 61.6841 80.3298C60.8985 79.6622 59.2529 80.0877 58.3654 80.1098C56.8493 80.1472 55.038 79.9584 53.5574 80.3744C53.1747 80.4846 52.8865 80.4934 52.6441 80.9142C52.1339 81.8054 52.5082 83.9741 52.6052 84.9519C52.7394 86.354 53.0117 87.7133 53.3928 89.0399C52.7752 88.1985 52.2732 87.2185 51.9093 86.1935C51.8784 86.1143 51.839 86.058 51.7933 86.0182C52.0642 84.6079 52.1517 83.1155 52.151 81.7432Z" fill="#6C43BF"/>
<path d="M53.4528 45.8949C55.5025 47.1475 55.6381 49.4396 54.4156 51.142C53.412 52.5421 50.6609 54.6581 48.4573 54.0368C46.6561 53.5278 44.3511 50.8558 44.4661 49.3115C44.6124 47.3994 48.6391 45.6834 50.6633 45.5032C50.7427 45.4974 50.7951 45.452 50.8163 45.4043C51.2298 45.3837 51.6432 45.3859 52.0585 45.4236C52.5135 45.4656 52.941 45.5532 53.335 45.676C53.3262 45.7549 53.357 45.8362 53.4528 45.8949Z" fill="#FFFFA5"/>
<path d="M51.8949 66.6497C52.0518 68.1144 51.9166 69.5358 51.7249 70.9778C50.3961 72.2679 48.589 72.4388 46.6368 72.0559C46.0194 71.934 45.488 71.7605 45.0424 71.5231C44.421 70.2431 43.9519 68.9804 43.868 67.5453C43.8262 66.7945 43.7442 65.7461 44.3111 65.1753C44.9494 64.5405 46.4969 64.4721 47.3952 64.4022C48.1492 64.3461 48.9764 64.2924 49.7296 64.3901C50.3409 64.4725 51.246 64.6729 51.6444 65.1284C51.8933 65.4125 51.857 66.3189 51.8949 66.6497Z" fill="#FFFFA5"/>
<path d="M62.0314 66.5256C62.1639 68.2458 61.6515 69.9168 60.7141 71.4108C60.6488 71.5144 60.6712 71.6164 60.7335 71.6874C60.0736 72.0851 59.2391 72.3321 58.1761 72.3636C56.6141 72.4153 55.2495 71.8651 54.156 71.0004C53.611 69.492 53.2477 67.9617 53.1876 66.3729C53.1785 66.1337 53.0686 65.607 53.1826 65.3914C53.5497 64.7031 54.4296 64.5292 55.1689 64.5C56.0733 64.4613 56.9817 64.4351 57.8879 64.4214C58.6668 64.4091 59.5318 64.3119 60.3038 64.4035C61.7811 64.5759 61.9398 65.3295 62.0314 66.5256Z" fill="#FFFFA5"/>
<path d="M40.9818 49.3674C40.1967 49.7643 39.4135 50.1696 38.6491 50.5896C35.8092 52.15 33.678 54.3111 32.1401 56.7956C31.5362 51.9664 30.7588 47.1528 30.1904 42.3196C29.5782 37.091 29.0662 31.8568 28.6587 26.6128C28.4658 24.1208 28.1207 21.5697 28.2347 19.069C28.3398 16.6701 29.6004 13.3565 32.8753 13.1853C36.1794 13.0102 37.7196 16.1667 38.1408 18.5539C38.6064 21.2116 38.727 23.9403 38.9921 26.6157C39.5658 32.3783 40.6194 47.6895 40.9818 49.3674Z" fill="#6C43BF"/>
<path d="M40.8073 49.0555C38.9291 50.0079 37.0821 50.9791 35.471 52.3509C34.0403 53.5697 32.8255 55.0185 31.8354 56.612C32.0584 56.6735 32.2794 56.735 32.5046 56.7987C32.0265 52.9868 31.4461 49.1911 30.941 45.3812C30.4357 41.5776 30.0287 37.762 29.6614 33.9424C29.4758 32.014 29.3027 30.0855 29.1463 28.151C28.9918 26.2455 28.7977 24.344 28.6662 22.4366C28.4922 19.9115 28.3126 16.8831 30.1508 14.8514C30.9827 13.9307 32.1399 13.4776 33.3798 13.5405C34.5884 13.6033 35.6267 14.2474 36.3607 15.1871C37.0552 16.0788 37.4835 17.1707 37.7218 18.2636C38.0965 19.9769 38.2183 21.7553 38.3653 23.4964C38.761 28.2143 39.1861 32.9303 39.561 37.6482C39.7446 39.9447 39.924 42.2432 40.1222 44.5398C40.2498 46.023 40.3627 47.5145 40.5633 48.9897C40.5833 49.1458 40.6055 49.2998 40.638 49.4559C40.7358 49.9056 41.43 49.7223 41.3322 49.2705C41.2304 48.798 41.2215 48.5318 41.1678 48.0408C41.0824 47.2502 41.0095 46.4555 40.9408 45.665C40.7402 43.4204 40.5625 41.1738 40.3828 38.9273C40.0117 34.2843 39.603 29.6454 39.2109 25.0044C39.0482 23.0843 38.9106 21.1624 38.6246 19.2583C38.4352 17.9972 38.1413 16.7751 37.519 15.6509C36.9547 14.6269 36.1266 13.7075 35.0435 13.2212C33.8376 12.6823 32.4052 12.6889 31.1954 13.2166C28.9915 14.1755 28.0043 16.7587 27.8854 19.0036C27.783 20.9222 27.9707 22.8486 28.146 24.7584C28.3234 26.6743 28.4611 28.5922 28.6301 30.5081C28.9758 34.4502 29.378 38.3842 29.8408 42.3145C30.2996 46.2094 30.89 50.0821 31.4198 53.967C31.5483 54.9054 31.6725 55.848 31.7905 56.7906C31.8325 57.1235 32.2533 57.3046 32.4597 56.9772C33.4203 55.4356 34.5952 54.0427 35.9819 52.861C37.5426 51.5306 39.3497 50.5966 41.1713 49.6751C41.5754 49.4673 41.2176 48.8457 40.8073 49.0555Z" fill="#1D0932"/>
<path d="M38.5806 56.5216C38.716 56.5805 38.6167 56.7817 38.475 56.7351C37.1662 56.2996 36.1857 55.3835 35.6825 54.2413C35.6206 54.1079 35.8842 54.0137 35.9461 54.145C36.4664 55.2166 37.3932 56.0202 38.5806 56.5216Z" fill="white"/>
<path d="M38.3946 56.8312C38.3681 56.7209 38.3416 56.6084 38.315 56.4981C38.4008 56.4632 38.4866 56.4284 38.5724 56.3935C38.5662 56.3789 38.4807 56.3618 38.4641 56.3575C38.4057 56.3385 38.3494 56.3153 38.2932 56.2942C38.1869 56.252 38.0786 56.2015 37.9704 56.1469C37.7434 56.0313 37.527 55.897 37.3211 55.7483C36.9676 55.4906 36.6147 55.1185 36.3723 54.7616C36.2398 54.5654 36.1512 54.3446 36.0249 54.1463C35.9318 54.0003 36.0406 54.3315 35.9358 54.4078C35.8939 54.4388 35.8772 54.4387 35.825 54.4384C35.8062 54.4383 35.7874 54.4382 35.7665 54.4381C35.6461 54.3106 35.6024 54.2812 35.6396 54.3521C35.6499 54.3792 35.6665 54.4043 35.6768 54.4293C35.7388 54.5481 35.807 54.667 35.8774 54.7818C36.1506 55.2095 36.4888 55.596 36.8796 55.9226C37.3639 56.3244 37.8967 56.6309 38.4737 56.8753C38.6529 56.9512 38.8709 56.7964 38.9198 56.6283C38.9794 56.4227 38.8509 56.2619 38.6717 56.184C38.0989 55.9376 37.562 55.5999 37.1218 55.1712C36.8995 54.9579 36.7128 54.7385 36.5492 54.4923C36.4664 54.3671 36.3898 54.2398 36.3196 54.1084C36.2266 53.9354 36.1417 53.7914 35.9353 53.7445C35.7622 53.7082 35.5698 53.7612 35.4418 53.8832C35.2549 54.0672 35.2975 54.2879 35.3966 54.5026C35.5245 54.7798 35.6818 55.0427 35.8642 55.2869C36.2538 55.8089 36.7316 56.2544 37.2893 56.5923C37.6119 56.7874 37.9659 56.9578 38.3244 57.072C38.5537 57.1461 38.7921 57.0808 38.9269 56.8695C39.0701 56.6436 38.9819 56.3521 38.7571 56.2219C38.3617 55.9827 37.9929 56.5982 38.3946 56.8312Z" fill="#1D0932"/>
<path d="M38.2559 58.741C38.4056 58.8562 38.1895 59.04 38.0419 58.9311C36.9355 58.1203 35.9466 57.2208 35.0836 56.2097C34.8346 55.9193 33.7228 54.9713 34.2533 54.5584C34.2953 54.5253 34.3454 54.5298 34.3869 54.5591L34.4514 54.6052C34.5159 54.6513 34.4464 54.757 34.3693 54.7295C34.3401 54.7169 34.7645 55.3866 34.8454 55.4827C35.03 55.7062 35.223 55.9277 35.418 56.1429C35.692 56.4459 35.9764 56.7365 36.2693 57.023C36.8923 57.6253 37.5594 58.2007 38.2559 58.741Z" fill="white"/>
<path d="M37.9962 58.9896C38.0087 59.0021 38.0191 59.0146 38.0294 59.0251C37.9984 58.9729 37.9674 58.9187 37.9364 58.8666C37.9364 58.8603 37.9364 58.8541 37.9365 58.8478C37.9535 58.7876 37.9705 58.7295 37.9855 58.6672C38.2276 58.6769 38.2821 58.646 38.1509 58.5725C38.1302 58.5557 38.1073 58.5411 38.0865 58.5243C38.022 58.4761 37.9596 58.43 37.8973 58.3819C37.7767 58.2897 37.6561 58.1955 37.5376 58.0992C37.2965 57.9045 37.0596 57.7015 36.8268 57.4944C36.3594 57.0739 35.915 56.6265 35.5 56.1563C35.2635 55.8868 35.0039 55.6338 34.7673 55.3622C34.6574 55.2347 34.5454 55.0948 34.4794 54.9427C34.4732 54.926 34.4691 54.9239 34.461 54.8802C34.4569 54.8635 34.4507 54.8448 34.4487 54.8281C34.4527 54.8594 34.4548 54.8635 34.4528 54.8386C34.4529 54.8344 34.4508 54.8344 34.4529 54.8344C34.4047 54.8591 34.4528 54.849 34.457 54.8469C34.3963 54.8632 34.3357 54.8795 34.2751 54.8937C34.2897 54.8938 34.3064 54.8939 34.321 54.894C34.2605 54.877 34.2022 54.8601 34.1396 54.8452C34.1813 54.8641 34.2104 54.8871 34.2499 54.9102C34.2063 54.8663 34.1648 54.8245 34.1212 54.7806C34.1274 54.7931 34.1378 54.8015 34.144 54.814C34.1276 54.7536 34.1112 54.6953 34.0969 54.6328C34.0969 54.6453 34.0947 54.6599 34.0946 54.6703C34.1117 54.61 34.1287 54.5519 34.1437 54.4896C34.1352 54.5021 34.1289 54.5124 34.1226 54.5228C34.1667 54.4794 34.2087 54.438 34.2528 54.3946C34.2402 54.4007 34.2297 54.409 34.2171 54.4152C34.2778 54.3989 34.3384 54.3826 34.3991 54.3684C34.2843 54.3594 34.1839 54.3921 34.0978 54.4686C34.0055 54.5512 33.9671 54.6987 34.002 54.8174C34.0799 55.0694 34.279 55.3117 34.424 55.5287C34.6911 55.9252 35.0358 56.2827 35.3658 56.6318C36.1941 57.5117 37.1063 58.3047 38.0565 59.0481C38.2082 59.1675 38.4593 59.0753 38.5499 58.924C38.6595 58.7416 38.5791 58.552 38.4252 58.4326C37.5437 57.7458 36.7022 57.0009 35.9341 56.1899C35.7494 55.9955 35.5709 55.7949 35.3925 55.5923C35.3053 55.492 35.2203 55.3896 35.1331 55.2894C34.9838 55.1139 35.1352 55.2998 35.1103 55.2622C35.0958 55.2434 35.0813 55.2225 35.0668 55.2017C34.984 55.0785 34.9032 54.9554 34.8225 54.8281C34.7873 54.7739 34.7542 54.7175 34.7211 54.6633C34.6963 54.6174 34.6531 54.4945 34.6941 54.6361C34.6621 54.7524 34.6302 54.8666 34.5982 54.9849C34.5982 54.9849 34.5982 54.9849 34.6003 54.9828C34.5166 55.0177 34.4287 55.0505 34.345 55.0854C34.8 55.1149 34.9619 54.5378 34.6062 54.2905C34.3316 54.0977 34.0075 54.1874 33.8369 54.4651C33.5482 54.9313 33.9087 55.4552 34.2032 55.8124C34.535 56.2134 34.9109 56.5939 35.2658 56.9743C35.791 57.5406 36.3602 58.0678 36.9588 58.5576C37.1438 58.7104 37.333 58.857 37.5243 59.0036C37.6864 59.1272 37.8546 59.2986 38.0654 59.3164C38.5308 59.3605 38.8239 58.8403 38.4938 58.4912C38.1909 58.1506 37.6807 58.6531 37.9962 58.9896Z" fill="#1D0932"/>
<path d="M36.2634 57.0201C35.9706 56.7336 35.6861 56.443 35.4122 56.14C35.2171 55.9227 35.0241 55.7012 34.8395 55.4798C34.7586 55.3837 34.3343 54.7139 34.3634 54.7266C34.4405 54.7561 34.51 54.6484 34.4456 54.6023L34.3811 54.5562C34.3374 54.5268 34.2873 54.5224 34.2475 54.5554C33.7169 54.9684 34.8288 55.9164 35.0777 56.2068C35.9428 57.22 36.9317 58.1174 38.0381 58.9282C38.1857 59.0371 38.4039 58.8554 38.2521 58.7381C37.5556 58.1999 36.8885 57.6244 36.2634 57.0201Z" fill="#6C43BF"/>
<path d="M36.5211 56.7728C36.0289 56.2877 35.587 55.7696 35.1221 55.2618C35.0433 55.1741 35.1656 55.3348 35.1076 55.243C35.0869 55.2096 35.062 55.1783 35.0413 55.1449C34.9937 55.0719 34.9461 54.9989 34.8985 54.9258C34.8529 54.8528 34.8095 54.7819 34.7639 54.7088C34.735 54.6629 34.665 54.4837 34.7121 54.6399C34.6802 54.7562 34.6482 54.8704 34.6162 54.9887C34.6162 54.9887 34.6162 54.9887 34.6183 54.9867C34.5346 55.0215 34.4468 55.0543 34.363 55.0892C34.601 55.1051 34.815 54.9212 34.8288 54.6822C34.8403 54.4847 34.7117 54.3343 34.5452 54.244C34.1559 54.0339 33.7821 54.4123 33.7509 54.7864C33.7059 55.3642 34.2543 55.8766 34.6239 56.255C35.1845 56.8299 35.701 57.4399 36.2994 57.9796C36.6588 58.3039 37.0329 58.6137 37.4176 58.9111C37.7336 59.1582 38.1678 59.5556 38.5396 59.1501C38.7328 58.9391 38.6822 58.6457 38.4744 58.4657C38.2583 58.2795 38.0233 58.1077 37.8051 57.9256C37.3624 57.553 36.9323 57.1701 36.5211 56.7728C36.1888 56.4529 35.6765 56.9553 36.0088 57.2753C36.3328 57.5889 36.6652 57.8923 37.0081 58.1852C37.1744 58.3275 37.3448 58.4699 37.5132 58.608C37.6816 58.7462 37.8834 58.8721 38.0329 59.0309C38.0018 58.9788 37.9708 58.9245 37.9398 58.8724C37.9398 58.8661 37.9398 58.8599 37.9399 58.8537C37.9569 58.7935 37.9739 58.7353 37.9889 58.673C38.231 58.6827 38.2855 58.6518 38.1544 58.5783C38.1336 58.5615 38.1107 58.5469 38.0899 58.5301C38.0254 58.4819 37.9631 58.4359 37.9007 58.3877C37.778 58.2955 37.6595 58.2013 37.541 58.105C37.2999 57.9103 37.063 57.7073 36.8303 57.5002C36.3628 57.0776 35.9184 56.6323 35.5034 56.1622C35.2648 55.8926 35.0073 55.6396 34.7708 55.368C34.6608 55.2406 34.5488 55.1006 34.4849 54.9485C34.4767 54.9318 34.4746 54.9297 34.4665 54.886C34.4624 54.8694 34.4583 54.8506 34.4542 54.834C34.4582 54.8652 34.4603 54.8693 34.4584 54.8444C34.4584 54.8402 34.4563 54.8402 34.4584 54.8402C34.4102 54.8628 34.4583 54.8548 34.4625 54.8527C34.4018 54.869 34.3433 54.8853 34.2806 54.8995C34.2952 54.8996 34.3119 54.8997 34.3265 54.8998C34.266 54.8828 34.2077 54.8659 34.1451 54.851C34.1868 54.8699 34.2159 54.893 34.2554 54.916C34.2118 54.8721 34.1703 54.8303 34.1267 54.7864C34.1329 54.7989 34.1433 54.8073 34.1495 54.8198C34.1331 54.7594 34.1167 54.7011 34.1024 54.6387C34.1024 54.6511 34.1002 54.6657 34.1002 54.6761C34.1172 54.6159 34.1342 54.5577 34.1492 54.4954C34.1428 54.5079 34.1344 54.5203 34.1281 54.5286C34.1722 54.4852 34.2142 54.4438 34.2583 54.4004C34.2457 54.4066 34.2331 54.4148 34.2227 54.421C34.2833 54.4047 34.3439 54.3884 34.4046 54.3742C34.2898 54.3652 34.1894 54.3979 34.1034 54.4744C34.011 54.5571 33.9726 54.7045 34.0075 54.8232C34.0547 54.9732 34.1583 55.113 34.2411 55.2424C34.3363 55.3906 34.4315 55.5429 34.5372 55.6848C34.9747 56.2549 35.4875 56.7734 36.0005 57.2752C36.337 57.5973 36.8492 57.0948 36.5211 56.7728Z" fill="#1D0932"/>
<path d="M38.5806 56.522C37.3933 56.0206 36.4665 55.2171 35.9462 54.1455C35.8822 54.0141 35.6207 54.1063 35.6826 54.2418C36.1857 55.386 37.1683 56.3001 38.4751 56.7356C38.6168 56.7821 38.716 56.581 38.5806 56.522Z" fill="#6C43BF"/>
<path d="M38.6776 56.1772C38.1047 55.9308 37.5679 55.593 37.1276 55.1644C36.9054 54.9511 36.7187 54.7317 36.5551 54.4855C36.4722 54.3602 36.3957 54.233 36.3254 54.1016C36.2324 53.9285 36.1476 53.7846 35.9412 53.7377C35.768 53.7014 35.5757 53.7544 35.4476 53.8764C35.2608 54.0604 35.3034 54.281 35.4025 54.4937C35.5304 54.7709 35.6876 55.0338 35.87 55.278C36.2597 55.8 36.7375 56.2455 37.2973 56.5834C37.6198 56.7785 37.9739 56.9489 38.3324 57.0631C38.5616 57.1372 38.8 57.0719 38.9327 56.8606C39.076 56.6347 38.9878 56.3432 38.763 56.2109C38.3613 55.9779 37.9946 56.5934 38.3963 56.8264C38.3719 56.7161 38.3432 56.6037 38.3167 56.4933C38.4025 56.4584 38.4883 56.4236 38.5741 56.3887C38.5679 56.3741 38.4824 56.357 38.4657 56.3528C38.4074 56.3337 38.3511 56.3105 38.2969 56.2894C38.1928 56.2473 38.0824 56.1968 37.9741 56.14C37.7472 56.0244 37.5308 55.8902 37.3249 55.7414C36.9713 55.4837 36.6184 55.1117 36.3761 54.7548C36.2436 54.5586 36.1529 54.3377 36.0287 54.1416C35.9356 53.9955 36.0444 54.3246 35.9396 54.4031C35.8976 54.434 35.8809 54.4339 35.8287 54.4336C35.8099 54.4335 35.7912 54.4334 35.7724 54.4333C35.652 54.3058 35.6083 54.2765 35.6455 54.3453C35.6558 54.3724 35.6723 54.3974 35.6826 54.4224C35.7446 54.5413 35.8129 54.6602 35.8832 54.7749C36.1565 55.2027 36.4947 55.5892 36.8854 55.9157C37.3697 56.3176 37.9005 56.6241 38.4796 56.8685C38.6587 56.9443 38.8767 56.7896 38.9257 56.6214C38.9853 56.4138 38.8567 56.2551 38.6776 56.1772Z" fill="#1D0932"/>
<path d="M72.195 81.1501C71.2774 88.5367 71.1801 95.9674 71.8639 103.361C71.8638 103.369 71.8658 103.378 71.8658 103.386C71.8756 103.496 71.8876 103.606 71.8974 103.717C71.8848 103.719 71.8744 103.719 71.864 103.719C71.6844 103.726 71.9022 103.97 71.9252 103.97L71.931 104.066L71.9309 104.07L73.2353 130.698L35.5778 130.491L36.8833 108.807C37.0019 108.115 37.1803 106.806 37.1958 106.648C37.2491 106.077 37.2961 105.503 37.3431 104.93C37.3851 104.882 37.3939 104.809 37.3587 104.759C37.3655 104.655 37.3765 104.554 37.3833 104.452C37.5071 102.837 37.6037 101.222 37.6439 99.6043C37.7235 96.515 37.6007 93.4183 37.1144 90.355C36.6179 87.2354 35.6825 84.2154 34.3414 81.295C33.0746 78.5309 31.5631 75.8466 30.5515 72.9966C28.8697 68.2466 29.3991 62.7416 31.6839 58.0884C31.6881 58.0801 31.6923 58.0739 31.6966 58.0656C31.7303 57.9971 31.7641 57.9287 31.8 57.8603C31.8211 57.8167 31.8422 57.7732 31.8654 57.7296C31.8675 57.7442 31.8716 57.7546 31.8736 57.7671L32.0467 57.4208L32.1797 57.1513L32.2304 57.0497C32.2831 56.9543 32.3379 56.8611 32.3948 56.7678C32.4201 56.7201 32.4475 56.6724 32.477 56.6269C32.7974 56.0901 33.1406 55.5701 33.5066 55.0669C33.5824 54.9529 33.6603 54.8369 33.7403 54.7251C33.7487 54.7126 33.7571 54.7023 33.7655 54.6899C33.8792 54.5325 33.9969 54.3772 34.121 54.224L34.1273 54.2178C34.3669 53.9218 34.6253 53.6321 34.9004 53.3488L34.9025 53.3467C36.4711 51.7356 38.5625 50.3582 40.5982 49.2466C40.7071 49.1848 40.816 49.1251 40.9269 49.0675C40.9353 49.0634 40.9437 49.0593 40.9521 49.0552C40.9772 49.0429 41.0002 49.0284 41.0254 49.0161C41.1028 48.9749 41.1824 48.9338 41.2599 48.8926C42.9121 48.0284 44.486 47.3468 45.6663 46.8626C45.7688 46.8216 45.8672 46.7805 45.9634 46.7416C45.9697 46.7395 45.9739 46.7375 45.9781 46.7354C46.2522 46.6267 46.497 46.5283 46.7147 46.4421C46.9365 46.356 47.1269 46.2822 47.2796 46.2207C47.2964 46.2145 47.311 46.2084 47.3257 46.2022C47.311 46.2105 47.2963 46.2187 47.2817 46.229C47.1057 46.3299 46.9318 46.4371 46.76 46.5505C46.7055 46.5835 46.651 46.6206 46.5966 46.6556C46.3137 46.8391 46.0224 47.0247 45.7499 47.229C45.1754 47.6521 44.68 48.1442 44.5155 48.8149C44.4706 48.9976 44.4508 49.1784 44.4561 49.3594C44.4737 50.3284 45.1241 51.2739 45.7212 52.0465C45.7316 52.059 45.7399 52.0715 45.7503 52.0841C46.4116 52.9444 47.2143 53.9094 48.3754 54.2589C49.2967 54.5384 50.2916 54.3526 51.2169 53.9211C51.4555 53.8101 51.6922 53.6825 51.9184 53.5423C52.966 52.8994 53.8646 51.9936 54.3763 51.2022C54.4037 51.1607 54.429 51.1214 54.4522 51.082C54.4543 51.0799 54.4564 51.0758 54.4564 51.0737C54.6629 50.7338 54.8423 50.3834 54.9862 50.0308C54.9862 50.0287 54.9862 50.0287 54.9862 50.0266C55.2847 49.2943 55.4204 48.5465 55.299 47.8389C55.2687 47.6536 55.2196 47.4704 55.1496 47.2912C55.0528 47.037 54.9143 46.7909 54.7339 46.557C54.7236 46.5445 54.7153 46.532 54.7049 46.5194C54.7174 46.5299 54.7298 46.5404 54.7402 46.5508C54.9626 46.735 55.1495 46.9273 55.3029 47.134C55.4189 47.2865 55.5162 47.445 55.5967 47.6139C55.8238 48.083 55.919 48.622 55.8945 49.2623C55.8413 50.5927 55.1993 51.9074 54.3225 53.0212C53.9818 53.456 53.6059 53.8614 53.2155 54.2252C53.0287 54.3989 52.821 54.5786 52.5966 54.7624C52.4141 54.9132 52.2212 55.066 52.0178 55.2208C51.9989 55.2374 51.9758 55.2539 51.9549 55.2704C48.6441 57.7868 42.9898 60.8246 43.1064 60.8855C43.098 60.8959 42.757 64.0524 42.884 65.6229C42.9975 67.0021 43.0867 68.6244 43.6893 69.921C43.6934 69.9314 43.6975 69.9397 43.7016 69.9502C43.8936 70.3525 44.2133 70.6932 44.6126 70.974C44.6896 71.0264 44.7686 71.0768 44.8498 71.125C45.0163 71.2258 45.1933 71.3161 45.3807 71.3983C45.389 71.4087 45.3953 71.4171 45.4035 71.4275C45.4243 71.4546 45.4513 71.4693 45.4784 71.4778C45.5076 71.4863 45.5369 71.4864 45.5661 71.4783C46.9474 72.0244 48.724 72.0862 49.8915 71.6394C50.3665 71.459 50.7729 71.22 51.1189 70.9413C51.1504 70.9144 51.1818 70.8896 51.2133 70.8628C51.2802 70.8465 51.341 70.8052 51.3602 70.7347C51.3623 70.7305 51.3644 70.7222 51.3644 70.718C51.4988 70.5899 51.6227 70.4554 51.7362 70.3167C51.7656 70.2815 51.793 70.2484 51.8161 70.2132C51.8729 70.1449 51.9234 70.0745 51.9697 70.002C51.9844 69.9833 51.9971 69.9647 52.0097 69.946C52.1234 69.7762 52.2225 69.6 52.3133 69.4196C52.3175 69.4134 52.3196 69.4071 52.3217 69.4009C52.3639 69.318 52.402 69.235 52.4359 69.15C52.4591 69.1023 52.4802 69.0525 52.4993 69.0027C52.5241 69.0465 52.551 69.0903 52.5779 69.132C52.6193 69.205 52.6648 69.276 52.7125 69.3449C52.7145 69.349 52.7166 69.3532 52.7208 69.3574C52.992 69.7685 53.3135 70.1528 53.6749 70.5041C53.8141 70.6401 53.9616 70.7719 54.1133 70.8954C54.1694 70.9414 54.2256 70.9875 54.2838 71.0315C54.4501 71.1592 54.6207 71.2808 54.7996 71.3919C55.5403 71.8638 56.3737 72.1949 57.2499 72.3224C57.9468 72.426 58.6714 72.4009 59.3991 72.2157C59.7357 72.1282 60.0746 72.0094 60.4116 71.8512C60.487 71.8163 60.5582 71.7792 60.6294 71.7422C60.6629 71.7237 60.6964 71.7051 60.7278 71.6866C61.0232 71.5198 61.281 71.3299 61.5077 71.1212C62.3912 70.3006 62.7878 69.1862 62.951 67.9936C63.2709 65.6375 63.4302 63.2556 63.6625 60.8886C64.14 56.0798 64.6196 51.269 65.0929 46.4602C65.2589 44.7582 65.4484 42.9503 64.7746 41.3207C64.7767 41.3186 64.7746 41.3186 64.7746 41.3186C64.7499 41.2581 64.7252 41.1977 64.6984 41.1393C64.6736 41.0893 64.6509 41.0393 64.6261 40.9892C64.6292 40.8 64.6324 40.6088 64.6334 40.4175C64.6879 36.2115 64.5086 31.9958 64.417 27.789C64.3707 25.5764 64.3223 23.3638 64.2761 21.1513C64.233 19.1113 63.9464 16.9473 64.325 14.9242C64.725 12.8035 66.5202 11.3787 69.0084 11.8852C71.1336 12.3211 72.6688 13.7434 73.35 15.5312C74.0581 17.3793 73.9699 19.3729 73.8654 21.2894C73.7468 23.4802 73.67 25.6713 73.6892 27.865C73.7652 36.8083 74.9856 45.7142 75.047 54.6574C75.1085 63.5881 73.294 72.3068 72.195 81.1501Z" fill="#6C43BF"/>
<path d="M74.198 33.0096C74.0499 29.9564 73.9936 26.9038 74.1044 23.8458C74.2005 21.1932 74.6672 18.3389 73.8107 15.7642C72.7447 12.5521 68.1501 9.71567 65.2074 12.5044C63.6479 13.9824 63.7222 16.4052 63.7928 18.3767C63.8959 21.2674 63.9802 24.156 64.0394 27.0485C64.1026 29.9827 64.2034 32.9171 64.254 35.8532C64.2795 37.2881 64.2925 38.7249 64.2741 40.1616L64.2736 40.253C64.2727 40.4131 64.2782 40.5546 64.29 40.6815C64.3059 40.8333 64.3302 40.9686 64.3608 41.0998C64.4262 41.3684 64.5208 41.6267 64.6314 42.0078C64.8384 42.7118 64.8908 43.446 64.8888 44.1737C64.869 47.3882 64.3165 50.6579 64.0003 53.8561C63.6731 57.1478 63.3376 60.4374 63.0439 63.7314C62.8748 65.6101 62.9408 68.0349 62.0188 69.7785C61.7381 70.3092 61.366 70.7771 60.867 71.1486C60.7664 71.2229 60.6595 71.295 60.5485 71.361C60.3767 71.464 60.1924 71.5565 59.9957 71.6365C58.1876 72.3772 56.2919 71.9779 54.7901 70.9363C54.6736 70.8566 54.5592 70.7707 54.4491 70.6849C54.2474 70.5237 54.0521 70.3521 53.8694 70.166C53.7551 70.0552 53.6451 69.9382 53.5372 69.817C53.2758 69.5203 53.0395 69.1988 52.8326 68.8587C52.8264 68.8483 52.8181 68.8358 52.8119 68.8253C52.6381 68.5374 52.2722 68.6331 52.1537 68.9069C52.1389 68.9401 52.1241 68.9754 52.1072 69.0086C52.0607 69.1164 52.01 69.2201 51.9531 69.3196C51.9341 69.3569 51.9151 69.3943 51.894 69.4295C51.8877 69.4419 51.8814 69.4523 51.873 69.4626C51.816 69.5663 51.7528 69.6657 51.6855 69.761C51.4687 70.0779 51.2187 70.3552 50.9397 70.5886C50.1174 71.2848 49.0486 71.6199 47.8107 71.5736C47.0174 71.5442 46.2143 71.413 45.5249 71.0973L45.5228 71.0973C45.1646 70.9331 44.8359 70.7172 44.5534 70.4391C44.3956 70.2843 44.2504 70.1089 44.1241 69.9106C44.1117 69.8877 44.0972 69.8647 44.0848 69.8418C43.9648 69.6436 43.8637 69.4247 43.7836 69.1831C42.9005 66.5189 43.3622 63.808 43.4461 61.0888C43.6405 61.0545 44.0202 60.726 44.1668 60.6416C45.0927 60.0957 46.0186 59.556 46.9404 58.9997C48.6393 57.9778 50.3802 56.9394 51.9695 55.7256C51.9926 55.707 52.0178 55.6905 52.0408 55.6698C52.2526 55.5088 52.4623 55.3415 52.6679 55.1701C52.8504 55.0235 53.0287 54.8706 53.2049 54.7156C53.5805 54.385 53.9585 53.9983 54.3137 53.5698C56.0835 51.4463 57.318 48.3238 54.9594 46.2711C54.9303 46.2459 54.8991 46.2271 54.8658 46.2144C54.5867 46.0923 54.1989 46.3584 54.3643 46.6587C54.3705 46.6733 54.3788 46.6858 54.3891 46.7004C54.4078 46.7255 54.4243 46.7505 54.4409 46.7755C54.443 46.7755 54.443 46.7776 54.443 46.7776C54.4575 46.8006 54.472 46.8214 54.4865 46.8444C55.3539 48.1986 54.9649 49.8245 53.999 51.1894C53.9969 51.1915 53.9969 51.1915 53.9948 51.1936C53.5276 51.8522 52.9272 52.4498 52.2668 52.9265C52.1432 53.0131 52.0195 53.0977 51.8938 53.176C51.0641 53.6995 50.1707 54.0231 49.3522 54.0353C47.5773 54.0629 46.3002 52.3987 45.4412 51.0425C44.8223 50.068 44.5195 48.929 45.3869 48.0106C45.8763 47.4956 46.5195 47.0978 47.1416 46.7312C47.2631 46.6591 47.3846 46.5869 47.504 46.5169C47.5627 46.4819 47.6047 46.4322 47.63 46.3783C47.6807 46.2767 47.6793 46.154 47.6381 46.0519C47.5928 45.9352 47.4994 45.8432 47.3741 45.8363C47.3303 45.8319 47.2822 45.8399 47.2299 45.8604C47.2006 45.8727 47.1713 45.883 47.142 45.8953L47.1399 45.8953C45.129 46.6972 43.1346 47.5304 41.2144 48.5199C41.1118 48.5713 41.0092 48.6248 40.9066 48.6783C40.8962 48.6845 40.8857 48.6886 40.8752 48.6948C40.7621 48.7545 40.6512 48.8121 40.5423 48.8718C40.0585 49.1332 39.5789 49.4029 39.1075 49.6872C38.0014 50.3548 36.9743 51.0831 36.0344 51.8889C34.6226 53.0954 33.406 54.4755 32.4054 56.0814C32.3022 56.243 32.2031 56.4088 32.1082 56.5767C32.0872 56.6078 32.0703 56.6389 32.0513 56.6721C31.9902 56.7799 31.929 56.8897 31.87 56.9996C31.7877 57.1468 31.7096 57.2981 31.6315 57.4516C31.6001 57.4763 31.5749 57.5074 31.5559 57.5447C28.877 62.8424 28.4554 68.8762 30.703 74.3923C31.9741 77.5203 33.7139 80.4408 34.9222 83.5955C36.1243 86.7355 36.8286 90.0184 37.1171 93.3634C37.6981 100.087 36.6445 106.751 36.2402 113.448C35.8977 119.129 35.5554 124.808 35.2129 130.488L35.9228 130.492C36.2077 125.78 36.4905 121.07 36.7733 116.358C36.9065 114.161 37.0397 111.96 37.1729 109.761C37.1937 109.407 37.206 109.054 37.2498 108.701C37.5825 105.918 37.8712 103.157 37.9681 100.352C38.1988 93.7187 37.4246 87.2001 34.6394 81.1154C33.222 78.0199 31.4136 75.0242 30.5152 71.7195C29.6925 68.6979 29.7353 65.4732 30.4745 62.4416C30.844 60.9279 31.3866 59.4712 32.0791 58.0757C32.1189 58.0489 32.1526 58.0075 32.18 57.9536C32.6635 56.9811 33.2176 56.088 33.8381 55.2639C33.836 55.2618 33.8381 55.2618 33.8381 55.2618C33.9138 55.1603 33.9895 55.063 34.0652 54.9657C34.0673 54.9636 34.0694 54.9616 34.0715 54.9595C34.082 54.9429 34.0946 54.9264 34.1073 54.9119C34.1241 54.8912 34.1388 54.8705 34.1556 54.8518C34.1556 54.8498 34.1556 54.8498 34.1577 54.8498C34.1577 54.8477 34.1598 54.8477 34.1598 54.8477C34.164 54.8415 34.1682 54.8353 34.1724 54.8311C34.1724 54.8291 34.1745 54.827 34.1745 54.827C34.246 54.738 34.3175 54.6511 34.391 54.5662C34.389 54.5641 34.391 54.5641 34.391 54.5641C34.4646 54.4751 34.5403 54.3861 34.618 54.2992C34.618 54.2972 34.6201 54.2951 34.6222 54.293C35.1896 53.6412 35.8026 53.0353 36.4613 52.4693C37.4369 51.6284 38.5122 50.8733 39.6769 50.1832C40.0162 49.9813 40.3576 49.7877 40.7011 49.6004C40.9063 49.4872 41.1116 49.3781 41.3189 49.2711C41.321 49.267 41.3252 49.267 41.3273 49.2649C42.479 48.662 43.6575 48.1196 44.8505 47.6064C44.1928 48.3534 43.8662 49.2643 44.3212 50.4437C45.0129 52.2357 46.8233 54.4767 48.8494 54.727C49.3752 54.7922 49.9267 54.7412 50.4766 54.5966C50.9722 54.4663 51.4681 54.2611 51.9457 53.9955C52.8505 53.4869 53.6917 52.7638 54.3457 51.9295C54.9765 51.1283 55.4346 50.2242 55.6129 49.3124C55.5697 50.3269 55.0503 51.372 54.333 52.3328C53.6893 53.1984 52.8853 53.9965 52.1237 54.6473C52.0818 54.6824 52.0398 54.7175 51.9979 54.7547C51.9937 54.7547 51.9916 54.7588 51.9895 54.7588C51.6371 55.0542 51.2974 55.3143 50.9892 55.5351C48.8071 57.0908 46.4861 58.4483 44.1757 59.8016C43.7127 60.0735 43.1664 60.3159 42.7885 60.7005C42.7738 60.7171 42.7567 60.7814 42.7459 60.8458C42.746 60.8334 42.7481 60.8188 42.7503 60.8064C42.746 60.8292 42.7438 60.8521 42.7416 60.8687C42.7416 60.8624 42.7438 60.8541 42.7459 60.8479C42.7328 60.9476 42.7218 61.0515 42.7087 61.1513C42.6366 61.731 42.5979 62.3192 42.5613 62.8991C42.459 64.4164 42.4925 65.9074 42.6825 67.418C42.7905 68.2856 42.9504 69.2139 43.3406 70.002C43.6277 70.5837 44.0404 71.087 44.6503 71.4293C46.0491 72.2167 47.8743 72.5283 49.48 72.1379C49.5218 72.1278 49.5616 72.1176 49.6013 72.1074C49.6117 72.1054 49.6201 72.1013 49.6306 72.0992C50.4796 71.8648 51.1815 71.4133 51.7402 70.8155C51.8242 70.7286 51.902 70.6376 51.9777 70.5423C52.0828 70.4161 52.1816 70.2836 52.2722 70.1447C52.2743 70.1448 52.2743 70.1448 52.2722 70.1427C52.369 70.0039 52.4554 69.8609 52.5377 69.7117C53.1304 70.5113 53.9179 71.208 54.8024 71.7348C57.1437 73.1241 60.1682 73.3071 62.1207 70.985C63.5121 69.3292 63.4673 66.8381 63.6581 64.8035C63.9309 61.8982 64.2038 58.9888 64.4912 56.0815C64.7852 53.1223 65.0772 50.163 65.3691 47.2017C65.4996 45.8779 65.6845 44.5316 65.5644 43.1981C65.5546 43.0817 65.5428 42.9672 65.5267 42.8528C65.4707 42.395 65.3751 41.9433 65.2209 41.51C64.9845 40.8329 64.9898 40.2445 64.9917 39.5251C65.0241 33.6473 64.7684 27.7657 64.642 21.8911C64.6122 20.4896 64.5051 19.0896 64.4878 17.684C64.4697 16.4155 64.4527 14.9516 65.0916 13.8116C66.3168 11.6185 69.1948 11.8631 71.0232 13.1207C73.3674 14.7346 73.6416 17.6575 73.5458 20.2643C73.4421 23.1685 73.2821 26.0557 73.335 28.9628C73.4445 34.8476 74.0073 40.7059 74.3717 46.5756C74.734 52.4493 74.777 58.2736 74.1497 64.1315C73.4475 70.6856 72.1861 77.1701 71.5403 83.7328C70.8922 90.3246 70.9036 96.9637 71.5146 103.556C71.4137 103.672 71.4024 103.834 71.4747 103.966C71.5181 104.047 71.5471 104.089 71.5637 104.107C71.5756 104.222 71.5729 104.342 71.5785 104.457C71.6029 104.96 71.6272 105.466 71.6516 105.967C71.7438 107.81 71.8339 109.65 71.9218 111.491C72.1866 116.875 72.4492 122.262 72.7139 127.647C72.7647 128.664 72.8134 129.679 72.86 130.696L73.5887 130.7C73.2978 124.754 73.0049 118.807 72.714 112.863C72.6071 110.669 72.5001 108.477 72.3911 106.283C72.3555 105.553 72.4672 104.601 72.2185 103.88C72.2459 103.833 72.2587 103.779 72.2528 103.718C71.6847 97.6916 71.6158 91.6219 72.098 85.5864C72.5687 79.7276 73.6112 73.9384 74.3887 68.1188C75.1641 62.2928 75.5385 56.4938 75.3036 50.6186C75.0667 44.7413 74.4809 38.885 74.198 33.0096ZM72.0423 104.035L72.0422 104.041C72.0339 104.044 72.0276 104.046 72.0192 104.046C72.0276 104.041 72.036 104.039 72.0423 104.035Z" fill="#1D0932"/>
<path d="M55.4095 108.288C54.9478 106.445 54.9326 104.663 55.1892 102.791C55.2241 102.531 54.8169 102.533 54.7821 102.789C54.5189 104.698 54.5465 106.518 55.0143 108.394C55.0776 108.65 55.4728 108.544 55.4095 108.288Z" fill="#1D0932"/>
<path d="M54.8781 102.969C55.7838 103.427 56.6295 103.8 57.3122 104.569C57.8413 105.168 58.2635 105.855 58.7507 106.485C58.9103 106.692 59.2 106.405 59.0404 106.2C58.5511 105.565 58.1184 104.896 57.6019 104.283C56.9132 103.469 56.0237 103.094 55.0867 102.619C54.8535 102.499 54.6449 102.847 54.8781 102.969Z" fill="#1D0932"/>
<path d="M54.9898 106.479C54.5033 105.72 53.6472 105.345 52.841 105.014C52.5972 104.915 52.4886 105.305 52.7303 105.404C53.4261 105.689 54.2177 106.022 54.6358 106.679C54.7787 106.902 55.1326 106.702 54.9898 106.479Z" fill="#1D0932"/>
<path d="M54.8332 103.206C55.6885 104.115 56.1581 105.282 56.7514 106.362C57.3653 107.48 58.1592 108.545 58.5345 109.776C58.6125 110.026 59.0056 109.924 58.9276 109.672C58.5625 108.478 57.8398 107.395 57.2026 106.331C56.5136 105.182 56.0591 103.913 55.125 102.92C54.9423 102.73 54.6526 103.015 54.8332 103.206Z" fill="#1D0932"/>
<path d="M56.6306 105.613C56.9088 105.157 56.7762 104.578 57.0501 104.128C57.1871 103.902 56.8354 103.697 56.6984 103.923C56.4203 104.378 56.5528 104.957 56.2789 105.407C56.144 105.631 56.4937 105.836 56.6306 105.613Z" fill="#1D0932"/>
<path d="M47.2464 46.6929C48.6306 45.9708 50.2004 45.653 51.7594 45.778C52.3584 45.825 52.9215 45.9403 53.4651 46.1949C53.9003 46.4011 54.5022 46.683 54.7 47.1561C54.8793 47.5792 55.5014 47.2187 55.3242 46.7998C55.0934 46.2517 54.4523 45.8843 53.9421 45.632C53.307 45.3166 52.6753 45.153 51.97 45.0785C50.2233 44.8983 48.4403 45.2586 46.8866 46.0693C46.4761 46.2853 46.836 46.9069 47.2464 46.6929Z" fill="#1D0932"/>
<path d="M52.1396 45.2433C52.772 43.0241 51.8589 40.4948 49.9094 39.2324C49.356 38.8738 48.7288 38.6312 48.0758 38.5444C47.3768 38.4512 46.6745 38.5783 45.9991 38.7596C44.7068 39.1101 43.4218 39.6603 42.3876 40.53C41.366 41.3893 40.5012 42.6071 40.0849 43.8753C39.9405 44.3132 40.6348 44.5083 40.7771 44.0724C41.1084 43.0575 41.7754 42.1193 42.5333 41.3729C43.3605 40.5561 44.4367 40.0131 45.5328 39.6511C46.7188 39.2585 47.9312 39.0156 49.0993 39.598C50.0384 40.0669 50.7544 40.8526 51.1898 41.8011C51.6561 42.8121 51.752 43.9811 51.4496 45.0503C51.3219 45.4925 52.014 45.6876 52.1396 45.2433Z" fill="#1D0932"/>
<path d="M64.7404 40.4911C62.9956 39.2132 61.0646 38.0215 58.8545 37.8284C56.8489 37.6552 54.8257 38.4071 53.3048 39.6941C52.8517 40.0784 52.4505 40.517 52.0929 40.987C51.912 41.2251 51.7457 41.4716 51.5919 41.7286C51.4528 41.9586 51.2536 42.1155 51.4044 42.4033C51.4644 42.5138 51.5893 42.5811 51.7146 42.5818C51.8064 42.5823 51.8796 42.564 51.9592 42.5187C52.1582 42.4116 52.2016 42.1125 52.0354 41.9556C52.0312 41.9514 52.025 41.9451 52.0188 41.9409C51.6823 41.623 51.1679 42.1255 51.5065 42.4434C51.5107 42.4476 51.5169 42.4538 51.5232 42.458C51.5493 42.269 51.5732 42.084 51.5993 41.895C51.637 41.8827 51.6788 41.8725 51.7164 41.8623C51.8184 41.9232 51.9225 41.9841 52.0266 42.0408C52.0224 42.0304 52.0162 42.022 52.0121 42.0116C52.0114 42.1322 52.0108 42.2528 52.0101 42.3734C52.0967 42.2034 52.2459 42.0295 52.3491 41.8658C52.4859 41.6566 52.6291 41.4494 52.7867 41.2549C53.0832 40.8822 53.415 40.541 53.7758 40.2311C54.4576 39.6464 55.2599 39.1851 56.1113 38.8924C57.9271 38.2704 59.7987 38.4948 61.5105 39.3152C62.5289 39.8032 63.465 40.4363 64.3737 41.1025C64.748 41.3811 65.1127 40.7614 64.7404 40.4911Z" fill="#1D0932"/>
<path d="M52.828 69.0986C53.0941 64.3906 52.8216 59.665 52.6679 54.9588C52.6517 54.4992 51.9334 54.4911 51.9476 54.9528C52.1012 59.659 52.3738 64.3845 52.1077 69.0926C52.0822 69.554 52.8025 69.5601 52.828 69.0986Z" fill="#1D0932"/>
<path d="M61.1993 71.6852C62.0084 70.3715 62.3717 68.8556 62.2778 67.3185C62.2051 66.1142 62.1336 64.6958 60.743 64.316C60.1259 64.1483 59.4784 64.1905 58.8481 64.1329C57.9904 64.0554 57.1371 63.926 56.2773 63.8526C55.0814 63.7525 53.6666 63.988 53.3855 65.3629C53.2117 66.2186 53.2607 67.1649 53.3207 68.0302C53.3886 68.9745 53.5421 69.909 53.7563 70.8312C53.8603 71.2809 54.5545 71.0956 54.4505 70.6459C54.1262 69.2427 53.9628 67.8279 54.0104 66.3914C54.0303 65.8114 54.0175 65.1023 54.5914 64.7728C55.0145 64.5297 55.5512 64.5265 56.025 64.5519C56.7201 64.589 57.4148 64.6927 58.1076 64.7693C58.7252 64.8371 59.339 64.8592 59.9588 64.9105C60.4639 64.9527 61.0083 65.0556 61.2624 65.5414C61.5063 66.0023 61.5157 66.5679 61.5421 67.0774C61.5819 67.8033 61.5843 68.5124 61.4258 69.2309C61.261 69.9723 60.9752 70.6714 60.5771 71.3179C60.341 71.7159 60.9591 72.0811 61.1993 71.6852Z" fill="#1D0932"/>
<path d="M45.5181 71.0773C44.9157 70.13 44.5165 69.0673 44.3702 67.9562C44.302 67.4381 44.2654 66.8827 44.3393 66.3633C44.3697 66.141 44.4316 65.9023 44.5891 65.7368C44.7739 65.5424 45.0541 65.4774 45.3008 65.408C46.4698 65.0797 47.668 64.7516 48.8895 64.7562C49.4073 64.7591 50.0607 64.771 50.5186 65.0459C50.9743 65.3187 51.0398 65.9532 51.1186 66.4277C51.347 67.793 51.2808 69.2023 50.9539 70.5458C50.8449 70.9943 51.5371 71.1894 51.646 70.743C51.9878 69.3393 52.0584 67.8946 51.8492 66.465C51.7626 65.874 51.6681 65.2165 51.2656 64.7464C50.8611 64.2722 50.2103 64.1522 49.624 64.0803C48.1759 63.9039 46.7206 64.2723 45.3342 64.6534C44.7571 64.8104 44.1569 64.9755 43.849 65.5393C43.5663 66.0576 43.5711 66.7043 43.593 67.2783C43.6517 68.7486 44.1031 70.1899 44.8918 71.4335C45.1402 71.8216 45.7665 71.4675 45.5181 71.0773Z" fill="#1D0932"/>
<path d="M68.0051 37.4765C68.8614 36.6744 70.2125 36.6445 71.0914 37.4311C71.4342 37.7386 71.9485 37.2383 71.6036 36.9287C71.0406 36.4224 70.3073 36.1231 69.5451 36.1314C68.785 36.1397 68.0526 36.4475 67.5006 36.9664C67.1626 37.2826 67.6651 37.7907 68.0051 37.4765Z" fill="#1D0932"/>
<path d="M32.8863 39.5508C33.1172 39.3296 33.3501 39.1084 33.5873 38.8935C33.795 38.7034 34.0151 38.5465 34.2973 38.4961C34.8574 38.3973 35.4489 38.6771 35.9424 38.9086C36.1174 38.9906 36.3305 38.9627 36.4359 38.7844C36.5286 38.629 36.4861 38.3772 36.3112 38.2931C35.6448 37.9796 34.9261 37.6762 34.1717 37.7926C33.4298 37.9112 32.9043 38.5508 32.3838 39.0387C32.0438 39.357 32.5484 39.8671 32.8863 39.5508Z" fill="#1D0932"/>
<path d="M57.5823 40.2219C57.6137 40.218 57.645 40.214 57.6764 40.2079C57.7035 40.2039 57.6931 40.2059 57.6471 40.2119C57.6638 40.2099 57.6826 40.2079 57.6993 40.206C57.7516 40.2021 57.808 40.1982 57.8623 40.1965C57.9855 40.193 58.1066 40.1957 58.2276 40.2068C58.2589 40.209 58.2902 40.2155 58.3215 40.2177C58.3987 40.2264 58.2485 40.2048 58.334 40.2199C58.3924 40.2306 58.4487 40.2392 58.5071 40.252C58.626 40.2797 58.7448 40.3136 58.8594 40.3537C59.0366 40.4171 59.2607 40.2873 59.3055 40.1067C59.3526 39.9073 59.2491 39.7321 59.0574 39.6624C58.5239 39.4745 57.9562 39.4401 57.3982 39.5327C57.2122 39.5649 57.0898 39.7992 57.1431 39.9721C57.2047 40.1679 57.3838 40.2541 57.5823 40.2219Z" fill="#1D0932"/>
<path d="M51.3505 92.2483C53.1355 90.0084 53.872 87.0765 53.328 84.2624C53.2407 83.8107 52.5464 83.9961 52.6337 84.4478C53.1209 86.983 52.4607 89.7136 50.8459 91.7361C50.5642 92.0943 51.0645 92.6106 51.3505 92.2483Z" fill="#1D0932"/>
</g>
<defs>
<clipPath id="clip0">
<rect width="105" height="105" fill="white"/>
</clipPath>
</defs>
</svg>
