<svg width="150" height="100" viewBox="0 0 150 100" fill="none" xmlns="http://www.w3.org/2000/svg">
<path d="M85.2622 38.1029C80.6432 21.0735 55.7609 5.2846 43.2794 11.0873C-9.80225 35.7732 78.4864 91.4663 79.9921 92.2097C113.644 56.2521 133.82 20.0081 101.766 8.2227C92.476 4.8064 76.5356 11.8757 70.9459 21.9826" fill="#C23172"/>
<path d="M84.9204 38.198C83.8551 34.3035 81.8333 30.7239 79.3853 27.5325C76.736 24.0807 73.5446 21.0289 70.0597 18.4294C66.6978 15.9199 63.0187 13.7773 59.1005 12.2645C55.741 10.9671 52.1141 10.0674 48.4894 10.2403C46.9363 10.3137 45.3856 10.6049 43.939 11.1873C42.3812 11.817 40.8708 12.648 39.4172 13.4885C36.8839 14.954 34.4785 16.668 32.4141 18.7514C30.7403 20.4394 29.3126 22.3713 28.3064 24.5281C27.4068 26.4576 26.8717 28.5552 26.7179 30.6765C26.5616 32.8499 26.7865 35.0327 27.2813 37.1516C27.8187 39.4599 28.6593 41.6924 29.6797 43.8303C30.7948 46.167 32.1205 48.3996 33.5671 50.5445C35.1154 52.8386 36.8082 55.0333 38.5885 57.1522C40.4494 59.3634 42.4073 61.4942 44.4315 63.5563C46.4841 65.6492 48.6054 67.6734 50.774 69.6431C52.8811 71.5561 55.0355 73.4169 57.2278 75.2328C59.2757 76.9303 61.3544 78.5899 63.4638 80.2117C65.3484 81.6629 67.2565 83.0834 69.1813 84.4779C70.7841 85.638 72.4011 86.7767 74.0323 87.8966C75.2445 88.7275 76.4637 89.5467 77.6948 90.3493C78.3932 90.8038 79.0917 91.256 79.8019 91.6893C79.9227 91.7627 80.0434 91.8432 80.1712 91.9047C80.0268 91.9237 79.8848 91.9426 79.7404 91.9592C84.099 87.2976 88.3415 82.5271 92.4041 77.6027C96.1542 73.0571 99.7552 68.3813 103.098 63.5255C106.05 59.238 108.813 54.806 111.197 50.1752C113.229 46.2309 115 42.1257 116.183 37.8429C117.161 34.3035 117.741 30.6102 117.469 26.9311C117.23 23.6948 116.261 20.5341 114.479 17.8092C112.528 14.8285 109.715 12.5273 106.621 10.8108C104.822 9.81173 102.892 8.90497 100.915 8.31547C99.1278 7.78515 97.2456 7.64311 95.3895 7.73544C91.102 7.94615 86.876 9.35243 83.0951 11.334C79.2124 13.3701 75.5759 16.1259 72.9078 19.6345C72.297 20.4371 71.743 21.2822 71.2505 22.163C71.028 22.5631 70.4148 22.2056 70.6373 21.8055C72.7704 17.9725 76.0897 14.8782 79.7285 12.4894C83.4645 10.0367 87.7117 8.21371 92.12 7.41112C94.111 7.0489 96.1518 6.89024 98.169 7.08201C100.169 7.27141 101.997 7.88458 103.839 8.67059C107.364 10.174 110.729 12.2503 113.302 15.1268C115.532 17.6197 117.064 20.6525 117.758 23.9244C118.501 27.4378 118.328 31.0766 117.672 34.5876C116.886 38.7994 115.407 42.8644 113.643 46.7613C111.538 51.4087 108.986 55.8454 106.223 60.1282C103.072 65.0099 99.6273 69.6999 96.0216 74.2574C92.0513 79.2765 87.8727 84.1322 83.5662 88.8648C82.4677 90.0722 81.3597 91.2726 80.2446 92.4658C80.131 92.5866 79.9534 92.5913 79.8137 92.5203C79.3734 92.3001 78.9591 92.0042 78.5424 91.7414C77.5315 91.0998 76.5301 90.4392 75.5333 89.774C74.0466 88.7796 72.5739 87.7639 71.1132 86.7317C69.2784 85.4367 67.4625 84.118 65.6656 82.7733C63.5869 81.2178 61.5319 79.6292 59.5053 78.0051C57.3059 76.2437 55.1397 74.4397 53.0137 72.5883C50.7977 70.6588 48.6291 68.6772 46.5173 66.634C44.3889 64.5743 42.3197 62.4507 40.3381 60.2465C38.4157 58.1111 36.5785 55.8998 34.8621 53.5962C33.2475 51.43 31.7441 49.1761 30.4254 46.8181C29.2085 44.64 28.1454 42.3648 27.35 39.9973C26.6208 37.8263 26.1283 35.5678 25.9934 33.2808C25.8655 31.1027 26.0834 28.8985 26.6942 26.8033C27.3405 24.5897 28.4202 22.5157 29.8075 20.6785C31.4435 18.5099 33.4581 16.668 35.6528 15.0771C36.9431 14.1419 38.2973 13.2967 39.6894 12.5201C41.1643 11.6986 42.6937 10.8582 44.2918 10.3018C47.4761 9.19384 50.9942 9.3714 54.2495 10.0627C58.1866 10.8984 61.951 12.5296 65.4288 14.5325C69.2334 16.7248 72.7657 19.4238 75.8837 22.5133C78.8952 25.4988 81.5728 28.8962 83.5094 32.6818C84.3807 34.384 85.1003 36.1667 85.6046 38.011C85.7254 38.449 85.0412 38.6384 84.9204 38.198Z" fill="#1D0932"/>
<path d="M86.0335 40.6297C81.4145 23.6003 65.5759 9.99673 51.0229 14.4571C-1.66811 30.6082 78.4811 91.4694 79.9892 92.2128C113.641 56.2552 141.563 23.3802 109.51 11.5948C100.22 8.17847 84.2791 15.2478 78.6895 25.3546" fill="#C23172"/>
<path d="M85.6937 40.7228C84.5005 36.35 82.5804 32.1903 80.0425 28.4354C77.6276 24.8605 74.6375 21.6265 71.1431 19.0862C67.9493 16.7637 64.3128 15.0023 60.4112 14.2896C58.5385 13.9464 56.6185 13.8659 54.7245 14.06C52.9039 14.2494 51.1591 14.7537 49.4355 15.3456C46.8171 16.2452 44.2602 17.365 41.9116 18.8423C40.0436 20.019 38.3153 21.4372 36.909 23.1465C35.7135 24.6025 34.7807 26.2787 34.2054 28.0733C33.6372 29.8442 33.417 31.7002 33.4691 33.5564C33.5259 35.5403 33.8905 37.5053 34.435 39.4112C35.0411 41.5301 35.8721 43.5803 36.8356 45.5619C37.8868 47.7258 39.0966 49.8116 40.3964 51.8358C41.7837 53.9926 43.28 56.0784 44.8473 58.1073C46.4714 60.2096 48.176 62.2528 49.9303 64.2462C51.6893 66.2444 53.5028 68.1928 55.3566 70.101C57.144 71.9406 58.9718 73.7446 60.8303 75.5155C62.5704 77.1728 64.3389 78.8016 66.1287 80.402C67.7196 81.8249 69.3296 83.2241 70.9584 84.6019C72.3032 85.7407 73.6597 86.8629 75.0305 87.9686C75.5892 88.4184 76.1503 88.8658 76.7138 89.3109C77.1897 89.6874 77.6395 90.0354 78.0609 90.3597C78.6504 90.8119 79.2399 91.2641 79.846 91.6903C79.9502 91.7637 80.0543 91.8441 80.168 91.9009C80.0235 91.9199 79.8815 91.9388 79.7371 91.9554C84.1478 87.2417 88.5347 82.5067 92.8388 77.696C96.8067 73.2616 100.706 68.7634 104.449 64.1373C107.804 59.9895 111.04 55.7374 113.988 51.2889C116.445 47.5814 118.727 43.7224 120.501 39.6361C121.909 36.3926 123.029 32.9219 123.249 29.3706C123.434 26.3947 122.92 23.3951 121.431 20.7861C119.771 17.8741 117.11 15.7054 114.213 14.0979C112.437 13.1107 110.519 12.2157 108.564 11.6499C106.767 11.1314 104.882 11.0012 103.021 11.1006C98.7481 11.3326 94.5387 12.7437 90.772 14.7277C86.9082 16.7613 83.293 19.5124 80.6391 23.0092C80.033 23.807 79.4814 24.6475 78.9937 25.5235C78.7711 25.9236 78.1579 25.5661 78.3805 25.166C80.5065 21.3472 83.8092 18.26 87.4338 15.8735C91.1698 13.4161 95.417 11.586 99.8253 10.7787C101.802 10.4165 103.831 10.2531 105.836 10.4354C107.818 10.6153 109.631 11.2048 111.457 11.9766C114.842 13.4089 118.138 15.3716 120.513 18.2316C122.489 20.6133 123.652 23.4992 123.929 26.5794C124.234 29.972 123.524 33.4024 122.435 36.6033C121.059 40.6423 119.061 44.4563 116.855 48.0951C114.179 52.5082 111.156 56.7058 107.998 60.785C104.357 65.4915 100.519 70.0419 96.5984 74.5164C92.3393 79.3769 87.9736 84.145 83.5748 88.8777C82.4645 90.0709 81.3517 91.2641 80.239 92.455C80.1254 92.5757 79.9478 92.5804 79.8081 92.5094C79.4175 92.3153 79.0624 91.9933 78.7143 91.7352C77.8455 91.0889 76.9908 90.4236 76.1408 89.7536C74.8955 88.7711 73.6645 87.7744 72.4428 86.7635C70.904 85.4898 69.3817 84.1971 67.8783 82.8855C66.124 81.3585 64.3934 79.8054 62.6864 78.2239C60.8161 76.4933 58.9741 74.7319 57.1677 72.9373C55.2808 71.0623 53.4318 69.147 51.6301 67.189C49.8001 65.198 48.0173 63.1619 46.3056 61.069C44.6247 59.0141 43.0054 56.9022 41.4854 54.7241C40.0507 52.6692 38.7012 50.5503 37.4891 48.3556C36.3598 46.3101 35.3512 44.1911 34.5392 41.9988C33.81 40.0291 33.2466 37.9907 32.9601 35.9049C32.6926 33.9565 32.6689 31.9843 32.9956 30.0406C33.3104 28.1632 33.971 26.3449 34.944 24.7066C36.0118 22.9097 37.437 21.3401 39.0493 20.0167C41.0356 18.3902 43.2776 17.1117 45.6191 16.07C48.7016 14.6992 51.9971 13.5155 55.3826 13.2811C59.2866 13.0112 63.1836 13.9322 66.7017 15.5989C70.4991 17.3958 73.8775 20.0474 76.728 23.1157C79.7726 26.3923 82.2656 30.1827 84.1099 34.2548C85.0285 36.2813 85.7884 38.3766 86.3732 40.5239C86.4986 40.9761 85.8145 41.1655 85.6937 40.7228Z" fill="#1D0932"/>
<path d="M56.3255 27.3908C56.4533 27.2843 56.4107 27.0759 56.2497 27.0428C53.6241 26.4959 50.9347 27.9353 49.0691 29.9169C47.4924 31.5931 46.4459 34.1098 47.7599 36.2145C48.6335 37.6137 50.4635 38.1298 51.7704 37.126C52.9565 36.2145 52.8902 34.607 53.0844 33.203C53.3969 30.9515 54.5806 28.8397 56.3255 27.3908Z" fill="white"/>
<path d="M56.0734 27.1402C56.0995 27.2207 56.1279 27.3036 56.1539 27.3841C56.1232 27.377 56.0924 27.3722 56.0616 27.3651C56.0048 27.3651 55.9338 27.3415 55.877 27.332C55.7538 27.313 55.6307 27.3012 55.5076 27.2918C55.2614 27.2752 55.0128 27.2728 54.7666 27.287C54.2717 27.3154 53.7841 27.4125 53.3106 27.5593C52.3328 27.8576 51.4237 28.3689 50.614 28.9892C49.087 30.1611 47.6238 31.9036 47.5244 33.9136C47.4794 34.8512 47.7753 35.8313 48.4453 36.5084C49.0088 37.0766 49.8398 37.4128 50.6424 37.2541C52.6855 36.8517 52.5198 34.4558 52.7826 32.8743C53.1448 30.6536 54.3522 28.5844 56.0734 27.1402C56.4214 26.849 56.9257 27.3486 56.5754 27.6421C54.8352 29.1029 53.6775 31.1863 53.4076 33.4496C53.2845 34.4724 53.2608 35.5543 52.7637 36.4847C52.2878 37.3749 51.3597 37.9526 50.3536 37.9999C48.1328 38.1017 46.6745 35.8621 46.8165 33.826C46.9752 31.5319 48.5922 29.6048 50.3678 28.2908C51.4047 27.5238 52.6098 26.9224 53.8882 26.688C54.5132 26.572 55.1525 26.5365 55.7846 26.6123C56.0497 26.643 56.4143 26.6478 56.6085 26.8585C56.8263 27.0976 56.7742 27.4172 56.5777 27.6445C56.2747 27.9878 55.7727 27.4835 56.0734 27.1402Z" fill="#1D0932"/>
<path d="M46.8155 13.8064C46.458 12.7908 45.9064 11.8414 45.1985 11.027C45.073 10.8826 45.0564 10.6671 45.1985 10.525C45.3263 10.3972 45.5749 10.3806 45.7004 10.525C46.4912 11.4365 47.0996 12.4782 47.4997 13.617C47.5636 13.7969 47.4263 14.0052 47.2511 14.055C47.0569 14.1094 46.8794 13.9887 46.8155 13.8064Z" fill="#1D0932"/>
<path d="M37.3456 22.7899C36.3039 22.1767 35.2622 21.5635 34.2205 20.9479C33.8275 20.7159 34.185 20.1027 34.578 20.3347C35.6197 20.9479 36.6613 21.5611 37.703 22.1767C38.0984 22.4087 37.7409 23.0219 37.3456 22.7899Z" fill="#1D0932"/>
<path d="M40.2759 53.4499C40.0913 53.4641 39.9587 53.4853 39.7409 53.5445C39.6462 53.5706 39.5539 53.599 39.4615 53.6298C39.4166 53.6464 39.3692 53.6629 39.3242 53.6819C39.2674 53.7032 39.3645 53.6653 39.3077 53.689C39.2793 53.7008 39.2532 53.7126 39.2248 53.7268C39.0496 53.8097 38.8792 53.9068 38.7182 54.0157C38.6779 54.0441 38.6377 54.0725 38.5998 54.1009C38.6353 54.0725 38.5832 54.1151 38.5714 54.1246C38.5524 54.1388 38.5335 54.1554 38.5145 54.1719C38.4364 54.2382 38.3607 54.3092 38.2873 54.3826C38.1547 54.5152 37.9155 54.5247 37.7853 54.3826C37.6551 54.2406 37.6457 54.0204 37.7853 53.8807C38.4506 53.2131 39.336 52.8177 40.2736 52.742C40.4582 52.7278 40.6358 52.9148 40.6287 53.0971C40.6216 53.3007 40.4748 53.4333 40.2759 53.4499Z" fill="#1D0932"/>
<path d="M88.7909 8.7256C88.7791 8.88422 88.7767 9.04285 88.7862 9.20384C88.7909 9.28433 88.798 9.36246 88.8051 9.44059C88.8122 9.51872 88.7956 9.39565 88.8098 9.48088C88.8169 9.52112 88.8217 9.559 88.8288 9.59925C88.8572 9.75077 88.8927 9.8999 88.9401 10.0467C88.9637 10.1224 88.9898 10.1982 89.0182 10.2716C89.03 10.3024 89.0419 10.3355 89.0561 10.3663C89.03 10.3048 89.0845 10.4255 89.0892 10.4373C89.1674 10.6054 89.1413 10.8279 88.9614 10.9226C88.8051 11.0055 88.5589 10.9747 88.476 10.7948C88.1754 10.1485 88.0286 9.43822 88.0783 8.7256C88.0901 8.54094 88.2322 8.36101 88.4334 8.37048C88.6181 8.37758 88.8051 8.52673 88.7909 8.7256Z" fill="#1D0932"/>
<path d="M77.5085 14.9443C78.143 15.9173 78.7775 16.888 79.412 17.861C79.5161 18.022 79.4451 18.254 79.2841 18.3464C79.1113 18.4482 78.9029 18.3795 78.7988 18.2185C78.1643 17.2455 77.5298 16.2748 76.8953 15.3018C76.7912 15.1408 76.8621 14.9087 77.0231 14.8164C77.196 14.717 77.4043 14.7833 77.5085 14.9443Z" fill="#1D0932"/>
<path d="M97.7586 11.486C97.7468 11.4671 97.7326 11.4481 97.7184 11.4316C97.7066 11.415 97.6782 11.3605 97.716 11.4268C97.6971 11.3937 97.6639 11.3629 97.6379 11.3321C97.5834 11.2658 97.5243 11.2043 97.4627 11.1451C97.4012 11.0859 97.3372 11.0267 97.2733 10.9722C97.2591 10.9604 97.2354 10.9344 97.2212 10.9296C97.2425 10.9367 97.2662 10.9628 97.2283 10.9367C97.1928 10.9107 97.1549 10.8823 97.1194 10.8586C96.9821 10.7639 96.8353 10.6811 96.6838 10.6124C96.6649 10.6029 96.6435 10.5911 96.6222 10.584C96.6648 10.5982 96.6577 10.5982 96.6199 10.584C96.582 10.5698 96.5441 10.5556 96.5062 10.5414C96.421 10.5106 96.3358 10.4869 96.2482 10.4632C96.0683 10.4182 95.9428 10.2051 95.9996 10.0252C96.0588 9.83819 96.2434 9.72933 96.4376 9.77668C97.2259 9.97555 97.9078 10.4656 98.3718 11.1261C98.4784 11.2777 98.405 11.5286 98.244 11.6115C98.0641 11.7086 97.8747 11.647 97.7586 11.486Z" fill="#1D0932"/>
</svg>
