<svg width="150" height="100" viewBox="0 0 150 100" fill="none" xmlns="http://www.w3.org/2000/svg">
<path d="M109.505 45.3289C109.515 45.3241 109.527 45.3193 109.539 45.3193C109.508 45.3241 109.474 45.3289 109.443 45.3314C109.445 45.3314 109.447 45.3314 109.452 45.3314C109.421 45.3265 109.387 45.3217 109.356 45.3193C109.358 45.3193 109.358 45.3193 109.361 45.3193C109.332 45.3073 109.303 45.2952 109.274 45.2832C109.274 45.2832 109.276 45.2832 109.276 45.2856C109.252 45.2664 109.228 45.2471 109.204 45.2302C109.204 45.2302 109.204 45.2302 109.207 45.2327C109.187 45.2086 109.168 45.1845 109.151 45.1604V45.1628C109.139 45.1339 109.127 45.105 109.115 45.0761V45.0785C109.11 45.0472 109.105 45.0135 109.103 44.9822C109.103 44.9846 109.103 44.9846 109.103 44.987C109.108 44.9557 109.113 44.922 109.115 44.8907C109.115 44.8955 109.113 44.8979 109.113 44.9003C109.125 44.8714 109.137 44.8426 109.149 44.8137C109.144 44.8257 109.134 44.8377 109.127 44.8498C109.101 44.8907 109.086 44.9365 109.084 44.9846C109.074 45.0328 109.074 45.081 109.091 45.1291C109.103 45.1773 109.125 45.2182 109.156 45.2519C109.183 45.2904 109.216 45.3217 109.257 45.3458C109.286 45.3579 109.315 45.3699 109.344 45.3819C109.409 45.3988 109.471 45.3988 109.536 45.3819C109.565 45.3699 109.594 45.3579 109.623 45.3458C109.679 45.3145 109.719 45.2712 109.753 45.2158C109.76 45.2061 109.765 45.1965 109.772 45.1869C109.772 45.1845 109.775 45.1821 109.775 45.1821C109.775 45.1821 109.775 45.1821 109.775 45.1797C109.78 45.1652 109.806 45.1074 109.811 45.093V45.0906C109.811 45.0882 109.811 45.0882 109.813 45.0857V45.0833C109.813 45.0809 109.825 44.9894 109.825 44.987C109.825 44.987 109.825 44.987 109.825 44.9846C109.825 44.9678 109.816 44.9172 109.818 44.9341C109.818 44.9413 109.816 44.898 109.811 44.8835L109.775 44.7968C109.775 44.7944 109.719 44.7246 109.717 44.7221C109.715 44.7197 109.647 44.6668 109.645 44.6644C109.645 44.6644 109.645 44.6644 109.642 44.6644C109.64 44.6619 109.558 44.6283 109.556 44.6283C109.556 44.6283 109.556 44.6283 109.553 44.6283C109.551 44.6283 109.459 44.6162 109.457 44.6162C109.455 44.6162 109.455 44.6162 109.452 44.6162H109.45C109.45 44.6162 109.45 44.6162 109.447 44.6162C109.416 44.621 109.382 44.6259 109.351 44.6283C109.339 44.6307 109.329 44.6331 109.317 44.6379C109.269 44.6499 109.228 44.6716 109.195 44.7029C109.156 44.7294 109.125 44.7631 109.101 44.804C109.074 44.845 109.06 44.8907 109.057 44.9389C109.048 44.9871 109.048 45.0352 109.065 45.0833C109.077 45.1122 109.089 45.1411 109.101 45.17C109.132 45.2254 109.175 45.2664 109.231 45.3001C109.26 45.3121 109.288 45.3241 109.317 45.3362C109.378 45.3458 109.44 45.3458 109.505 45.3289Z" fill="#1D0932"/>
<path d="M134.644 54.6101C134.644 54.6101 118.116 73.3124 105.342 78.0199C85.8284 85.2148 63.9524 86.462 44.9034 77.885C37.54 74.5693 30.7593 69.8883 24.1183 65.0629C20.7953 62.6501 17.3953 60.0785 15.3125 56.3438C15.3125 56.3438 16.2973 54.3886 17.6217 51.8603C21.4599 53.423 27.3737 54.2875 30.5161 52.9463C33.1985 51.8025 35.6522 50.1362 38.1155 48.4844C42.4834 53.2376 49.3846 56.3799 55.4814 57.7284V57.8632C59.5845 58.6939 63.8465 58.8842 67.9713 58.6025C69.5846 58.4917 71.1931 58.3231 72.7943 58.1112C77.6318 57.4683 82.4308 56.4401 87.2419 55.5058C91.3594 54.704 95.4842 53.972 99.6499 53.6084C100.606 53.5242 101.564 53.4615 102.518 53.3556C103.816 53.2135 105.106 53.0016 106.349 52.573C108.704 51.7591 110.866 49.9941 111.116 49.6498C111.764 50.153 112.431 50.6178 113.173 50.9212C114.211 51.345 115.335 51.4269 116.443 51.5039C122.381 51.9229 128.954 53.5819 133.83 50.4204C134.36 51.7423 134.68 53.1244 134.644 54.6101Z" fill="#C23172"/>
<path d="M134.385 54.3549C131.46 57.6634 128.303 60.7913 125.067 63.794C122.158 66.4957 119.141 69.0914 115.953 71.4584C112.926 73.705 109.714 75.8264 106.225 77.2856C103.961 78.2319 101.589 78.9711 99.2417 79.6718C96.6845 80.4352 94.096 81.0949 91.4834 81.6415C86.2486 82.7371 80.9199 83.3824 75.5719 83.4956C64.9505 83.7219 54.2666 81.8004 44.5867 77.3482C39.5229 75.0173 34.7697 72.0724 30.1778 68.9229C27.9312 67.3818 25.7135 65.7974 23.5174 64.1841C21.5068 62.7056 19.5275 61.1501 17.8612 59.2815C17.0064 58.3208 16.2552 57.283 15.6219 56.1633C15.6219 56.2837 15.6219 56.4065 15.6219 56.5269C16.378 55.0244 17.1509 53.5315 17.9311 52.0434C17.7962 52.0988 17.659 52.1541 17.5241 52.2095C20.7339 53.5002 24.4541 54.2346 27.9191 53.9071C29.6552 53.7434 31.1385 53.1245 32.6699 52.3106C34.6252 51.2728 36.46 50.028 38.2949 48.7951C38.148 48.7758 38.0035 48.7566 37.8566 48.7397C42.4028 53.6422 48.9379 56.6352 55.3815 58.0776C55.2924 57.962 55.2057 57.8464 55.1166 57.7284C55.1166 57.7742 55.1166 57.8175 55.1166 57.8633C55.1166 58.0126 55.2273 58.1811 55.3815 58.2124C63.1614 59.7655 71.0137 58.9276 78.7455 57.5214C82.6849 56.8038 86.6001 55.961 90.5395 55.2483C92.5669 54.8823 94.6017 54.5476 96.646 54.2899C98.5627 54.0491 100.487 53.9312 102.406 53.7289C104.387 53.5194 106.319 53.1245 108.1 52.2023C108.864 51.8074 109.596 51.3475 110.284 50.8346C110.655 50.5577 111.081 50.2735 111.37 49.9051C111.224 49.9244 111.079 49.9436 110.932 49.9605C111.768 50.6034 112.644 51.1765 113.668 51.4703C114.631 51.7496 115.64 51.8001 116.634 51.8748C118.683 52.0289 120.723 52.3082 122.77 52.4936C126.588 52.8356 130.66 52.8573 134.01 50.7287C133.834 50.6564 133.656 50.5842 133.48 50.5119C133.993 51.8339 134.294 53.1871 134.277 54.6078C134.272 55.0725 134.995 55.0725 134.999 54.6078C135.016 53.1269 134.71 51.6966 134.176 50.3193C134.096 50.1122 133.86 49.9677 133.646 50.1026C130.405 52.1638 126.461 52.1011 122.77 51.7688C120.853 51.5955 118.943 51.3402 117.024 51.1813C116.032 51.0995 115.03 51.073 114.062 50.825C113.017 50.5577 112.146 49.9846 111.298 49.3321C111.185 49.2454 110.949 49.2743 110.86 49.3874C110.207 50.2182 109.071 50.8346 108.17 51.3402C106.547 52.248 104.787 52.7128 102.95 52.9391C101.084 53.1679 99.2056 53.2594 97.3394 53.4785C95.4613 53.7 93.5903 53.9841 91.7242 54.3044C84.0044 55.6312 76.3737 57.5888 68.5455 58.1932C64.2137 58.5279 59.8433 58.3617 55.5765 57.5093C55.6656 57.6249 55.7522 57.7405 55.8413 57.8585C55.8413 57.8127 55.8413 57.7694 55.8413 57.7236C55.8413 57.5719 55.7306 57.4106 55.5765 57.3745C49.2437 55.9586 42.8362 53.0402 38.3695 48.2244C38.266 48.1136 38.0589 48.0823 37.9313 48.169C36.1566 49.3609 34.382 50.5649 32.499 51.581C30.9772 52.4021 29.4915 53.0523 27.7554 53.1968C24.3915 53.4737 20.835 52.7658 17.7168 51.5112C17.5771 51.4559 17.3773 51.5473 17.3099 51.6774C16.6886 52.8621 16.0722 54.0492 15.4654 55.2411C15.2198 55.7227 14.8128 56.1825 15.0969 56.6978C16.3539 58.9757 18.2562 60.89 20.2379 62.5443C22.3352 64.2948 24.589 65.8648 26.8163 67.4468C29.282 69.1998 31.7766 70.9118 34.3363 72.5275C39.246 75.6265 44.4037 78.333 49.889 80.2666C55.1599 82.1255 60.6572 83.3005 66.2171 83.8568C77.4452 84.9789 88.8612 83.5462 99.639 80.3051C102.078 79.5707 104.539 78.8002 106.88 77.784C108.666 77.0087 110.374 76.06 112.023 75.027C115.628 72.7731 118.982 70.1245 122.192 67.3433C126.6 63.5243 130.802 59.4188 134.703 55.0797C134.768 55.0075 134.833 54.9329 134.898 54.8606C135.204 54.5187 134.694 54.0058 134.385 54.3549Z" fill="#1D0932"/>
<path d="M55.4831 57.7289C49.3862 56.3805 42.4852 53.2382 38.1172 48.4849C39.0466 47.8637 39.9761 47.2448 40.9176 46.6549C44.8666 44.1892 49.1599 42.2605 53.5905 41.1865C53.5929 43.881 53.6049 47.9648 53.5953 48.8702C53.5905 49.188 53.5881 49.5228 53.7109 49.8141C53.9926 50.4883 54.7631 50.6376 55.4638 50.6472C55.4663 52.5182 55.4831 55.8844 55.4831 57.7289Z" fill="#1D0932"/>
<path d="M55.5744 57.3789C50.5828 56.2689 45.6875 54.2173 41.5868 51.1328C40.431 50.2635 39.3475 49.2931 38.3675 48.2288C38.3434 48.419 38.3193 48.6069 38.2952 48.7971C40.183 47.5354 42.0877 46.3025 44.0959 45.2382C46.0463 44.2028 48.0714 43.3022 50.159 42.5774C51.3172 42.1753 52.4923 41.8286 53.6842 41.5372C53.5325 41.4216 53.3784 41.3061 53.2267 41.1881C53.2291 42.8206 53.2315 44.4532 53.234 46.0834C53.234 46.7528 53.2364 47.4222 53.234 48.0916C53.234 48.6646 53.1473 49.3196 53.3399 49.8614C53.6577 50.7571 54.6041 50.9883 55.4589 51.01C55.3385 50.8896 55.2181 50.7692 55.0977 50.6488C55.1025 53.0086 55.1169 55.3683 55.1193 57.728C55.1193 58.1928 55.8417 58.1928 55.8417 57.728C55.8393 55.3683 55.8273 53.0086 55.8201 50.6488C55.8201 50.4489 55.6539 50.2924 55.4589 50.2876C54.7341 50.2707 54.0021 50.0949 53.9563 49.245C53.9322 48.7947 53.9563 48.3372 53.9563 47.8869C53.9587 46.4975 53.9539 45.1082 53.9515 43.7188C53.9491 42.876 53.9491 42.0308 53.9491 41.1881C53.9491 40.9473 53.7179 40.7835 53.4916 40.8389C49.1838 41.8888 45.0807 43.7019 41.2955 45.9967C40.1541 46.6877 39.0417 47.4294 37.9316 48.171C37.7342 48.3035 37.6932 48.5611 37.8594 48.7393C41.4351 52.6137 46.2847 55.2287 51.233 56.9118C52.5958 57.3741 53.9804 57.7642 55.3866 58.0772C55.8369 58.1759 56.0295 57.4776 55.5744 57.3789Z" fill="#1D0932"/>
<path d="M111.116 49.6492C110.866 49.996 108.704 51.761 106.349 52.5725C105.104 53.0011 103.815 53.2154 102.518 53.355C102.607 52.0716 102.819 50.3668 102.758 49.0906C103.512 48.5705 104.157 46.962 104.432 45.7051C106.284 46.3745 108.051 47.2847 109.696 48.5296C110.177 48.8908 110.639 49.2808 111.116 49.6492Z" fill="#1D0932"/>
<path d="M110.804 49.4661C110.878 49.3673 110.739 49.5263 110.715 49.5528C110.654 49.613 110.589 49.6708 110.524 49.7261C110.329 49.8971 110.127 50.056 109.92 50.2101C109.296 50.6749 108.639 51.0938 107.955 51.4622C106.26 52.3748 104.418 52.7842 102.516 52.9937C102.636 53.1141 102.756 53.2345 102.877 53.3549C102.978 51.9366 103.175 50.516 103.118 49.0905C103.057 49.194 102.997 49.2976 102.939 49.4035C103.457 49.0279 103.797 48.4668 104.066 47.8986C104.382 47.2292 104.618 46.5236 104.779 45.8012C104.63 45.8855 104.483 45.9698 104.334 46.0541C105.501 46.4803 106.633 47.0004 107.705 47.6337C108.832 48.2959 109.828 49.1073 110.859 49.9043C111.016 50.0247 111.218 50.0536 111.37 49.9043C111.495 49.7815 111.524 49.5119 111.37 49.3939C110.291 48.5583 109.248 47.7035 108.071 47.01C106.946 46.3478 105.754 45.8061 104.529 45.3582C104.35 45.2932 104.124 45.4304 104.083 45.611C103.936 46.2708 103.732 46.9234 103.443 47.535C103.308 47.8191 103.158 48.0984 102.975 48.3536C102.894 48.4668 102.802 48.5752 102.701 48.6715C102.607 48.763 102.479 48.8256 102.429 48.9508C102.366 49.1001 102.405 49.2976 102.407 49.4565C102.41 49.6347 102.407 49.8128 102.402 49.9886C102.393 50.3643 102.369 50.7399 102.342 51.1131C102.287 51.8596 102.212 52.606 102.157 53.3525C102.145 53.5331 102.333 53.7329 102.518 53.7137C104.55 53.4897 106.51 53.0611 108.321 52.0835C109.036 51.6982 109.725 51.2576 110.373 50.7664C110.741 50.4871 111.146 50.2005 111.427 49.8273C111.707 49.4588 111.081 49.0977 110.804 49.4661Z" fill="#1D0932"/>
<path d="M102.761 49.0883C102.819 50.3645 102.609 52.0669 102.52 53.3527C101.564 53.4562 100.606 53.5213 99.6521 53.6055C95.4864 53.9691 91.3616 54.7011 87.2441 55.5029C87.1044 54.3809 87.0828 52.9192 87.0226 51.7731C85.4984 51.9296 83.9765 52.0861 82.4547 52.245C82.1393 52.2763 81.8022 52.3052 81.5229 52.1415C81.2436 51.9778 81.075 51.6575 80.933 51.3469C80.7187 50.8797 80.2467 49.7866 79.9746 49.081C80.0107 48.7897 80.0252 48.4911 80.0372 48.2142C80.0974 46.7598 80.2081 44.5397 80.2443 42.6182C81.6553 43.3261 83.3649 43.526 84.9469 43.6006C91.4555 43.9088 98.3927 43.526 104.437 45.7075C104.16 46.9597 103.514 48.5706 102.761 49.0883Z" fill="#F2F2F2"/>
<path d="M102.399 49.0914C102.457 50.5144 102.26 51.9375 102.159 53.3558C102.279 53.2354 102.399 53.115 102.52 52.9946C100.526 53.2089 98.5251 53.3293 96.5338 53.5821C94.5424 53.8349 92.5607 54.1528 90.5862 54.5092C89.4376 54.7163 88.2914 54.933 87.1452 55.1569C87.2969 55.2725 87.4511 55.388 87.6028 55.506C87.4535 54.2684 87.4439 53.0186 87.3813 51.7762C87.3716 51.5956 87.2223 51.3933 87.0201 51.415C85.8884 51.5306 84.7542 51.6485 83.6225 51.7665C83.112 51.8195 82.5823 51.9206 82.0694 51.911C81.5685 51.9038 81.3927 51.4944 81.2097 51.0923C81.0508 50.7431 80.8991 50.3916 80.7499 50.0401C80.5885 49.6572 80.326 49.2286 80.3622 48.8096C80.4368 47.9138 80.4512 47.0085 80.4874 46.1103C80.5355 44.9473 80.5813 43.7843 80.6029 42.6188C80.4223 42.7224 80.2418 42.8259 80.0588 42.9319C81.4529 43.6157 83.0013 43.8469 84.5375 43.9408C86.1532 44.0395 87.7761 44.0636 89.3943 44.1022C92.6257 44.1816 95.8764 44.2587 99.0765 44.7547C100.866 45.0316 102.633 45.4457 104.338 46.0549C104.254 45.9056 104.169 45.7588 104.085 45.6095C103.943 46.238 103.75 46.864 103.483 47.4515C103.269 47.9187 103.004 48.4701 102.578 48.7807C102.204 49.0504 102.566 49.6789 102.941 49.4044C103.459 49.0288 103.798 48.4677 104.068 47.8994C104.384 47.23 104.62 46.5245 104.781 45.8021C104.827 45.5998 104.721 45.4265 104.528 45.3591C98.4432 43.1799 91.8359 43.5291 85.479 43.2642C83.7669 43.192 81.9851 43.0763 80.4223 42.3082C80.1767 42.1878 79.8854 42.3323 79.8782 42.6212C79.8565 43.7168 79.8156 44.8125 79.7698 45.9057C79.7289 46.9074 79.7216 47.9211 79.6253 48.918C79.582 49.3514 79.883 49.8354 80.0491 50.2327C80.2153 50.6228 80.3814 51.0152 80.5548 51.4005C80.733 51.7978 80.9401 52.2265 81.3325 52.4552C81.7973 52.7249 82.3511 52.6189 82.8568 52.566C84.2437 52.4239 85.6283 52.2794 87.0153 52.1373C86.8949 52.017 86.7745 51.8966 86.6541 51.7762C86.7191 53.0186 86.7263 54.2684 86.8756 55.506C86.9045 55.7492 87.0826 55.9033 87.3331 55.8552C91.2532 55.0919 95.1926 54.3864 99.1728 54.0131C100.285 53.9096 101.4 53.8374 102.513 53.7194C102.717 53.6977 102.859 53.5701 102.874 53.3582C102.975 51.9399 103.172 50.5193 103.115 49.0938C103.103 48.629 102.38 48.6266 102.399 49.0914Z" fill="#1D0932"/>
<path d="M80.2455 42.6161C80.207 44.5376 80.0986 46.7577 80.0385 48.2121C80.0264 48.489 80.012 48.7876 79.9758 49.079C79.894 49.7821 79.7013 50.4587 79.1788 50.7982C78.7309 51.0871 78.1819 51.0655 77.6666 51.039C75.6945 50.933 73.7224 50.844 71.7479 50.7766C66.4024 50.5911 61.0568 50.5502 55.7112 50.6489C55.6318 50.6513 55.5475 50.6513 55.4632 50.6489C54.7649 50.6369 53.992 50.49 53.7102 49.8158C53.5874 49.5244 53.5898 49.1897 53.5947 48.8719C53.6043 47.9665 53.5923 43.8851 53.5898 41.1882C57.3703 40.2732 61.2518 39.9843 65.0925 40.5284C68.4708 41.0052 72.1525 42.0478 75.0926 40.1552C75.6946 39.7675 76.3591 39.2426 77.0237 39.4858C77.5607 39.6832 77.8448 40.3045 78.1747 40.8101C78.7069 41.6264 79.4268 42.2067 80.2455 42.6161Z" fill="#F2F2F2"/>
<path d="M79.8834 42.6169C79.8545 44.0448 79.7943 45.4727 79.7317 46.9006C79.7052 47.5171 79.6932 48.1359 79.645 48.7523C79.6017 49.3109 79.5294 50.0646 79.0551 50.4427C78.5374 50.8568 77.6777 50.6787 77.0709 50.6474C76.2812 50.6064 75.4937 50.5679 74.7039 50.5342C73.081 50.462 71.4557 50.4018 69.8303 50.356C66.6206 50.2645 63.4084 50.226 60.1962 50.238C58.619 50.2428 57.0371 50.3223 55.4623 50.2886C54.9976 50.279 54.3619 50.2284 54.0946 49.7805C53.8731 49.4073 53.9573 48.8968 53.9573 48.473C53.967 46.0458 53.9525 43.6162 53.9501 41.1891C53.861 41.3046 53.7743 41.4202 53.6852 41.5382C57.6775 40.5798 61.771 40.3559 65.8308 41.0036C67.5717 41.2805 69.3222 41.6345 71.0921 41.608C71.9541 41.596 72.8258 41.4876 73.6469 41.2276C74.0442 41.0999 74.4343 40.9386 74.8027 40.7436C75.2024 40.5317 75.5611 40.2572 75.9536 40.0332C76.3509 39.8069 76.7988 39.6528 77.1721 39.9996C77.4803 40.2837 77.6585 40.6882 77.8872 41.0326C78.4314 41.8537 79.1851 42.4869 80.0592 42.93C80.4733 43.1395 80.8393 42.5182 80.4228 42.3063C79.6426 41.909 78.9635 41.3624 78.4844 40.6256C78.0582 39.973 77.6729 39.1543 76.7964 39.0701C75.9007 38.9858 75.1735 39.7299 74.4367 40.1175C73.6565 40.5293 72.7849 40.758 71.9108 40.8399C70.1193 41.0085 68.3254 40.6834 66.5652 40.3944C64.5618 40.0645 62.5608 39.8575 60.5286 39.9008C58.1568 39.9514 55.797 40.2885 53.4902 40.8399C53.3361 40.876 53.2253 41.0325 53.2253 41.1891C53.2277 43.5368 53.2374 45.8821 53.2325 48.2298C53.2325 48.6199 53.2037 49.0196 53.2446 49.4097C53.312 50.0502 53.6588 50.5534 54.2559 50.8014C54.8651 51.0543 55.5393 51.0158 56.1823 51.0037C57.0202 50.9893 57.8581 50.9796 58.6961 50.9724C62.1081 50.9435 65.5177 50.97 68.9274 51.0567C70.6153 51.1 72.3008 51.1554 73.9888 51.2277C74.8364 51.2638 75.6864 51.3023 76.534 51.3456C77.2732 51.3818 78.0943 51.5262 78.8215 51.3408C80.4469 50.9267 80.3626 48.8727 80.4203 47.5508C80.4926 45.9086 80.5672 44.2664 80.5985 42.6218C80.6154 42.1498 79.893 42.1498 79.8834 42.6169Z" fill="#1D0932"/>
<path d="M133.832 50.4177C128.958 53.5793 122.382 51.9203 116.444 51.5013C115.339 51.4243 114.214 51.3423 113.174 50.9185C112.432 50.6152 111.765 50.1528 111.118 49.6472C110.641 49.2787 110.179 48.8887 109.7 48.5299C108.055 47.285 106.285 46.3748 104.436 45.7054C98.3919 43.5238 91.4547 43.9067 84.9461 43.5985C83.3641 43.5238 81.6544 43.324 80.2434 42.616C79.4247 42.2067 78.7047 41.6264 78.175 40.8053C77.8451 40.2996 77.5634 39.6784 77.024 39.4809C76.3619 39.2377 75.6949 39.7627 75.0929 40.1503C72.1528 42.0454 68.4711 41.0003 65.0928 40.5236C61.2498 39.9818 57.3706 40.2683 53.5902 41.1833C49.1596 42.2549 44.8662 44.186 40.9173 46.6517C39.9758 47.2417 39.0463 47.8605 38.1169 48.4818C35.656 50.1336 33.1999 51.7999 30.5175 52.9436C27.3751 54.2849 21.4613 53.4228 17.623 51.8577C17.6543 51.7975 17.6857 51.7373 17.717 51.6771C19.5903 48.1109 22.0994 43.4973 23.4815 41.6408C27.9554 35.6114 34.2064 31.5469 40.4285 27.8435C44.3654 25.4982 48.3481 23.2492 52.3693 21.0893C55.9379 19.175 59.6653 17.2992 63.636 17.1258C67.6042 16.9501 71.9096 18.886 73.6192 22.8326L74.3994 23.6369C75.808 24.9781 78.0354 24.5832 79.6102 23.4875C81.1849 22.3871 82.3624 20.7329 83.824 19.4567C86.976 16.7069 91.2765 15.9339 95.2592 16.5431C99.2443 17.1523 102.977 19.0136 106.531 21.0917C112.95 24.8408 118.999 29.3629 124.532 34.5495C125.536 35.4886 126.538 36.4711 127.236 37.7015C127.8 38.6936 128.144 39.8156 128.599 40.8727C130.018 44.2053 132.541 47.1406 133.832 50.4177Z" fill="#C23172"/>
<path d="M133.649 50.1061C130.379 52.1865 126.389 52.1022 122.669 51.7627C120.749 51.5869 118.838 51.3293 116.914 51.1752C115.823 51.0885 114.713 51.0572 113.663 50.7129C112.599 50.3637 111.705 49.663 110.841 48.9719C109.24 47.6933 107.561 46.6049 105.669 45.8031C103.774 45.0012 101.775 44.4763 99.75 44.132C95.5867 43.4289 91.3488 43.4409 87.1422 43.3181C85.0617 43.2579 82.8464 43.2964 80.8816 42.5091C79.9136 42.1214 79.0659 41.4953 78.4856 40.6212C78.0811 40.0096 77.7344 39.2463 76.9398 39.085C76.0488 38.9044 75.2952 39.6364 74.5824 40.0385C73.7204 40.5225 72.7428 40.7754 71.7603 40.8524C69.7738 41.0089 67.7993 40.5827 65.8489 40.2769C57.3008 38.9405 48.7647 41.5074 41.4566 45.8994C39.5472 47.048 37.7244 48.3338 35.8582 49.5522C34.0788 50.7152 32.2271 51.8999 30.2382 52.6705C28.7429 53.2508 27.0646 53.3013 25.4801 53.2195C23.6598 53.1256 21.849 52.8053 20.096 52.3141C19.2894 52.0878 18.4948 51.8229 17.7194 51.5099C17.7917 51.6857 17.8639 51.8638 17.9361 52.0396C19.0486 49.9158 20.1803 47.8017 21.3698 45.7212C22.345 44.0116 23.3491 42.3308 24.5892 40.7994C27.7075 36.9443 31.6348 33.8622 35.7644 31.1606C40.207 28.2542 44.847 25.6295 49.4943 23.0675C51.8806 21.7528 54.2668 20.402 56.7614 19.2991C59.1621 18.2397 61.7723 17.4137 64.4234 17.4812C66.4316 17.5317 68.4374 18.1265 70.1157 19.2389C70.9994 19.8241 71.7916 20.5681 72.4105 21.4301C72.8872 22.0971 73.1449 22.8653 73.7132 23.4528C74.255 24.009 74.7967 24.4882 75.5649 24.7073C76.4991 24.9746 77.5249 24.8494 78.423 24.5123C80.619 23.6839 82.0012 21.6685 83.6459 20.1082C87.2577 16.6769 92.4997 16.1086 97.1639 17.3078C102.211 18.6057 106.829 21.5361 111.13 24.3895C115.556 27.3295 119.743 30.626 123.649 34.2282C124.605 35.1095 125.597 35.9956 126.372 37.0479C127.167 38.1267 127.59 39.3691 128.089 40.5972C129.035 42.9305 130.458 44.9988 131.746 47.1467C132.397 48.2303 133.008 49.3379 133.48 50.513C133.651 50.9392 134.349 50.7538 134.176 50.3203C133.208 47.9124 131.713 45.791 130.398 43.5661C129.724 42.4272 129.119 41.2593 128.635 40.0241C128.178 38.861 127.742 37.698 126.996 36.6819C126.268 35.6874 125.37 34.8422 124.47 34.0067C123.461 33.0676 122.43 32.1502 121.383 31.252C119.358 29.5159 117.263 27.8593 115.108 26.2845C112.936 24.7001 110.699 23.2024 108.406 21.7985C106.124 20.4019 103.788 19.0583 101.327 17.9988C96.8966 16.0893 91.8232 15.1527 87.2024 16.9972C84.9437 17.9001 83.2798 19.3978 81.6328 21.1412C80.1254 22.7376 77.8139 24.9625 75.3891 23.8814C74.881 23.655 74.1851 23.0747 73.8769 22.5907C73.6289 22.2007 73.4724 21.7335 73.2123 21.3362C72.9282 20.9052 72.6055 20.4959 72.2564 20.1154C70.8887 18.6393 69.0466 17.6353 67.1082 17.1368C62.1912 15.8703 57.2984 18.0759 53.0291 20.3297C48.0784 22.9423 43.2 25.7138 38.4227 28.6298C34.204 31.2039 30.0696 34.0091 26.5685 37.5198C25.0154 39.0778 23.561 40.7657 22.3739 42.6222C21.1531 44.5317 20.0647 46.5255 18.9884 48.5168C18.4201 49.5667 17.8591 50.6214 17.3053 51.6784C17.1873 51.9024 17.3004 52.1191 17.522 52.2082C20.71 53.4916 24.3918 54.2164 27.8303 53.913C29.5447 53.7613 31.0087 53.1785 32.5233 52.3839C34.4665 51.3654 36.2893 50.135 38.1121 48.9141C41.7721 46.4605 45.5357 44.2379 49.6966 42.7354C53.9056 41.216 58.3868 40.3949 62.8679 40.6622C66.6122 40.8861 70.8116 42.5572 74.4356 40.915C75.2109 40.5635 76.4775 39.2535 77.2625 40.0915C77.5707 40.4214 77.7561 40.862 78.0209 41.2232C78.2978 41.6012 78.6157 41.9408 78.9793 42.2346C80.4842 43.4434 82.4635 43.7901 84.3393 43.9225C92.7116 44.5077 101.946 43.3759 109.167 48.5866C110.913 49.846 112.365 51.3076 114.578 51.6688C116.507 51.9818 118.498 52.0396 120.444 52.2539C124.133 52.6584 128.079 53.1256 131.662 51.8663C132.486 51.5773 133.271 51.1945 134.007 50.7273C134.405 50.4793 134.044 49.8556 133.649 50.1061Z" fill="#1D0932"/>
<path d="M72.7955 58.107C71.1919 58.3189 69.5858 58.4875 67.9725 58.5983C63.8501 58.88 59.5857 58.6897 55.4826 57.859V57.7242C55.4802 55.8797 55.4658 52.5134 55.4609 50.6449C55.5452 50.6473 55.6295 50.6473 55.709 50.6449C61.0545 50.5462 66.4001 50.5871 71.7457 50.7725C72.0298 52.7446 72.5066 56.1301 72.7955 58.107Z" fill="#F2F2F2"/>
<path d="M72.7935 57.7459C68.3364 58.3334 63.8384 58.5742 59.3573 58.095C58.0883 57.9602 56.8265 57.7627 55.5768 57.5123C55.6659 57.6279 55.7526 57.7435 55.8417 57.8615C55.8417 55.4559 55.8273 53.0529 55.82 50.6473C55.6996 50.7677 55.5792 50.8881 55.4588 51.0085C56.4774 51.0278 57.5008 50.9796 58.5193 50.97C59.5956 50.9603 60.6744 50.9556 61.7507 50.958C63.8649 50.9604 65.979 50.9868 68.0932 51.0326C69.3092 51.0591 70.5276 51.0952 71.7436 51.1362C71.628 51.0471 71.5124 50.9604 71.3944 50.8713C71.7484 53.3153 72.0904 55.7617 72.4467 58.2058C72.5141 58.6633 73.21 58.4682 73.1426 58.0131C72.7886 55.5691 72.4443 53.1227 72.0904 50.6786C72.0663 50.5197 71.8856 50.4186 71.7412 50.4138C67.4936 50.2669 63.246 50.2115 58.9961 50.2428C57.8186 50.2525 56.6363 50.3078 55.4588 50.2862C55.2638 50.2837 55.0977 50.4547 55.0977 50.6473C55.1025 53.0529 55.1193 55.4559 55.1193 57.8615C55.1193 58.0107 55.2301 58.1793 55.3842 58.2106C59.8148 59.1015 64.3561 59.2629 68.8541 58.8969C70.1712 58.7885 71.4835 58.644 72.7935 58.4707C72.9885 58.4442 73.1522 58.3238 73.1546 58.1095C73.157 57.9337 72.9861 57.7218 72.7935 57.7459Z" fill="#1D0932"/>
<path d="M90.7149 43.937C93.0891 42.2153 94.4424 39.3354 94.4857 36.4267C94.4929 35.9619 93.7705 35.9619 93.7633 36.4267C93.7224 39.0633 92.5088 41.7458 90.3488 43.3133C89.978 43.5854 90.3392 44.2115 90.7149 43.937Z" fill="#1D0932"/>
<path d="M55.211 62.6038C54.1227 65.3199 53.6435 68.2672 53.7807 71.188C53.8024 71.6504 54.5248 71.6528 54.5031 71.188C54.3683 68.3226 54.8402 65.4596 55.9069 62.7964C56.0803 62.3654 55.382 62.1776 55.211 62.6038Z" fill="#1D0932"/>
<path d="M101.201 62.0542C103.279 64.3273 104.633 67.1879 105.208 70.2051C105.295 70.6601 105.991 70.4675 105.904 70.0124C105.307 66.8749 103.869 63.9059 101.712 61.5438C101.399 61.1994 100.888 61.7123 101.201 62.0542Z" fill="#1D0932"/>
<path d="M87.2381 55.5029C82.4271 56.4396 77.6281 57.4654 72.7906 58.1083C72.504 56.1314 72.0248 52.7459 71.7383 50.7738C73.7104 50.8436 75.6825 50.9302 77.657 51.0362C78.1723 51.0651 78.7237 51.0844 79.1691 50.7954C79.6917 50.4559 79.8843 49.7793 79.9662 49.0762C80.2383 49.7841 80.7102 50.8749 80.9245 51.342C81.0666 51.6526 81.2351 51.9729 81.5145 52.1366C81.7938 52.3004 82.1309 52.2739 82.4463 52.2402C83.9681 52.0836 85.49 51.9271 87.0142 51.7682C87.0768 52.9192 87.096 54.3808 87.2381 55.5029Z" fill="#F2F2F2"/>
<path d="M87.1436 55.1542C82.3736 56.0836 77.6131 57.1046 72.7925 57.7475C72.9081 57.8366 73.0236 57.9233 73.1416 58.0124C72.7876 55.5683 72.4433 53.1219 72.0894 50.6778C71.9738 50.8295 71.8582 50.9837 71.7402 51.1354C73.5943 51.2004 75.4484 51.2823 77.3025 51.3786C78.049 51.4171 78.87 51.5014 79.4961 51.0029C80.0788 50.5382 80.2426 49.7773 80.3293 49.0766C80.0933 49.1079 79.8573 49.1416 79.6189 49.1729C79.8717 49.8254 80.1463 50.4684 80.428 51.1089C80.6856 51.6964 80.9553 52.3899 81.6392 52.5753C82.0172 52.6764 82.4169 52.6066 82.7998 52.5681C83.2693 52.5199 83.7364 52.4717 84.206 52.4236C85.1427 52.3273 86.0818 52.231 87.0185 52.1346C86.8981 52.0142 86.7777 51.8939 86.6573 51.7735C86.7223 53.0159 86.7295 54.2656 86.8788 55.5033C86.9342 55.9584 87.6566 55.9656 87.6012 55.5033C87.4519 54.2656 87.4423 53.0159 87.3797 51.7735C87.37 51.5929 87.2207 51.3906 87.0185 51.4123C86.1974 51.4965 85.3786 51.5808 84.5575 51.6651C83.7509 51.7494 82.925 51.8939 82.1135 51.9059C81.4489 51.9155 81.2611 51.2221 81.0372 50.7116C80.7868 50.1409 80.5436 49.5654 80.3172 48.9827C80.1655 48.5926 79.6575 48.6697 79.6069 49.079C79.5347 49.6545 79.3757 50.3721 78.7689 50.596C78.4631 50.7092 78.126 50.6971 77.8058 50.6827C77.4013 50.6658 76.9991 50.6393 76.5946 50.6201C74.9789 50.5382 73.3607 50.4684 71.7426 50.413C71.485 50.4034 71.3622 50.649 71.3935 50.8705C71.7474 53.3145 72.0894 55.761 72.4458 58.205C72.465 58.3422 72.6528 58.4892 72.7949 58.4699C77.6806 57.8173 82.5036 56.7915 87.3387 55.8525C87.7914 55.761 87.5987 55.0651 87.1436 55.1542Z" fill="#1D0932"/>
<path d="M104.434 45.7027C104.16 46.9597 103.512 48.5682 102.761 49.0883C102.751 49.0979 102.737 49.1051 102.727 49.1123C101.757 49.7384 100.63 49.9888 99.5197 50.1983C96.1654 50.8316 92.7751 51.1807 89.3871 51.5299C88.5973 51.6117 87.8123 51.6912 87.0225 51.7731C85.4983 51.9296 83.9765 52.0861 82.4547 52.245C82.1393 52.2763 81.8022 52.3052 81.5229 52.1415C81.2436 51.9778 81.075 51.6575 80.933 51.3469C80.7187 50.8797 80.2467 49.7866 79.9746 49.081C80.0107 48.7897 80.0252 48.4911 80.0372 48.2142C80.0974 46.7598 80.2081 44.5397 80.2443 42.6182C81.6553 43.3261 83.3649 43.526 84.9469 43.6006C91.4531 43.904 98.3903 43.5236 104.434 45.7027Z" fill="#F2F2F2"/>
<path d="M104.081 45.6095C103.874 46.539 103.559 47.4949 103.017 48.2895C102.473 49.0913 101.421 49.3947 100.525 49.6163C99.3522 49.9076 98.1458 50.0882 96.9538 50.2688C95.6921 50.459 94.4279 50.6204 93.1614 50.7648C90.6475 51.0538 88.1264 51.297 85.6078 51.5571C84.9841 51.6221 84.358 51.6871 83.7344 51.7497C83.4406 51.781 83.1493 51.8099 82.8555 51.8412C82.5666 51.8701 82.2583 51.9327 81.967 51.9062C81.4806 51.8604 81.3096 51.3331 81.1386 50.9478C80.9532 50.5337 80.7751 50.1171 80.6017 49.6982C80.5102 49.479 80.3512 49.2093 80.3392 48.971C80.3272 48.6724 80.3825 48.3545 80.397 48.0559C80.4211 47.5069 80.4452 46.9603 80.4692 46.4113C80.5246 45.1471 80.5728 43.883 80.5993 42.6188C80.4187 42.7224 80.2381 42.8259 80.0551 42.9319C81.4493 43.6157 82.9976 43.8469 84.5338 43.9408C86.1496 44.0395 87.7725 44.0636 89.3906 44.1022C92.622 44.1816 95.8727 44.2587 99.0728 44.7547C100.862 45.0316 102.629 45.4457 104.334 46.0549C104.772 46.2115 104.96 45.5132 104.527 45.3591C98.442 43.1799 91.8346 43.5291 85.4777 43.2642C83.7657 43.192 81.9838 43.0763 80.4211 42.3082C80.1755 42.1878 79.8841 42.3323 79.8769 42.6212C79.8528 43.818 79.8071 45.0172 79.7565 46.2139C79.7324 46.7605 79.7083 47.3071 79.6843 47.8536C79.6746 48.0993 79.665 48.3473 79.6482 48.5929C79.6385 48.7374 79.6145 48.8867 79.6097 49.0312C79.6048 49.1829 79.6626 49.3032 79.7204 49.4429C79.9106 49.9173 80.1105 50.3868 80.3128 50.8563C80.4885 51.2608 80.6474 51.7015 80.9099 52.0579C81.2542 52.5226 81.7431 52.6671 82.3017 52.6238C82.9542 52.5708 83.6068 52.4913 84.2593 52.4239C86.9514 52.147 89.6434 51.8821 92.3331 51.5859C94.9673 51.297 97.6184 50.9839 100.214 50.4325C100.85 50.2977 101.478 50.1243 102.078 49.8667C102.569 49.6548 103.056 49.3996 103.4 48.9806C104.129 48.0945 104.529 46.9122 104.777 45.8069C104.878 45.3494 104.182 45.1568 104.081 45.6095Z" fill="#1D0932"/>
<path d="M50.1993 35.8316C49.8646 38.1601 50.6713 40.5631 52.3906 42.1813C52.7277 42.4991 53.2405 41.9911 52.901 41.6708C51.3864 40.2429 50.5991 38.0927 50.8953 36.0243C50.9242 35.8292 50.8471 35.639 50.6424 35.5788C50.4739 35.5306 50.2258 35.639 50.1993 35.8316Z" fill="#1D0932"/>
<path d="M95.524 21.6C95.5914 21.5567 95.6613 21.5182 95.7335 21.4845C95.7504 21.4748 95.7697 21.4676 95.7889 21.4604C95.748 21.4773 95.748 21.4773 95.7865 21.4628C95.8154 21.4532 95.8419 21.4411 95.8707 21.4339C95.9454 21.4098 96.0225 21.3882 96.102 21.3737C96.1405 21.3665 96.179 21.3592 96.2199 21.3544C96.1284 21.3665 96.2392 21.3544 96.2584 21.352C96.3331 21.3472 96.4077 21.3448 96.4824 21.3473C96.5233 21.3497 96.5618 21.352 96.6004 21.3544C96.6196 21.3568 96.6389 21.3592 96.6606 21.3617C96.6196 21.3568 96.6124 21.3544 96.6389 21.3592C96.7112 21.3737 96.7858 21.3858 96.858 21.4075C96.8965 21.4171 96.9351 21.4291 96.9712 21.4435C96.9856 21.4484 97.106 21.4965 97.0242 21.4628C97.1975 21.5375 97.4191 21.5206 97.5178 21.3328C97.5997 21.1763 97.5732 20.9186 97.3878 20.8392C96.6678 20.5285 95.8346 20.5599 95.1628 20.9812C95.0015 21.0824 94.9244 21.3087 95.0328 21.4748C95.1339 21.6313 95.3531 21.706 95.524 21.6Z" fill="#1D0932"/>
</svg>
