<svg width="150" height="100" viewBox="0 0 150 100" fill="none" xmlns="http://www.w3.org/2000/svg">
<g clip-path="url(#clip0)">
<path d="M27.995 38.8524C26.827 42.942 23.7908 46.3554 19.8853 48.0305C19.3511 48.2598 19.8129 49.0385 20.3411 48.8122C24.4517 47.0496 27.6419 43.3886 28.8672 39.0938C29.0272 38.5325 28.155 38.2911 27.995 38.8524Z" fill="#1D0932"/>
<path d="M0.0693054 25.1493C3.07233 26.9028 5.99687 28.7982 8.82182 30.8234C10.4274 27.6664 12.4616 24.8113 15.4284 22.9521C20.8006 19.5779 27.688 20.4049 33.9324 19.2821C43.0229 17.6463 51.8267 11.6916 60.7754 13.9944C63.1326 14.6041 65.6075 16.1494 65.8942 18.5669C65.9787 19.2973 65.858 20.0064 65.5984 20.6855C65.1548 21.8656 64.3157 22.9642 63.5098 23.9602C63.2835 24.2409 63.0541 24.5216 62.8157 24.7962C62.9122 24.8596 62.9968 24.935 63.0752 25.0195C63.4887 25.4421 63.6789 26.0246 63.8328 26.598C64.4847 29.0517 64.6326 31.6201 64.4002 34.1463C64.21 36.2227 63.7694 38.2479 63.1598 40.2338C64.192 40.0949 65.2694 40.1281 66.3167 40.0859C70.6658 39.9048 74.9303 38.2268 78.2895 35.4562C95.1184 35.8153 111.923 29.5497 128.843 30.5879C130.581 30.6996 132.365 30.8958 133.898 31.7318C135.428 32.5648 136.648 34.1735 136.536 35.9119C136.403 37.9401 134.601 39.425 132.869 40.4903C115.08 51.431 90.9505 45.1563 72.3831 54.7146C71.9394 54.947 71.4716 55.2127 71.2392 55.6563C70.5571 56.9752 72.374 58.1523 73.8046 58.5537C90.0209 63.0567 106.231 67.5657 122.447 72.0687C124.862 72.7418 127.349 73.445 129.301 75.0144C131.26 76.5838 132.558 79.2519 131.776 81.6301C131.04 83.8696 128.662 85.2428 126.314 85.4963C123.972 85.7498 121.629 85.0979 119.369 84.443C115.288 83.2629 111.226 82.0285 107.1 81.0144C100.34 79.3605 93.4495 78.3192 86.5682 77.275C69.2292 74.6432 51.8811 72.0084 34.4365 70.2247C27.4073 69.5034 20.3177 68.9148 13.4787 67.1251C8.75841 65.8907 4.12263 64.0376 0.0753479 61.3455" fill="#FFFFA5"/>
<path d="M-0.160767 25.5422C2.84225 27.2987 5.76076 29.1941 8.59174 31.2162C8.78188 31.352 9.10785 31.2554 9.21046 31.0532C11.293 26.9878 14.1933 23.4748 18.6239 21.9265C22.9247 20.4205 27.5726 20.5804 32.0394 20.019C36.7144 19.4335 41.0847 17.7645 45.5183 16.2585C49.8432 14.7887 54.473 13.3974 59.0877 14.1126C61.2516 14.4477 63.805 15.2474 64.979 17.2666C66.488 19.8621 64.1007 22.5965 62.4921 24.4798C62.2868 24.7212 62.3411 25.005 62.5826 25.1921C63.494 25.8863 63.645 27.6518 63.8079 28.7082C64.0041 29.9637 64.0705 31.2374 64.0373 32.505C63.9739 35.0975 63.4669 37.6418 62.7184 40.1196C62.64 40.3762 62.8603 40.7293 63.1561 40.693C64.6591 40.512 66.1772 40.6086 67.6832 40.4396C68.9387 40.2977 70.1792 40.0442 71.3834 39.676C72.6601 39.2836 73.9035 38.7675 75.0866 38.1397C75.6269 37.853 76.155 37.5421 76.6681 37.2101C77.2174 36.851 77.7577 36.2866 78.3401 35.9999C78.8412 35.7524 79.7465 35.9335 80.3169 35.9274C81.0775 35.9214 81.8381 35.9003 82.5987 35.8701C84.0805 35.8098 85.5594 35.7102 87.0383 35.5774C90.0081 35.3088 92.9629 34.9134 95.9115 34.4637C101.884 33.5553 107.821 32.4235 113.821 31.6871C116.779 31.3249 119.748 31.0562 122.727 30.9657C124.212 30.9204 125.7 30.9174 127.188 30.9687C128.646 31.017 130.134 31.0653 131.561 31.3792C133.958 31.9044 136.9 33.9144 135.904 36.7665C135.096 39.0814 132.259 40.4184 130.23 41.4657C125.779 43.7655 120.913 45.1327 116.003 46.0321C106.004 47.8611 95.7606 47.84 85.7797 49.8047C83.3381 50.2846 80.9176 50.8852 78.5544 51.6669C76.2848 52.4184 73.8824 53.2725 71.824 54.5099C70.9971 55.0079 70.3904 55.853 70.7556 56.8429C71.0967 57.7604 72.0715 58.358 72.9256 58.7232C74.2385 59.2846 75.7113 59.5592 77.0846 59.9395C78.6087 60.362 80.1359 60.7876 81.6601 61.2101C93.9075 64.6115 106.155 68.0159 118.402 71.4204C121.179 72.193 124.134 72.7815 126.76 74.0009C129.059 75.0723 131.26 76.9888 131.531 79.6689C131.797 82.2916 129.738 84.2081 127.363 84.8449C124.369 85.6477 121.206 84.5099 118.342 83.6769C112.369 81.9355 106.405 80.2573 100.291 79.0863C94.0916 77.8972 87.8321 77.0159 81.5937 76.0712C69.1289 74.1849 56.655 72.3409 44.136 70.853C37.9126 70.1136 31.6652 69.5793 25.4418 68.8248C19.4388 68.0974 13.4268 67.026 7.77687 64.8108C5.16017 63.7846 2.64909 62.5049 0.30101 60.9596C-0.187912 60.6367 -0.64064 61.4214 -0.154724 61.7413C10.0827 68.4988 22.5686 69.4677 34.4328 70.681C47.3442 72.0029 60.2013 73.7896 73.0343 75.694C79.4478 76.6477 85.8642 77.5954 92.2656 78.6125C98.5161 79.6055 104.724 80.7856 110.83 82.4606C113.899 83.3027 116.942 84.2353 120.002 85.1015C122.688 85.859 125.655 86.5079 128.359 85.4727C130.421 84.685 132.159 83.028 132.422 80.7553C132.69 78.4344 131.386 76.1226 129.621 74.6981C127.517 72.9989 124.861 72.2745 122.305 71.5622C119.166 70.69 116.027 69.8178 112.888 68.9486C106.698 67.2282 100.511 65.5079 94.321 63.7906C88.0433 62.0461 81.7687 60.3016 75.491 58.5602C74.2717 58.2222 72.8291 57.9838 71.9237 57.0119C70.7647 55.7685 72.7536 55.026 73.6681 54.5884C75.9709 53.4898 78.3764 52.6176 80.8271 51.9174C90.823 49.0653 101.32 49.0109 111.56 47.6377C116.582 46.9647 121.596 45.9898 126.343 44.182C128.655 43.3007 130.897 42.2353 133.01 40.9436C134.878 39.7997 136.988 38.1246 137 35.7192C137.009 33.2534 134.896 31.4516 132.72 30.7484C131.392 30.3198 129.977 30.2051 128.595 30.1267C127.067 30.0391 125.537 30.012 124.007 30.0331C117.992 30.1146 112.016 30.9506 106.086 31.9044C99.9648 32.8883 93.8592 34.02 87.6812 34.6146C84.6902 34.9043 81.6811 35.0643 78.6751 35.019C77.984 35.0069 77.7063 35.3781 77.163 35.7765C76.6077 36.184 76.0343 36.5612 75.4397 36.9113C74.2204 37.6297 72.9317 38.2182 71.5886 38.6649C70.324 39.0844 69.0142 39.3862 67.6923 39.5372C66.1862 39.7092 64.6681 39.6126 63.1651 39.7906C63.31 39.9808 63.4548 40.174 63.6027 40.3641C64.4478 37.5724 64.985 34.675 64.9609 31.7474C64.9488 30.3561 64.81 28.9617 64.5353 27.5975C64.2999 26.4325 64.0464 25.1709 63.0504 24.4134C63.0806 24.6518 63.1108 24.8873 63.1409 25.1257C64.6802 23.3269 66.6178 21.1176 66.3522 18.5764C66.144 16.6025 64.5926 15.1448 62.8934 14.3088C58.647 12.2173 53.4499 12.9778 49.0736 14.2001C44.1722 15.5703 39.5002 17.7071 34.4992 18.7242C29.6672 19.7051 24.642 19.3581 19.8583 20.6166C17.3352 21.2806 14.9901 22.4486 13.0555 24.2142C11.0968 26.001 9.63902 28.2615 8.43781 30.6066C8.64304 30.5522 8.8513 30.4979 9.05654 30.4436C6.22556 28.4214 3.30705 26.5261 0.304031 24.7695C-0.206024 24.4647 -0.661774 25.2464 -0.160767 25.5422Z" fill="#1D0932"/>
<path d="M0.0693054 25.1493C3.07233 26.9028 5.99687 28.7982 8.82182 30.8234C10.4274 27.6664 12.4616 24.8113 15.4284 22.9521C20.8006 19.5779 27.688 20.4049 33.9324 19.2821C43.0229 17.6463 51.8267 11.6916 60.7754 13.9944C63.1326 14.6041 65.6075 16.1494 65.8942 18.5669C65.9787 19.2973 65.858 20.0064 65.5984 20.6855C65.1548 21.8656 64.3157 22.9642 63.5098 23.9602C63.2835 24.2409 63.0541 24.5216 62.8157 24.7962C62.9122 24.8596 62.9968 24.935 63.0752 25.0195C63.4887 25.4421 63.6789 26.0246 63.8328 26.598C64.4847 29.0517 64.6326 31.6201 64.4002 34.1463C64.21 36.2227 63.7694 38.2479 63.1598 40.2338C64.192 40.0949 65.2694 40.1281 66.3167 40.0859C70.6658 39.9048 74.9303 38.2268 78.2895 35.4562C95.1184 35.8153 111.923 29.5497 128.843 30.5879C130.581 30.6996 132.365 30.8958 133.898 31.7318C135.428 32.5648 136.648 34.1735 136.536 35.9119C136.403 37.9401 134.601 39.425 132.869 40.4903C115.08 51.431 90.9505 45.1563 72.3831 54.7146C71.9394 54.947 71.4716 55.2127 71.2392 55.6563C70.5571 56.9752 72.374 58.1523 73.8046 58.5537C90.0209 63.0567 106.231 67.5657 122.447 72.0687C124.862 72.7418 127.349 73.445 129.301 75.0144C131.26 76.5838 132.558 79.2519 131.776 81.6301C131.04 83.8696 128.662 85.2428 126.314 85.4963C123.972 85.7498 121.629 85.0979 119.369 84.443C115.288 83.2629 111.226 82.0285 107.1 81.0144C100.34 79.3605 93.4495 78.3192 86.5682 77.275C69.2292 74.6432 51.8811 72.0084 34.4365 70.2247C27.4073 69.5034 20.3177 68.9148 13.4787 67.1251C8.75841 65.8907 4.12263 64.0376 0.0753479 61.3455" fill="#FFFFA5"/>
<path d="M-0.160767 25.5422C2.84225 27.2987 5.76076 29.1941 8.59174 31.2162C8.78188 31.352 9.10785 31.2554 9.21046 31.0532C11.293 26.9878 14.1933 23.4748 18.6239 21.9265C22.9247 20.4205 27.5726 20.5804 32.0394 20.019C36.7144 19.4335 41.0847 17.7645 45.5183 16.2585C49.8432 14.7887 54.473 13.3974 59.0877 14.1126C61.2516 14.4477 63.805 15.2474 64.979 17.2666C66.488 19.8621 64.1007 22.5965 62.4921 24.4798C62.2868 24.7212 62.3411 25.005 62.5826 25.1921C63.494 25.8863 63.645 27.6518 63.8079 28.7082C64.0041 29.9637 64.0705 31.2374 64.0373 32.505C63.9739 35.0975 63.4669 37.6418 62.7184 40.1196C62.64 40.3762 62.8603 40.7293 63.1561 40.693C64.6591 40.512 66.1772 40.6086 67.6832 40.4396C68.9387 40.2977 70.1792 40.0442 71.3834 39.676C72.6601 39.2836 73.9035 38.7675 75.0866 38.1397C75.6269 37.853 76.155 37.5421 76.6681 37.2101C77.2174 36.851 77.7577 36.2866 78.3401 35.9999C78.8412 35.7524 79.7465 35.9335 80.3169 35.9274C81.0775 35.9214 81.8381 35.9003 82.5987 35.8701C84.0805 35.8098 85.5594 35.7102 87.0383 35.5774C90.0081 35.3088 92.9629 34.9134 95.9115 34.4637C101.884 33.5553 107.821 32.4235 113.821 31.6871C116.779 31.3249 119.748 31.0562 122.727 30.9657C124.212 30.9204 125.7 30.9174 127.188 30.9687C128.646 31.017 130.134 31.0653 131.561 31.3792C133.958 31.9044 136.9 33.9144 135.904 36.7665C135.096 39.0814 132.259 40.4184 130.23 41.4657C125.779 43.7655 120.913 45.1327 116.003 46.0321C106.004 47.8611 95.7606 47.84 85.7797 49.8047C83.3381 50.2846 80.9176 50.8852 78.5544 51.6669C76.2848 52.4184 73.8824 53.2725 71.824 54.5099C70.9971 55.0079 70.3904 55.853 70.7556 56.8429C71.0967 57.7604 72.0715 58.358 72.9256 58.7232C74.2385 59.2846 75.7113 59.5592 77.0846 59.9395C78.6087 60.362 80.1359 60.7876 81.6601 61.2101C93.9075 64.6115 106.155 68.0159 118.402 71.4204C121.179 72.193 124.134 72.7815 126.76 74.0009C129.059 75.0723 131.26 76.9888 131.531 79.6689C131.797 82.2916 129.738 84.2081 127.363 84.8449C124.369 85.6477 121.206 84.5099 118.342 83.6769C112.369 81.9355 106.405 80.2573 100.291 79.0863C94.0916 77.8972 87.8321 77.0159 81.5937 76.0712C69.1289 74.1849 56.655 72.3409 44.136 70.853C37.9126 70.1136 31.6652 69.5793 25.4418 68.8248C19.4388 68.0974 13.4268 67.026 7.77687 64.8108C5.16017 63.7846 2.64909 62.5049 0.30101 60.9596C-0.187912 60.6367 -0.64064 61.4214 -0.154724 61.7413C10.0827 68.4988 22.5686 69.4677 34.4328 70.681C47.3442 72.0029 60.2013 73.7896 73.0343 75.694C79.4478 76.6477 85.8642 77.5954 92.2656 78.6125C98.5161 79.6055 104.724 80.7856 110.83 82.4606C113.899 83.3027 116.942 84.2353 120.002 85.1015C122.688 85.859 125.655 86.5079 128.359 85.4727C130.421 84.685 132.159 83.028 132.422 80.7553C132.69 78.4344 131.386 76.1226 129.621 74.6981C127.517 72.9989 124.861 72.2745 122.305 71.5622C119.166 70.69 116.027 69.8178 112.888 68.9486C106.698 67.2282 100.511 65.5079 94.321 63.7906C88.0433 62.0461 81.7687 60.3016 75.491 58.5602C74.2717 58.2222 72.8291 57.9838 71.9237 57.0119C70.7647 55.7685 72.7536 55.026 73.6681 54.5884C75.9709 53.4898 78.3764 52.6176 80.8271 51.9174C90.823 49.0653 101.32 49.0109 111.56 47.6377C116.582 46.9647 121.596 45.9898 126.343 44.182C128.655 43.3007 130.897 42.2353 133.01 40.9436C134.878 39.7997 136.988 38.1246 137 35.7192C137.009 33.2534 134.896 31.4516 132.72 30.7484C131.392 30.3198 129.977 30.2051 128.595 30.1267C127.067 30.0391 125.537 30.012 124.007 30.0331C117.992 30.1146 112.016 30.9506 106.086 31.9044C99.9648 32.8883 93.8592 34.02 87.6812 34.6146C84.6902 34.9043 81.6811 35.0643 78.6751 35.019C77.984 35.0069 77.7063 35.3781 77.163 35.7765C76.6077 36.184 76.0343 36.5612 75.4397 36.9113C74.2204 37.6297 72.9317 38.2182 71.5886 38.6649C70.324 39.0844 69.0142 39.3862 67.6923 39.5372C66.1862 39.7092 64.6681 39.6126 63.1651 39.7906C63.31 39.9808 63.4548 40.174 63.6027 40.3641C64.4478 37.5724 64.985 34.675 64.9609 31.7474C64.9488 30.3561 64.81 28.9617 64.5353 27.5975C64.2999 26.4325 64.0464 25.1709 63.0504 24.4134C63.0806 24.6518 63.1108 24.8873 63.1409 25.1257C64.6802 23.3269 66.6178 21.1176 66.3522 18.5764C66.144 16.6025 64.5926 15.1448 62.8934 14.3088C58.647 12.2173 53.4499 12.9778 49.0736 14.2001C44.1722 15.5703 39.5002 17.7071 34.4992 18.7242C29.6672 19.7051 24.642 19.3581 19.8583 20.6166C17.3352 21.2806 14.9901 22.4486 13.0555 24.2142C11.0968 26.001 9.63902 28.2615 8.43781 30.6066C8.64304 30.5522 8.8513 30.4979 9.05654 30.4436C6.22556 28.4214 3.30705 26.5261 0.304031 24.7695C-0.206024 24.4647 -0.661774 25.2464 -0.160767 25.5422Z" fill="#1D0932"/>
<path d="M63.1563 40.2333C63.7659 38.2474 64.2065 36.2222 64.3967 34.1458C64.6291 31.6196 64.4812 29.0482 63.8293 26.5975C63.6754 26.0241 63.4853 25.4416 63.0718 25.019C62.9933 24.9345 62.9088 24.8591 62.8122 24.7957C63.0506 24.5211 63.277 24.2404 63.5064 23.9597C64.3122 22.9637 65.1483 21.8681 65.5949 20.685C74.4289 13.3933 86.8846 29.341 78.289 35.4557C74.7397 37.9788 70.6653 39.9043 66.3162 40.0854C65.2659 40.1246 64.1915 40.0945 63.1563 40.2333Z" fill="#FFFFA5"/>
<path d="M63.5941 40.3517C64.4181 37.6445 64.9462 34.8286 64.9523 31.9916C64.9553 30.564 64.8285 29.1334 64.5538 27.733C64.3215 26.5469 64.08 25.1616 63.0388 24.401C63.0689 24.6395 63.0991 24.8749 63.1293 25.1133C63.914 24.1988 64.6987 23.2481 65.3295 22.2189C65.4684 21.9896 65.6012 21.7572 65.7189 21.5157C65.8275 21.2984 65.912 21.0117 66.0418 20.897C66.3074 20.6677 66.6213 20.4745 66.9201 20.2934C68.0126 19.6385 69.253 19.2702 70.5297 19.2642C73.0559 19.2521 75.419 20.562 77.1816 22.2974C78.9532 24.0389 80.3325 26.3628 80.6585 28.8527C80.9784 31.2914 80.0699 33.6153 78.0538 35.061C76.1796 36.404 74.1484 37.5781 71.9935 38.399C70.904 38.8155 69.7842 39.1445 68.6373 39.3618C67.4603 39.5851 66.2802 39.6334 65.085 39.6606C64.4392 39.6727 63.7933 39.6968 63.1505 39.7783C62.58 39.8507 62.574 40.7561 63.1505 40.6837C64.4573 40.5207 65.7762 40.6022 67.0891 40.4845C68.3114 40.3759 69.5217 40.1404 70.6987 39.7934C73.0287 39.1052 75.2289 38.0066 77.2661 36.6877C78.6303 35.8064 79.9281 34.8709 80.737 33.4282C81.3557 32.3206 81.6454 31.053 81.6303 29.7884C81.5971 27.06 80.2993 24.4343 78.5337 22.4091C76.744 20.3538 74.2782 18.7602 71.5378 18.4191C70.2068 18.2531 68.8396 18.4342 67.5991 18.9473C66.8929 19.24 66.2349 19.6203 65.6283 20.0821C65.4623 20.2089 65.2752 20.3236 65.1786 20.5077C65.0247 20.8035 64.9161 21.1174 64.7531 21.4101C64.4452 21.9624 64.08 22.4846 63.6968 22.9886C63.3104 23.4956 62.906 23.9906 62.4895 24.4735C62.2843 24.7119 62.3326 25.0047 62.5801 25.1858C63.0298 25.5147 63.2138 26.0912 63.3587 26.6012C63.5368 27.2381 63.6726 27.8869 63.7813 28.5388C63.9925 29.8215 64.0679 31.1254 64.0408 32.4232C63.9865 35.0368 63.4795 37.6143 62.7189 40.1103C62.5499 40.6716 63.4251 40.9101 63.5941 40.3517Z" fill="#1D0932"/>
<path d="M63.1562 40.2344C62.0184 43.9889 60.289 47.6046 58.5838 51.1539C57.1683 54.1056 55.7498 57.0543 54.3343 59.9999C53.3323 62.0915 52.1885 64.3219 50.112 65.3571" fill="#FFFFA5"/>
<path d="M62.7211 40.1138C61.5923 43.814 59.9293 47.315 58.2573 50.7948C57.4001 52.5816 56.543 54.3683 55.6858 56.152C54.8921 57.8059 54.1346 59.487 53.2804 61.1138C52.4716 62.65 51.4756 64.153 49.8881 64.9649C49.369 65.2305 49.8277 66.0121 50.3438 65.7465C51.7774 65.0162 52.8096 63.7486 53.6124 62.3844C54.5238 60.8361 55.2391 59.1671 56.0178 57.5494C57.7683 53.9065 59.5822 50.2848 61.2181 46.5906C62.1205 44.5564 62.9444 42.486 63.5963 40.3553C63.7623 39.7939 62.8901 39.5554 62.7211 40.1138Z" fill="#1D0932"/>
<path d="M62.8105 24.796C62.4031 24.4942 61.89 24.3463 61.386 24.2618C58.721 23.8272 55.9867 25.1039 54.1185 27.0475C52.2472 28.9912 51.1244 31.5355 50.2824 34.0978C50.0711 34.7347 49.875 35.3805 49.6456 36.0113C49.2955 36.9801 48.876 37.9067 48.2422 38.7065C45.4233 42.2347 39.8549 42.5214 37.2865 46.2397C33.203 52.1461 36.5259 57.8382 39.0189 58.9097" fill="#FFFFA5"/>
<path d="M63.0403 24.4038C62.2616 23.8635 61.2416 23.7217 60.312 23.7217C59.3975 23.7217 58.4739 23.8998 57.6168 24.2167C55.8482 24.8626 54.315 26.0275 53.1319 27.4822C51.9096 28.9913 51.0404 30.7327 50.3522 32.5406C49.64 34.4148 49.2536 36.5094 48.0796 38.1724C46.2778 40.7227 42.9609 41.607 40.3562 43.0587C39.0162 43.8072 37.7818 44.7398 36.8975 46.0104C35.7718 47.6251 35.0414 49.5295 34.9297 51.5033C34.8301 53.2327 35.2285 54.9923 36.0615 56.5074C36.6772 57.6271 37.5947 58.771 38.7929 59.2991C39.3211 59.5315 39.7828 58.7528 39.2486 58.5174C38.2858 58.0919 37.5554 57.2408 37.0212 56.3595C36.2969 55.1643 35.8864 53.782 35.8261 52.3846C35.7506 50.5587 36.2758 48.775 37.2023 47.2086C37.9931 45.8746 39.0524 44.8816 40.3774 44.0909C42.8794 42.5939 45.8401 41.7881 47.9588 39.6935C49.2958 38.3716 49.9297 36.6512 50.4941 34.9007C51.0645 33.1382 51.6922 31.3968 52.6308 29.7911C53.657 28.0346 55.0423 26.4923 56.8592 25.5356C57.7073 25.0889 58.6399 24.769 59.5967 24.6664C60.5806 24.5608 61.7425 24.603 62.5815 25.1855C63.0614 25.5205 63.5171 24.7358 63.0403 24.4038Z" fill="#1D0932"/>
<path d="M6.14233 36.9962C6.94817 34.9288 7.79629 32.8162 8.81641 30.8242L6.14233 36.9962Z" fill="#FFFFA5"/>
<path d="M6.58065 37.1165C7.38045 35.0642 8.2074 33.0179 9.20941 31.0531C9.475 30.534 8.69328 30.0753 8.42769 30.5974C7.38946 32.6316 6.53533 34.7503 5.70535 36.8781C5.49409 37.4183 6.36938 37.6538 6.58065 37.1165Z" fill="#1D0932"/>
<path d="M63.1562 40.2344C62.0184 43.9889 60.289 47.6046 58.5838 51.1539C57.1683 54.1056 55.7498 57.0543 54.3343 59.9999C53.3323 62.0915 52.1885 64.3219 50.112 65.3571" fill="#FFFFA5"/>
<path d="M62.7211 40.1138C61.5923 43.814 59.9293 47.315 58.2573 50.7948C57.4001 52.5816 56.543 54.3683 55.6858 56.152C54.8921 57.8059 54.1346 59.487 53.2804 61.1138C52.4716 62.65 51.4756 64.153 49.8881 64.9649C49.369 65.2305 49.8277 66.0121 50.3438 65.7465C51.7774 65.0162 52.8096 63.7486 53.6124 62.3844C54.5238 60.8361 55.2391 59.1671 56.0178 57.5494C57.7683 53.9065 59.5822 50.2848 61.2181 46.5906C62.1205 44.5564 62.9444 42.486 63.5963 40.3553C63.7623 39.7939 62.8901 39.5554 62.7211 40.1138Z" fill="#1D0932"/>
<path d="M6.14233 36.9962C6.94817 34.9288 7.79629 32.8162 8.81641 30.8242L6.14233 36.9962Z" fill="#FFFFA5"/>
<path d="M6.58065 37.1165C7.38045 35.0642 8.2074 33.0179 9.20941 31.0531C9.475 30.534 8.69328 30.0753 8.42769 30.5974C7.38946 32.6316 6.53533 34.7503 5.70535 36.8781C5.49409 37.4183 6.36938 37.6538 6.58065 37.1165Z" fill="#1D0932"/>
<path d="M48.1094 18.2295C47.8377 19.1259 47.1074 19.7959 46.4223 20.4327C43.3197 23.318 40.4826 26.49 37.9625 29.8944C37.0963 31.0655 36.2512 32.2908 35.8106 33.6791C35.3699 35.0675 35.373 36.6641 36.1366 37.9075C37.0028 39.314 38.6959 40.0322 40.3408 40.1499C44.2371 40.4306 47.9434 40.1711 49.6426 36.0121" fill="#FFFFA5"/>
<path d="M47.6754 18.1081C47.4491 18.7992 46.936 19.3274 46.4199 19.8163C45.8495 20.3596 45.27 20.8937 44.7086 21.446C43.5919 22.5446 42.5144 23.6795 41.4762 24.8505C40.4108 26.0517 39.3907 27.2891 38.4099 28.5597C37.4863 29.7579 36.5296 30.9773 35.8686 32.3445C35.2348 33.6573 34.8968 35.1121 35.1594 36.5668C35.3948 37.8797 36.2006 38.9873 37.3324 39.6815C38.4702 40.3817 39.7529 40.5778 41.0628 40.6442C42.1855 40.7016 43.3082 40.6955 44.4219 40.5325C45.5929 40.3605 46.7609 39.9802 47.7267 39.277C48.8253 38.4742 49.5678 37.3726 50.0869 36.1261C50.3102 35.5889 49.435 35.3535 49.2147 35.8847C48.8042 36.8686 48.1945 37.7861 47.3434 38.438C46.5677 39.0356 45.6412 39.3796 44.6875 39.5698C43.6825 39.769 42.6442 39.7901 41.6211 39.7569C40.444 39.7207 39.2549 39.6513 38.1805 39.111C37.0487 38.5436 36.2579 37.5808 36.0346 36.3193C35.7961 34.9823 36.2066 33.6151 36.8314 32.4411C37.5074 31.1704 38.4098 30.0175 39.2911 28.8827C40.2086 27.7026 41.1684 26.5497 42.1613 25.433C43.2629 24.1926 44.4099 22.9943 45.596 21.8384C46.6674 20.7942 48.0647 19.8163 48.5506 18.3405C48.7317 17.7942 47.8565 17.5558 47.6754 18.1081Z" fill="#1D0932"/>
<path d="M63.057 35.6171C65.7702 34.8777 65.0489 31.1895 65.0308 29.0678C65.0097 26.276 60.6697 26.27 60.6908 29.0678C60.6908 29.2187 60.6938 29.3696 60.6938 29.5205C60.3679 29.6985 60.0872 29.9521 59.9121 30.2961C59.384 31.3344 59.2179 32.4601 59.6404 33.5678C60.1565 34.938 61.5207 36.0336 63.057 35.6171Z" fill="#FFFFA5" stroke="#1D0932" stroke-miterlimit="10"/>
<path d="M63.8113 26.873C58.1298 25.1468 59.1271 35.6069 59.1271 35.6069C59.1271 35.6069 62.7703 36.6772 64.4492 36.6288" fill="#C23172"/>
<path d="M63.1563 40.2333C63.7659 38.2474 64.2065 36.2222 64.3967 34.1458C64.6291 31.6196 64.4812 29.0482 63.8293 26.5975C63.6754 26.0241 63.4853 25.4416 63.0718 25.019C62.9933 24.9345 62.9088 24.8591 62.8122 24.7957C63.0506 24.5211 63.277 24.2404 63.5064 23.9597C64.3122 22.9637 65.1483 21.8681 65.5949 20.685C74.4289 13.3933 86.8846 29.341 78.289 35.4557C74.7397 37.9788 70.6653 39.9043 66.3162 40.0854C65.2659 40.1246 64.1915 40.0945 63.1563 40.2333Z" fill="#FFFFA5"/>
<path d="M63.5941 40.3517C64.4181 37.6445 64.9462 34.8286 64.9523 31.9916C64.9553 30.564 64.8285 29.1334 64.5538 27.733C64.3215 26.5469 64.08 25.1616 63.0388 24.401C63.0689 24.6395 63.0991 24.8749 63.1293 25.1133C63.914 24.1988 64.6987 23.2481 65.3295 22.2189C65.4684 21.9896 65.6012 21.7572 65.7189 21.5157C65.8275 21.2984 65.912 21.0117 66.0418 20.897C66.3074 20.6677 66.6213 20.4745 66.9201 20.2934C68.0126 19.6385 69.253 19.2702 70.5297 19.2642C73.0559 19.2521 75.419 20.562 77.1816 22.2974C78.9532 24.0389 80.3325 26.3628 80.6585 28.8527C80.9784 31.2914 80.0699 33.6153 78.0538 35.061C76.1796 36.404 74.1484 37.5781 71.9935 38.399C70.904 38.8155 69.7842 39.1445 68.6373 39.3618C67.4603 39.5851 66.2802 39.6334 65.085 39.6606C64.4392 39.6727 63.7933 39.6968 63.1505 39.7783C62.58 39.8507 62.574 40.7561 63.1505 40.6837C64.4573 40.5207 65.7762 40.6022 67.0891 40.4845C68.3114 40.3759 69.5217 40.1404 70.6987 39.7934C73.0287 39.1052 75.2289 38.0066 77.2661 36.6877C78.6303 35.8064 79.9281 34.8709 80.737 33.4282C81.3557 32.3206 81.6454 31.053 81.6303 29.7884C81.5971 27.06 80.2993 24.4343 78.5337 22.4091C76.744 20.3538 74.2782 18.7602 71.5378 18.4191C70.2068 18.2531 68.8396 18.4342 67.5991 18.9473C66.8929 19.24 66.2349 19.6203 65.6283 20.0821C65.4623 20.2089 65.2752 20.3236 65.1786 20.5077C65.0247 20.8035 64.9161 21.1174 64.7531 21.4101C64.4452 21.9624 64.08 22.4846 63.6968 22.9886C63.3104 23.4956 62.906 23.9906 62.4895 24.4735C62.2843 24.7119 62.3326 25.0047 62.5801 25.1858C63.0298 25.5147 63.2138 26.0912 63.3587 26.6012C63.5368 27.2381 63.6726 27.8869 63.7813 28.5388C63.9925 29.8215 64.0679 31.1254 64.0408 32.4232C63.9865 35.0368 63.4795 37.6143 62.7189 40.1103C62.5499 40.6716 63.4251 40.9101 63.5941 40.3517Z" fill="#1D0932"/>
<path d="M94.6349 68.8965C96.0685 70.2516 96.9045 72.2194 96.8804 74.1933L94.6349 68.8965Z" fill="#FFFFA5"/>
<path d="M94.3158 69.217C95.6679 70.5118 96.4405 72.3226 96.4284 74.1939C96.4254 74.7764 97.3308 74.7764 97.3339 74.1939C97.3459 72.0933 96.4767 70.0289 94.9556 68.5772C94.533 68.1728 93.8932 68.8126 94.3158 69.217Z" fill="#1D0932"/>
<path d="M96.3811 39.1514C97.7573 40.1262 98.7744 41.593 99.209 43.2228L96.3811 39.1514Z" fill="#FFFFA5"/>
<path d="M96.1541 39.5404C97.4338 40.4579 98.3633 41.825 98.7738 43.3401C98.9247 43.9015 99.7999 43.663 99.646 43.0986C99.1721 41.3451 98.0857 39.812 96.6098 38.7556C96.4106 38.6138 96.1058 38.7194 95.9911 38.9186C95.8583 39.151 95.9519 39.3985 96.1541 39.5404Z" fill="#1D0932"/>
<path d="M63.5909 26.2482C59.1633 24.7905 58.7106 31.1888 58.7498 34.0379C58.7559 34.4936 58.768 34.9493 58.8072 35.4021C58.8253 35.6103 58.937 35.7733 59.1392 35.8397C59.7549 36.0389 60.3796 36.2169 61.0074 36.3799C61.9852 36.6304 63.0265 36.8991 64.0436 36.878C64.6261 36.8659 64.6261 35.9605 64.0436 35.9725C63.0748 35.9937 62.0909 35.728 61.1613 35.4866C60.5637 35.3296 59.9662 35.1606 59.3806 34.9705C59.4923 35.1154 59.601 35.2602 59.7127 35.4081C59.6191 34.3246 59.6281 33.22 59.7036 32.1335C59.8062 30.6033 60.0175 28.5842 61.1312 27.4795C61.7227 26.894 62.4983 26.8458 63.3494 27.1264C63.9048 27.3045 64.1432 26.4293 63.5909 26.2482Z" fill="#1D0932"/>
<path d="M42.233 30.4277C42.233 30.4277 37.8507 35.8181 39.9754 37.5082C42.1002 39.1953 45.5529 36.4248 47.0137 34.8614L42.233 30.4277Z" fill="#C23172"/>
<path d="M41.912 30.1082C40.8074 31.4694 39.7783 33.0267 39.2139 34.6957C38.894 35.6464 38.734 36.8325 39.4614 37.6444C40.4272 38.7219 42.0509 38.6071 43.2732 38.1122C44.8185 37.4874 46.1978 36.3888 47.3326 35.1816C47.4956 35.0096 47.5167 34.7108 47.3326 34.5418C45.9413 33.2531 44.5499 31.9613 43.1586 30.6726C42.9563 30.4854 42.7541 30.2983 42.5519 30.1082C42.1264 29.7128 41.4835 30.3496 41.912 30.748C43.3034 32.0367 44.6948 33.3285 46.0861 34.6172C46.2883 34.8044 46.4905 34.9914 46.6927 35.1816C46.6927 34.9673 46.6927 34.7561 46.6927 34.5418C45.7964 35.4955 44.7581 36.3527 43.5992 36.9684C42.6123 37.4905 41.1666 37.9734 40.2129 37.1162C39.6425 36.6032 39.8417 35.6615 40.0892 34.9342C40.4091 33.9835 40.9282 33.0961 41.4744 32.2571C41.7219 31.8768 41.9815 31.5025 42.2531 31.1374C42.3044 31.0679 42.3588 30.9985 42.4101 30.9261C42.4885 30.8235 42.3708 30.9744 42.4583 30.8627C42.4885 30.8235 42.5217 30.7842 42.5519 30.745C42.9171 30.3013 42.2802 29.6555 41.912 30.1082Z" fill="#1D0932"/>
<path d="M75.2731 24.6875C76.2057 25.4994 76.9452 26.5316 77.416 27.6724L75.2731 24.6875Z" fill="#FFFFA5"/>
<path d="M74.9544 25.0081C75.1778 25.2043 75.389 25.4096 75.5912 25.6299C75.6908 25.7385 75.7874 25.8502 75.8839 25.9649C75.9896 26.0946 76.0288 26.1429 76.1284 26.2848C76.3005 26.5262 76.4604 26.7767 76.6083 27.0363C76.6808 27.1661 76.7502 27.2959 76.8166 27.4287C76.8498 27.4951 76.88 27.5614 76.9132 27.6309C76.9282 27.661 76.9403 27.6912 76.9524 27.7214C76.9524 27.7184 77.0067 27.8482 76.9856 27.7938C77.0792 28.0202 77.2843 28.1802 77.5439 28.1108C77.7582 28.0534 77.9544 27.7818 77.8608 27.5524C77.3538 26.3331 76.5932 25.2406 75.6003 24.3653C75.4161 24.2054 75.1415 24.1842 74.9604 24.3653C74.7914 24.5313 74.7703 24.8452 74.9544 25.0081Z" fill="#1D0932"/>
</g>
<defs>
<clipPath id="clip0">
<rect width="150" height="100" fill="white"/>
</clipPath>
</defs>
</svg>
