<svg width="470" height="622" viewBox="0 0 470 622" fill="none" xmlns="http://www.w3.org/2000/svg">
<g clip-path="url(#clip0)">
<path d="M267.51 354.404H242.049L232.695 298.985H278.734L267.51 354.404Z" fill="#43005C"/>
<path d="M267.511 353.088C260.09 353.088 252.66 353.088 245.238 353.088C244.176 353.088 243.113 353.088 242.05 353.088C242.472 353.413 242.893 353.729 243.324 354.054C242.27 347.827 241.225 341.6 240.171 335.373C238.484 325.405 236.807 315.436 235.121 305.468C234.734 303.184 234.348 300.91 233.97 298.626C233.549 299.179 233.127 299.742 232.697 300.295C237.887 300.295 243.087 300.295 248.277 300.295C256.542 300.295 264.815 300.295 273.08 300.295C274.968 300.295 276.856 300.295 278.736 300.295C278.314 299.742 277.893 299.179 277.462 298.626C276.197 304.871 274.933 311.115 273.668 317.36C271.648 327.311 269.637 337.261 267.617 347.212C267.151 349.496 266.695 351.779 266.229 354.063C265.895 355.723 268.433 356.425 268.767 354.765C270.032 348.521 271.297 342.276 272.561 336.032C274.581 326.081 276.593 316.13 278.613 306.179C279.078 303.896 279.535 301.612 280 299.329C280.167 298.503 279.631 297.66 278.727 297.66C273.536 297.66 268.337 297.66 263.146 297.66C254.882 297.66 246.608 297.66 238.344 297.66C236.456 297.66 234.567 297.66 232.688 297.66C231.766 297.66 231.274 298.494 231.414 299.329C232.468 305.556 233.513 311.783 234.567 318.01C236.254 327.978 237.931 337.946 239.617 347.915C240.004 350.198 240.39 352.473 240.768 354.757C240.865 355.319 241.506 355.723 242.041 355.723C249.463 355.723 256.893 355.723 264.314 355.723C265.377 355.723 266.44 355.723 267.502 355.723C269.206 355.723 269.206 353.088 267.511 353.088Z" fill="#1D0932"/>
<path d="M267.377 409.826H241.925L232.562 354.398H278.61L267.377 409.826Z" fill="#43005C"/>
<path d="M267.378 408.507C259.957 408.507 252.527 408.507 245.105 408.507C244.043 408.507 242.98 408.507 241.917 408.507C242.339 408.832 242.761 409.148 243.191 409.473C242.137 403.246 241.092 397.019 240.038 390.792C238.352 380.824 236.674 370.855 234.988 360.887C234.601 358.604 234.215 356.329 233.837 354.045C233.416 354.599 232.994 355.161 232.564 355.714C237.754 355.714 242.954 355.714 248.144 355.714C256.409 355.714 264.682 355.714 272.947 355.714C274.835 355.714 276.723 355.714 278.603 355.714C278.181 355.161 277.76 354.599 277.329 354.045C276.065 360.29 274.8 366.534 273.535 372.779C271.515 382.73 269.504 392.681 267.484 402.631C267.018 404.915 266.562 407.198 266.096 409.482C265.762 411.133 268.301 411.844 268.634 410.184C269.899 403.94 271.164 397.695 272.429 391.451C274.449 381.5 276.46 371.549 278.48 361.599C278.945 359.315 279.402 357.031 279.868 354.748C280.034 353.922 279.499 353.079 278.594 353.079C273.403 353.079 268.204 353.079 263.013 353.079C254.749 353.079 246.476 353.079 238.211 353.079C236.323 353.079 234.435 353.079 232.555 353.079C231.633 353.079 231.141 353.914 231.282 354.748C232.335 360.975 233.381 367.202 234.435 373.429C236.121 383.397 237.798 393.366 239.485 403.334C239.871 405.617 240.257 407.892 240.635 410.176C240.732 410.738 241.373 411.142 241.909 411.142C249.33 411.142 256.76 411.142 264.182 411.142C265.244 411.142 266.307 411.142 267.37 411.142C269.082 411.142 269.082 408.507 267.378 408.507Z" fill="#1D0932"/>
<path d="M267.377 464.294H241.925L232.562 408.866H278.61L267.377 464.294Z" fill="#43005C"/>
<path d="M267.378 462.979C259.957 462.979 252.527 462.979 245.105 462.979C244.043 462.979 242.98 462.979 241.917 462.979C242.339 463.304 242.761 463.62 243.191 463.945C242.137 457.718 241.092 451.491 240.038 445.264C238.352 435.296 236.674 425.327 234.988 415.359C234.601 413.075 234.215 410.8 233.837 408.517C233.416 409.07 232.994 409.632 232.564 410.186C237.754 410.186 242.954 410.186 248.144 410.186C256.409 410.186 264.682 410.186 272.947 410.186C274.835 410.186 276.723 410.186 278.603 410.186C278.181 409.632 277.76 409.07 277.329 408.517C276.065 414.761 274.8 421.006 273.535 427.251C271.515 437.201 269.504 447.152 267.484 457.103C267.018 459.387 266.562 461.67 266.096 463.953C265.762 465.613 268.301 466.316 268.634 464.656C269.899 458.411 271.164 452.167 272.429 445.923C274.449 435.972 276.46 426.021 278.48 416.07C278.945 413.787 279.402 411.503 279.868 409.22C280.034 408.394 279.499 407.551 278.594 407.551C273.403 407.551 268.204 407.551 263.013 407.551C254.749 407.551 246.476 407.551 238.211 407.551C236.323 407.551 234.435 407.551 232.555 407.551C231.633 407.551 231.141 408.385 231.282 409.22C232.335 415.447 233.381 421.674 234.435 427.9C236.121 437.869 237.798 447.837 239.485 457.805C239.871 460.089 240.257 462.364 240.635 464.647C240.732 465.209 241.373 465.613 241.909 465.613C249.33 465.613 256.76 465.613 264.182 465.613C265.244 465.613 266.307 465.613 267.37 465.613C269.082 465.613 269.082 462.979 267.378 462.979Z" fill="#1D0932"/>
<path d="M267.377 517.466H241.925L232.562 462.047H278.61L267.377 517.466Z" fill="#43005C"/>
<path d="M267.378 516.149C259.957 516.149 252.527 516.149 245.105 516.149C244.043 516.149 242.98 516.149 241.917 516.149C242.339 516.473 242.761 516.79 243.191 517.114C242.137 510.888 241.092 504.661 240.038 498.434C238.352 488.465 236.674 478.497 234.988 468.529C234.601 466.245 234.215 463.97 233.837 461.687C233.416 462.24 232.994 462.802 232.564 463.356C237.754 463.356 242.954 463.356 248.144 463.356C256.409 463.356 264.682 463.356 272.947 463.356C274.835 463.356 276.723 463.356 278.603 463.356C278.181 462.802 277.76 462.24 277.329 461.687C276.065 467.931 274.8 474.176 273.535 480.42C271.515 490.371 269.504 500.322 267.484 510.273C267.018 512.556 266.562 514.84 266.096 517.123C265.762 518.783 268.301 519.486 268.634 517.826C269.899 511.581 271.164 505.337 272.429 499.092C274.449 489.142 276.46 479.191 278.48 469.24C278.945 466.956 279.402 464.673 279.868 462.39C280.034 461.564 279.499 460.721 278.594 460.721C273.403 460.721 268.204 460.721 263.013 460.721C254.749 460.721 246.476 460.721 238.211 460.721C236.323 460.721 234.435 460.721 232.555 460.721C231.633 460.721 231.141 461.555 231.282 462.39C232.335 468.616 233.381 474.843 234.435 481.07C236.121 491.039 237.798 501.007 239.485 510.975C239.871 513.259 240.257 515.534 240.635 517.817C240.732 518.379 241.373 518.783 241.909 518.783C249.33 518.783 256.76 518.783 264.182 518.783C265.244 518.783 266.307 518.783 267.37 518.783C269.082 518.783 269.082 516.149 267.378 516.149Z" fill="#1D0932"/>
<path d="M269.288 574.158H239.866L229.055 510.352H282.26L269.288 574.158Z" fill="#43005C"/>
<path d="M269.285 572.84C260.686 572.84 252.079 572.84 243.481 572.84C242.278 572.84 241.075 572.84 239.871 572.84C240.293 573.165 240.715 573.481 241.145 573.806C239.924 566.613 238.703 559.411 237.483 552.218C235.542 540.756 233.601 529.304 231.66 517.842C231.22 515.234 230.773 512.617 230.333 510.008C229.912 510.561 229.49 511.123 229.06 511.677C235.05 511.677 241.04 511.677 247.038 511.677C256.585 511.677 266.141 511.677 275.687 511.677C277.883 511.677 280.079 511.677 282.266 511.677C281.844 511.123 281.422 510.561 280.992 510.008C279.525 517.219 278.059 524.429 276.592 531.649C274.273 543.066 271.946 554.484 269.627 565.892C269.092 568.536 268.556 571.171 268.02 573.815C267.686 575.466 270.224 576.177 270.558 574.517C272.025 567.307 273.492 560.096 274.958 552.876C277.277 541.459 279.604 530.041 281.923 518.624C282.459 515.98 282.995 513.346 283.53 510.702C283.697 509.876 283.161 509.033 282.257 509.033C276.267 509.033 270.277 509.033 264.279 509.033C254.732 509.033 245.176 509.033 235.629 509.033C233.434 509.033 231.238 509.033 229.051 509.033C228.129 509.033 227.637 509.868 227.778 510.702C228.998 517.904 230.219 525.097 231.44 532.29C233.381 543.751 235.322 555.204 237.263 566.665C237.702 569.274 238.15 571.891 238.589 574.5C238.686 575.062 239.327 575.466 239.863 575.466C248.461 575.466 257.068 575.466 265.666 575.466C266.869 575.466 268.073 575.466 269.276 575.466C270.98 575.475 270.98 572.84 269.285 572.84Z" fill="#1D0932"/>
<path d="M247.07 300.716C247.456 292.75 241.379 286.084 235.512 280.691C191.054 239.843 133.334 213.644 73.3125 207.074C77.2032 213.591 81.094 220.108 84.9848 226.625C85.8543 228.082 86.7765 229.593 88.1905 230.524C89.8241 231.596 91.8704 231.754 93.8201 231.868C100.073 232.254 106.327 232.65 112.58 233.036C109.629 235.978 106.687 238.912 103.736 241.854C105.413 248.09 113.028 250.733 119.475 250.303C125.921 249.873 132.183 247.422 138.638 247.729C136.741 251.62 135.231 255.704 134.142 259.894C139.71 260.737 145.427 260.552 150.934 259.375C148.168 264.9 145.41 270.433 142.643 275.957C149.977 278.68 157.302 281.402 164.635 284.125C168.772 285.662 173.058 287.225 177.467 287.006C182.648 286.751 187.356 284.09 192.134 282.07C196.92 280.05 202.515 278.671 207.179 280.946C211.842 283.22 213.915 290.58 209.726 293.654C226.264 294.585 242.617 298.537 257.758 305.256" fill="#FFFFA5"/>
<path d="M248.382 300.717C248.619 294.095 244.825 288.368 240.469 283.722C235.919 278.865 230.711 274.544 225.591 270.302C215.166 261.669 204.135 253.782 192.594 246.712C180.992 239.598 168.89 233.31 156.409 227.899C143.991 222.516 131.212 217.975 118.161 214.365C105.11 210.755 91.8037 208.086 78.3749 206.364C76.6886 206.145 75.0023 205.951 73.3073 205.758C72.2885 205.644 71.7001 206.952 72.1656 207.743C75.9421 214.075 79.7186 220.399 83.4952 226.731C85.0673 229.357 86.6922 231.816 89.81 232.668C91.3207 233.081 92.9104 233.143 94.4561 233.239C96.2741 233.353 98.0921 233.468 99.9101 233.582C104.126 233.845 108.35 234.109 112.566 234.372C112.259 233.626 111.942 232.87 111.635 232.124C108.684 235.066 105.742 237.999 102.791 240.942C102.457 241.267 102.325 241.776 102.448 242.224C104.135 248.126 110.142 250.945 115.824 251.56C123.527 252.394 130.913 248.767 138.616 249.066C138.238 248.407 137.86 247.748 137.474 247.081C135.533 251.086 133.978 255.257 132.845 259.561C132.678 260.184 133.056 261.08 133.767 261.186C139.608 262.038 145.484 261.88 151.263 260.668C150.771 260.026 150.27 259.377 149.778 258.735C147.012 264.26 144.254 269.793 141.487 275.317C141.083 276.125 141.444 276.942 142.278 277.249C148.118 279.419 153.95 281.588 159.791 283.757C165.227 285.777 170.91 288.438 176.829 288.368C182.432 288.298 187.395 285.523 192.427 283.389C196.854 281.509 203.019 279.629 207.402 282.633C210.23 284.565 212.32 290.028 209.053 292.549C208.043 293.33 208.324 294.92 209.72 295.008C226.03 295.948 242.146 299.821 257.086 306.426C258.623 307.102 259.966 304.836 258.412 304.151C243.016 297.344 226.522 293.339 209.712 292.373C209.931 293.19 210.151 294.007 210.379 294.832C213.857 292.154 213.954 287.464 211.899 283.828C209.281 279.199 203.915 277.996 198.962 278.716C193.033 279.577 188.01 282.967 182.389 284.75C179.411 285.698 176.39 286.006 173.298 285.435C170.145 284.855 167.142 283.696 164.156 282.581C157.094 279.955 150.033 277.337 142.981 274.711C143.244 275.352 143.507 276.002 143.771 276.643C146.538 271.119 149.295 265.586 152.062 260.062C152.589 259.008 151.728 257.883 150.578 258.129C145.29 259.236 139.828 259.429 134.479 258.648C134.786 259.183 135.094 259.728 135.401 260.264C136.481 256.18 137.922 252.219 139.766 248.416C140.205 247.511 139.678 246.475 138.624 246.431C131.387 246.159 124.502 249.311 117.291 249.039C112.373 248.846 106.48 246.729 104.995 241.53C104.881 241.96 104.767 242.382 104.653 242.812C107.604 239.87 110.546 236.937 113.497 233.995C114.34 233.151 113.673 231.816 112.566 231.746C108.061 231.465 103.546 231.184 99.0407 230.903C96.9328 230.771 94.8074 230.683 92.6996 230.499C90.8552 230.341 89.125 229.928 87.8339 228.514C86.578 227.135 85.7085 225.317 84.7512 223.728C83.627 221.848 82.5116 219.968 81.3874 218.089C79.0688 214.207 76.7501 210.316 74.4315 206.434C74.0538 207.093 73.6761 207.752 73.2897 208.419C86.5165 209.877 99.6291 212.293 112.513 215.612C125.336 218.915 137.931 223.104 150.174 228.136C162.487 233.195 174.44 239.124 185.928 245.834C197.363 252.517 208.359 259.974 218.749 268.186C223.992 272.331 229.086 276.652 234.013 281.166C238.58 285.338 243.534 290.098 245.22 296.255C245.624 297.731 245.782 299.224 245.73 300.752C245.686 302.421 248.32 302.412 248.382 300.717Z" fill="#1D0932"/>
<path d="M247.963 297.038C282.734 291.171 317.312 308.025 346.181 328.26C362.578 339.757 378.334 352.764 389.479 369.407C403.69 390.609 409.469 416.193 414.967 441.118C391.534 433.758 366.504 431.527 342.14 434.645C344.977 421.234 347.814 407.814 350.642 394.403C344.635 398.057 338.619 401.71 332.611 405.355C327.078 399.304 327.219 390.17 324.856 382.318C322.502 374.466 313.851 366.658 306.904 371.023C308.107 362.39 309.319 353.757 310.523 345.123C302.302 344.816 294.169 342.357 287.152 338.071C278.009 332.485 271.009 324.053 264.194 315.78C262.85 314.146 261.506 312.513 260.163 310.888C255.464 305.188 250.765 299.488 246.066 293.788" fill="#FFFFA5"/>
<path d="M248.309 298.311C263.767 295.737 279.558 297.793 294.383 302.579C309.525 307.462 323.7 315.033 337.015 323.666C350.004 332.089 362.643 341.416 373.612 352.377C379.005 357.77 383.976 363.584 388.236 369.916C392.601 376.407 396.228 383.38 399.231 390.591C405.3 405.135 409.015 420.513 412.449 435.848C412.871 437.719 413.284 439.59 413.697 441.469C414.241 440.925 414.777 440.389 415.321 439.844C397.009 434.118 377.731 431.457 358.55 432.028C353.061 432.195 347.589 432.625 342.144 433.319C342.565 433.872 342.987 434.434 343.417 434.987C346.254 421.576 349.091 408.156 351.919 394.745C352.147 393.665 351.014 392.628 349.987 393.261C343.979 396.914 337.963 400.568 331.956 404.213C332.492 404.283 333.019 404.353 333.554 404.415C328.864 399.172 328.443 391.627 326.95 385.075C325.509 378.769 322.102 372.411 315.954 369.574C312.783 368.107 309.288 368.028 306.249 369.872C306.89 370.364 307.54 370.865 308.181 371.357C309.384 362.723 310.596 354.09 311.8 345.456C311.923 344.596 311.466 343.832 310.526 343.788C299.758 343.34 289.606 339.177 281.385 332.265C273.235 325.414 266.727 316.772 259.99 308.595C255.66 303.343 251.331 298.091 247.001 292.83C245.92 291.522 244.067 293.392 245.139 294.692C252.709 303.879 260.157 313.18 267.886 322.226C274.851 330.385 282.65 338.061 292.653 342.365C298.318 344.798 304.369 346.168 310.526 346.423C310.104 345.869 309.683 345.307 309.253 344.754C308.049 353.387 306.837 362.021 305.634 370.654C305.485 371.717 306.486 372.797 307.566 372.138C312.924 368.898 318.729 373.789 321.522 378.207C324.965 383.67 325.035 390.547 326.73 396.633C327.714 400.164 329.216 403.51 331.675 406.259C332.053 406.681 332.79 406.76 333.273 406.461C339.281 402.807 345.297 399.154 351.304 395.509C350.663 395.017 350.013 394.517 349.372 394.025C346.535 407.436 343.707 420.856 340.87 434.267C340.712 435.005 341.23 436.05 342.144 435.936C361.097 433.538 380.419 434.311 399.1 438.29C404.334 439.405 409.516 440.766 414.619 442.365C415.629 442.681 416.446 441.68 416.244 440.74C412.792 425.133 409.297 409.447 403.605 394.473C400.768 387.016 397.413 379.744 393.277 372.911C389.263 366.271 384.503 360.097 379.233 354.406C368.536 342.839 355.871 333.178 342.864 324.369C329.462 315.297 315.216 307.269 299.987 301.701C285.17 296.291 269.239 293.357 253.447 294.956C251.489 295.158 249.539 295.421 247.598 295.746C245.947 296.045 246.649 298.583 248.309 298.311Z" fill="#1D0932"/>
<path d="M469.025 642.68C440.094 656.987 408.828 598.029 331.707 632.87C234.5 676.783 161.972 688.798 42.2812 642.68C93.1244 582.615 171.861 558.252 255.657 558.252C339.444 558.243 425.866 583.081 469.025 642.68Z" fill="#6C43BF"/>
<path d="M468.364 641.539C461.865 644.709 454.777 643.779 448.138 641.556C439.689 638.737 431.784 634.416 423.634 630.85C413.666 626.485 403.346 622.92 392.543 621.356C379.018 619.398 365.308 620.513 352.143 624.061C343.729 626.327 335.754 629.63 327.823 633.178C319.594 636.858 311.303 640.406 302.933 643.761C287.73 649.856 272.264 655.328 256.473 659.71C226.322 668.08 195.169 672.006 163.885 670.285C127.454 668.273 91.7791 659.131 57.5177 646.923C52.5291 645.149 47.5757 643.304 42.6398 641.398C42.833 642.136 43.0263 642.865 43.2195 643.603C62.8664 620.469 87.3702 602.017 114.632 588.746C142.332 575.273 172.457 567.14 202.924 562.995C234.885 558.639 267.548 558.428 299.596 561.88C330.845 565.252 362.05 572.331 390.98 584.82C417.592 596.308 442.482 612.609 461.294 634.89C463.595 637.622 465.8 640.432 467.899 643.331C468.883 644.692 471.175 643.375 470.174 642.004C452.933 618.3 429.158 600.313 402.986 587.464C374.714 573.587 343.869 565.314 312.77 560.896C280.335 556.285 247.224 555.626 214.632 558.964C183.462 562.161 152.582 569.266 123.748 581.685C95.8104 593.726 70.0858 610.931 49.1302 633.063C46.4603 635.883 43.8781 638.781 41.3663 641.741C40.69 642.54 40.9887 643.576 41.946 643.945C77.2086 657.506 113.868 668.291 151.589 671.98C183.023 675.054 214.649 672.656 245.354 665.314C261.092 661.555 276.523 656.61 291.674 650.945C299.684 647.95 307.623 644.744 315.501 641.407C323.906 637.841 332.144 633.793 340.681 630.561C354.769 625.221 369.761 622.217 384.867 623.174C396.293 623.903 407.36 626.968 417.934 631.263C426.55 634.767 434.779 639.168 443.421 642.602C450.158 645.28 457.57 647.362 464.816 645.614C466.52 645.201 468.154 644.569 469.726 643.805C471.219 643.067 469.884 640.801 468.364 641.539Z" fill="#6C43BF"/>
<path d="M268.241 469.511C267.565 470.398 266.879 471.286 266.203 472.181C266.01 472.436 265.992 472.91 266.071 473.2C266.159 473.507 266.388 473.841 266.678 473.991C266.985 474.149 267.354 474.236 267.696 474.122C267.802 474.078 267.907 474.035 268.013 473.991C268.215 473.876 268.364 473.718 268.487 473.516C269.163 472.629 269.848 471.742 270.524 470.846C270.718 470.592 270.735 470.117 270.656 469.828C270.568 469.52 270.34 469.186 270.05 469.037C269.743 468.879 269.374 468.791 269.031 468.905C268.926 468.949 268.82 468.993 268.715 469.037C268.513 469.16 268.355 469.318 268.241 469.511Z" fill="#1D0932"/>
<path d="M263.44 482.386C263.782 482.386 264.116 482.386 264.458 482.386C264.643 482.395 264.81 482.351 264.968 482.272C265.135 482.219 265.275 482.131 265.389 482C265.521 481.877 265.609 481.736 265.662 481.578C265.741 481.42 265.785 481.253 265.776 481.069C265.758 480.955 265.741 480.831 265.732 480.717C265.67 480.498 265.556 480.305 265.389 480.138C265.302 480.067 265.214 479.997 265.126 479.936C264.924 479.813 264.696 479.76 264.458 479.76C264.116 479.76 263.782 479.76 263.44 479.76C263.255 479.751 263.088 479.795 262.93 479.874C262.763 479.927 262.623 480.015 262.509 480.146C262.377 480.269 262.289 480.41 262.236 480.568C262.157 480.726 262.113 480.893 262.122 481.077C262.14 481.191 262.157 481.315 262.166 481.429C262.228 481.648 262.342 481.841 262.509 482.008C262.597 482.079 262.684 482.149 262.772 482.21C262.983 482.324 263.202 482.386 263.44 482.386Z" fill="#1D0932"/>
<path d="M267.514 525.079C267.856 525.079 268.19 525.079 268.533 525.079C268.717 525.088 268.884 525.044 269.042 524.965C269.209 524.913 269.349 524.825 269.464 524.693C269.595 524.57 269.683 524.429 269.736 524.271C269.815 524.113 269.859 523.946 269.85 523.762C269.832 523.648 269.815 523.525 269.806 523.411C269.745 523.191 269.63 522.998 269.464 522.831C269.376 522.761 269.288 522.69 269.2 522.629C268.998 522.506 268.77 522.453 268.533 522.453C268.19 522.453 267.856 522.453 267.514 522.453C267.329 522.444 267.163 522.488 267.004 522.568C266.838 522.62 266.697 522.708 266.583 522.84C266.451 522.963 266.363 523.103 266.311 523.261C266.232 523.419 266.188 523.586 266.196 523.771C266.214 523.885 266.232 524.008 266.24 524.122C266.302 524.341 266.416 524.535 266.583 524.702C266.671 524.772 266.759 524.842 266.846 524.904C267.048 525.018 267.277 525.079 267.514 525.079Z" fill="#1D0932"/>
<path d="M267.509 525.079C269.204 525.079 269.204 522.444 267.509 522.444C265.814 522.444 265.805 525.079 267.509 525.079Z" fill="#1D0932"/>
<path d="M273.619 517.08C275.314 517.08 275.314 514.445 273.619 514.445C271.924 514.445 271.924 517.08 273.619 517.08Z" fill="#1D0932"/>
<path d="M264.157 421.041C264.157 421.489 264.157 421.928 264.157 422.376C264.149 422.561 264.192 422.728 264.272 422.886C264.324 423.053 264.412 423.193 264.544 423.307C264.667 423.439 264.807 423.527 264.965 423.579C265.123 423.658 265.29 423.702 265.475 423.694C265.589 423.676 265.712 423.658 265.826 423.65C266.046 423.588 266.239 423.474 266.406 423.307C266.643 423.052 266.792 422.736 266.792 422.376C266.792 421.928 266.792 421.489 266.792 421.041C266.801 420.857 266.757 420.69 266.678 420.532C266.625 420.365 266.537 420.224 266.406 420.11C266.283 419.978 266.142 419.891 265.984 419.838C265.826 419.759 265.659 419.715 265.475 419.724C265.361 419.741 265.238 419.759 265.123 419.768C264.904 419.829 264.711 419.943 264.544 420.11C264.307 420.365 264.157 420.681 264.157 421.041Z" fill="#1D0932"/>
<path d="M264.756 439.711C264.756 438.376 264.756 437.041 264.756 435.706C264.756 435.021 264.15 434.354 263.439 434.389C262.727 434.424 262.121 434.969 262.121 435.706C262.121 437.041 262.121 438.376 262.121 439.711C262.121 440.396 262.727 441.064 263.439 441.029C264.15 441.002 264.756 440.449 264.756 439.711Z" fill="#1D0932"/>
<path d="M289.614 325.237C292.073 330.867 299.117 333.906 304.913 331.947C306.512 331.411 305.827 328.864 304.211 329.409C299.415 331.025 293.9 328.522 291.88 323.911C291.599 323.261 290.641 323.111 290.079 323.436C289.412 323.823 289.324 324.578 289.614 325.237Z" fill="#1D0932"/>
<path d="M366.44 404.132C365.123 408.005 364.596 412.098 364.886 416.182C364.939 416.919 365.448 417.464 366.203 417.499C368.311 417.604 370.41 417.719 372.518 417.824C372.079 417.385 371.64 416.946 371.201 416.507C371.306 418.228 371.411 419.941 371.517 421.662C371.561 422.444 372.334 423.252 373.186 422.935C378.025 421.135 382.864 419.335 387.703 417.543C389.275 416.955 388.599 414.407 387.001 415.005C382.162 416.805 377.322 418.606 372.483 420.397C373.036 420.819 373.598 421.24 374.152 421.671C374.046 419.949 373.941 418.237 373.836 416.515C373.792 415.778 373.265 415.233 372.518 415.198C370.41 415.093 368.311 414.978 366.203 414.873C366.642 415.312 367.082 415.751 367.521 416.19C367.248 412.317 367.732 408.514 368.979 404.843C369.523 403.218 366.976 402.533 366.44 404.132Z" fill="#1D0932"/>
<path d="M113.918 238.94C113.918 239.827 113.918 240.723 113.918 241.61C113.918 241.943 114.067 242.304 114.304 242.541C114.533 242.769 114.91 242.945 115.235 242.927C115.947 242.892 116.553 242.347 116.553 241.61C116.553 240.723 116.553 239.827 116.553 238.94C116.553 238.606 116.404 238.246 116.166 238.009C115.938 237.781 115.56 237.605 115.235 237.622C114.515 237.649 113.918 238.202 113.918 238.94Z" fill="#1D0932"/>
<path d="M238.325 296.424C192.488 310.986 153.905 343.254 123.947 380.87C93.9895 418.486 71.7605 461.557 49.7422 504.311C67.4745 490.619 86.3046 478.349 106.004 467.652C110.808 465.043 115.937 462.461 121.409 462.558C126.881 462.655 132.686 466.387 133.16 471.833C140.67 464.323 148.179 456.814 155.688 449.314C164.48 457.719 179.48 448.365 184.056 437.097C188.632 425.829 188.456 412.558 195.605 402.721C196.598 407.385 203.124 408.869 207.287 406.551C211.458 404.241 213.742 399.665 215.779 395.353C218.985 388.581 222.191 381.81 225.396 375.038C226.925 371.815 228.47 368.478 228.593 364.921C228.883 356.586 221.374 349.507 221.593 341.172C221.848 331.265 232.186 325.31 240.468 319.865C248.741 314.42 256.768 303.626 251.033 295.537" fill="#FFFFA5"/>
<path d="M237.976 295.148C221.113 300.523 205.076 308.304 190.198 317.86C175.232 327.468 161.399 338.815 148.735 351.287C135.578 364.224 123.713 378.399 112.84 393.303C101.01 409.525 90.3824 426.59 80.4316 444.015C70.4896 461.431 61.2062 479.216 52.0195 497.045C50.8865 499.249 49.7448 501.454 48.6118 503.658C48.0761 504.703 49.2794 506.337 50.4123 505.459C61.1185 497.194 72.2198 489.448 83.6725 482.246C89.3373 478.689 95.0988 475.264 100.931 471.97C103.864 470.319 106.797 468.65 109.801 467.148C112.594 465.752 115.554 464.514 118.663 464.048C123.897 463.275 131.187 465.726 131.837 471.838C131.951 472.928 133.216 473.639 134.085 472.769C141.595 465.26 149.104 457.751 156.613 450.251C155.989 450.251 155.375 450.251 154.751 450.251C161.733 456.776 171.658 453.307 177.999 447.686C181.512 444.568 184.129 440.695 185.772 436.303C187.695 431.157 188.723 425.747 189.97 420.407C191.375 414.417 193.114 408.445 196.741 403.386C195.942 403.28 195.134 403.175 194.335 403.07C195.301 407.145 199.595 409.156 203.513 408.928C208.369 408.638 211.891 405.063 214.28 401.102C215.642 398.854 216.713 396.439 217.837 394.068C219.19 391.204 220.551 388.341 221.904 385.478C223.318 382.483 224.74 379.488 226.154 376.493C227.393 373.867 228.719 371.224 229.413 368.387C230.678 363.196 229.053 358.427 226.883 353.737C224.925 349.495 222.51 345.104 222.958 340.273C223.362 335.856 226.216 332.228 229.395 329.365C232.856 326.247 236.852 323.797 240.734 321.25C248.585 316.103 258.888 304.642 252.16 294.867C251.203 293.479 248.919 294.797 249.885 296.193C255.401 304.203 246.803 313.855 240.453 318.264C233.593 323.024 224.978 327.301 221.526 335.417C219.769 339.544 220.033 343.944 221.544 348.099C223.107 352.411 225.654 356.354 226.796 360.825C227.41 363.231 227.41 365.647 226.769 368.053C226.04 370.811 224.723 373.367 223.511 375.931C220.92 381.403 218.338 386.866 215.747 392.337C213.542 396.992 211.399 402.797 206.622 405.406C203.416 407.162 197.839 406.442 196.873 402.358C196.592 401.164 195.081 401.181 194.466 402.042C188.362 410.553 187.475 421.276 184.691 431.069C183.418 435.548 181.74 439.738 178.64 443.277C175.9 446.404 172.395 449.082 168.417 450.409C164.289 451.779 159.889 451.427 156.613 448.371C156.095 447.888 155.269 447.853 154.751 448.371C147.242 455.88 139.733 463.389 132.223 470.89C132.97 471.197 133.725 471.514 134.472 471.821C133.892 466.367 129.185 462.511 123.994 461.51C117.389 460.237 110.969 463.442 105.339 466.499C92.7274 473.34 80.4756 480.832 68.6365 488.93C61.9792 493.479 55.4624 498.222 49.0861 503.149C49.6833 503.746 50.2893 504.352 50.8866 504.949C60.0382 487.182 69.1985 469.414 78.9474 451.963C88.6435 434.617 98.9368 417.579 110.337 401.287C120.99 386.066 132.636 371.54 145.564 358.19C157.878 345.481 171.306 333.827 185.921 323.823C200.421 313.899 216.072 305.599 232.627 299.697C234.63 298.986 236.65 298.301 238.679 297.66C240.286 297.177 239.601 294.629 237.976 295.148Z" fill="#1D0932"/>
<path d="M205.678 357.154C209.788 360.043 212.15 365.111 211.738 370.117C211.334 375.035 208.137 379.453 203.789 381.675C202.279 382.448 203.614 384.723 205.116 383.95C210.324 381.288 213.889 375.94 214.364 370.117C214.847 364.153 211.843 358.286 206.995 354.879C205.616 353.904 204.299 356.187 205.678 357.154Z" fill="#1D0932"/>
<path d="M221.413 323.385C221.413 322.937 221.413 322.498 221.413 322.05C221.422 321.866 221.378 321.699 221.299 321.54C221.246 321.374 221.159 321.233 221.027 321.119C220.904 320.987 220.763 320.899 220.605 320.847C220.447 320.768 220.28 320.724 220.096 320.733C219.982 320.75 219.859 320.768 219.745 320.777C219.525 320.838 219.332 320.952 219.165 321.119C218.928 321.374 218.778 321.69 218.778 322.05C218.778 322.498 218.778 322.937 218.778 323.385C218.77 323.569 218.814 323.736 218.893 323.894C218.945 324.061 219.033 324.202 219.165 324.316C219.288 324.447 219.428 324.535 219.587 324.588C219.745 324.667 219.911 324.711 220.096 324.702C220.21 324.685 220.333 324.667 220.447 324.658C220.667 324.597 220.86 324.483 221.027 324.316C221.264 324.052 221.413 323.736 221.413 323.385Z" fill="#1D0932"/>
<path d="M82.3206 471.099C86.3606 466.646 91.1735 463.01 96.5573 460.332C98.0767 459.576 96.7419 457.302 95.2312 458.057C89.663 460.823 84.6304 464.635 80.4586 469.237C79.3169 470.493 81.1788 472.355 82.3206 471.099Z" fill="#1D0932"/>
<path d="M248.973 297.607C249.324 288.157 253.838 279.339 259.213 271.557C275.066 248.582 298.823 231.982 324.241 220.45C349.658 208.928 376.91 202.086 403.979 195.306C389.197 210.473 372.862 224.113 355.305 235.952C361.023 235.689 366.74 235.416 372.458 235.153C369.287 248.775 353.215 257.795 339.935 253.412C344.854 255.414 347.225 262.028 344.713 266.7C344.168 267.719 343.369 268.676 342.289 269.072C340.559 269.704 338.697 268.782 336.914 268.316C327.025 265.717 318.804 277.126 308.651 278.381C304.681 278.873 300.299 277.837 296.891 279.936C295.17 280.999 293.975 282.738 292.412 284.029C289.847 286.154 286.466 286.944 283.225 287.682C271.983 290.229 260.741 292.785 249.5 295.332" fill="#FFFFA5"/>
<path d="M250.289 297.607C250.825 285.118 258.448 273.894 266.133 264.549C273.581 255.485 282.32 247.511 291.805 240.616C312.339 225.712 335.973 215.954 360.091 208.506C374.688 204.001 389.513 200.286 404.329 196.571C403.899 195.833 403.477 195.104 403.047 194.366C391.594 206.109 379.228 216.955 366.054 226.731C362.313 229.506 358.501 232.202 354.645 234.811C353.635 235.496 353.916 237.331 355.313 237.27C361.03 237.006 366.748 236.734 372.466 236.471C372.044 235.917 371.622 235.355 371.192 234.802C368.777 244.884 359.098 252.35 348.893 253.14C345.968 253.369 343.079 253.044 340.294 252.139C338.898 251.691 337.897 253.957 339.276 254.545C342.06 255.731 343.93 258.357 344.343 261.343C344.545 262.784 344.378 264.329 343.764 265.656C343.456 266.332 343.026 267.043 342.429 267.509C341.533 268.194 340.435 267.974 339.425 267.702C337.739 267.236 336.158 266.701 334.401 266.63C332.829 266.569 331.231 266.815 329.729 267.254C326.673 268.141 323.88 269.766 321.166 271.391C318.338 273.086 315.51 274.921 312.401 276.081C310.846 276.66 309.239 277.064 307.588 277.17C305.673 277.293 303.758 277.161 301.844 277.275C299.947 277.389 298.032 277.741 296.372 278.715C294.659 279.717 293.456 281.297 292.016 282.624C288.995 285.408 284.595 286.023 280.739 286.901C270.208 289.29 259.678 291.679 249.148 294.068C247.496 294.445 248.19 296.984 249.85 296.606C259.739 294.366 269.629 292.118 279.527 289.878C283.672 288.938 288.292 288.333 291.946 286.005C293.676 284.898 294.932 283.326 296.434 281.965C298.014 280.525 299.947 280.015 302.046 279.91C304.136 279.796 306.235 279.962 308.317 279.752C310.012 279.576 311.663 279.181 313.261 278.575C316.59 277.31 319.602 275.413 322.65 273.595C325.469 271.909 328.394 270.17 331.652 269.502C333.18 269.186 334.779 269.169 336.298 269.529C338.274 269.994 340.233 270.995 342.314 270.46C346.293 269.432 347.452 264.241 346.917 260.728C346.363 257.127 344.018 253.729 340.628 252.28C340.286 253.079 339.952 253.887 339.609 254.686C350.605 258.234 363.086 253.281 369.76 244.12C371.64 241.547 373.001 238.605 373.748 235.504C373.941 234.705 373.361 233.792 372.474 233.836C366.757 234.099 361.039 234.372 355.322 234.635C355.541 235.452 355.761 236.269 355.989 237.094C369.717 227.828 382.715 217.482 394.8 206.17C398.252 202.938 401.624 199.627 404.927 196.246C405.857 195.297 404.918 193.725 403.644 194.041C390.163 197.414 376.672 200.795 363.349 204.774C350.078 208.735 336.975 213.302 324.336 218.975C313.332 223.92 302.704 229.761 292.806 236.681C282.961 243.567 273.827 251.515 265.984 260.64C262.023 265.251 258.325 270.152 255.172 275.352C251.896 280.762 249.191 286.681 248.137 292.952C247.883 294.489 247.716 296.044 247.646 297.607C247.584 299.302 250.219 299.302 250.289 297.607Z" fill="#1D0932"/>
</g>
<defs>
<clipPath id="clip0">
<rect width="470" height="622" fill="white"/>
</clipPath>
</defs>
</svg>
