<svg width="470" height="622" viewBox="0 0 470 622" fill="none" xmlns="http://www.w3.org/2000/svg">
<g clip-path="url(#clip0)">
<path d="M29.3801 409.418C34.0792 416.093 43.2655 417.689 49.9291 413.001L55.4096 409.15C55.6551 409.585 55.9119 410.009 56.1909 410.422L68.1341 427.4C71.3822 424.866 74.7642 422.488 78.269 420.289C83.1245 417.22 88.192 414.496 93.4492 412.108L80.3229 393.456C80.0215 393.055 79.7201 392.664 79.3964 392.273L84.8546 388.433C91.5182 383.757 93.1255 374.548 88.4376 367.884C86.0936 364.558 82.6111 362.482 78.8942 361.846C75.1773 361.21 71.2036 361.98 67.8885 364.313L32.9631 388.891C26.2883 393.568 24.7033 402.765 29.3801 409.418Z" fill="#43005C"/>
<path d="M30.8313 408.579C34.2468 413.3 40.4416 415.175 45.9221 413.233C49.0698 412.117 51.8714 409.606 54.5726 407.708C55.3092 407.195 56.4366 407.574 56.8607 408.311C58.7582 411.592 61.1916 414.628 63.3793 417.731C65.4442 420.678 67.5203 423.614 69.5853 426.56C68.7035 426.449 67.8329 426.337 66.9511 426.226C74.876 420.053 83.4706 414.841 92.601 410.666C92.4001 411.425 92.1992 412.195 91.9983 412.954C89.7548 409.773 87.5224 406.581 85.2789 403.4C82.9572 400.096 80.7694 396.602 78.2134 393.466C77.499 392.584 77.6106 391.501 78.5482 390.831C80.9369 389.146 83.6716 387.606 85.7254 385.507C89.2637 381.902 90.3575 376.444 88.5939 371.733C86.5178 366.175 80.6802 362.715 74.8202 363.395C71.9293 363.73 69.6076 365.159 67.3083 366.778C56.9501 374.066 46.5918 381.355 36.2225 388.644C34.4812 389.871 32.6954 391.01 31.3113 392.673C27.5162 397.227 27.5385 403.757 30.8313 408.579C32.0479 410.365 29.1459 412.039 27.9404 410.264C24.6811 405.487 24.1565 399.348 26.534 394.079C27.9404 390.976 30.2844 388.733 33.019 386.813C38.3097 383.085 43.6116 379.368 48.9023 375.64C54.4386 371.745 59.9861 367.849 65.5223 363.942C68.1007 362.134 70.735 360.627 73.9273 360.147C80.4904 359.176 87.1317 362.29 90.5249 368.017C93.7507 373.464 93.5051 380.618 89.8106 385.786C87.3884 389.179 83.5934 391.345 80.2337 393.7C80.3453 392.818 80.457 391.948 80.5686 391.066C83.2474 394.358 85.5579 397.986 87.9912 401.457C90.2794 404.717 92.5787 407.976 94.8669 411.235C95.3469 411.927 95.0455 413.177 94.2641 413.523C85.4128 417.564 76.9744 422.565 69.2951 428.558C68.4021 429.262 67.3418 429.183 66.6609 428.224C64.5959 425.277 62.5198 422.341 60.4549 419.395C58.2783 416.292 55.8338 413.267 53.9363 409.974C54.6953 410.175 55.4655 410.376 56.2245 410.577C52.8313 412.965 49.4716 415.867 45.3529 416.872C38.6781 418.49 31.8917 415.745 27.918 410.253C26.6679 408.512 29.57 406.837 30.8313 408.579Z" fill="#1D0932"/>
<path d="M176.494 361.73L673.353 461.461C687.864 464.374 701.995 454.965 704.908 440.455L709.518 417.472C712.431 402.962 703.022 388.831 688.511 385.918L191.652 286.186C177.142 283.273 163.011 292.683 160.097 307.193L155.488 330.175C152.574 344.686 161.973 358.817 176.494 361.73Z" fill="#6C43BF"/>
<path d="M176.931 360.114C182.433 361.219 187.925 362.324 193.428 363.429C208.195 366.398 222.962 369.356 237.729 372.325C259.249 376.645 280.781 380.964 302.301 385.284C327.839 390.407 353.377 395.542 378.927 400.665C405.95 406.09 432.984 411.514 460.007 416.939C485.924 422.141 511.842 427.342 537.771 432.543C560.062 437.019 582.352 441.495 604.631 445.96C620.537 449.152 636.453 452.345 652.359 455.537C659.38 456.943 666.389 458.383 673.421 459.767C687.273 462.479 700.411 453.617 703.324 439.866C704.418 434.686 705.411 429.485 706.449 424.295C707.688 418.111 709.218 412.128 707.554 405.822C704.92 395.832 696.761 389.28 686.894 387.293C684.048 386.724 681.212 386.155 678.366 385.585C665.586 383.018 652.805 380.451 640.025 377.895C619.945 373.865 599.865 369.836 579.785 365.807C554.994 360.828 530.215 355.85 505.424 350.883C478.524 345.481 451.613 340.078 424.713 334.687C398.282 329.385 371.861 324.072 345.43 318.77C322.068 314.083 298.707 309.395 275.345 304.707C257.642 301.157 239.939 297.596 222.237 294.047C212.771 292.149 203.295 290.241 193.83 288.343C188.595 287.294 183.449 286.926 178.225 288.7C169.564 291.636 163.525 299.07 161.65 307.91C160.511 313.301 159.485 318.715 158.402 324.117C157.23 329.932 155.868 335.536 157.353 341.485C159.741 351.006 167.409 358.06 176.931 360.114C179.04 360.572 178.147 363.797 176.038 363.34C166.93 361.375 159.25 355.203 155.567 346.608C152.765 340.067 153.1 333.515 154.462 326.718C155.667 320.713 156.873 314.708 158.078 308.703C159.54 301.447 162.655 294.973 168.548 290.263C175.703 284.537 184.576 283.064 193.394 284.827C196.363 285.419 199.332 286.022 202.302 286.613C215.54 289.27 228.766 291.926 242.004 294.583C262.687 298.735 283.37 302.887 304.053 307.039C329.368 312.118 354.683 317.208 380.01 322.286C407.501 327.8 434.993 333.326 462.485 338.84C489.083 344.175 515.682 349.521 542.281 354.857C565.531 359.522 588.781 364.188 612.031 368.854C629.12 372.281 646.209 375.718 663.298 379.145C671.49 380.786 679.694 382.427 687.887 384.079C697.721 386.065 705.969 392.305 709.72 401.759C712.287 408.244 711.774 414.651 710.434 421.292C709.229 427.32 708.012 433.347 706.807 439.374C705.356 446.619 702.007 453.037 696.091 457.624C689.472 462.759 681.078 464.6 672.875 463.049C671.256 462.747 669.638 462.401 668.019 462.078C657.002 459.868 645.986 457.658 634.969 455.448C615.849 451.608 596.717 447.768 577.597 443.928C553.175 439.028 528.753 434.128 504.33 429.217C477.073 423.748 449.816 418.279 422.559 412.798C395.536 407.373 368.513 401.949 341.49 396.524C317.157 391.635 292.824 386.757 268.48 381.869C249.65 378.085 230.809 374.312 211.979 370.528C201.386 368.396 190.794 366.275 180.201 364.143C178.806 363.864 177.422 363.585 176.026 363.306C173.939 362.927 174.832 359.701 176.931 360.114Z" fill="#1D0932"/>
<path d="M260.493 453.081L307.841 217.198C310.755 202.687 324.886 193.278 339.396 196.191L362.378 200.801C376.889 203.714 386.298 217.845 383.385 232.356L336.036 468.239C333.123 482.75 318.992 492.159 304.482 489.246L281.499 484.636C266.989 481.723 257.58 467.592 260.493 453.081Z" fill="#43005C"/>
<path d="M258.879 452.635C259.56 449.253 260.241 445.882 260.911 442.5C262.697 433.593 264.483 424.685 266.28 415.778C268.802 403.188 271.336 390.597 273.859 377.995C276.761 363.563 279.652 349.12 282.554 334.687C285.456 320.255 288.347 305.812 291.249 291.379C293.771 278.789 296.305 266.198 298.828 253.596C300.614 244.689 302.399 235.782 304.196 226.875C304.877 223.493 305.536 220.111 306.228 216.74C308.326 206.594 315.928 198.245 325.839 195.209C330.405 193.802 335.226 193.668 339.903 194.573C342.013 194.986 344.122 195.421 346.232 195.845C351.757 196.95 357.293 198.033 362.819 199.171C372.708 201.225 380.89 208.469 384.127 218.035C385.834 223.069 385.901 228.337 384.863 233.516C384.517 235.269 384.16 237.01 383.814 238.762C382.263 246.509 380.7 254.255 379.148 262.001C376.76 273.878 374.382 285.754 371.994 297.63C369.147 311.794 366.312 325.948 363.466 340.112C360.53 354.712 357.606 369.323 354.67 383.922C352.025 397.127 349.369 410.331 346.723 423.536C344.725 433.492 342.727 443.46 340.729 453.416C339.747 458.294 338.776 463.172 337.794 468.038C336.689 473.552 334.2 478.642 330.282 482.705C323.484 489.77 313.505 492.684 303.94 490.808C298.225 489.692 292.521 488.52 286.817 487.371C284.898 486.991 282.989 486.611 281.069 486.221C276.113 485.194 271.503 482.872 267.731 479.49C260.208 472.793 256.982 462.48 258.879 452.635C259.292 450.525 262.518 451.418 262.105 453.528C260.196 463.451 264.516 473.876 273.021 479.401C278.39 482.883 284.886 483.609 291.025 484.848C294.408 485.529 297.79 486.21 301.172 486.879C303.348 487.315 305.536 487.862 307.757 488.029C317.78 488.788 327.458 483.419 332.101 474.49C334.378 470.103 335.014 464.846 335.985 460.035C337.626 451.876 339.256 443.728 340.897 435.568C343.285 423.647 345.685 411.738 348.074 399.817C350.898 385.742 353.722 371.678 356.546 357.603C359.425 343.26 362.305 328.928 365.185 314.585C367.774 301.682 370.364 288.79 372.954 275.887C374.907 266.165 376.86 256.432 378.814 246.71C379.762 241.977 380.711 237.244 381.66 232.512C382.72 227.221 382.307 221.74 380.064 216.796C376.458 208.86 369.393 203.904 360.977 202.207C354.816 200.968 348.654 199.729 342.504 198.501C340.26 198.055 338.017 197.508 335.729 197.374C330.739 197.073 325.761 198.245 321.442 200.767C315.113 204.473 310.871 210.701 309.42 217.845C309.152 219.162 308.896 220.479 308.628 221.785C307.233 228.739 305.837 235.693 304.442 242.636C302.199 253.82 299.955 265.015 297.7 276.199C294.954 289.884 292.209 303.568 289.463 317.253C286.561 331.729 283.647 346.195 280.745 360.672C278.055 374.078 275.365 387.483 272.675 400.888C270.543 411.526 268.412 422.152 266.268 432.789C265.041 438.906 263.813 445.022 262.585 451.128C262.429 451.92 262.261 452.724 262.105 453.517C261.692 455.637 258.466 454.744 258.879 452.635Z" fill="#1D0932"/>
<path d="M187.696 427.733L228.158 226.183C231.071 211.673 245.202 202.263 259.712 205.177L282.695 209.786C297.205 212.7 306.615 226.831 303.701 241.341L263.24 442.891C260.326 457.401 246.195 466.811 231.685 463.897L208.703 459.288C194.181 456.374 184.783 442.255 187.696 427.733Z" fill="#43005C"/>
<path d="M186.079 427.297C186.705 424.194 187.318 421.102 187.943 417.999C189.573 409.873 191.203 401.747 192.832 393.622C195.109 382.281 197.386 370.929 199.663 359.589C202.242 346.742 204.82 333.906 207.399 321.058C209.932 308.457 212.455 295.855 214.989 283.253C217.121 272.605 219.264 261.967 221.396 251.319C222.78 244.432 224.164 237.545 225.537 230.67C225.838 229.185 226.128 227.712 226.43 226.227C227.49 220.981 229.834 216.137 233.462 212.185C239.668 205.41 249.032 202.039 258.129 203.245C262.884 203.881 267.606 205.075 272.316 206.013C277.238 207.006 282.563 207.598 287.284 209.373C295.812 212.565 302.453 219.742 304.875 228.538C306.136 233.125 306.103 237.824 305.165 242.468C304.842 244.075 304.518 245.682 304.194 247.29C302.777 254.333 301.37 261.376 299.953 268.419C297.799 279.134 295.655 289.85 293.501 300.554C290.956 313.234 288.411 325.925 285.866 338.605C283.288 351.419 280.721 364.244 278.143 377.057C275.877 388.342 273.611 399.627 271.345 410.922C269.749 418.847 268.164 426.783 266.568 434.708C265.864 438.213 265.329 441.818 264.369 445.267C261.891 454.163 255.104 461.341 246.443 464.466C242.079 466.04 237.357 466.442 232.781 465.783C231.062 465.537 229.365 465.147 227.669 464.801C221.909 463.64 216.138 462.49 210.379 461.329C208.113 460.872 205.869 460.414 203.704 459.577C199.451 457.914 195.601 455.291 192.587 451.842C186.727 445.1 184.383 436.07 186.079 427.297C186.492 425.187 189.718 426.08 189.305 428.19C187.609 436.974 190.756 446.082 197.476 451.987C200.791 454.9 204.843 456.787 209.14 457.679C210.636 457.992 212.131 458.282 213.627 458.584C219.252 459.711 224.889 460.838 230.515 461.977C237.357 463.35 244.121 462.736 250.171 458.997C256.187 455.291 260.217 449.23 261.634 442.343C261.868 441.227 262.081 440.111 262.304 438.995C263.543 432.822 264.782 426.65 266.021 420.477C268.03 410.487 270.028 400.486 272.037 390.496C274.493 378.274 276.948 366.052 279.393 353.83C281.949 341.083 284.516 328.336 287.072 315.578C289.394 304.014 291.715 292.439 294.037 280.876C295.801 272.069 297.575 263.262 299.339 254.455C300.209 250.125 301.08 245.805 301.94 241.474C302.899 236.708 302.62 231.875 300.935 227.299C297.921 219.106 290.677 213.179 282.194 211.415C277.562 210.455 272.93 209.551 268.287 208.625C263.331 207.631 258.152 206.125 253.062 206.37C244.311 206.794 236.252 212.018 232.156 219.742C230.783 222.32 230.035 225.1 229.466 227.946C228.472 232.913 227.468 237.88 226.474 242.847C224.621 252.089 222.757 261.331 220.904 270.584C218.538 282.382 216.172 294.181 213.794 305.99C211.227 318.759 208.671 331.539 206.104 344.308C203.682 356.352 201.271 368.385 198.849 380.428C196.918 390.061 194.975 399.694 193.044 409.337C191.928 414.896 190.812 420.455 189.696 426.013C189.551 426.739 189.406 427.476 189.261 428.201C188.892 430.288 185.655 429.395 186.079 427.297Z" fill="#1D0932"/>
<path d="M481.418 361.579C456.092 356.489 430.755 351.41 405.428 346.32C398.318 344.892 391.208 343.463 384.109 342.045C382 341.621 382.893 338.395 385.002 338.82C410.328 343.909 435.666 348.988 460.992 354.078C468.102 355.507 475.212 356.935 482.311 358.353C484.41 358.777 483.517 362.003 481.418 361.579Z" fill="#1D0932"/>
<path d="M21.6711 512.246C21.6711 581.873 78.1277 638.33 147.755 638.33C217.383 638.33 273.84 581.873 273.84 512.246C273.84 442.629 217.383 386.161 147.755 386.161C124.606 386.161 102.918 392.401 84.2556 403.295C83.0836 403.987 81.9339 404.679 80.7954 405.393C75.9065 408.474 71.252 411.856 66.8543 415.55C63.6731 418.196 60.6482 421.008 57.7685 423.955C35.4224 446.692 21.6711 477.856 21.6711 512.246Z" fill="#6C43BF"/>
<path d="M23.3478 512.241C23.3813 536.786 30.6588 560.94 44.2986 581.355C57.4696 601.067 76.2885 616.783 97.9983 626.315C120.579 636.227 146.162 639.095 170.394 634.608C193.957 630.244 216.002 619.015 233.381 602.507C250.793 585.976 263.216 564.534 268.797 541.183C274.546 517.096 272.916 491.446 264.187 468.285C255.849 446.129 240.982 426.484 221.973 412.376C202.518 397.932 179.022 389.36 154.812 388.032C123.258 386.29 91.8258 396.704 67.6492 417.075C45.4036 435.815 30.2011 462.157 25.1895 490.799C23.9393 497.864 23.359 505.052 23.3478 512.241C23.3478 514.395 19.9992 514.395 19.9992 512.241C20.0551 482.595 30.4356 453.652 49.3438 430.804C69.9932 405.857 99.7954 389.505 131.908 385.475C158.172 382.183 185.217 387.239 208.501 399.83C229.932 411.427 247.88 429.219 259.656 450.549C271.889 472.694 277.258 498.355 275.025 523.559C272.815 548.383 263.294 572.158 247.824 591.68C232.633 610.845 211.927 625.422 188.767 633.28C164.657 641.473 138.092 642.176 113.558 635.378C89.9395 628.826 68.4083 615.343 52.1677 597.004C35.7821 578.509 24.8993 555.359 21.361 530.881C20.468 524.709 20.0104 518.491 19.9992 512.252C19.9992 510.086 23.3478 510.075 23.3478 512.241Z" fill="#1D0932"/>
<path d="M147.754 603.301C97.4638 603.301 56.6955 562.532 56.6955 512.242C56.6955 461.952 97.4638 421.184 147.754 421.184C198.044 421.184 238.812 461.952 238.812 512.242C238.812 562.532 198.044 603.301 147.754 603.301Z" fill="#FFFFA5"/>
<path d="M58.366 512.241C58.4107 530.781 64.1702 548.952 74.9191 564.076C85.2996 578.676 100.156 590.061 116.988 596.2C134.657 602.641 154.213 603.366 172.306 598.221C189.663 593.276 205.234 582.996 216.742 569.11C228.372 555.069 235.494 537.444 236.878 519.273C238.295 500.666 233.909 481.892 224.22 465.919C214.9 450.56 200.981 438.238 184.64 430.793C167.618 423.035 148.119 420.903 129.802 424.665C112.043 428.303 95.669 437.389 83.1454 450.482C70.5771 463.62 62.2504 480.463 59.4264 498.422C58.7009 502.987 58.3772 507.608 58.366 512.241C58.366 514.395 55.0175 514.395 55.0175 512.241C55.0621 493.087 61.0002 474.168 72.1286 458.563C83.0003 443.327 98.3367 431.574 115.917 425.111C134.155 418.414 154.503 417.711 173.188 423.035C191.181 428.158 207.455 438.84 219.331 453.295C231.431 468.017 238.764 486.211 240.215 505.22C241.677 524.374 237.067 543.829 227.1 560.259C217.445 576.176 202.968 589.09 185.991 596.747C168.288 604.728 148.319 606.96 129.277 603.143C110.86 599.448 93.7492 589.95 80.7679 576.388C67.742 562.77 58.9799 545.235 56.1225 526.595C55.397 521.84 55.0175 517.051 55.0063 512.252C55.0175 510.086 58.366 510.086 58.366 512.241Z" fill="#1D0932"/>
<path d="M132.557 499.415C126.418 494.303 120.279 489.179 114.129 484.056C113.269 483.342 112.399 482.616 111.539 481.902C109.887 480.518 112.265 478.162 113.905 479.535C120.044 484.659 126.183 489.771 132.334 494.894C133.193 495.608 134.064 496.334 134.923 497.048C136.586 498.432 134.209 500.788 132.557 499.415Z" fill="#1D0932"/>
<path d="M143.696 507.901C144.287 495.043 145.314 482.206 146.799 469.426C147.044 467.305 150.393 467.283 150.147 469.426C148.674 482.206 147.636 495.043 147.044 507.901C146.955 510.055 143.595 510.066 143.696 507.901Z" fill="#1D0932"/>
<path d="M76.2976 369.85C79.1438 371.279 81.3092 374.137 81.9008 377.262C81.9901 377.708 81.9678 378.144 81.7334 378.557C81.5325 378.903 81.1306 379.237 80.7288 379.327C79.9028 379.516 78.8425 379.081 78.6639 378.155C78.5969 377.831 78.5187 377.496 78.4294 377.184C78.3736 377.016 78.3178 376.849 78.262 376.681C78.2397 376.603 78.2062 376.536 78.1727 376.458C78.0946 376.268 78.3401 376.815 78.2062 376.547C77.916 375.934 77.5923 375.364 77.1905 374.817C77.0231 374.583 77.3802 375.052 77.2463 374.896C77.1905 374.84 77.1458 374.773 77.09 374.706C76.9896 374.583 76.878 374.46 76.7663 374.349C76.5319 374.103 76.2975 373.869 76.0408 373.657C75.985 373.601 75.918 373.556 75.8622 373.5C75.5943 373.277 76.1859 373.735 75.8957 373.523C75.7617 373.433 75.639 373.333 75.505 373.244C75.2148 373.054 74.9023 372.875 74.5898 372.719C73.8084 372.328 73.5182 371.156 73.987 370.431C74.5228 369.649 75.4604 369.426 76.2976 369.85Z" fill="#1D0932"/>
<path d="M40.3137 476.837C38.1595 476.837 38.1595 473.488 40.3137 473.488C42.468 473.488 42.4791 476.837 40.3137 476.837Z" fill="#1D0932"/>
<path d="M35.4078 491.577C33.2535 491.577 33.2535 488.229 35.4078 488.229C37.562 488.229 37.562 491.577 35.4078 491.577Z" fill="#1D0932"/>
<path d="M36.2564 503.018C36.2564 503.286 36.2564 503.565 36.2564 503.833C36.2676 504.068 36.2118 504.28 36.1113 504.481C36.0443 504.693 35.9327 504.871 35.7653 505.016C35.609 505.184 35.4304 505.296 35.2295 505.362C35.0286 505.463 34.8165 505.519 34.5821 505.508C34.437 505.485 34.2807 505.463 34.1356 505.452C33.8566 505.374 33.611 505.229 33.399 505.016C33.3097 504.905 33.2203 504.793 33.1422 504.682C32.9859 504.425 32.919 504.135 32.919 503.833C32.919 503.565 32.919 503.286 32.919 503.018C32.9079 502.784 32.9636 502.572 33.0641 502.371C33.131 502.159 33.2427 501.98 33.4101 501.835C33.5664 501.668 33.745 501.556 33.9459 501.489C34.1468 501.389 34.3589 501.333 34.5933 501.344C34.7384 501.367 34.8946 501.389 35.0397 501.4C35.3188 501.478 35.5644 501.623 35.7765 501.835C35.8657 501.947 35.955 502.059 36.0332 502.17C36.1894 502.427 36.2564 502.706 36.2564 503.018Z" fill="#1D0932"/>
<path d="M191.876 303.971C189.722 303.971 189.722 300.622 191.876 300.622C194.041 300.622 194.041 303.971 191.876 303.971Z" fill="#1D0932"/>
<path d="M373.751 340.024C371.597 340.024 371.597 336.676 373.751 336.676C375.905 336.676 375.917 340.024 373.751 340.024Z" fill="#1D0932"/>
<path d="M334.029 223.28C331.875 223.28 331.875 219.932 334.029 219.932C336.183 219.932 336.183 223.28 334.029 223.28Z" fill="#1D0932"/>
<path d="M324.969 230.213C324.935 229.923 324.913 229.621 324.879 229.331C325.995 229.331 327.112 229.331 328.228 229.331C328.217 229.454 328.217 229.577 328.239 229.711C328.217 229.565 328.194 229.409 328.183 229.264C328.206 229.409 328.25 229.554 328.295 229.688C328.239 229.554 328.183 229.42 328.127 229.286C328.217 229.498 328.339 229.688 328.473 229.878C328.384 229.766 328.295 229.655 328.217 229.543C328.708 230.157 329.366 230.581 329.913 231.128C330.683 231.909 331.364 232.992 331.331 234.131C331.309 234.823 331.074 235.515 330.605 236.028C330.181 236.486 329.612 236.687 329.02 236.743C328.217 236.809 327.346 236.408 326.799 235.85C326.386 235.425 326.107 234.845 326.107 234.242C326.107 233.483 326.554 232.802 327.212 232.434C327.982 232.01 329.076 232.222 329.5 233.037C329.913 233.829 329.712 234.867 328.898 235.325C328.853 235.347 328.819 235.37 328.786 235.403C328.898 235.314 329.009 235.225 329.121 235.146C329.087 235.169 329.065 235.202 329.043 235.225C329.132 235.113 329.221 235.001 329.299 234.89C329.277 234.923 329.266 234.946 329.244 234.979C329.299 234.845 329.355 234.711 329.411 234.577C329.4 234.599 329.4 234.622 329.389 234.644C329.411 234.499 329.433 234.343 329.444 234.198C329.444 234.231 329.444 234.265 329.444 234.298C329.422 234.153 329.4 233.997 329.389 233.852C329.4 233.896 329.411 233.941 329.422 233.986C329.366 233.852 329.311 233.718 329.255 233.584C329.277 233.64 329.311 233.695 329.355 233.751C329.266 233.64 329.177 233.528 329.098 233.416C329.165 233.494 329.232 233.561 329.311 233.628C329.199 233.539 329.087 233.45 328.976 233.372C329.076 233.45 329.177 233.506 329.299 233.55C329.165 233.494 329.032 233.439 328.898 233.383C328.998 233.427 329.098 233.45 329.21 233.472C329.065 233.45 328.909 233.427 328.764 233.416C328.853 233.427 328.942 233.427 329.032 233.416C328.886 233.439 328.73 233.461 328.585 233.472C328.641 233.461 328.697 233.45 328.752 233.427C328.619 233.483 328.485 233.539 328.351 233.595C328.406 233.573 328.451 233.55 328.496 233.506C328.384 233.595 328.272 233.684 328.161 233.762C328.206 233.718 328.25 233.684 328.284 233.628C328.194 233.74 328.105 233.852 328.027 233.963C328.072 233.896 328.116 233.818 328.15 233.74C328.094 233.874 328.038 234.008 327.982 234.142C328.016 234.041 328.038 233.952 328.06 233.84C328.038 233.986 328.016 234.142 328.005 234.287C328.016 234.164 328.016 234.041 328.005 233.907C328.027 234.053 328.049 234.209 328.06 234.354C328.027 234.175 327.982 233.997 327.904 233.829C327.96 233.963 328.016 234.097 328.072 234.231C327.971 233.997 327.837 233.785 327.681 233.584C327.77 233.695 327.859 233.807 327.938 233.919C327.435 233.282 326.754 232.847 326.185 232.267C325.426 231.485 324.823 230.458 324.913 229.331C324.946 228.885 325.08 228.472 325.404 228.148C325.694 227.858 326.174 227.634 326.587 227.657C327.022 227.679 327.469 227.813 327.77 228.148C328.083 228.494 328.217 228.862 328.261 229.331C328.295 229.621 328.317 229.923 328.351 230.213C328.395 230.615 328.139 231.117 327.859 231.396C327.569 231.686 327.089 231.909 326.676 231.887C326.241 231.865 325.795 231.731 325.493 231.396C325.147 231.05 325.013 230.67 324.969 230.213Z" fill="#1D0932"/>
<path d="M324.185 222.052C322.031 222.052 322.031 218.703 324.185 218.703C326.339 218.703 326.339 222.052 324.185 222.052Z" fill="#1D0932"/>
<path d="M244.974 231.461C244.472 236.373 243.981 241.273 243.479 246.184C243.39 247.088 242.776 247.858 241.805 247.858C240.967 247.858 240.041 247.088 240.13 246.184C240.633 241.273 241.124 236.373 241.626 231.461C241.715 230.557 242.329 229.787 243.3 229.787C244.137 229.787 245.064 230.557 244.974 231.461Z" fill="#1D0932"/>
<path d="M252.125 233.895C252.125 234.152 252.125 234.397 252.125 234.654C252.125 236.808 248.776 236.808 248.776 234.654C248.776 234.397 248.776 234.152 248.776 233.895C248.776 231.741 252.125 231.741 252.125 233.895C252.125 234.152 252.125 234.397 252.125 234.654C252.125 236.808 248.776 236.808 248.776 234.654C248.776 234.397 248.776 234.152 248.776 233.895C248.776 231.741 252.125 231.741 252.125 233.895Z" fill="#1D0932"/>
<path d="M260.292 533.02C261.096 534.516 260.973 536.324 260.08 537.764C259.21 539.159 257.68 540.186 255.995 540.13C254.901 540.097 254.109 539.092 254.377 538.01C254.667 536.849 255.002 535.654 255.649 534.639C256.352 533.522 257.39 532.652 258.685 532.317C260.024 531.982 261.565 532.228 262.547 533.266C263.473 534.248 263.619 535.654 263.105 536.871C262.525 538.244 261.074 539.226 259.556 538.746C258.719 538.478 258.105 537.574 258.384 536.681C258.652 535.844 259.544 535.23 260.449 535.509C260.527 535.532 260.594 535.554 260.672 535.565C260.527 535.543 260.37 535.52 260.225 535.509C260.315 535.52 260.404 535.52 260.493 535.509C260.348 535.532 260.192 535.554 260.047 535.565C260.147 535.554 260.248 535.52 260.337 535.476C260.203 535.532 260.069 535.587 259.935 535.643C260.036 535.599 260.114 535.543 260.203 535.476C260.091 535.565 259.98 535.654 259.868 535.732C259.969 535.654 260.058 535.565 260.136 535.465C260.047 535.576 259.957 535.688 259.879 535.799C259.98 535.665 260.069 535.52 260.136 535.353C260.08 535.487 260.024 535.621 259.969 535.755C260.036 535.587 260.08 535.431 260.114 535.252C260.091 535.398 260.069 535.554 260.058 535.699C260.08 535.532 260.08 535.353 260.058 535.186C260.08 535.331 260.103 535.487 260.114 535.632C260.091 535.498 260.058 535.375 260.013 535.252C260.069 535.386 260.125 535.52 260.181 535.654C260.136 535.554 260.08 535.453 260.002 535.364C260.091 535.476 260.181 535.587 260.259 535.699C260.17 535.599 260.08 535.509 259.969 535.42C260.08 535.509 260.192 535.599 260.303 535.677C260.17 535.576 260.036 535.498 259.89 535.431C260.024 535.487 260.158 535.543 260.292 535.599C260.125 535.532 259.946 535.487 259.757 535.453C259.902 535.476 260.058 535.498 260.203 535.509C259.969 535.476 259.734 535.476 259.5 535.509C259.645 535.487 259.801 535.465 259.946 535.453C259.656 535.498 259.377 535.576 259.098 535.688C259.232 535.632 259.366 535.576 259.5 535.52C259.254 535.632 259.02 535.766 258.808 535.933C258.919 535.844 259.031 535.755 259.143 535.677C258.908 535.855 258.718 536.067 258.529 536.302C258.618 536.19 258.707 536.078 258.785 535.967C258.495 536.358 258.261 536.782 258.071 537.217C258.127 537.083 258.183 536.949 258.239 536.815C257.96 537.485 257.781 538.188 257.602 538.88C257.067 538.177 256.531 537.463 255.984 536.759C256.14 536.759 256.285 536.759 256.441 536.737C256.296 536.759 256.14 536.782 255.995 536.793C256.229 536.759 256.453 536.692 256.676 536.603C256.542 536.659 256.408 536.715 256.274 536.77C256.508 536.67 256.732 536.536 256.933 536.38C256.821 536.469 256.709 536.558 256.598 536.637C256.843 536.447 257.055 536.235 257.234 535.989C257.145 536.101 257.055 536.212 256.977 536.324C257.167 536.078 257.312 535.811 257.435 535.532C257.379 535.665 257.323 535.799 257.267 535.933C257.379 535.654 257.468 535.364 257.513 535.063C257.491 535.208 257.468 535.364 257.457 535.509C257.491 535.253 257.491 534.996 257.457 534.739C257.48 534.884 257.502 535.04 257.513 535.186C257.48 534.951 257.424 534.728 257.334 534.505C257.39 534.639 257.446 534.773 257.502 534.906C257.468 534.828 257.424 534.75 257.39 534.672C256.977 533.902 257.167 532.819 257.993 532.384C258.785 532.004 259.857 532.194 260.292 533.02Z" fill="#1D0932"/>
<path d="M252.915 551.38C250.761 551.38 250.761 548.031 252.915 548.031C255.08 548.031 255.08 551.38 252.915 551.38Z" fill="#1D0932"/>
<path d="M254.142 529.262C251.988 529.262 251.988 525.913 254.142 525.913C256.296 525.913 256.296 529.262 254.142 529.262Z" fill="#1D0932"/>
<path d="M145.994 522.749C139.226 522.749 133.739 517.262 133.739 510.493C133.739 503.724 139.226 498.237 145.994 498.237C152.763 498.237 158.25 503.724 158.25 510.493C158.25 517.262 152.763 522.749 145.994 522.749Z" fill="#FFFFA5"/>
<path d="M135.409 510.489C135.465 514.875 138.166 518.927 142.352 520.434C146.582 521.963 151.393 520.635 154.239 517.152C157.018 513.748 157.331 508.814 155.087 505.064C152.866 501.336 148.39 499.26 144.104 500.075C139.07 501.035 135.487 505.399 135.409 510.489C135.375 512.643 132.027 512.643 132.06 510.489C132.138 504.673 135.71 499.505 141.157 497.429C146.582 495.364 153.033 497.094 156.706 501.582C160.389 506.091 160.992 512.565 157.978 517.61C154.976 522.644 149.104 525.189 143.367 524.162C136.826 522.979 132.15 517.03 132.06 510.489C132.038 508.334 135.386 508.334 135.409 510.489Z" fill="#1D0932"/>
</g>
<defs>
<clipPath id="clip0">
<rect width="470" height="622" fill="white"/>
</clipPath>
</defs>
</svg>
