<svg width="105" height="105" viewBox="0 0 105 105" fill="none" xmlns="http://www.w3.org/2000/svg">
<g clip-path="url(#clip0)">
<path d="M60.2167 46.8443H54.8446L52.8711 35.1514H62.585L60.2167 46.8443Z" fill="#43005C"/>
<path d="M60.2169 46.5669C58.651 46.5669 57.0833 46.5669 55.5175 46.5669C55.2932 46.5669 55.069 46.5669 54.8448 46.5669C54.9337 46.6354 55.0227 46.7021 55.1135 46.7707C54.8911 45.4569 54.6706 44.143 54.4482 42.8292C54.0924 40.7259 53.7385 38.6227 53.3827 36.5194C53.3012 36.0376 53.2196 35.5577 53.14 35.0759C53.051 35.1926 52.962 35.3113 52.8712 35.428C53.9664 35.428 55.0634 35.428 56.1586 35.428C57.9024 35.428 59.648 35.428 61.3917 35.428C61.7902 35.428 62.1886 35.428 62.5851 35.428C62.4962 35.3113 62.4072 35.1926 62.3164 35.0759C62.0496 36.3934 61.7827 37.711 61.5159 39.0285C61.0897 41.1281 60.6653 43.2276 60.2391 45.3272C60.1409 45.809 60.0445 46.2908 59.9463 46.7726C59.8759 47.1228 60.4115 47.2711 60.4819 46.9208C60.7487 45.6033 61.0156 44.2857 61.2824 42.9682C61.7086 40.8686 62.133 38.7691 62.5592 36.6696C62.6574 36.1878 62.7537 35.7059 62.852 35.2241C62.8872 35.0499 62.7741 34.8721 62.5833 34.8721C61.4881 34.8721 60.3911 34.8721 59.2959 34.8721C57.5521 34.8721 55.8065 34.8721 54.0628 34.8721C53.6644 34.8721 53.266 34.8721 52.8694 34.8721C52.6748 34.8721 52.5711 35.0481 52.6007 35.2241C52.8231 36.538 53.0436 37.8518 53.266 39.1656C53.6217 41.2689 53.9757 43.3722 54.3315 45.4754C54.413 45.9572 54.4946 46.4372 54.5742 46.919C54.5946 47.0376 54.7299 47.1228 54.8429 47.1228C56.4088 47.1228 57.9765 47.1228 59.5423 47.1228C59.7666 47.1228 59.9908 47.1228 60.215 47.1228C60.5745 47.1228 60.5745 46.5669 60.2169 46.5669Z" fill="#1D0932"/>
<path d="M60.1854 58.5376H54.8152L52.8398 46.8428H62.5555L60.1854 58.5376Z" fill="#43005C"/>
<path d="M60.1856 58.2593C58.6198 58.2593 57.0521 58.2593 55.4862 58.2593C55.262 58.2593 55.0378 58.2593 54.8135 58.2593C54.9025 58.3278 54.9914 58.3946 55.0822 58.4631C54.8599 57.1493 54.6393 55.8355 54.417 54.5216C54.0612 52.4184 53.7072 50.3151 53.3515 48.2119C53.2699 47.7301 53.1884 47.2501 53.1087 46.7683C53.0198 46.8851 52.9308 47.0036 52.84 47.1204C53.9352 47.1204 55.0322 47.1204 56.1274 47.1204C57.8711 47.1204 59.6167 47.1204 61.3605 47.1204C61.7589 47.1204 62.1573 47.1204 62.5539 47.1204C62.4649 47.0036 62.376 46.8851 62.2852 46.7683C62.0183 48.0859 61.7515 49.4034 61.4846 50.721C61.0584 52.8205 60.6341 54.92 60.2079 57.0196C60.1096 57.5014 60.0133 57.9832 59.9151 58.465C59.8447 58.8134 60.3802 58.9634 60.4506 58.6132C60.7175 57.2957 60.9843 55.9782 61.2511 54.6606C61.6774 52.5611 62.1017 50.4615 62.5279 48.362C62.6261 47.8802 62.7225 47.3984 62.8207 46.9166C62.8559 46.7424 62.7429 46.5645 62.552 46.5645C61.4568 46.5645 60.3598 46.5645 59.2646 46.5645C57.5209 46.5645 55.7753 46.5645 54.0315 46.5645C53.6331 46.5645 53.2347 46.5645 52.8382 46.5645C52.6436 46.5645 52.5398 46.7405 52.5695 46.9166C52.7918 48.2304 53.0124 49.5442 53.2347 50.8581C53.5905 52.9613 53.9445 55.0646 54.3003 57.1678C54.3818 57.6496 54.4633 58.1295 54.543 58.6113C54.5634 58.7299 54.6986 58.8152 54.8117 58.8152C56.3775 58.8152 57.9453 58.8152 59.5111 58.8152C59.7353 58.8152 59.9596 58.8152 60.1838 58.8152C60.5451 58.8152 60.5451 58.2593 60.1856 58.2593Z" fill="#1D0932"/>
<path d="M60.1854 70.0298H54.8152L52.8398 58.335H62.5555L60.1854 70.0298Z" fill="#43005C"/>
<path d="M60.1856 69.7515C58.6198 69.7515 57.0521 69.7515 55.4862 69.7515C55.262 69.7515 55.0378 69.7515 54.8135 69.7515C54.9025 69.82 54.9914 69.8868 55.0822 69.9553C54.8599 68.6415 54.6393 67.3277 54.417 66.0138C54.0612 63.9106 53.7072 61.8073 53.3515 59.7041C53.2699 59.2223 53.1884 58.7423 53.1087 58.2605C53.0198 58.3772 52.9308 58.4958 52.84 58.6126C53.9352 58.6126 55.0322 58.6126 56.1274 58.6126C57.8711 58.6126 59.6167 58.6126 61.3605 58.6126C61.7589 58.6126 62.1573 58.6126 62.5539 58.6126C62.4649 58.4958 62.376 58.3772 62.2852 58.2605C62.0183 59.578 61.7515 60.8956 61.4846 62.2131C61.0584 64.3127 60.6341 66.4122 60.2079 68.5118C60.1096 68.9936 60.0133 69.4753 59.9151 69.9571C59.8447 70.3074 60.3802 70.4556 60.4506 70.1054C60.7175 68.7878 60.9843 67.4703 61.2511 66.1528C61.6774 64.0533 62.1017 61.9537 62.5279 59.8542C62.6261 59.3724 62.7225 58.8906 62.8207 58.4088C62.8559 58.2346 62.7429 58.0566 62.552 58.0566C61.4568 58.0566 60.3598 58.0566 59.2646 58.0566C57.5209 58.0566 55.7753 58.0566 54.0315 58.0566C53.6331 58.0566 53.2347 58.0566 52.8382 58.0566C52.6436 58.0566 52.5398 58.2327 52.5695 58.4088C52.7918 59.7226 53.0124 61.0364 53.2347 62.3503C53.5905 64.4535 53.9445 66.5567 54.3003 68.66C54.3818 69.1418 54.4633 69.6217 54.543 70.1035C54.5634 70.2221 54.6986 70.3074 54.8117 70.3074C56.3775 70.3074 57.9453 70.3074 59.5111 70.3074C59.7353 70.3074 59.9596 70.3074 60.1838 70.3074C60.5451 70.3074 60.5451 69.7515 60.1856 69.7515Z" fill="#1D0932"/>
<path d="M60.1854 81.2496H54.8152L52.8398 69.5566H62.5555L60.1854 81.2496Z" fill="#43005C"/>
<path d="M60.1856 80.9712C58.6198 80.9712 57.0521 80.9712 55.4862 80.9712C55.262 80.9712 55.0378 80.9712 54.8135 80.9712C54.9025 81.0398 54.9914 81.1064 55.0822 81.175C54.8599 79.8612 54.6393 78.5473 54.417 77.2335C54.0612 75.1302 53.7072 73.027 53.3515 70.9238C53.2699 70.442 53.1884 69.962 53.1087 69.4802C53.0198 69.597 52.9308 69.7155 52.84 69.8323C53.9352 69.8323 55.0322 69.8323 56.1274 69.8323C57.8711 69.8323 59.6167 69.8323 61.3605 69.8323C61.7589 69.8323 62.1573 69.8323 62.5539 69.8323C62.4649 69.7155 62.376 69.597 62.2852 69.4802C62.0183 70.7978 61.7515 72.1153 61.4846 73.4328C61.0584 75.5324 60.6341 77.632 60.2079 79.7315C60.1096 80.2133 60.0133 80.6951 59.9151 81.1769C59.8447 81.5271 60.3802 81.6754 60.4506 81.3251C60.7175 80.0076 60.9843 78.69 61.2511 77.3725C61.6774 75.2729 62.1017 73.1734 62.5279 71.0738C62.6261 70.592 62.7225 70.1103 62.8207 69.6285C62.8559 69.4543 62.7429 69.2764 62.552 69.2764C61.4568 69.2764 60.3598 69.2764 59.2646 69.2764C57.5209 69.2764 55.7753 69.2764 54.0315 69.2764C53.6331 69.2764 53.2347 69.2764 52.8382 69.2764C52.6436 69.2764 52.5398 69.4524 52.5695 69.6285C52.7918 70.9423 53.0124 72.2562 53.2347 73.57C53.5905 75.6732 53.9445 77.7765 54.3003 79.8797C54.3818 80.3615 54.4633 80.8415 54.543 81.3233C54.5634 81.4419 54.6986 81.5271 54.8117 81.5271C56.3775 81.5271 57.9453 81.5271 59.5111 81.5271C59.7353 81.5271 59.9596 81.5271 60.1838 81.5271C60.5451 81.5271 60.5451 80.9712 60.1856 80.9712Z" fill="#1D0932"/>
<path d="M60.5886 93.2107H54.3807L52.0996 79.748H63.3256L60.5886 93.2107Z" fill="#43005C"/>
<path d="M60.5888 92.9324C58.7747 92.9324 56.9587 92.9324 55.1445 92.9324C54.8906 92.9324 54.6367 92.9324 54.3829 92.9324C54.4718 93.001 54.5608 93.0677 54.6516 93.1362C54.394 91.6185 54.1364 90.099 53.8788 88.5813C53.4693 86.163 53.0598 83.7466 52.6502 81.3284C52.5576 80.778 52.4631 80.2258 52.3704 79.6754C52.2815 79.7922 52.1925 79.9108 52.1017 80.0275C53.3655 80.0275 54.6293 80.0275 55.895 80.0275C57.9093 80.0275 59.9255 80.0275 61.9398 80.0275C62.403 80.0275 62.8663 80.0275 63.3277 80.0275C63.2388 79.9108 63.1498 79.7922 63.059 79.6754C62.7495 81.1968 62.4401 82.7182 62.1306 84.2414C61.6414 86.6504 61.1503 89.0594 60.6611 91.4666C60.5481 92.0244 60.4351 92.5803 60.322 93.1381C60.2516 93.4865 60.7871 93.6366 60.8575 93.2863C61.167 91.7649 61.4765 90.2435 61.7859 88.7203C62.2751 86.3113 62.7662 83.9023 63.2554 81.4933C63.3685 80.9355 63.4815 80.3796 63.5945 79.8218C63.6298 79.6476 63.5167 79.4697 63.3259 79.4697C62.0621 79.4697 60.7983 79.4697 59.5326 79.4697C57.5183 79.4697 55.5021 79.4697 53.4878 79.4697C53.0246 79.4697 52.5613 79.4697 52.0999 79.4697C51.9053 79.4697 51.8015 79.6458 51.8312 79.8218C52.0888 81.3414 52.3463 82.859 52.6039 84.3767C53.0134 86.795 53.423 89.2114 53.8325 91.6297C53.9252 92.18 54.0197 92.7323 54.1123 93.2826C54.1327 93.4012 54.268 93.4865 54.381 93.4865C56.1952 93.4865 58.0112 93.4865 59.8254 93.4865C60.0793 93.4865 60.3331 93.4865 60.587 93.4865C60.9465 93.4883 60.9465 92.9324 60.5888 92.9324Z" fill="#1D0932"/>
<path d="M55.8997 35.5164C55.9812 33.8356 54.6989 32.4291 53.461 31.2913C44.0807 22.6727 31.9023 17.1449 19.2383 15.7588C20.0592 17.1338 20.8801 18.5088 21.701 19.8838C21.8845 20.1914 22.0791 20.5101 22.3774 20.7066C22.7221 20.9326 23.1538 20.9659 23.5652 20.99C24.8846 21.0716 26.204 21.155 27.5234 21.2365C26.9008 21.8573 26.28 22.4762 25.6574 23.097C26.0113 24.4127 27.6179 24.9705 28.9781 24.8797C30.3383 24.7889 31.6595 24.2719 33.0215 24.3367C32.6213 25.1576 32.3025 26.0193 32.0727 26.9033C33.2476 27.0812 34.4539 27.0422 35.6158 26.7939C35.0321 27.9595 34.4503 29.127 33.8665 30.2926C35.4139 30.867 36.9593 31.4414 38.5066 32.0159C39.3794 32.3402 40.2837 32.67 41.214 32.6237C42.3073 32.57 43.3006 32.0085 44.3087 31.5823C45.3186 31.1561 46.499 30.8651 47.483 31.3451C48.467 31.825 48.9043 33.3779 48.0204 34.0265C51.5097 34.2229 54.9602 35.0568 58.1549 36.4744" fill="#FFFFA5"/>
<path d="M56.1772 35.5165C56.2273 34.1193 55.4268 32.9111 54.5076 31.9308C53.5477 30.906 52.4488 29.9943 51.3685 29.0993C49.1689 27.2777 46.8414 25.6137 44.4065 24.1219C41.9586 22.6209 39.405 21.2941 36.7718 20.1526C34.1515 19.0167 31.4553 18.0586 28.7016 17.297C25.9479 16.5354 23.1405 15.9721 20.3071 15.6089C19.9513 15.5625 19.5955 15.5217 19.2379 15.481C19.0229 15.4569 18.8988 15.733 18.997 15.8998C19.7938 17.2358 20.5906 18.5701 21.3875 19.9062C21.7192 20.4602 22.062 20.9791 22.7198 21.1588C23.0386 21.2459 23.374 21.2589 23.7001 21.2793C24.0837 21.3034 24.4673 21.3275 24.8509 21.3516C25.7404 21.4072 26.6317 21.4627 27.5212 21.5183C27.4563 21.3608 27.3896 21.2014 27.3247 21.0439C26.7021 21.6647 26.0813 22.2836 25.4587 22.9044C25.3883 22.973 25.3605 23.0805 25.3864 23.175C25.7422 24.4202 27.0097 25.0151 28.2087 25.1448C29.8338 25.3209 31.3923 24.5555 33.0174 24.6185C32.9377 24.4796 32.8581 24.3406 32.7765 24.1997C32.367 25.0447 32.039 25.9249 31.7999 26.833C31.7647 26.9645 31.8444 27.1536 31.9945 27.1758C33.2268 27.3555 34.4665 27.3222 35.6859 27.0664C35.5821 26.9312 35.4765 26.7941 35.3727 26.6588C34.789 27.8244 34.2071 28.9918 33.6234 30.1574C33.5381 30.3279 33.6141 30.5002 33.7902 30.5651C35.0225 31.0228 36.2529 31.4805 37.4852 31.9382C38.6323 32.3644 39.8312 32.9259 41.0802 32.9111C42.2624 32.8963 43.3094 32.3107 44.3713 31.8604C45.3052 31.4638 46.6061 31.0673 47.5308 31.701C48.1275 32.1087 48.5685 33.2613 47.8792 33.7931C47.666 33.9581 47.7254 34.2935 48.02 34.312C51.4612 34.5103 54.8616 35.3275 58.0137 36.721C58.3379 36.8637 58.6215 36.3856 58.2935 36.2411C55.045 34.8049 51.5649 33.9599 48.0181 33.7561C48.0645 33.9284 48.1108 34.1008 48.159 34.275C48.8928 33.7098 48.9132 32.7202 48.4796 31.9531C47.9273 30.9765 46.7951 30.7226 45.75 30.8745C44.4991 31.0561 43.4392 31.7715 42.2532 32.1476C41.625 32.3478 40.9875 32.4126 40.3352 32.2922C39.67 32.1699 39.0362 31.9253 38.4062 31.6899C36.9163 31.1359 35.4264 30.5836 33.9384 30.0295C33.994 30.1648 34.0496 30.302 34.1052 30.4372C34.6889 29.2717 35.2708 28.1042 35.8545 26.9386C35.9657 26.7162 35.7841 26.479 35.5413 26.5309C34.4258 26.7644 33.2731 26.8052 32.1446 26.6403C32.2095 26.7533 32.2743 26.8682 32.3392 26.9812C32.5671 26.1195 32.871 25.2838 33.2602 24.4814C33.3528 24.2905 33.2416 24.0719 33.0193 24.0626C31.4923 24.0052 30.0395 24.6704 28.5181 24.613C27.4804 24.5722 26.237 24.1256 25.9238 23.0286C25.8997 23.1194 25.8756 23.2084 25.8516 23.2992C26.4742 22.6784 27.095 22.0594 27.7176 21.4387C27.8955 21.2608 27.7547 20.9791 27.5212 20.9643C26.5706 20.905 25.6181 20.8457 24.6674 20.7864C24.2227 20.7586 23.7743 20.7401 23.3295 20.7011C22.9404 20.6678 22.5753 20.5807 22.3029 20.2823C22.0379 19.9914 21.8544 19.6078 21.6525 19.2724C21.4153 18.8759 21.1799 18.4793 20.9427 18.0827C20.4535 17.2636 19.9643 16.4427 19.4751 15.6237C19.3954 15.7626 19.3157 15.9016 19.2342 16.0425C22.0249 16.3501 24.7916 16.8597 27.5101 17.5602C30.2156 18.2569 32.8729 19.1408 35.4561 20.2026C38.0541 21.27 40.5761 22.5209 43 23.9366C45.4127 25.3468 47.7327 26.9201 49.9249 28.6527C51.0312 29.5274 52.106 30.4391 53.1456 31.3916C54.1092 32.2718 55.1543 33.2761 55.5101 34.5751C55.5954 34.8865 55.6287 35.2015 55.6176 35.5239C55.6084 35.876 56.1643 35.8742 56.1772 35.5165Z" fill="#1D0932"/>
<path d="M56.0917 34.7404C63.428 33.5025 70.7236 37.0585 76.8147 41.328C80.2744 43.7537 83.5988 46.4982 85.9504 50.0098C88.9487 54.4831 90.168 59.8811 91.328 65.1402C86.384 63.5873 81.1027 63.1166 75.9623 63.7745C76.5608 60.9448 77.1594 58.1133 77.7561 55.2836C76.4886 56.0545 75.2192 56.8254 73.9517 57.5944C72.7842 56.3176 72.8139 54.3904 72.3154 52.7338C71.8188 51.0771 69.9935 49.4298 68.5277 50.3507C68.7816 48.5292 69.0373 46.7076 69.2912 44.886C67.5567 44.8211 65.8407 44.3023 64.3601 43.398C62.4311 42.2194 60.9541 40.4404 59.5162 38.6948C59.2326 38.3501 58.9491 38.0055 58.6656 37.6627C57.6742 36.46 56.6828 35.2573 55.6914 34.0547" fill="#FFFFA5"/>
<path d="M56.1647 35.008C59.4261 34.465 62.758 34.8986 65.886 35.9085C69.0807 36.9388 72.0716 38.5362 74.8809 40.3578C77.6216 42.1349 80.2882 44.1029 82.6027 46.4156C83.7405 47.5533 84.7893 48.7801 85.688 50.1162C86.609 51.4856 87.3743 52.9569 88.0081 54.4783C89.2886 57.547 90.0724 60.7917 90.797 64.0272C90.8859 64.4219 90.973 64.8167 91.0601 65.2132C91.175 65.0983 91.2881 64.9853 91.403 64.8704C87.5393 63.6622 83.4718 63.1007 79.4246 63.2212C78.2664 63.2564 77.112 63.3472 75.963 63.4936C76.052 63.6103 76.141 63.7289 76.2318 63.8456C76.8303 61.016 77.4288 58.1845 78.0255 55.3548C78.0737 55.1269 77.8347 54.9082 77.6179 55.0416C76.3503 55.8125 75.081 56.5834 73.8135 57.3525C73.9265 57.3673 74.0377 57.3821 74.1507 57.3951C73.1612 56.2888 73.0722 54.697 72.7572 53.3146C72.4533 51.9841 71.7343 50.6424 70.4372 50.0439C69.7682 49.7344 69.0307 49.7177 68.3895 50.1069C68.5248 50.2107 68.6619 50.3163 68.7972 50.42C69.0511 48.5985 69.3068 46.7769 69.5607 44.9553C69.5866 44.7737 69.4902 44.6125 69.2919 44.6032C67.0201 44.5087 64.8779 43.6303 63.1434 42.172C61.4238 40.7266 60.0506 38.9031 58.6293 37.1779C57.7158 36.0698 56.8022 34.9616 55.8886 33.8516C55.6607 33.5755 55.2697 33.9702 55.4958 34.2445C57.0931 36.1828 58.6645 38.1452 60.2952 40.0539C61.7647 41.7754 63.4103 43.395 65.5209 44.303C66.7162 44.8163 67.9929 45.1054 69.2919 45.1592C69.203 45.0424 69.1141 44.9238 69.0233 44.807C68.7694 46.6286 68.5137 48.4502 68.2598 50.2718C68.2283 50.496 68.4395 50.724 68.6675 50.585C69.7978 49.9012 71.0227 50.9334 71.612 51.8655C72.3384 53.0181 72.3533 54.469 72.7109 55.7532C72.9184 56.4982 73.2353 57.2042 73.7542 57.7842C73.8339 57.8731 73.9895 57.8898 74.0914 57.8268C75.3589 57.0559 76.6283 56.285 77.8958 55.516C77.7605 55.4122 77.6234 55.3066 77.4882 55.2029C76.8896 58.0325 76.2929 60.864 75.6944 63.6937C75.661 63.8494 75.7703 64.0699 75.963 64.0458C79.962 63.5399 84.0388 63.7029 87.9803 64.5424C89.0847 64.7777 90.1781 65.065 91.2547 65.4022C91.4678 65.4689 91.6401 65.2577 91.5975 65.0594C90.8692 61.7665 90.1317 58.4569 88.9309 55.2974C88.3324 53.7241 87.6245 52.1897 86.7517 50.748C85.9049 49.3471 84.9005 48.0444 83.7886 46.8436C81.5316 44.4031 78.8594 42.3647 76.115 40.506C73.2872 38.5918 70.2815 36.8981 67.0682 35.7232C63.9421 34.5817 60.5806 33.9628 57.2488 34.3001C56.8355 34.3427 56.4242 34.3983 56.0146 34.4669C55.6662 34.5299 55.8145 35.0654 56.1647 35.008Z" fill="#1D0932"/>
<path d="M60.3674 71.132C60.2247 71.3191 60.0802 71.5063 59.9375 71.6953C59.8967 71.7491 59.893 71.8491 59.9097 71.9103C59.9282 71.9751 59.9764 72.0456 60.0376 72.0771C60.1024 72.1104 60.1803 72.1289 60.2525 72.1048C60.2748 72.0956 60.297 72.0863 60.3192 72.0771C60.3619 72.053 60.3934 72.0196 60.4193 71.977C60.562 71.7898 60.7065 71.6027 60.8492 71.4136C60.89 71.3599 60.8937 71.2598 60.877 71.1987C60.8585 71.1338 60.8103 71.0634 60.7492 71.0319C60.6843 70.9985 60.6065 70.98 60.5342 71.0041C60.5119 71.0134 60.4897 71.0226 60.4675 71.0319C60.4249 71.0578 60.3915 71.0912 60.3674 71.132Z" fill="#1D0932"/>
<path d="M59.3544 73.8463C59.4266 73.8463 59.4971 73.8463 59.5693 73.8463C59.6082 73.8482 59.6434 73.8389 59.6768 73.8222C59.712 73.8111 59.7417 73.7926 59.7658 73.7648C59.7936 73.7388 59.8121 73.7092 59.8232 73.6758C59.8399 73.6425 59.8491 73.6073 59.8473 73.5684C59.8436 73.5443 59.8399 73.5183 59.838 73.4942C59.825 73.4479 59.801 73.4071 59.7658 73.3719C59.7472 73.3571 59.7287 73.3423 59.7102 73.3293C59.6675 73.3034 59.6194 73.2922 59.5693 73.2922C59.4971 73.2922 59.4266 73.2922 59.3544 73.2922C59.3155 73.2904 59.2803 73.2997 59.2469 73.3163C59.2117 73.3275 59.182 73.346 59.158 73.3738C59.1302 73.3997 59.1116 73.4294 59.1005 73.4627C59.0838 73.4961 59.0746 73.5313 59.0764 73.5702C59.0801 73.5943 59.0838 73.6202 59.0857 73.6443C59.0987 73.6907 59.1227 73.7314 59.158 73.7666C59.1765 73.7815 59.195 73.7963 59.2135 73.8092C59.258 73.8333 59.3043 73.8463 59.3544 73.8463Z" fill="#1D0932"/>
<path d="M86.6901 109.258C82.4161 112.277 77.7969 99.8369 66.4033 107.188C52.0422 116.454 41.3272 118.989 23.6445 109.258C31.1559 96.5848 42.7882 91.4443 55.168 91.4443C67.5464 91.4425 80.3141 96.683 86.6901 109.258Z" fill="#6C43BF"/>
<path d="M86.5924 109.017C85.6322 109.686 84.5851 109.489 83.6042 109.021C82.356 108.426 81.1882 107.514 79.9841 106.762C78.5114 105.841 76.9868 105.088 75.3908 104.758C73.3927 104.345 71.3672 104.58 69.4222 105.329C68.1792 105.807 67.001 106.504 65.8294 107.253C64.6136 108.029 63.3887 108.778 62.1522 109.486C59.9062 110.772 57.6212 111.926 55.2883 112.851C50.8338 114.617 46.2315 115.445 41.6097 115.082C36.2276 114.658 30.957 112.728 25.8953 110.153C25.1584 109.778 24.4265 109.389 23.6973 108.987C23.7259 109.143 23.7544 109.297 23.783 109.452C26.6855 104.571 30.3056 100.678 34.3332 97.8779C38.4256 95.0353 42.8761 93.3193 47.3772 92.4446C52.0989 91.5255 56.9244 91.481 61.6591 92.2093C66.2757 92.9209 70.8858 94.4145 75.1599 97.0496C79.0914 99.4734 82.7686 102.913 85.5479 107.614C85.8879 108.19 86.2135 108.783 86.5236 109.395C86.669 109.682 87.0076 109.404 86.8597 109.115C84.3126 104.114 80.8002 100.318 76.9336 97.6073C72.7569 94.6795 68.2 92.9339 63.6054 92.0018C58.8136 91.0289 53.922 90.8899 49.1068 91.5941C44.5019 92.2686 39.9398 93.7677 35.68 96.388C31.5526 98.9286 27.7521 102.559 24.6562 107.229C24.2618 107.823 23.8803 108.435 23.5092 109.059C23.4093 109.228 23.4534 109.447 23.5948 109.525C28.8044 112.386 34.2203 114.661 39.7932 115.44C44.437 116.088 49.1094 115.582 53.6456 114.033C55.9707 113.24 58.2505 112.197 60.4887 111.001C61.6721 110.37 62.8451 109.693 64.0089 108.989C65.2507 108.237 66.4678 107.382 67.729 106.7C69.8102 105.574 72.0251 104.94 74.2568 105.142C75.9449 105.296 77.5798 105.942 79.142 106.849C80.4149 107.588 81.6307 108.516 82.9074 109.241C83.9026 109.806 84.9977 110.245 86.0682 109.877C86.3199 109.79 86.5613 109.656 86.7935 109.495C87.0141 109.339 86.8169 108.861 86.5924 109.017Z" fill="#6C43BF"/>
<path d="M25.4993 108.338C29.7734 111.357 34.3926 98.917 45.7862 106.268C60.1472 115.534 70.8622 118.069 88.5449 108.338C81.0335 95.6648 69.4012 90.5244 57.0215 90.5244C44.6431 90.5226 31.8754 95.7631 25.4993 108.338Z" fill="#6C43BF"/>
<path d="M25.597 108.097C26.5572 108.766 27.6043 108.569 28.5852 108.101C29.8335 107.506 31.0012 106.594 32.2054 105.842C33.6781 104.921 35.2026 104.168 36.7986 103.838C38.7968 103.425 40.8222 103.661 42.7672 104.409C44.0103 104.887 45.1884 105.584 46.3601 106.333C47.5759 107.109 48.8007 107.858 50.0373 108.566C52.2833 109.852 54.5682 111.006 56.9012 111.931C61.3556 113.697 65.958 114.525 70.5797 114.162C75.9619 113.738 81.2324 111.809 86.2941 109.233C87.0311 108.858 87.7629 108.469 88.4921 108.067C88.4636 108.223 88.435 108.377 88.4065 108.532C85.5039 103.651 81.8838 99.758 77.8563 96.958C73.7639 94.1153 69.3133 92.3994 64.8122 91.5247C60.0905 90.6056 55.265 90.5611 50.5303 91.2894C45.9137 92.001 41.3036 93.4946 37.0296 96.1296C33.098 98.5535 29.4209 101.993 26.6416 106.694C26.3016 107.27 25.9759 107.863 25.6658 108.475C25.5205 108.762 25.1818 108.484 25.3298 108.195C27.8768 103.194 31.3892 99.3985 35.2558 96.6874C39.4326 93.7596 43.9895 92.0139 48.584 91.0818C53.3758 90.109 58.2675 89.97 63.0826 90.6742C67.6876 91.3487 72.2497 92.8478 76.5094 95.4681C80.6369 98.0087 84.4373 101.639 87.5332 106.309C87.9277 106.903 88.3092 107.515 88.6803 108.139C88.7802 108.308 88.7361 108.527 88.5946 108.605C83.385 111.466 77.9692 113.741 72.3963 114.52C67.7524 115.168 63.08 114.662 58.5439 113.113C56.2187 112.32 53.9389 111.277 51.7007 110.082C50.5174 109.45 49.3444 108.773 48.1805 108.069C46.9388 107.317 45.7217 106.462 44.4605 105.781C42.3793 104.654 40.1644 104.02 37.9326 104.222C36.2446 104.376 34.6097 105.023 33.0475 105.929C31.7746 106.668 30.5588 107.597 29.282 108.321C28.2868 108.886 27.1917 109.325 26.1212 108.957C25.8695 108.87 25.6282 108.736 25.3959 108.575C25.1754 108.419 25.3726 107.941 25.597 108.097Z" fill="#6C43BF"/>
<path d="M82.3725 108.203C81.3008 108.79 80.1836 108.918 79.0496 108.739C78.1984 108.603 77.1033 108.31 76.4376 109.298C76.1548 109.719 75.9082 110.321 75.4943 110.499C75.0285 110.697 74.7547 110.171 74.5134 109.704C74.3304 109.35 74.1293 109.246 73.8776 109.495C73.6298 109.737 73.4403 110.102 73.2314 110.406C73.0238 110.71 72.7786 111.025 72.4802 111.123C72.1 111.248 71.773 110.979 71.5226 110.59C71.2696 110.199 71.0425 109.634 70.6117 109.734C70.3263 109.8 70.0551 109.98 69.7709 110.067C69.492 110.152 69.2065 110.204 68.9224 110.243C67.6806 110.416 66.4324 110.508 65.1894 110.638C64.6029 110.699 64.006 110.795 63.4182 110.699C63.1302 110.653 62.8525 110.56 62.5839 110.404C62.3322 110.258 62.0909 110.075 61.8366 109.936C61.2682 109.624 60.6856 109.785 60.0953 109.685C59.6256 109.606 59.1779 109.383 58.7653 109.057C57.9115 108.381 57.2342 107.321 56.6296 106.244C56.4791 105.976 56.3324 105.705 56.1871 105.431C56.0353 105.145 56.3727 104.869 56.5232 105.151C57.1019 106.237 57.7169 107.345 58.4967 108.153C58.8691 108.538 59.2778 108.853 59.7242 109.024C60.264 109.23 60.8102 109.105 61.3578 109.196C61.917 109.289 62.3724 109.737 62.8979 109.98C63.4455 110.234 64.0281 110.199 64.5951 110.143C65.8278 110.023 67.0591 109.887 68.2905 109.76C68.8692 109.7 69.453 109.645 70.0123 109.404C70.2705 109.293 70.5313 109.133 70.8064 109.168C71.014 109.194 71.1917 109.32 71.3487 109.509C71.6108 109.821 71.7912 110.379 72.1208 110.56C72.3816 110.703 72.6307 110.451 72.8149 110.208C73.199 109.704 73.609 108.703 74.2137 108.798C74.6393 108.865 74.782 109.398 75.0402 109.793C75.3594 110.28 75.6993 109.665 75.9095 109.315C76.2041 108.826 76.4999 108.422 76.9411 108.22C77.3732 108.021 77.8429 108.025 78.2905 108.073C78.7758 108.125 79.2572 108.242 79.7437 108.27C80.3172 108.303 80.8921 108.225 81.45 108.034C81.7277 107.94 82.0001 107.816 82.2674 107.669C82.5036 107.54 82.6048 108.077 82.3725 108.203Z" fill="#1D0932"/>
<path d="M60.2157 82.8561C60.288 82.8561 60.3584 82.8561 60.4307 82.8561C60.4696 82.8579 60.5048 82.8487 60.5381 82.832C60.5733 82.8209 60.603 82.8023 60.6271 82.7745C60.6549 82.7486 60.6734 82.7189 60.6845 82.6856C60.7012 82.6522 60.7105 82.617 60.7086 82.5781C60.7049 82.554 60.7012 82.5281 60.6993 82.504C60.6864 82.4577 60.6623 82.4169 60.6271 82.3817C60.6085 82.3668 60.59 82.352 60.5715 82.339C60.5289 82.3131 60.4807 82.302 60.4307 82.302C60.3584 82.302 60.288 82.302 60.2157 82.302C60.1768 82.3001 60.1416 82.3094 60.1082 82.3261C60.073 82.3372 60.0434 82.3557 60.0193 82.3835C59.9915 82.4095 59.9729 82.4391 59.9618 82.4725C59.9451 82.5058 59.9359 82.541 59.9377 82.58C59.9414 82.604 59.9452 82.63 59.947 82.6541C59.96 82.7004 59.9841 82.7412 60.0193 82.7764C60.0378 82.7912 60.0563 82.806 60.0749 82.819C60.1175 82.8431 60.1657 82.8561 60.2157 82.8561Z" fill="#1D0932"/>
<path d="M60.2142 82.8548C60.5719 82.8548 60.5719 82.2988 60.2142 82.2988C59.8566 82.2988 59.8547 82.8548 60.2142 82.8548Z" fill="#1D0932"/>
<path d="M61.5026 81.1673C61.8603 81.1673 61.8603 80.6113 61.5026 80.6113C61.145 80.6113 61.145 81.1673 61.5026 81.1673Z" fill="#1D0932"/>
<path d="M59.5061 60.9032C59.5061 60.9977 59.5061 61.0904 59.5061 61.1849C59.5042 61.2238 59.5135 61.259 59.5302 61.2924C59.5413 61.3276 59.5598 61.3572 59.5876 61.3813C59.6136 61.4091 59.6432 61.4276 59.6766 61.4387C59.7099 61.4554 59.7451 61.4647 59.7841 61.4628C59.8081 61.4591 59.8341 61.4554 59.8582 61.4536C59.9045 61.4406 59.9453 61.4165 59.9805 61.3813C60.0305 61.3276 60.062 61.2608 60.062 61.1849C60.062 61.0904 60.062 60.9977 60.062 60.9032C60.0639 60.8643 60.0546 60.8291 60.0379 60.7957C60.0268 60.7605 60.0083 60.7308 59.9805 60.7068C59.9545 60.679 59.9249 60.6604 59.8915 60.6493C59.8582 60.6326 59.823 60.6234 59.7841 60.6252C59.76 60.6289 59.734 60.6327 59.7099 60.6345C59.6636 60.6475 59.6228 60.6716 59.5876 60.7068C59.5376 60.7605 59.5061 60.8272 59.5061 60.9032Z" fill="#1D0932"/>
<path d="M59.6321 64.843C59.6321 64.5613 59.6321 64.2796 59.6321 63.998C59.6321 63.8534 59.5042 63.7126 59.3541 63.72C59.204 63.7274 59.0762 63.8423 59.0762 63.998C59.0762 64.2796 59.0762 64.5613 59.0762 64.843C59.0762 64.9875 59.204 65.1284 59.3541 65.1209C59.5042 65.1154 59.6321 64.9986 59.6321 64.843Z" fill="#1D0932"/>
<path d="M64.8768 40.6893C65.3957 41.8771 66.8819 42.5183 68.1049 42.1051C68.4422 41.9921 68.2976 41.4546 67.9567 41.5695C66.9449 41.9105 65.7811 41.3824 65.3549 40.4095C65.2956 40.2724 65.0937 40.2409 64.9751 40.3094C64.8342 40.391 64.8157 40.5503 64.8768 40.6893Z" fill="#1D0932"/>
<path d="M81.0884 57.3361C80.8105 58.1533 80.6993 59.0169 80.7604 59.8786C80.7716 60.0342 80.879 60.1491 81.0384 60.1565C81.4831 60.1788 81.926 60.2029 82.3708 60.2251C82.2781 60.1325 82.1855 60.0398 82.0928 59.9471C82.1151 60.3104 82.1373 60.6717 82.1595 61.0349C82.1688 61.1998 82.3319 61.3703 82.5116 61.3036C83.5327 60.9237 84.5537 60.5438 85.5748 60.1658C85.9065 60.0416 85.7638 59.5042 85.4265 59.6302C84.4055 60.0101 83.3844 60.39 82.3634 60.7681C82.4801 60.857 82.5987 60.9459 82.7155 61.0367C82.6932 60.6735 82.671 60.3122 82.6487 59.949C82.6395 59.7933 82.5283 59.6785 82.3708 59.671C81.926 59.6488 81.4831 59.6247 81.0384 59.6025C81.1311 59.6951 81.2237 59.7878 81.3164 59.8804C81.2589 59.0632 81.3609 58.2608 81.624 57.4862C81.7389 57.1434 81.2015 56.9989 81.0884 57.3361Z" fill="#1D0932"/>
<path d="M27.8066 22.4804C27.8066 22.6675 27.8066 22.8565 27.8066 23.0437C27.8066 23.1141 27.8382 23.1901 27.8882 23.2401C27.9364 23.2883 28.016 23.3254 28.0846 23.3217C28.2347 23.3143 28.3626 23.1994 28.3626 23.0437C28.3626 22.8565 28.3626 22.6675 28.3626 22.4804C28.3626 22.4099 28.3311 22.334 28.281 22.284C28.2329 22.2358 28.1532 22.1987 28.0846 22.2024C27.9327 22.208 27.8066 22.3247 27.8066 22.4804Z" fill="#1D0932"/>
<path d="M54.055 34.61C44.3838 37.6824 36.2432 44.4906 29.9223 52.4274C23.6015 60.3641 18.9113 69.4517 14.2656 78.4725C18.007 75.5835 21.98 72.9948 26.1365 70.7377C27.1501 70.1874 28.2323 69.6425 29.3868 69.6629C30.5413 69.6833 31.7661 70.4709 31.8662 71.6198C33.4506 70.0354 35.035 68.451 36.6194 66.8685C38.4743 68.6419 41.6394 66.6683 42.6048 64.2908C43.5703 61.9133 43.5332 59.1133 45.0416 57.0378C45.251 58.0218 46.6279 58.335 47.5062 57.8458C48.3865 57.3584 48.8682 56.393 49.2982 55.4831C49.9745 54.0544 50.6509 52.6256 51.3273 51.1969C51.6497 50.5168 51.9759 49.8127 52.0018 49.0622C52.063 47.3036 50.4786 45.81 50.5249 44.0515C50.5786 41.9612 52.7597 40.7048 54.5072 39.5559C56.2528 38.407 57.9465 36.1295 56.7364 34.4229" fill="#FFFFA5"/>
<path d="M53.982 34.3409C50.4241 35.4749 47.0404 37.1168 43.9013 39.133C40.7436 41.1602 37.825 43.5544 35.1529 46.1858C32.3769 48.9154 29.8734 51.9062 27.5793 55.0509C25.0832 58.4736 22.841 62.0741 20.7414 65.7506C18.6437 69.4253 16.685 73.1778 14.7467 76.9396C14.5077 77.4047 14.2668 77.8698 14.0277 78.3349C13.9147 78.5555 14.1686 78.9001 14.4076 78.7148C16.6665 76.971 19.0088 75.3366 21.4252 73.8171C22.6205 73.0666 23.8361 72.3439 25.0665 71.649C25.6855 71.3006 26.3044 70.9485 26.9382 70.6317C27.5274 70.337 28.1519 70.0757 28.8079 69.9775C29.9123 69.8144 31.4504 70.3315 31.5875 71.6212C31.6116 71.851 31.8785 72.0011 32.0619 71.8176C33.6463 70.2332 35.2307 68.6489 36.8151 67.0663C36.6835 67.0663 36.5538 67.0663 36.4222 67.0663C37.8954 68.4432 39.9894 67.7112 41.3274 66.5252C42.0686 65.8674 42.6208 65.0501 42.9673 64.1236C43.3732 63.0377 43.59 61.8962 43.8531 60.7696C44.1496 59.5058 44.5165 58.2456 45.2818 57.1783C45.1132 57.156 44.9427 57.1338 44.7741 57.1116C44.9779 57.9714 45.8841 58.3957 46.7105 58.3476C47.7353 58.2864 48.4784 57.5322 48.9824 56.6965C49.2697 56.2221 49.4957 55.7125 49.7329 55.2122C50.0183 54.6081 50.3055 54.0039 50.5909 53.3998C50.8893 52.7679 51.1895 52.136 51.4878 51.5041C51.7491 50.9501 52.0289 50.3923 52.1753 49.7937C52.4421 48.6986 52.0993 47.6923 51.6416 46.7028C51.2284 45.8077 50.7188 44.8812 50.8133 43.862C50.8985 42.9299 51.5008 42.1646 52.1716 41.5605C52.9017 40.9026 53.7449 40.3856 54.5639 39.8482C56.2206 38.7623 58.3942 36.3441 56.9748 34.2816C56.7728 33.9888 56.291 34.2668 56.4948 34.5614C57.6586 36.2514 55.8444 38.2879 54.5046 39.2182C53.0574 40.2226 51.2395 41.125 50.5112 42.8373C50.1406 43.7082 50.1962 44.6366 50.5149 45.5131C50.8448 46.423 51.3822 47.255 51.6231 48.1982C51.7528 48.706 51.7528 49.2156 51.6175 49.7233C51.4637 50.3052 51.1857 50.8444 50.93 51.3855C50.3834 52.54 49.8386 53.6926 49.2919 54.8471C48.8268 55.8292 48.3746 57.0541 47.3665 57.6045C46.6902 57.9751 45.5135 57.8231 45.3096 56.9615C45.2503 56.7094 44.9316 56.7131 44.8019 56.8947C43.514 58.6904 43.3268 60.953 42.7394 63.0192C42.4707 63.9643 42.1168 64.8482 41.4626 65.595C40.8845 66.2547 40.1451 66.8199 39.3056 67.0997C38.4347 67.3888 37.5063 67.3146 36.8151 66.6697C36.7057 66.5678 36.5316 66.5604 36.4222 66.6697C34.8378 68.2541 33.2535 69.8385 31.6691 71.4211C31.8266 71.4859 31.986 71.5527 32.1435 71.6175C32.0212 70.4667 31.0279 69.6532 29.9327 69.442C28.5392 69.1733 27.1846 69.8497 25.9968 70.4945C23.3357 71.9381 20.7507 73.5188 18.2528 75.2273C16.8481 76.1872 15.4731 77.1879 14.1278 78.2274C14.2538 78.3535 14.3817 78.4813 14.5077 78.6073C16.4386 74.8586 18.3713 71.1097 20.4283 67.4277C22.4741 63.7678 24.6459 60.1729 27.0512 56.7354C29.299 53.524 31.7562 50.459 34.4839 47.6423C37.0819 44.9609 39.9153 42.5019 42.9988 40.3912C46.0583 38.2972 49.3605 36.5461 52.8535 35.3008C53.276 35.1507 53.7022 35.0061 54.1303 34.8709C54.4694 34.7689 54.3249 34.2315 53.982 34.3409Z" fill="#1D0932"/>
<path d="M47.1675 47.4245C48.0347 48.0342 48.5332 49.1034 48.4461 50.1597C48.3609 51.1974 47.6863 52.1295 46.7691 52.5983C46.4503 52.7614 46.732 53.2414 47.0489 53.0783C48.1478 52.5168 48.9001 51.3883 49.0002 50.1597C49.1021 48.9014 48.4684 47.6636 47.4454 46.9446C47.1545 46.7389 46.8766 47.2207 47.1675 47.4245Z" fill="#1D0932"/>
<path d="M50.4878 40.2991C50.4878 40.2046 50.4878 40.112 50.4878 40.0175C50.4897 39.9785 50.4804 39.9433 50.4637 39.91C50.4526 39.8748 50.4341 39.8451 50.4063 39.821C50.3803 39.7932 50.3507 39.7747 50.3173 39.7636C50.284 39.7469 50.2488 39.7376 50.2098 39.7395C50.1857 39.7432 50.1598 39.7469 50.1357 39.7488C50.0894 39.7617 50.0486 39.7858 50.0134 39.821C49.9634 39.8748 49.9319 39.9415 49.9319 40.0175C49.9319 40.112 49.9319 40.2046 49.9319 40.2991C49.93 40.338 49.9393 40.3732 49.956 40.4066C49.9671 40.4418 49.9856 40.4714 50.0134 40.4955C50.0394 40.5233 50.069 40.5419 50.1024 40.553C50.1357 40.5697 50.1709 40.5789 50.2098 40.5771C50.2339 40.5734 50.2599 40.5697 50.284 40.5678C50.3303 40.5548 50.3711 40.5307 50.4063 40.4955C50.4563 40.4399 50.4878 40.3733 50.4878 40.2991Z" fill="#1D0932"/>
<path d="M21.142 71.4655C21.9944 70.526 23.0099 69.7588 24.1459 69.1936C24.4664 69.0342 24.1848 68.5543 23.8661 68.7136C22.6912 69.2973 21.6294 70.1016 20.7492 71.0726C20.5083 71.3376 20.9011 71.7305 21.142 71.4655Z" fill="#1D0932"/>
<path d="M56.3008 34.8601C56.3749 32.8662 57.3274 31.0057 58.4615 29.3639C61.8063 24.5162 66.8189 21.0138 72.1817 18.5807C77.5445 16.1495 83.2946 14.706 89.0058 13.2754C85.8871 16.4757 82.4404 19.3535 78.7361 21.8515C79.9424 21.7959 81.1488 21.7384 82.3551 21.6829C81.6862 24.557 78.295 26.4601 75.4932 25.5354C76.5309 25.9579 77.0312 27.3533 76.5012 28.3391C76.3864 28.5541 76.2177 28.756 75.9898 28.8394C75.6247 28.9729 75.2319 28.7783 74.8557 28.6801C72.7691 28.1315 71.0347 30.5387 68.8925 30.8037C68.0549 30.9075 67.1302 30.6888 66.4112 31.1317C66.048 31.3559 65.796 31.7228 65.4661 31.9952C64.925 32.4437 64.2116 32.6105 63.5278 32.7661C61.1559 33.3035 58.7839 33.8427 56.412 34.3801" fill="#FFFFA5"/>
<path d="M56.5814 34.8603C56.6945 32.2252 58.303 29.857 59.9244 27.8853C61.4958 25.9729 63.3396 24.2903 65.341 22.8356C69.6735 19.6909 74.6601 17.6322 79.7487 16.0607C82.8285 15.1101 85.9565 14.3262 89.0827 13.5424C88.9919 13.3867 88.9029 13.2329 88.8121 13.0773C86.3957 15.5548 83.7866 17.8434 81.0069 19.9059C80.2175 20.4915 79.4133 21.0604 78.5998 21.6107C78.3867 21.7553 78.446 22.1426 78.7406 22.1296C79.947 22.074 81.1533 22.0166 82.3597 21.961C82.2707 21.8442 82.1818 21.7256 82.091 21.6089C81.5814 23.7362 79.5393 25.3113 77.386 25.4781C76.7689 25.5263 76.1593 25.4577 75.5718 25.2668C75.2772 25.1723 75.066 25.6504 75.3569 25.7746C75.9443 26.0248 76.339 26.5788 76.4261 27.2089C76.4687 27.5128 76.4335 27.839 76.3038 28.1188C76.239 28.2615 76.1482 28.4115 76.0221 28.5097C75.8331 28.6543 75.6015 28.6079 75.3884 28.5505C75.0326 28.4523 74.699 28.3393 74.3284 28.3244C73.9967 28.3115 73.6595 28.3633 73.3426 28.456C72.6977 28.6432 72.1084 28.986 71.5358 29.3288C70.9391 29.6864 70.3424 30.0737 69.6864 30.3184C69.3584 30.4407 69.0193 30.5259 68.671 30.5481C68.267 30.5741 67.863 30.5463 67.4591 30.5704C67.0588 30.5945 66.6548 30.6686 66.3046 30.8743C65.9432 31.0855 65.6893 31.4191 65.3854 31.6989C64.748 32.2863 63.8196 32.4161 63.0061 32.6014C60.7842 33.1054 58.5624 33.6094 56.3406 34.1135C55.9922 34.1931 56.1386 34.7287 56.4888 34.649C58.5754 34.1765 60.6619 33.7021 62.7504 33.2295C63.625 33.0313 64.5997 32.9034 65.3706 32.4123C65.7357 32.1789 66.0007 31.8471 66.3175 31.5599C66.6511 31.256 67.0588 31.1486 67.5017 31.1263C67.9427 31.1022 68.3856 31.1374 68.8248 31.0929C69.1824 31.0559 69.5308 30.9725 69.8681 30.8446C70.5704 30.5778 71.206 30.1775 71.849 29.7939C72.4438 29.4381 73.0609 29.0712 73.7484 28.9304C74.0708 28.8637 74.4081 28.86 74.7287 28.936C75.1456 29.0342 75.5589 29.2454 75.9981 29.1324C76.8375 28.9156 77.0821 27.8204 76.9691 27.0792C76.8523 26.3194 76.3575 25.6023 75.6423 25.2965C75.57 25.4652 75.4996 25.6356 75.4273 25.8043C77.7474 26.5529 80.3806 25.5078 81.7889 23.575C82.1855 23.0321 82.4727 22.4113 82.6302 21.7571C82.671 21.5885 82.5487 21.3958 82.3615 21.405C81.1552 21.4606 79.9488 21.5181 78.7425 21.5737C78.7888 21.746 78.8351 21.9183 78.8833 22.0925C81.7797 20.1375 84.5222 17.9546 87.0721 15.5678C87.8003 14.8859 88.5119 14.1873 89.2087 13.4738C89.4051 13.2737 89.2068 12.942 88.9381 13.0087C86.0936 13.7203 83.2473 14.4337 80.4362 15.2732C77.6362 16.1089 74.8714 17.0725 72.2048 18.2696C69.8829 19.3129 67.6406 20.5452 65.5522 22.0054C63.4749 23.4583 61.5477 25.1353 59.8929 27.0606C59.0572 28.0335 58.277 29.0675 57.6118 30.1645C56.9206 31.306 56.3498 32.555 56.1274 33.8781C56.0737 34.2024 56.0385 34.5304 56.0237 34.8603C56.0107 35.2179 56.5666 35.2179 56.5814 34.8603Z" fill="#1D0932"/>
</g>
<defs>
<clipPath id="clip0">
<rect width="105" height="105" fill="white"/>
</clipPath>
</defs>
</svg>
