<svg width="192" height="202" viewBox="0 0 192 202" fill="none" xmlns="http://www.w3.org/2000/svg">
<path d="M62.4869 146.237C31.3094 147.914 41.1231 110.319 6.10258 117.222C5.94187 116.646 12.3528 110.591 12.3528 110.591L8.47129 107.251L16.0945 102.405L10.0784 97.8218C10.0784 97.8218 15.7905 91.7428 17.457 90.6353C15.7486 88.4867 12.8978 86.3206 12.8978 86.3206L21.1987 85.2026C21.1987 85.2026 17.4954 81.2862 15.6578 79.183C33.4405 73.1075 54.5074 120.017 82.3519 89.0073C92.4206 111.094 83.4454 137.947 62.4869 146.237Z" fill="#6C43BF"/>
<path d="M62.4865 145.712C57.6093 145.967 52.6518 145.282 48.3755 142.805C44.9447 140.817 42.2372 137.875 39.8824 134.728C37.4893 131.531 35.3861 128.121 32.8532 125.026C30.3447 121.958 27.3436 119.268 23.6683 117.689C18.8505 115.617 13.5052 115.547 8.387 116.299C7.57647 116.417 6.76943 116.561 5.9624 116.718C6.179 116.84 6.39212 116.962 6.60873 117.085C6.61222 117.113 6.62969 117.368 6.61571 117.28C6.60523 117.203 6.55981 117.361 6.60523 117.308C6.65764 117.245 6.69607 117.158 6.74149 117.092C6.81835 116.98 6.8463 116.948 6.88473 116.899C6.97556 116.788 7.06989 116.676 7.16422 116.564C7.63936 116.016 8.13895 115.491 8.64553 114.971C9.72508 113.86 10.8326 112.777 11.9505 111.704C12.2091 111.456 12.4641 111.212 12.7226 110.967C12.9183 110.782 12.9323 110.408 12.7226 110.227C11.43 109.112 10.1338 108.001 8.84118 106.887C8.80624 107.163 8.77131 107.435 8.73637 107.711C10.9583 106.3 13.1838 104.885 15.4058 103.47C15.7237 103.267 16.0416 103.065 16.3596 102.862C16.7194 102.635 16.6705 102.195 16.3596 101.957C14.6092 100.622 12.8589 99.2913 11.1086 97.9568C10.8535 97.7611 10.5985 97.569 10.3435 97.3733C10.3784 97.6493 10.4133 97.9218 10.4483 98.1978C12.3104 96.2169 14.2005 94.2465 16.1919 92.3949C16.6845 91.9337 17.226 91.4271 17.7221 91.0917C18.0225 90.8891 18.047 90.5432 17.8269 90.2672C16.4923 88.6077 14.8538 87.1579 13.1628 85.8722C13.1209 86.1901 13.079 86.5116 13.0371 86.8295C15.4547 86.5046 17.8723 86.1761 20.2899 85.8512C20.6393 85.8058 20.9887 85.7569 21.338 85.7114C21.7503 85.6555 21.8097 85.0896 21.5686 84.8345C19.696 82.8536 17.8234 80.8657 16.0277 78.8149C15.9508 79.1084 15.8739 79.3984 15.7971 79.6919C19.4025 78.4726 23.1373 79.5871 26.4597 81.292C30.6591 83.4441 34.4218 86.3858 38.209 89.1667C42.2896 92.1608 46.4365 95.1583 51.0272 97.3384C55.4327 99.4311 60.275 100.696 65.1731 100.049C71.2381 99.2459 76.4716 95.7103 80.7269 91.483C81.4117 90.8017 82.0754 90.0995 82.7218 89.3833C82.4458 89.3484 82.1733 89.3135 81.8973 89.2785C83.7804 93.4255 85.0416 97.8729 85.6041 102.394C86.1456 106.761 86.0722 111.219 85.342 115.561C84.6328 119.785 83.3297 123.918 81.4152 127.754C79.5425 131.51 77.104 134.979 74.1343 137.949C71.1473 140.932 67.6466 143.374 63.8036 145.118C63.3214 145.338 62.8358 145.544 62.3432 145.736C61.7248 145.981 61.9938 146.997 62.6227 146.746C66.6928 145.128 70.438 142.791 73.6732 139.835C76.8454 136.939 79.5041 133.484 81.5689 129.721C83.6756 125.882 85.1813 121.71 86.0617 117.42C86.9701 112.99 87.2286 108.424 86.8233 103.92C86.4041 99.2809 85.3036 94.7112 83.5253 90.4C83.2947 89.8445 83.0572 89.289 82.8056 88.7405C82.6694 88.4401 82.1907 88.4016 81.9811 88.6357C77.8271 93.2543 72.7019 97.4502 66.4867 98.7638C61.7702 99.7595 56.949 98.8162 52.5889 96.9017C47.9493 94.8649 43.7604 91.9232 39.6833 88.9501C35.8507 86.1516 32.0846 83.1786 27.9201 80.8798C24.5522 79.0211 20.6742 77.5433 16.7788 78.3399C16.3526 78.4272 15.9333 78.5425 15.5211 78.6822C15.1333 78.8115 15.025 79.2552 15.2905 79.5591C17.0862 81.6099 18.9588 83.5978 20.8314 85.5787C20.9083 85.2853 20.9852 84.9953 21.062 84.7018C18.6444 85.0267 16.2268 85.3551 13.8092 85.68C13.4598 85.7255 13.1104 85.7743 12.7611 85.8198C12.2545 85.8896 12.3314 86.5464 12.6353 86.777C12.6458 86.7875 12.6598 86.7945 12.6702 86.805C12.52 86.6897 12.6667 86.805 12.6982 86.826C12.81 86.9133 12.9218 87.0007 13.0301 87.0915C13.4319 87.4164 13.8266 87.7483 14.2144 88.0871C15.2416 88.9885 16.2338 89.9423 17.0897 91.0114C17.1247 90.7354 17.1596 90.4628 17.1945 90.1868C15.9857 91.0009 14.9446 92.1153 13.914 93.132C12.7401 94.2954 11.5872 95.4798 10.4448 96.6746C10.1967 96.9331 9.95217 97.1917 9.70412 97.4537C9.45257 97.7227 9.53991 98.0721 9.80893 98.2782C11.5593 99.6128 13.3096 100.944 15.0599 102.278C15.3149 102.474 15.57 102.666 15.825 102.862C15.825 102.561 15.825 102.257 15.825 101.957C13.603 103.372 11.3776 104.783 9.15561 106.198C8.83769 106.401 8.51976 106.604 8.20184 106.806C7.93632 106.974 7.82802 107.4 8.09703 107.631C9.38969 108.745 10.6858 109.856 11.9785 110.971C11.9785 110.723 11.9785 110.478 11.9785 110.23C10.0395 112.061 8.04462 113.905 6.31875 115.946C5.99733 116.323 5.48726 116.826 5.59207 117.371C5.64797 117.665 5.97637 117.787 6.2384 117.738C11.4614 116.714 17.0443 116.386 22.1311 118.213C25.8728 119.558 28.9542 122.084 31.5186 125.075C34.0829 128.065 36.1617 131.426 38.4815 134.602C40.8467 137.837 43.4879 140.915 46.8732 143.123C50.8735 145.733 55.5934 146.802 60.3274 146.826C61.0471 146.83 61.7668 146.809 62.483 146.774C63.1572 146.725 63.1607 145.677 62.4865 145.712Z" fill="#1D0932"/>
<path d="M102.766 154.658C133.258 146.018 144.442 192.652 175.507 179.722C170.969 177.887 169.33 165.488 169.33 165.488L179.431 164.461L172.967 155.406L184.049 152.709C184.049 152.709 183.267 146.291 180.587 143.705C184.186 143.241 190.513 137.012 190.513 137.012L179.892 132.162L189.51 119.969C189.51 119.969 156.575 140.229 134.216 116.898L102.766 154.658Z" fill="#6C43BF"/>
<path d="M102.905 155.167C108.146 153.689 113.582 153.794 118.721 155.624C123.577 157.357 127.885 160.365 131.878 163.566C136.064 166.916 140.005 170.57 144.235 173.865C148.267 177.002 152.62 179.881 157.543 181.404C162.766 183.022 168.279 182.798 173.442 181.062C174.187 180.81 174.92 180.534 175.647 180.23C176.14 180.024 176.14 179.427 175.647 179.221C174.763 178.854 174.061 178.015 173.54 177.222C172.845 176.167 172.328 175 171.891 173.82C171.07 171.591 170.511 169.26 170.092 166.927C170.026 166.556 169.963 166.186 169.903 165.812C169.886 165.704 169.872 165.592 169.854 165.484C169.844 165.417 169.82 165.232 169.854 165.494C169.68 165.669 169.505 165.843 169.33 166.018C172.276 165.718 175.221 165.421 178.166 165.12C178.589 165.078 179.008 165.033 179.431 164.991C179.783 164.956 180.136 164.558 179.885 164.201C177.998 161.557 176.108 158.912 174.222 156.267C173.956 155.894 173.687 155.52 173.421 155.146C173.317 155.401 173.212 155.659 173.107 155.914C176.342 155.128 179.574 154.339 182.809 153.553C183.27 153.441 183.728 153.329 184.189 153.217C184.388 153.168 184.601 152.931 184.573 152.711C184.42 151.457 184.154 150.209 183.815 148.99C183.26 146.985 182.474 144.826 180.957 143.337C180.88 143.631 180.804 143.921 180.727 144.214C182.561 143.959 184.28 142.771 185.747 141.716C187.249 140.633 188.675 139.438 190.037 138.188C190.324 137.926 190.61 137.66 190.886 137.388C191.106 137.171 191.092 136.706 190.782 136.563C187.679 135.148 184.58 133.733 181.478 132.315C181.038 132.116 180.601 131.913 180.161 131.714C180.196 131.99 180.231 132.262 180.266 132.538C181.345 131.172 182.421 129.803 183.501 128.437C185.23 126.243 186.963 124.049 188.692 121.855C189.091 121.352 189.485 120.849 189.884 120.345C190.226 119.912 189.796 119.185 189.248 119.521C188.151 120.195 186.994 120.779 185.841 121.345C182.98 122.746 180.011 123.937 176.978 124.908C172.922 126.208 168.729 127.12 164.478 127.458C159.688 127.839 154.835 127.49 150.21 126.148C144.973 124.629 140.197 121.841 136.21 118.13C135.655 117.613 135.117 117.079 134.589 116.53C134.408 116.338 134.027 116.314 133.849 116.53C132.801 117.788 131.756 119.042 130.708 120.3C128.206 123.305 125.701 126.309 123.2 129.314C120.164 132.958 117.128 136.601 114.096 140.245C111.482 143.383 108.869 146.52 106.252 149.657C104.984 151.181 103.698 152.69 102.448 154.224C102.43 154.244 102.413 154.265 102.395 154.286C101.966 154.8 102.703 155.548 103.136 155.027C104.184 153.769 105.229 152.515 106.277 151.257C108.778 148.253 111.283 145.248 113.785 142.244C116.821 138.6 119.857 134.956 122.889 131.312C125.502 128.175 128.116 125.037 130.732 121.9C131.592 120.866 132.455 119.835 133.314 118.801C133.709 118.326 134.205 117.854 134.537 117.334C134.551 117.313 134.572 117.292 134.589 117.271C134.341 117.271 134.097 117.271 133.849 117.271C137.804 121.383 142.597 124.622 147.984 126.533C152.645 128.185 157.63 128.811 162.56 128.618C167.007 128.447 171.42 127.64 175.689 126.393C179.022 125.418 182.278 124.174 185.419 122.7C186.418 122.232 187.403 121.739 188.374 121.215C188.811 120.981 189.325 120.765 189.716 120.457C189.733 120.443 189.754 120.433 189.775 120.422C189.562 120.146 189.353 119.874 189.14 119.598C188.06 120.964 186.984 122.333 185.904 123.699C184.175 125.893 182.442 128.087 180.713 130.281C180.314 130.784 179.92 131.288 179.521 131.791C179.336 132.028 179.287 132.458 179.626 132.615C182.729 134.03 185.828 135.445 188.93 136.864C189.37 137.063 189.807 137.265 190.247 137.464C190.212 137.188 190.177 136.916 190.142 136.64C188.018 138.729 185.649 140.752 183.043 142.209C182.233 142.663 181.373 143.072 180.444 143.197C180.042 143.253 179.958 143.823 180.213 144.074C181.625 145.461 182.32 147.498 182.83 149.364C183.047 150.164 183.228 150.971 183.375 151.788C183.42 152.033 183.459 152.278 183.497 152.526C183.508 152.595 183.511 152.672 183.529 152.742C183.483 152.564 183.518 152.658 183.525 152.707C183.654 152.54 183.78 152.372 183.909 152.201C180.674 152.987 177.443 153.776 174.208 154.562C173.746 154.674 173.289 154.786 172.828 154.898C172.52 154.971 172.317 155.394 172.513 155.666C174.4 158.311 176.29 160.956 178.176 163.601C178.442 163.974 178.711 164.348 178.976 164.722C179.127 164.46 179.277 164.198 179.431 163.932C176.485 164.233 173.54 164.53 170.595 164.83C170.172 164.872 169.753 164.918 169.33 164.96C169.079 164.984 168.764 165.18 168.806 165.484C169.009 167 169.309 168.502 169.666 169.99C170.291 172.604 171.091 175.318 172.545 177.603C173.247 178.707 174.138 179.71 175.367 180.223C175.367 179.888 175.367 179.549 175.367 179.214C170.249 181.334 164.705 182.131 159.279 180.793C154.353 179.577 149.962 176.876 145.944 173.858C141.675 170.647 137.751 167.01 133.618 163.628C129.569 160.316 125.293 157.179 120.437 155.163C115.462 153.099 110.071 152.54 104.788 153.623C104.062 153.773 103.339 153.951 102.626 154.15C101.979 154.339 102.255 155.348 102.905 155.167Z" fill="#1D0932"/>
<path d="M98.4065 36.7203C102.295 36.7727 106.176 36.1963 109.883 35.0294C110.526 34.8268 110.25 33.8136 109.604 34.0197C105.977 35.1621 102.204 35.7246 98.403 35.6722C97.7323 35.6617 97.7323 36.7098 98.4065 36.7203Z" fill="#1D0932"/>
<path d="M101.829 155.413C101.798 155.434 101.763 155.465 101.731 155.49C101.633 155.566 101.536 155.64 101.431 155.731C93.3534 162.058 53.246 192.33 11.2417 177.58C11.3919 177.398 11.5142 177.203 11.633 177C11.64 177 11.64 176.993 11.64 176.993C13.1772 174.425 14.3685 171.658 15.1651 168.772C15.497 167.606 15.759 166.421 15.9546 165.216C15.9162 165.202 15.8708 165.177 15.8359 165.157C15.8813 164.929 15.9197 164.695 15.9546 164.465C11.5561 162.512 7.77247 157.932 2.52148 158.913C2.6787 158.274 2.82194 157.677 2.91278 157.159L2.91976 157.152C2.91976 157.138 2.92675 157.132 2.93374 157.114C3.81414 155.531 5.15571 154.267 6.52872 153.082C16.3844 144.547 28.3991 139.01 39.6382 132.393C45.3119 129.056 55.9117 120.588 56.1074 120.438H56.1143C56.9808 120.417 57.8472 120.424 58.7066 120.459C58.9687 120.473 59.2342 120.479 59.5067 120.497C65.383 120.881 71.1756 122.646 76.2484 125.664C81.1011 128.557 85.2201 132.498 89.2203 136.484C94.6705 141.913 100.215 147.915 101.829 155.413Z" fill="#FFFFA5"/>
<path d="M101.568 154.959C100.387 155.867 99.3387 156.699 98.0984 157.614C96.5193 158.781 94.9122 159.916 93.2842 161.013C88.7773 164.056 84.0923 166.841 79.2571 169.325C73.2515 172.41 67.0013 175.03 60.545 177.018C53.3865 179.222 45.9729 180.644 38.486 180.98C30.3702 181.343 22.2265 180.407 14.4426 178.066C13.4154 177.758 12.3988 177.423 11.3891 177.07C11.466 177.364 11.5428 177.654 11.6197 177.947C12.266 177.119 12.7551 176.148 13.2303 175.212C13.7369 174.212 14.1945 173.185 14.6033 172.141C15.4592 169.95 16.0881 167.672 16.4724 165.352C16.5073 165.132 16.4514 164.87 16.2313 164.762C16.1929 164.741 16.151 164.724 16.1125 164.703C16.1929 164.898 16.2733 165.097 16.3536 165.293C16.399 165.062 16.4375 164.832 16.4724 164.601C16.5073 164.392 16.4549 164.109 16.2313 164.011C11.6581 161.953 7.87099 157.436 2.39641 158.407C2.61302 158.62 2.82613 158.837 3.04274 159.053C3.13357 158.69 3.22441 158.323 3.30476 157.956C3.3397 157.792 3.38162 157.624 3.40608 157.457C3.37464 157.478 3.3397 157.499 3.30826 157.523C3.33621 157.488 3.36416 157.453 3.38861 157.418C3.64016 156.842 4.08036 156.307 4.48562 155.829C5.33109 154.829 6.3198 153.963 7.3155 153.114C9.36628 151.364 11.5184 149.739 13.7334 148.202C18.1529 145.138 22.8134 142.444 27.5089 139.828C31.9738 137.337 36.54 134.982 40.8757 132.271C44.1213 130.241 47.2062 127.946 50.2597 125.64C52.3594 124.054 54.4206 122.422 56.4959 120.812C56.3736 120.864 56.2478 120.913 56.1255 120.965C58.1274 120.965 60.1048 121.011 62.0892 121.283C64.0806 121.556 66.051 121.992 67.9691 122.576C71.868 123.764 75.5119 125.608 78.8239 127.974C82.1534 130.349 85.1369 133.169 88.0402 136.04C90.7408 138.713 93.4274 141.428 95.7612 144.432C98.3255 147.737 100.429 151.441 101.33 155.556C101.473 156.216 102.487 155.937 102.34 155.277C101.386 150.924 99.1221 147.039 96.4005 143.559C93.5602 139.932 90.2447 136.669 86.9257 133.487C83.432 130.136 79.7078 126.939 75.449 124.595C71.2287 122.275 66.5786 120.794 61.8062 120.19C60.6603 120.043 59.5074 119.959 58.3545 119.917C57.7361 119.896 57.1212 119.893 56.5028 119.9C56.1814 119.903 55.9858 119.896 55.7203 120.088C55.2172 120.452 54.742 120.864 54.2529 121.245C51.8633 123.117 49.4491 124.959 47.0036 126.754C44.2925 128.746 41.543 130.685 38.6327 132.379C34.4788 134.8 30.2444 137.075 26.0555 139.429C21.8771 141.774 17.7371 144.191 13.7788 146.895C11.8188 148.233 9.9043 149.641 8.05615 151.137C6.26041 152.59 4.38081 154.085 3.04274 155.989C2.88203 156.22 2.72132 156.454 2.58507 156.699C2.57109 156.723 2.43135 156.964 2.44882 156.971C2.48725 156.908 2.52218 156.849 2.56061 156.786C2.49423 156.852 2.45231 156.929 2.42436 157.016C2.33702 157.24 2.32654 157.527 2.27413 157.761C2.19727 158.1 2.11692 158.435 2.03307 158.77C1.93175 159.183 2.28811 159.483 2.6794 159.417C7.71727 158.526 11.4974 163.022 15.7073 164.916C15.6269 164.72 15.5466 164.521 15.4662 164.325C15.4278 164.556 15.3894 164.786 15.3474 165.017C15.3055 165.234 15.3719 165.499 15.5885 165.607C15.6269 165.628 15.6689 165.646 15.7073 165.667C15.6269 165.471 15.5466 165.272 15.4662 165.076C15.1029 167.277 14.5194 169.443 13.7264 171.529C13.3491 172.521 12.9228 173.493 12.4512 174.443C11.99 175.369 11.5219 176.389 10.886 177.206C10.638 177.524 10.7148 177.944 11.1166 178.083C18.9459 180.822 27.2224 182.157 35.5129 182.105C43.1256 182.056 50.7103 180.871 58.0401 178.845C64.7374 176.993 71.2356 174.443 77.4753 171.393C82.5936 168.895 87.5441 166.055 92.306 162.931C95.3804 160.912 98.3745 158.774 101.281 156.517C101.557 156.3 101.83 156.08 102.109 155.864C102.626 155.458 102.102 154.55 101.568 154.959Z" fill="#1D0932"/>
<path d="M55.9898 119.872C55.9164 119.939 55.8361 119.998 55.7557 120.061C55.7033 120.11 55.6684 120.166 55.6474 120.229C55.616 120.292 55.5985 120.358 55.602 120.431C55.5985 120.505 55.616 120.571 55.6474 120.634C55.6684 120.701 55.7033 120.756 55.7557 120.802C55.7907 120.83 55.8256 120.858 55.8605 120.882C55.9409 120.931 56.0317 120.952 56.1261 120.952C56.1715 120.945 56.2204 120.938 56.2658 120.935C56.3531 120.91 56.43 120.865 56.4964 120.798C56.5732 120.735 56.6571 120.676 56.7305 120.61C56.7829 120.561 56.8178 120.505 56.8388 120.442C56.8702 120.379 56.8877 120.313 56.8842 120.239C56.8877 120.166 56.8702 120.1 56.8388 120.037C56.8178 119.97 56.7829 119.914 56.7305 119.869C56.6955 119.841 56.6606 119.813 56.6256 119.789C56.5453 119.74 56.4545 119.719 56.3601 119.719C56.3147 119.726 56.2658 119.733 56.2204 119.736C56.133 119.761 56.0527 119.806 55.9898 119.872Z" fill="#1D0932"/>
<path d="M134.218 116.907C130.676 123.831 127.182 128.817 125.509 130.815C118.186 139.546 110.779 148.346 101.829 155.414C100.218 147.917 94.6701 141.914 89.2235 136.482C85.2232 132.495 81.1007 128.555 76.2515 125.662C71.1822 122.64 65.3862 120.879 59.5098 120.495C59.2373 120.481 58.9753 120.474 58.7098 120.456C57.9202 120.411 57.1272 120.345 56.3516 120.247C68.1811 110.852 78.2079 99.3546 83.693 85.5895C83.7768 85.3694 83.8677 85.1528 83.948 84.9327C84.0668 84.6148 84.1891 84.3003 84.3009 83.9824C84.3847 84.0034 84.4651 84.0278 84.549 84.0488C89.5204 85.4288 94.5094 86.8578 99.3621 88.5836C99.9735 88.8037 100.574 89.0203 101.179 89.2474C102.384 89.6981 103.582 90.1663 104.774 90.6624C105.368 90.9034 105.958 91.1584 106.545 91.424C107.712 91.9375 108.865 92.479 110.004 93.045C111.164 93.6249 112.31 94.2363 113.438 94.8757C122.298 99.917 130.201 107.338 134.117 116.662V116.669H134.124C134.152 116.753 134.19 116.83 134.218 116.907Z" fill="#6C43BF"/>
<path d="M133.767 116.642C132.205 119.692 130.507 122.672 128.645 125.548C127.468 127.364 126.227 129.146 124.837 130.806C120.222 136.308 115.582 141.807 110.513 146.904C107.648 149.78 104.647 152.522 101.464 155.041C101.758 155.118 102.048 155.195 102.341 155.272C100.696 147.743 95.2944 141.811 90.0085 136.514C87.1052 133.604 84.1461 130.725 80.89 128.206C77.6025 125.663 74.011 123.591 70.0946 122.173C67.9564 121.397 65.7484 120.817 63.5055 120.436C61.1333 120.035 58.7436 120.014 56.361 119.72C56.4832 120.017 56.609 120.318 56.7313 120.615C61.5141 116.81 66.0279 112.656 70.0946 108.086C74.0808 103.607 77.6409 98.7337 80.5371 93.4827C82.1931 90.4816 83.65 87.3514 84.8134 84.1232C84.5968 84.2455 84.3837 84.3677 84.1671 84.49C92.6672 86.8098 101.202 89.3358 109.143 93.2068C115.925 96.5118 122.227 100.896 127.185 106.622C128.523 108.167 129.749 109.805 130.839 111.531C131.377 112.38 131.88 113.25 132.348 114.141C132.582 114.584 132.806 115.035 133.023 115.489C133.131 115.716 133.236 115.944 133.337 116.174C133.375 116.258 133.41 116.342 133.449 116.426C133.487 116.509 133.522 116.593 133.557 116.677C133.616 116.848 133.627 116.845 133.592 116.674C133.592 116.957 133.833 117.198 134.116 117.198C134.12 117.198 134.12 117.198 134.123 117.198C133.955 117.068 133.788 116.943 133.616 116.813C133.641 116.894 133.672 116.971 133.707 117.048C133.819 117.31 134.053 117.491 134.354 117.414C134.602 117.348 134.829 117.03 134.72 116.768C134.686 116.691 134.654 116.614 134.63 116.534C134.553 116.314 134.368 116.15 134.123 116.15C134.12 116.15 134.12 116.15 134.116 116.15C134.291 116.324 134.465 116.499 134.64 116.674C134.64 116.307 134.333 115.853 134.186 115.521C133.987 115.084 133.781 114.651 133.568 114.221C133.159 113.404 132.719 112.604 132.247 111.821C131.297 110.228 130.228 108.712 129.071 107.262C126.765 104.366 124.093 101.773 121.193 99.4744C114.646 94.2863 107.026 90.7332 99.1864 87.9697C94.3441 86.2613 89.4006 84.8324 84.4466 83.4803C84.1566 83.4 83.8981 83.5782 83.8002 83.8472C81.7774 89.4545 78.8707 94.7509 75.4643 99.6316C72.0336 104.547 68.0333 109.054 63.6942 113.184C61.2276 115.531 58.6493 117.757 55.9836 119.877C55.5819 120.195 55.9627 120.723 56.354 120.772C58.4362 121.027 60.5324 121.037 62.6076 121.355C64.599 121.659 66.5695 122.12 68.4875 122.739C72.3131 123.965 75.8731 125.834 79.1187 128.192C82.4063 130.578 85.3584 133.394 88.2407 136.249C90.9133 138.897 93.5685 141.59 95.8639 144.578C98.3758 147.848 100.434 151.499 101.321 155.558C101.415 155.981 101.911 156.016 102.198 155.789C107.872 151.299 112.941 146.115 117.738 140.71C120.141 138.003 122.479 135.236 124.809 132.465C126.287 130.704 127.67 128.909 128.945 126.994C131.049 123.843 132.939 120.548 134.668 117.177C134.979 116.572 134.074 116.041 133.767 116.642Z" fill="#1D0932"/>
<path d="M15.84 165.152C15.6583 166.124 15.4347 167.074 15.1692 168.014C14.3692 170.899 13.1813 173.663 11.6441 176.234C11.4869 176.489 11.3367 176.737 11.1305 176.957C7.71024 176.248 2.323 174.103 0.981435 170.969C-0.0596776 168.534 1.36574 163.489 2.323 159.706C7.63338 158.577 11.431 163.157 15.84 165.152Z" fill="#1D0932"/>
<path d="M15.3361 165.01C14.9448 167.082 14.3649 169.118 13.5963 171.082C13.2225 172.043 12.7962 172.979 12.3316 173.898C11.8774 174.792 11.4232 175.823 10.7594 176.581C10.9306 176.535 11.0983 176.49 11.2695 176.445C8.506 175.865 5.59927 174.806 3.36682 173.035C2.38859 172.259 1.5012 171.284 1.24965 170.027C0.959679 168.58 1.2217 167.001 1.48373 165.569C1.83659 163.637 2.35016 161.74 2.83228 159.836C2.71001 159.958 2.58773 160.08 2.46545 160.203C7.54175 159.165 11.3568 163.661 15.5772 165.597C16.1851 165.876 16.7196 164.971 16.1047 164.692C13.764 163.619 11.7551 161.97 9.52615 160.702C7.25876 159.413 4.79572 158.658 2.18596 159.189C2.01477 159.224 1.86104 159.389 1.81912 159.556C1.36494 161.345 0.886312 163.134 0.536945 164.947C0.226008 166.561 -0.0499913 168.262 0.177097 169.904C0.585856 172.895 3.5974 174.719 6.11633 175.847C7.68149 176.549 9.31653 177.098 10.9935 177.451C11.1682 177.489 11.3778 177.461 11.5036 177.315C12.2023 176.518 12.6879 175.494 13.1666 174.558C13.6522 173.608 14.0924 172.633 14.4907 171.644C15.3152 169.59 15.9335 167.452 16.3458 165.279C16.4716 164.629 15.4619 164.349 15.3361 165.01Z" fill="#1D0932"/>
<path d="M97.822 12.2828C97.4691 12.426 97.1023 12.5204 96.7285 12.5903C96.8228 12.9257 96.9136 13.2645 97.0079 13.5999C97.3748 13.5091 97.7381 13.4043 98.1015 13.2925C98.2307 13.2541 98.346 13.1702 98.4159 13.0514C98.4823 12.9396 98.5102 12.7719 98.4683 12.6461C98.4264 12.5204 98.3495 12.3981 98.2272 12.3317C98.1015 12.2724 97.9582 12.2409 97.822 12.2828C97.4621 12.3946 97.0988 12.5029 96.7285 12.5903C96.6027 12.6217 96.4804 12.7195 96.414 12.8313C96.3476 12.9431 96.3197 13.1108 96.3616 13.2366C96.4035 13.3623 96.4804 13.4847 96.6027 13.551C96.7319 13.6209 96.8612 13.6314 97.0079 13.6034C97.3783 13.53 97.7486 13.4357 98.1015 13.296C98.1713 13.2785 98.2307 13.2471 98.2796 13.2017C98.3355 13.1632 98.381 13.1143 98.4159 13.0549C98.4823 12.9431 98.5102 12.7754 98.4683 12.6496C98.4264 12.5239 98.3495 12.4016 98.2272 12.3352C98.1085 12.2759 97.9477 12.2304 97.822 12.2828Z" fill="#1D0932"/>
<path d="M10.7869 176.859C9.29511 176.325 7.82078 175.731 6.37091 175.095C6.11238 174.983 5.80843 175.018 5.65471 175.284C5.52544 175.507 5.58134 175.888 5.84336 176C7.38058 176.671 8.93177 177.303 10.5109 177.869C10.7764 177.963 11.0839 177.761 11.1572 177.502C11.2306 177.212 11.0524 176.957 10.7869 176.859Z" fill="#1D0932"/>
<path d="M134.291 116.772C134.232 116.741 134.186 116.706 134.134 116.674H134.127V116.667C130.211 107.339 122.308 99.9185 113.448 94.8806C104.413 89.7344 94.348 86.7579 84.3142 83.9874C84.6845 83.0022 85.0234 81.9995 85.3379 80.9829C86.6934 76.6507 87.5668 72.1823 88.5835 67.7628C91.0465 57.0198 94.3375 46.4584 98.4077 36.2045C98.2435 36.2045 98.0828 36.1975 97.9186 36.1975C97.4294 36.1835 96.9229 36.1591 96.4722 35.9704C95.9516 35.7503 95.5464 35.3521 95.1551 34.9538C91.3365 31.0828 87.7485 26.9742 84.419 22.6665C83.8845 21.9748 83.343 21.2516 83.1229 20.3991C82.8678 19.3965 83.0775 18.3413 83.2976 17.3247C83.5316 16.2312 83.7727 15.1342 84.0068 14.0337C84.171 13.2581 84.3387 12.4755 84.5099 11.6894C88.276 13.618 92.7584 14.1245 96.874 13.1044C97.2652 13.0275 97.6356 12.9297 97.9675 12.7969C102.233 11.4169 105.902 8.3355 108.04 4.41211C117.305 8.41236 116.327 26.9323 123.492 34.6218C125.127 36.3861 127.122 37.7626 128.939 39.3313C153.517 65.4884 143.79 98.1018 134.291 116.772Z" fill="#FFFFA5"/>
<path d="M134.554 116.318C134.415 116.231 134.296 116.147 134.125 116.147C134.299 116.322 134.474 116.496 134.649 116.671C134.649 116.329 134.362 115.895 134.226 115.591C134.034 115.162 133.831 114.739 133.622 114.316C133.202 113.474 132.752 112.653 132.27 111.846C131.312 110.243 130.233 108.709 129.069 107.249C126.68 104.251 123.895 101.575 120.873 99.2167C114.291 94.081 106.654 90.5628 98.8072 87.8308C94.0838 86.1853 89.2695 84.8123 84.4482 83.4777C84.5705 83.6908 84.6928 83.9074 84.8151 84.1241C87.0929 77.9927 88.1865 71.5154 89.7272 65.1779C91.2504 58.9137 93.0531 52.7229 95.1249 46.6195C96.2988 43.1608 97.5635 39.7335 98.9085 36.3342C99.0378 36.0092 98.7129 35.6738 98.402 35.6703C97.4587 35.6598 96.6516 35.6284 95.918 34.9646C95.1808 34.2973 94.5065 33.5427 93.8218 32.823C92.4348 31.3626 91.0792 29.8743 89.7586 28.3546C88.459 26.8593 87.1943 25.3395 85.961 23.7883C85.3426 23.0093 84.6823 22.2407 84.1478 21.3952C83.5958 20.5253 83.4456 19.6344 83.5783 18.6143C83.7251 17.4998 84.0255 16.3923 84.2596 15.2918C84.5111 14.1319 84.7522 12.9719 85.0072 11.8155C84.7522 11.9203 84.4937 12.0252 84.2386 12.13C87.7078 13.8803 91.6557 14.4987 95.4952 13.9013C99.0029 13.3563 102.273 11.7003 104.872 9.29312C106.315 7.95504 107.534 6.38638 108.485 4.66401C108.247 4.72689 108.006 4.78979 107.768 4.85268C110.724 6.14883 112.506 8.92631 113.774 11.7737C115.297 15.1974 116.206 18.8693 117.264 22.4503C118.284 25.9091 119.367 29.4621 121.278 32.547C122.389 34.3427 123.839 35.8101 125.46 37.1551C126.481 38.0041 127.602 38.7727 128.559 39.6915C129.527 40.6173 130.393 41.7039 131.246 42.738C137.318 50.0852 141.451 58.8613 143.079 68.2592C144.511 76.5253 144.022 85.0428 142.265 93.218C140.693 100.527 138.139 107.612 134.904 114.344C134.554 115.067 134.198 115.787 133.835 116.503C133.531 117.104 134.432 117.635 134.74 117.031C138.094 110.435 140.812 103.489 142.621 96.3064C144.676 88.1382 145.546 79.5997 144.56 71.2114C143.467 61.8833 140.046 52.985 134.572 45.3478C133.038 43.2062 131.365 41.1659 129.572 39.2374C128.629 38.2243 127.424 37.4206 126.358 36.5402C125.366 35.7227 124.395 34.8703 123.553 33.8991C121.226 31.2124 119.989 27.6838 118.938 24.3474C117.781 20.679 116.88 16.9233 115.528 13.3178C114.385 10.2713 112.883 7.11655 110.238 5.09372C109.638 4.63256 108.991 4.24832 108.3 3.94438C108.044 3.83258 107.73 3.86046 107.583 4.13296C106.015 6.97681 103.677 9.3525 100.844 10.9491C97.7766 12.6785 94.2445 13.3458 90.7508 12.9859C88.6721 12.7728 86.6353 12.1649 84.7732 11.2251C84.4867 11.0819 84.0814 11.1902 84.0045 11.5396C83.5329 13.6812 83.0054 15.8333 82.628 17.9959C82.4499 19.0265 82.3975 20.0746 82.8027 21.0599C83.1696 21.9507 83.7914 22.6948 84.3784 23.446C87.072 26.9047 89.9333 30.2307 92.9483 33.4099C93.7589 34.2624 94.5519 35.2161 95.4743 35.9498C96.3512 36.6451 97.3364 36.7079 98.4159 36.7184C98.2482 36.4983 98.0805 36.2747 97.9093 36.0546C95.5092 42.1162 93.3711 48.2789 91.5194 54.5291C89.6818 60.7304 88.2424 67.0085 86.8065 73.3111C85.9959 76.8711 85.0876 80.4138 83.8124 83.841C83.7146 84.1066 83.9242 84.414 84.1792 84.4873C92.4872 86.7827 100.827 89.2038 108.621 92.9421C115.524 96.2506 121.96 100.639 127.029 106.424C128.399 107.989 129.656 109.649 130.774 111.399C131.326 112.265 131.847 113.153 132.325 114.061C132.574 114.529 132.808 115.001 133.035 115.476C133.136 115.689 133.234 115.902 133.332 116.116C133.381 116.224 133.426 116.329 133.475 116.437C133.506 116.507 133.611 116.923 133.611 116.668C133.611 116.951 133.852 117.192 134.135 117.192C134.104 117.202 134.069 117.209 134.037 117.22C134.6 117.579 135.127 116.675 134.554 116.318Z" fill="#1D0932"/>
<path d="M97.822 12.2828C97.4691 12.426 97.1023 12.5204 96.7285 12.5903C96.8228 12.9257 96.9136 13.2645 97.0079 13.5999C97.3748 13.5091 97.7381 13.4043 98.1015 13.2925C98.2307 13.2541 98.346 13.1702 98.4159 13.0514C98.4823 12.9396 98.5102 12.7719 98.4683 12.6461C98.4264 12.5204 98.3495 12.3981 98.2272 12.3317C98.1015 12.2724 97.9582 12.2409 97.822 12.2828C97.4621 12.3946 97.0988 12.5029 96.7285 12.5903C96.6027 12.6217 96.4804 12.7195 96.414 12.8313C96.3476 12.9431 96.3197 13.1108 96.3616 13.2366C96.4035 13.3623 96.4804 13.4847 96.6027 13.551C96.7319 13.6209 96.8612 13.6314 97.0079 13.6034C97.3783 13.53 97.7486 13.4357 98.1015 13.296C98.1713 13.2785 98.2307 13.2471 98.2796 13.2017C98.3355 13.1632 98.381 13.1143 98.4159 13.0549C98.4823 12.9431 98.5102 12.7754 98.4683 12.6496C98.4264 12.5239 98.3495 12.4016 98.2272 12.3352C98.1085 12.2759 97.9477 12.2304 97.822 12.2828Z" fill="#1D0932"/>
<path d="M102.628 11.1355C103.935 11.4395 105.13 12.0893 106.115 13.0605C107.586 14.5139 108.309 16.5228 108.47 18.5596C108.613 20.3623 108.379 22.1651 107.981 23.9189C107.83 24.5757 108.84 24.8552 108.99 24.1984C109.65 21.3056 109.926 18.1019 108.791 15.286C108.071 13.4903 106.807 11.9706 105.119 11.0063C104.431 10.6115 103.676 10.3076 102.904 10.1259C102.251 9.96868 101.968 10.9818 102.628 11.1355Z" fill="#1D0932"/>
<path d="M122.723 42.2022C127.185 46.6112 131.077 51.6771 133.711 57.3927C136.53 63.5066 137.694 70.3402 136.562 77.0096C135.807 81.464 134.123 85.6879 131.856 89.5833C131.517 90.1668 132.422 90.6943 132.76 90.1109C136.645 83.4275 138.731 75.7694 137.826 68.0274C137.047 61.358 134.263 55.1008 130.423 49.6402C128.362 46.7055 126.011 43.9805 123.46 41.4615C122.985 40.9864 122.245 41.7271 122.723 42.2022Z" fill="#1D0932"/>
<path d="M87.4308 3.55727C87.5357 3.31621 87.6579 3.06116 87.885 2.93189C88.0981 2.80962 88.3602 2.82009 88.6082 2.83756C91.8643 3.05067 95.4523 3.26379 98.0376 1.26891C98.4254 0.96845 98.8062 0.612133 99.2883 0.521298C99.7914 0.426969 100.295 0.636565 100.763 0.846185C102.999 1.84188 105.619 3.16594 107.914 4.21404C108.243 4.36427 108.393 4.74166 108.25 5.07705C106.971 8.05366 100.413 20.6902 84.3809 12.0084C84.3774 12.0049 86.3792 5.92598 87.4308 3.55727Z" fill="#1D0932"/>
<path d="M87.8828 3.82103C88.0261 3.5066 88.089 3.35634 88.4558 3.34935C88.7353 3.34585 89.0183 3.38434 89.2978 3.4018C89.9057 3.44024 90.5136 3.47167 91.125 3.48215C92.2394 3.50661 93.3574 3.46117 94.4614 3.28299C95.5235 3.10831 96.5681 2.77991 97.5079 2.24538C97.983 1.97287 98.3883 1.61654 98.8355 1.3056C99.4015 0.91082 99.8871 1.03309 100.495 1.29511C102.797 2.2943 105.026 3.45767 107.308 4.50577C107.587 4.63504 107.828 4.65952 107.723 4.96696C107.674 5.10321 107.601 5.23943 107.538 5.3687C107.391 5.67614 107.238 5.98013 107.077 6.27709C104.935 10.2459 101.403 13.5229 96.8266 14.302C92.6028 15.0182 88.316 13.5265 84.6407 11.5491C84.7211 11.7447 84.8014 11.9438 84.8818 12.1395C85.8041 9.35502 86.6985 6.51115 87.8828 3.82103C88.1518 3.20964 87.2505 2.6751 86.978 3.29348C85.7552 6.06745 84.8189 8.98817 83.8721 11.867C83.8022 12.0801 83.9175 12.3526 84.1132 12.4574C87.7396 14.4103 91.8796 15.8777 96.058 15.4585C98.9613 15.1685 101.637 13.9667 103.842 12.0661C105.505 10.6302 106.871 8.84147 107.926 6.91646C108.265 6.29808 108.964 5.26044 108.792 4.54424C108.642 3.91887 108.09 3.72321 107.563 3.47866C106.948 3.19217 106.34 2.90221 105.728 2.61223C104.523 2.03578 103.318 1.44886 102.106 0.886381C100.998 0.372812 99.7368 -0.413277 98.535 0.261001C98.0249 0.547481 97.6057 0.977172 97.0991 1.27763C96.5995 1.57459 96.065 1.80517 95.506 1.97286C94.3601 2.32223 93.1653 2.43057 91.9739 2.44454C91.3625 2.45153 90.7511 2.43402 90.1432 2.40608C89.5388 2.37813 88.917 2.28029 88.3126 2.30475C87.6523 2.33269 87.247 2.71703 86.985 3.29698C86.702 3.90488 87.6068 4.43591 87.8828 3.82103Z" fill="#1D0932"/>
<path d="M110.9 30.0145C110.645 31.1185 109.984 32.0129 109.01 32.7116C107.354 33.8994 105.299 34.4689 103.329 34.8741C101.551 35.241 99.7445 35.4471 97.9347 35.5904C97.2674 35.6428 97.2605 36.6909 97.9347 36.6385C100.908 36.4044 103.965 36.0411 106.781 35.0104C108.388 34.42 109.988 33.5815 111.033 32.184C111.452 31.6251 111.749 30.9788 111.906 30.2975C112.063 29.6372 111.053 29.3542 110.9 30.0145Z" fill="#1D0932"/>
<path d="M12.4217 164.97C17.8963 164.195 23.294 162.913 28.531 161.152C33.7855 159.384 38.8862 157.137 43.7355 154.447C46.464 152.935 49.1087 151.279 51.6661 149.493C52.2146 149.109 51.6905 148.201 51.1385 148.588C46.6282 151.74 41.8349 154.479 36.825 156.76C31.8151 159.042 26.5885 160.858 21.2467 162.189C18.2457 162.937 15.2062 163.527 12.1422 163.961C11.4784 164.055 11.7614 165.065 12.4217 164.97Z" fill="#1D0932"/>
<path d="M129.802 93.5548C129.802 93.3801 129.802 93.2089 129.802 93.0343C129.806 92.9609 129.788 92.8945 129.757 92.8316C129.736 92.7652 129.701 92.7093 129.649 92.6639C129.6 92.6115 129.544 92.5765 129.481 92.5556C129.418 92.5241 129.352 92.5067 129.278 92.5102C129.233 92.5172 129.184 92.5241 129.139 92.5276C129.051 92.5521 128.974 92.5975 128.908 92.6639C128.814 92.7652 128.754 92.891 128.754 93.0343C128.754 93.2089 128.754 93.3801 128.754 93.5548C128.751 93.6282 128.768 93.6945 128.8 93.7574C128.821 93.8238 128.856 93.8797 128.908 93.9251C128.957 93.9775 129.013 94.0124 129.076 94.0334C129.139 94.0648 129.205 94.0824 129.278 94.0789C129.324 94.0719 129.373 94.0649 129.418 94.0614C129.505 94.0369 129.582 93.9915 129.649 93.9251C129.743 93.8238 129.802 93.6981 129.802 93.5548Z" fill="#1D0932"/>
<path d="M52.916 146.021C52.916 146.129 52.916 146.234 52.916 146.342C52.916 147.016 53.9641 147.016 53.9641 146.342C53.9641 146.234 53.9641 146.129 53.9641 146.021C53.9641 145.346 52.916 145.343 52.916 146.021C52.916 146.129 52.916 146.234 52.916 146.342C52.916 147.016 53.9641 147.016 53.9641 146.342C53.9641 146.234 53.9641 146.129 53.9641 146.021C53.9641 145.346 52.916 145.343 52.916 146.021Z" fill="#1D0932"/>
<path d="M56.5598 149.14C57.234 149.14 57.234 148.092 56.5598 148.092C55.8855 148.092 55.882 149.14 56.5598 149.14Z" fill="#1D0932"/>
<path d="M61.7479 150.181C62.4222 150.181 62.4222 149.133 61.7479 149.133C61.0736 149.133 61.0736 150.181 61.7479 150.181Z" fill="#1D0932"/>
<path d="M107.324 141.368C107.352 141.109 107.408 141.252 107.425 141.172C107.432 141.175 107.439 141.179 107.443 141.182C107.488 141.21 107.481 141.182 107.422 141.102C107.415 140.955 107.394 140.819 107.397 140.669C107.411 140.229 107.439 139.788 107.464 139.352C107.506 138.503 107.541 137.654 107.593 136.805C107.635 136.106 107.698 135.327 108.11 134.73C108.411 134.293 109.06 133.898 109.595 134.129C110.164 134.373 110.381 135.173 110.814 135.586C111.209 135.963 111.73 136.173 112.275 136.187C113.434 136.214 114.538 135.421 115.146 134.482C115.967 133.213 115.842 131.55 115.894 130.108C115.939 128.864 116.208 127.711 116.792 126.61C117.843 124.626 119.479 123.036 120.907 121.335C122.469 119.476 123.888 117.38 123.891 114.861C123.891 114.187 122.843 114.187 122.843 114.861C122.839 117.205 121.411 119.141 119.954 120.846C118.406 122.659 116.631 124.402 115.632 126.603C115.038 127.913 114.863 129.238 114.832 130.67C114.801 132.12 114.818 133.811 113.49 134.726C113.075 135.013 112.537 135.236 112.027 135.11C111.373 134.946 111.129 134.202 110.734 133.73C109.77 132.578 108.075 132.997 107.272 134.111C106.769 134.806 106.629 135.69 106.562 136.522C106.486 137.521 106.458 138.524 106.405 139.523C106.367 140.288 106.112 141.427 106.786 142C107.387 142.507 108.288 142.14 108.365 141.375C108.439 140.697 107.39 140.7 107.324 141.368Z" fill="#1D0932"/>
</svg>
