<svg width="353" height="273" viewBox="0 0 353 273" fill="none" xmlns="http://www.w3.org/2000/svg">
<path d="M249.931 188.572C255.334 191.256 261.542 192.965 267.565 193.093C265.764 193.533 263.703 193.545 261.305 193.11C249.289 190.909 238.251 186.348 227.01 181.677C226.856 181.616 226.718 181.614 226.596 181.659C224.481 168.399 220.256 155.153 214.271 142.626C224.357 147.188 235.239 150.565 245.591 154.425C254.991 157.939 267.126 161.02 274 168.647C271.353 167.276 268.597 166.09 265.785 165.069C262.758 163.966 257.894 161.918 254.649 162.03C248.814 162.236 246.882 171.852 245.958 175.959C244.624 181.86 243.603 185.416 249.931 188.572Z" fill="#6C43BF"/>
<path d="M188.86 141.906C193.215 139.614 197.579 141.995 201.173 144.045C200.309 145.803 199.718 147.744 199.448 149.676C198.88 153.706 199.352 157.699 199.661 161.622C199.841 163.939 200.002 166.258 200.176 168.577C197.186 167.785 193.801 166.898 190.84 165.398C190.865 165.141 190.771 164.899 190.478 164.816C190.041 164.69 189.598 164.576 189.161 164.45C185.945 162.406 183.529 159.423 183.235 154.695C182.964 150.335 184.851 144.005 188.86 141.906Z" fill="#6C43BF"/>
<path d="M276.586 172.528C271.071 170.348 265.487 168.318 259.93 166.23C253.803 163.924 241.154 159.263 241.125 159.222C233.805 154.028 200.335 144.633 196.533 143.594C185.579 134.383 188.889 116.817 203.041 113.641C210.376 111.99 217.118 117.012 223.961 120.294C231.376 123.845 238.783 127.426 246.185 130.996C260.513 137.891 274.836 144.774 289.159 151.681C293.621 153.838 298.013 156.382 300.461 159.673C296.644 156.227 292.023 153.595 286.856 152.204C285.199 151.76 282.87 151.002 281.357 151.806C279.339 152.874 278.892 156.599 278.221 158.439C277.074 161.582 275.22 165.146 274.886 168.525C274.805 169.4 274.591 169.999 275.267 170.84C276.701 172.614 281.496 173.613 283.6 174.212C286.613 175.079 289.649 175.628 292.705 175.928C290.464 176.509 288.028 176.741 285.61 176.652C285.422 176.651 285.273 176.686 285.154 176.747C282.451 175.042 279.43 173.645 276.586 172.528Z" fill="#6C43BF"/>
<path d="M203.409 140.232C207.679 137.127 212.618 138.755 215.234 142.64C217.387 145.831 219.659 153.15 216.598 157.09C214.093 160.31 206.628 162.754 203.465 161.24C199.551 159.357 199.135 149.79 200.365 145.548C200.416 145.382 200.362 145.239 200.278 145.156C200.564 144.303 200.897 143.469 201.307 142.66C201.757 141.775 202.281 140.983 202.853 140.289C203.013 140.372 203.209 140.377 203.409 140.232Z" fill="#FFFFA5"/>
<path d="M244.481 162.005C247.574 162.884 250.366 164.273 253.158 165.787C254.8 169.317 253.815 172.846 251.596 176.204C250.893 177.265 250.147 178.126 249.335 178.775C246.274 178.914 243.359 178.787 240.379 177.794C238.822 177.271 236.628 176.588 235.887 175.063C235.066 173.358 236.07 170.394 236.59 168.653C237.032 167.194 237.534 165.595 238.288 164.261C238.906 163.181 239.981 161.642 241.202 161.256C241.963 161.018 243.78 161.809 244.481 162.005Z" fill="#FFFFA5"/>
<path d="M253.134 139.313C256.693 140.398 259.628 142.775 261.862 145.894C262.015 146.114 262.24 146.143 262.433 146.072C262.693 147.752 262.509 149.674 261.705 151.901C260.536 155.175 258.319 157.569 255.693 159.15C252.222 159.088 248.856 158.632 245.62 157.502C245.132 157.333 243.988 157.141 243.648 156.734C242.566 155.431 242.935 153.47 243.479 151.917C244.138 150.016 244.827 148.111 245.536 146.23C246.147 144.606 246.656 142.742 247.469 141.214C249.019 138.292 250.661 138.555 253.134 139.313Z" fill="#FFFFA5"/>
<path d="M200.912 168.6C201.097 170.533 201.302 172.468 201.551 174.376C202.48 181.467 205.219 187.592 209.104 192.764C198.653 190.081 188.094 187.767 177.664 185.009C166.382 182.019 155.17 178.82 144.021 175.398C138.724 173.77 133.182 172.407 128.115 170.143C123.25 167.979 117.431 162.704 119.72 155.849C122.024 148.931 129.78 148.335 135.045 149.409C140.904 150.612 146.631 152.58 152.365 154.209C164.717 157.711 197.158 167.981 200.912 168.6Z" fill="#6C43BF"/>
<path d="M200.196 168.678C200.641 173.321 201.151 177.915 202.68 182.349C204.039 186.288 206.047 189.968 208.538 193.303C208.845 192.894 209.152 192.489 209.466 192.076C201.202 189.962 192.888 188.071 184.607 186.014C176.338 183.962 168.124 181.699 159.934 179.35C155.799 178.164 151.674 176.953 147.55 175.702C143.487 174.471 139.401 173.325 135.353 172.045C129.995 170.35 123.592 168.258 120.883 162.819C119.655 160.357 119.657 157.605 120.792 155.102C121.901 152.663 124.074 151.048 126.61 150.3C129.015 149.594 131.619 149.6 134.07 149.998C137.914 150.619 141.687 151.814 145.404 152.927C155.473 155.947 165.563 158.906 175.615 161.97C180.509 163.459 185.404 164.958 190.31 166.417C193.478 167.36 196.651 168.34 199.862 169.127C200.201 169.212 200.537 169.292 200.886 169.352C201.894 169.516 202.078 167.937 201.065 167.771C200.006 167.596 199.449 167.398 198.391 167.11C196.688 166.643 194.987 166.147 193.298 165.646C188.497 164.234 183.711 162.773 178.924 161.317C169.029 158.306 159.113 155.377 149.205 152.411C145.106 151.185 141.023 149.906 136.857 148.947C134.098 148.311 131.334 147.923 128.507 148.291C125.934 148.621 123.363 149.579 121.48 151.415C119.389 153.461 118.242 156.417 118.352 159.338C118.547 164.658 123.085 168.792 127.627 170.862C131.508 172.633 135.641 173.812 139.729 175.004C143.832 176.196 147.906 177.472 152.002 178.682C160.427 181.175 168.882 183.545 177.378 185.787C185.798 188.009 194.279 189.941 202.735 192.009C204.779 192.507 206.827 193.017 208.87 193.541C209.592 193.725 210.307 193.005 209.798 192.314C207.391 189.082 205.466 185.529 204.148 181.712C202.664 177.415 202.198 172.933 201.771 168.431C201.669 167.43 200.095 167.662 200.196 168.678Z" fill="black"/>
<path d="M213.857 179.516C214.097 179.274 214.44 179.656 214.221 179.922C212.186 182.376 209.407 183.722 206.551 183.85C206.215 183.871 206.238 183.225 206.57 183.201C209.29 182.977 211.784 181.654 213.857 179.516Z" fill="white"/>
<path d="M214.406 180.153C214.145 180.117 213.88 180.079 213.619 180.043C213.617 179.827 213.615 179.611 213.614 179.395C213.577 179.396 213.467 179.567 213.443 179.6C213.352 179.71 213.254 179.813 213.161 179.917C212.979 180.112 212.777 180.305 212.567 180.494C212.124 180.889 211.649 181.245 211.152 181.566C210.294 182.116 209.19 182.567 208.213 182.791C207.676 182.913 207.124 182.918 206.588 183.024C206.194 183.102 207.001 183.147 207.076 183.439C207.107 183.557 207.093 183.593 207.047 183.706C207.031 183.747 207.015 183.788 206.997 183.833C206.619 183.986 206.518 184.056 206.703 184.036C206.77 184.036 206.838 184.022 206.901 184.02C207.21 183.987 207.525 183.939 207.833 183.884C208.989 183.653 210.112 183.246 211.15 182.674C212.431 181.962 213.548 181.065 214.568 180.018C214.885 179.693 214.738 179.088 214.417 178.839C214.025 178.535 213.568 178.678 213.247 179.001C212.225 180.037 211.038 180.917 209.737 181.51C209.087 181.812 208.454 182.032 207.783 182.178C207.442 182.252 207.102 182.31 206.759 182.351C206.306 182.407 205.923 182.469 205.645 182.878C205.419 183.223 205.369 183.686 205.522 184.068C205.759 184.63 206.272 184.725 206.82 184.692C207.527 184.649 208.228 184.53 208.911 184.341C210.37 183.937 211.74 183.277 212.945 182.352C213.642 181.816 214.312 181.192 214.865 180.51C215.221 180.074 215.284 179.501 214.943 179.028C214.579 178.526 213.874 178.47 213.402 178.848C212.548 179.504 213.56 180.828 214.406 180.153Z" fill="black"/>
<path d="M217.581 181.896C217.935 181.673 218.126 182.271 217.785 182.494C215.246 184.174 212.626 185.537 209.886 186.549C209.098 186.842 206.279 188.425 205.889 186.987C205.857 186.873 205.907 186.772 206 186.708L206.146 186.609C206.292 186.51 206.446 186.739 206.328 186.879C206.278 186.93 207.972 186.569 208.231 186.475C208.832 186.264 209.435 186.035 210.028 185.795C210.862 185.46 211.679 185.093 212.496 184.705C214.218 183.874 215.922 182.93 217.581 181.896Z" fill="white"/>
<path d="M217.983 182.57C218.019 182.553 218.054 182.541 218.084 182.528C217.951 182.552 217.814 182.574 217.682 182.598C217.669 182.592 217.656 182.587 217.644 182.582C217.535 182.498 217.43 182.415 217.315 182.333C217.537 181.827 217.52 181.687 217.26 181.906C217.208 181.937 217.159 181.973 217.107 182.004C216.955 182.102 216.809 182.197 216.658 182.291C216.369 182.472 216.076 182.652 215.78 182.826C215.181 183.181 214.568 183.52 213.95 183.847C212.7 184.5 211.414 185.083 210.107 185.585C209.358 185.87 208.624 186.217 207.872 186.5C207.519 186.631 207.14 186.756 206.773 186.774C206.734 186.773 206.726 186.781 206.63 186.763C206.593 186.758 206.549 186.756 206.514 186.747C206.581 186.763 206.591 186.762 206.538 186.746C206.53 186.743 206.528 186.747 206.53 186.743C206.54 186.865 206.56 186.755 206.559 186.744C206.542 186.886 206.524 187.028 206.503 187.168C206.515 187.137 206.529 187.101 206.542 187.07C206.457 187.185 206.373 187.295 206.29 187.416C206.364 187.343 206.435 187.3 206.516 187.234C206.389 187.291 206.269 187.346 206.143 187.403C206.174 187.4 206.2 187.385 206.23 187.382C206.093 187.368 205.96 187.356 205.821 187.336C205.846 187.346 205.874 187.362 205.895 187.371C205.786 187.286 205.682 187.203 205.567 187.121C205.585 187.149 205.601 187.171 205.617 187.193C205.565 187.064 205.516 186.942 205.464 186.814C205.466 186.845 205.474 186.874 205.476 186.906C205.493 186.764 205.511 186.622 205.532 186.482C205.418 186.719 205.401 186.958 205.486 187.202C205.578 187.464 205.847 187.664 206.119 187.685C206.699 187.723 207.361 187.495 207.925 187.362C208.959 187.115 209.978 186.671 210.967 186.252C213.457 185.203 215.84 183.906 218.153 182.489C218.524 182.263 218.545 181.656 218.312 181.343C218.03 180.964 217.575 180.982 217.203 181.212C215.063 182.529 212.837 183.715 210.538 184.692C209.986 184.927 209.427 185.144 208.864 185.36C208.586 185.464 208.306 185.562 208.028 185.666C207.545 185.842 208.051 185.67 207.953 185.693C207.903 185.708 207.848 185.722 207.793 185.736C207.472 185.813 207.153 185.885 206.826 185.954C206.685 185.985 206.543 186.01 206.404 186.037C206.29 186.052 206.002 186.045 206.326 186.072C206.537 186.233 206.744 186.393 206.959 186.556C206.959 186.556 206.959 186.556 206.957 186.55C206.958 186.755 206.952 186.968 206.953 187.173C207.393 186.232 206.349 185.425 205.546 185.981C204.923 186.408 204.835 187.167 205.261 187.752C205.973 188.739 207.345 188.396 208.321 188.059C209.418 187.677 210.51 187.186 211.584 186.739C213.18 186.081 214.733 185.298 216.234 184.422C216.701 184.153 217.159 183.869 217.618 183.582C218.006 183.337 218.497 183.118 218.709 182.686C219.188 181.734 218.369 180.694 217.38 181.114C216.431 181.482 217.032 182.968 217.983 182.57Z" fill="black"/>
<path d="M212.494 184.708C211.678 185.096 210.861 185.462 210.027 185.797C209.43 186.035 208.827 186.264 208.231 186.476C207.971 186.57 206.278 186.931 206.327 186.879C206.45 186.741 206.292 186.511 206.146 186.609L206 186.708C205.905 186.777 205.855 186.878 205.889 186.987C206.279 188.424 209.097 186.843 209.885 186.551C212.631 185.537 215.246 184.174 217.784 182.496C218.125 182.272 217.94 181.672 217.58 181.897C215.926 182.932 214.222 183.875 212.494 184.708Z" fill="#6C43BF"/>
<path d="M212.2 183.962C210.8 184.615 209.374 185.134 207.95 185.711C207.705 185.808 208.135 185.678 207.9 185.727C207.814 185.744 207.73 185.771 207.644 185.788C207.455 185.831 207.267 185.873 207.078 185.915C206.891 185.953 206.71 185.988 206.523 186.026C206.405 186.05 205.981 186.054 206.339 186.08C206.55 186.241 206.756 186.4 206.971 186.563C206.971 186.563 206.971 186.563 206.969 186.557C206.97 186.762 206.964 186.974 206.965 187.18C207.196 186.689 206.999 186.088 206.523 185.867C206.129 185.684 205.715 185.836 205.392 186.116C204.639 186.771 205.1 187.866 205.837 188.233C206.979 188.791 208.482 188.042 209.562 187.563C211.203 186.838 212.878 186.234 214.478 185.4C215.44 184.899 216.384 184.356 217.311 183.78C218.079 183.31 219.252 182.709 218.734 181.597C218.465 181.018 217.824 180.89 217.283 181.185C216.723 181.494 216.177 181.853 215.623 182.169C214.494 182.807 213.354 183.41 212.2 183.962C211.27 184.409 211.869 185.897 212.799 185.45C213.709 185.016 214.605 184.555 215.489 184.065C215.918 183.827 216.35 183.58 216.773 183.335C217.195 183.089 217.62 182.763 218.069 182.574C217.936 182.598 217.8 182.62 217.668 182.644C217.655 182.639 217.642 182.634 217.629 182.629C217.521 182.544 217.416 182.461 217.302 182.38C217.523 181.875 217.506 181.735 217.246 181.953C217.195 181.984 217.146 182.021 217.094 182.051C216.942 182.149 216.796 182.244 216.646 182.338C216.355 182.523 216.064 182.699 215.769 182.872C215.171 183.226 214.559 183.565 213.942 183.891C212.69 184.542 211.411 185.125 210.106 185.626C209.356 185.915 208.625 186.257 207.874 186.54C207.522 186.671 207.143 186.795 206.78 186.809C206.739 186.813 206.733 186.815 206.637 186.798C206.599 186.793 206.558 186.786 206.52 186.782C206.587 186.798 206.598 186.797 206.545 186.781C206.536 186.778 206.535 186.782 206.536 186.778C206.542 186.898 206.566 186.79 206.565 186.779C206.548 186.921 206.533 187.058 206.509 187.202C206.522 187.171 206.536 187.136 206.548 187.105C206.463 187.219 206.38 187.329 206.297 187.45C206.371 187.377 206.442 187.334 206.522 187.268C206.396 187.326 206.276 187.38 206.15 187.437C206.181 187.434 206.207 187.419 206.237 187.416C206.1 187.402 205.968 187.39 205.828 187.37C205.854 187.38 205.882 187.396 205.903 187.405C205.794 187.32 205.69 187.238 205.575 187.156C205.595 187.179 205.614 187.207 205.625 187.227C205.573 187.099 205.524 186.977 205.472 186.849C205.474 186.88 205.481 186.913 205.484 186.941C205.502 186.799 205.519 186.658 205.54 186.518C205.427 186.754 205.41 186.992 205.494 187.236C205.586 187.498 205.855 187.697 206.126 187.719C206.471 187.739 206.843 187.632 207.176 187.561C207.558 187.478 207.948 187.399 208.326 187.289C209.854 186.82 211.34 186.151 212.792 185.467C213.729 185.014 213.131 183.526 212.2 183.962Z" fill="black"/>
<path d="M213.857 179.516C211.784 181.654 209.29 182.978 206.571 183.202C206.237 183.23 206.212 183.87 206.552 183.85C209.412 183.723 212.188 182.372 214.221 179.922C214.44 179.656 214.097 179.274 213.857 179.516Z" fill="#6C43BF"/>
<path d="M212.667 178.77C211.704 179.828 210.596 180.74 209.396 181.374C208.797 181.696 208.216 181.936 207.603 182.106C207.292 182.192 206.982 182.262 206.67 182.316C206.258 182.388 205.909 182.463 205.643 182.877C205.425 183.225 205.362 183.683 205.486 184.053C205.679 184.598 206.139 184.672 206.632 184.617C207.274 184.547 207.913 184.404 208.538 184.192C209.873 183.738 211.137 183.036 212.265 182.074C212.915 181.521 213.545 180.88 214.072 180.187C214.41 179.745 214.489 179.178 214.197 178.73C213.887 178.249 213.252 178.221 212.805 178.609C212.014 179.307 212.881 180.567 213.672 179.87C213.44 179.84 213.199 179.817 212.965 179.792C212.972 179.579 212.978 179.366 212.985 179.154C212.951 179.156 212.845 179.329 212.823 179.362C212.736 179.475 212.644 179.579 212.557 179.681C212.387 179.876 212.195 180.077 211.994 180.27C211.577 180.676 211.134 181.045 210.673 181.38C209.875 181.954 208.859 182.44 207.967 182.698C207.477 182.838 206.975 182.869 206.493 182.991C206.133 183.083 206.857 183.095 206.918 183.381C206.942 183.496 206.927 183.532 206.882 183.645C206.866 183.686 206.849 183.727 206.833 183.767C206.485 183.933 206.391 184.006 206.555 183.977C206.616 183.975 206.678 183.958 206.735 183.954C207.016 183.909 207.303 183.85 207.583 183.784C208.638 183.513 209.67 183.069 210.631 182.466C211.817 181.717 212.859 180.795 213.824 179.721C214.123 179.389 214.013 178.798 213.732 178.565C213.385 178.279 212.97 178.439 212.667 178.77Z" fill="black"/>
<path d="M291.614 130.389C306.102 138.265 321.343 144.493 337.137 149.087C337.154 149.094 337.173 149.096 337.19 149.103C337.425 149.172 337.662 149.237 337.898 149.307C337.892 149.334 337.883 149.355 337.874 149.377C337.745 149.751 338.424 149.503 338.443 149.455L338.645 149.521L338.654 149.525L394.603 168.449L363.766 245.572L320.117 225.302C318.787 224.497 316.232 223.069 315.919 222.909C314.784 222.336 313.639 221.774 312.495 221.212C312.431 221.088 312.288 221.011 312.156 221.042C311.947 220.944 311.746 220.839 311.542 220.742C308.312 219.178 305.061 217.67 301.759 216.275C295.454 213.605 288.971 211.345 282.263 209.858C275.431 208.346 268.449 207.816 261.345 208.2C254.624 208.557 247.869 209.482 241.177 209.246C230.026 208.845 219.104 203.292 211.356 194.828C211.342 194.812 211.333 194.799 211.319 194.783C211.206 194.658 211.092 194.534 210.98 194.405C210.907 194.326 210.834 194.247 210.763 194.164C210.795 194.172 210.82 194.172 210.847 194.178L210.273 193.542L209.825 193.05L209.656 192.863C209.502 192.678 209.354 192.49 209.208 192.297C209.13 192.207 209.054 192.112 208.984 192.014C208.136 190.921 207.341 189.795 206.599 188.636C206.425 188.388 206.249 188.134 206.083 187.879C206.064 187.851 206.05 187.826 206.031 187.798C205.798 187.437 205.573 187.07 205.357 186.691L205.35 186.673C204.933 185.941 204.544 185.175 204.182 184.381L204.18 184.375C202.125 179.849 200.974 174.439 200.326 169.359C200.287 169.085 200.252 168.813 200.223 168.539C200.221 168.518 200.219 168.498 200.218 168.477C200.212 168.415 200.201 168.356 200.196 168.295C200.174 168.102 200.153 167.906 200.131 167.713C199.684 163.621 199.549 159.838 199.504 157.023C199.502 156.779 199.497 156.544 199.495 156.314C199.496 156.3 199.495 156.29 199.494 156.279C199.491 155.629 199.486 155.046 199.484 154.53C199.486 154.005 199.487 153.554 199.484 153.19C199.485 153.151 199.484 153.116 199.483 153.081C199.488 153.118 199.493 153.155 199.503 153.193C199.568 153.636 199.649 154.08 199.744 154.525C199.768 154.663 199.801 154.805 199.829 154.945C199.979 155.675 200.126 156.423 200.327 157.148C200.735 158.671 201.35 160.087 202.6 160.968C202.94 161.209 203.297 161.396 203.674 161.532C205.686 162.282 208.161 161.714 210.236 161.115C210.27 161.104 210.302 161.097 210.337 161.086C212.644 160.427 215.282 159.562 216.94 157.462C218.26 155.798 218.681 153.605 218.538 151.356C218.502 150.776 218.43 150.187 218.324 149.609C217.844 146.938 216.703 144.358 215.484 142.666C215.421 142.576 215.36 142.492 215.298 142.413C215.295 142.407 215.288 142.399 215.284 142.397C214.75 141.698 214.173 141.045 213.562 140.464C213.558 140.462 213.558 140.462 213.553 140.46C212.285 139.254 210.852 138.369 209.296 138.044C208.889 137.956 208.472 137.908 208.046 137.906C207.444 137.898 206.824 137.983 206.197 138.164C206.162 138.175 206.13 138.182 206.096 138.193C206.127 138.176 206.159 138.158 206.189 138.146C206.748 137.839 207.296 137.611 207.846 137.464C208.254 137.349 208.659 137.278 209.072 137.25C210.223 137.165 211.411 137.407 212.711 137.976C215.411 139.165 217.603 141.549 219.191 144.252C219.812 145.304 220.345 146.405 220.779 147.501C220.986 148.025 221.189 148.597 221.387 149.207C221.551 149.704 221.71 150.224 221.865 150.767C221.884 150.819 221.899 150.88 221.916 150.936C224.43 159.773 226.127 173.843 226.347 173.653C226.361 173.678 232.593 176.939 235.934 177.952C238.869 178.838 242.285 179.971 245.445 179.786C245.47 179.786 245.49 179.785 245.515 179.785C246.5 179.717 247.46 179.337 248.362 178.745C248.532 178.63 248.7 178.509 248.865 178.381C249.207 178.121 249.536 177.831 249.857 177.513C249.885 177.505 249.907 177.499 249.935 177.49C250.008 177.469 250.06 177.426 250.1 177.377C250.141 177.324 250.164 177.264 250.171 177.198C252.413 174.805 253.975 171.209 253.996 168.45C254.008 167.329 253.844 166.301 253.548 165.365C253.518 165.279 253.493 165.194 253.463 165.108C253.483 164.957 253.447 164.799 253.317 164.702C253.31 164.694 253.295 164.683 253.286 164.68C253.131 164.3 252.953 163.937 252.759 163.591C252.71 163.502 252.664 163.419 252.61 163.343C252.515 163.171 252.411 163.011 252.299 162.857C252.272 162.811 252.244 162.77 252.216 162.729C251.957 162.358 251.674 162.012 251.376 161.679C251.366 161.665 251.355 161.656 251.344 161.647C251.207 161.493 251.067 161.347 250.919 161.209C250.839 161.122 250.754 161.039 250.666 160.959C250.777 160.944 250.889 160.924 250.997 160.903C251.18 160.877 251.363 160.841 251.544 160.799C251.554 160.798 251.564 160.797 251.576 160.792C252.643 160.569 253.695 160.221 254.711 159.764C255.104 159.589 255.495 159.393 255.872 159.182C256.012 159.104 256.152 159.026 256.29 158.942C256.688 158.705 257.076 158.453 257.45 158.176C259.021 157.039 260.376 155.597 261.347 153.902C262.123 152.556 262.656 151.048 262.862 149.404C262.953 148.642 262.982 147.85 262.928 147.03C262.917 146.847 262.898 146.671 262.879 146.495C262.868 146.411 262.857 146.327 262.844 146.248C262.739 145.506 262.556 144.823 262.308 144.188C261.33 141.709 259.353 139.991 257.026 138.689C252.427 136.121 247.645 133.861 242.953 131.464C233.425 126.583 223.894 121.696 214.362 116.824C210.988 115.102 207.413 113.247 203.509 113.307C203.507 113.301 203.505 113.306 203.505 113.306C203.361 113.307 203.216 113.309 203.074 113.317C202.951 113.327 202.829 113.333 202.706 113.343C202.319 113.183 201.927 113.022 201.533 112.865C192.906 109.341 184.071 106.289 175.324 103.064C170.725 101.364 166.124 99.6683 161.525 97.9683C157.285 96.4017 152.592 95.2346 148.727 92.8162C144.678 90.2747 143.19 85.4343 146.244 80.7384C148.859 76.73 153.031 74.733 157.266 74.785C161.649 74.831 165.687 76.6294 169.554 78.3986C173.975 80.4193 178.43 82.3545 182.968 84.0946C201.467 91.1939 220.813 95.9139 239.3 103.043C257.761 110.162 274.271 120.959 291.614 130.389Z" fill="#6C43BF"/>
<path d="M194.08 87.1041C187.666 84.9329 181.329 82.5729 175.115 79.8645C169.725 77.5154 164.22 74.2393 158.219 73.9147C150.735 73.5045 141.166 80.6646 144.53 88.9857C146.313 93.3956 151.367 95.2075 155.488 96.6612C161.53 98.7935 167.552 100.963 173.562 103.187C179.661 105.436 185.791 107.609 191.885 109.886C194.863 110.997 197.835 112.136 200.781 113.339L200.97 113.414C201.299 113.546 201.595 113.649 201.866 113.728C202.192 113.818 202.49 113.878 202.785 113.921C203.392 114.005 204.001 114.019 204.876 114.1C206.495 114.245 208.051 114.733 209.549 115.327C216.159 117.975 222.451 121.765 228.787 125.01C235.307 128.353 241.816 131.712 248.367 134.988C252.103 136.86 257.154 138.691 260.001 142.004C260.868 143.012 261.531 144.158 261.892 145.486C261.964 145.754 262.026 146.032 262.072 146.314C262.145 146.752 262.187 147.206 262.192 147.676C262.254 152 259.895 155.58 256.531 157.827C256.273 158.002 256.003 158.168 255.737 158.325C255.241 158.61 254.729 158.873 254.198 159.098C253.877 159.243 253.546 159.375 253.209 159.499C252.386 159.797 251.531 160.022 250.663 160.173C250.636 160.177 250.604 160.184 250.577 160.188C249.843 160.313 249.744 161.144 250.212 161.61C250.269 161.667 250.329 161.726 250.384 161.788C250.569 161.971 250.741 162.159 250.9 162.357C250.962 162.427 251.023 162.496 251.079 162.568C251.1 162.591 251.116 162.613 251.13 162.638C251.298 162.84 251.452 163.05 251.593 163.266C252.071 163.97 252.44 164.71 252.695 165.473C253.464 167.731 253.289 170.204 252.19 172.715C251.487 174.325 250.566 175.872 249.357 177.035L249.355 177.04C248.726 177.644 248.015 178.146 247.213 178.502C246.766 178.701 246.287 178.858 245.776 178.957C245.718 178.964 245.659 178.975 245.602 178.982C245.096 179.069 244.563 179.099 244 179.068C237.793 178.726 232.58 175.576 227.043 173.198C227.13 172.77 226.76 171.722 226.705 171.352C226.33 169.002 225.967 166.658 225.568 164.309C224.838 159.982 224.108 155.555 222.893 151.298C222.874 151.236 222.86 151.17 222.836 151.106C222.676 150.539 222.501 149.972 222.314 149.41C222.16 148.915 221.989 148.424 221.813 147.935C221.435 146.894 220.944 145.802 220.349 144.723C217.406 139.356 211.97 134.282 205.828 137.474C205.752 137.513 205.688 137.562 205.635 137.62C205.157 138.096 205.392 139.11 206.145 139.013C206.18 139.012 206.212 139.006 206.251 138.996C206.317 138.978 206.383 138.964 206.448 138.95C206.449 138.946 206.454 138.948 206.454 138.948C206.513 138.937 206.567 138.924 206.626 138.912C210.121 138.225 213.157 140.344 215.188 143.44C215.19 143.446 215.19 143.446 215.193 143.452C216.172 144.948 216.917 146.669 217.365 148.416C217.443 148.741 217.517 149.064 217.577 149.386C217.984 151.519 217.927 153.621 217.289 155.317C215.908 158.994 211.443 160.273 207.951 160.942C205.441 161.426 202.848 161.126 201.658 158.595C200.993 157.17 200.694 155.523 200.442 153.944C200.392 153.636 200.342 153.327 200.294 153.024C200.27 152.875 200.201 152.748 200.111 152.652C199.942 152.466 199.688 152.369 199.444 152.371C199.167 152.37 198.902 152.487 198.786 152.74C198.742 152.826 198.719 152.932 198.719 153.056C198.721 153.127 198.718 153.195 198.72 153.265L198.718 153.27C198.742 158.061 198.843 162.843 199.327 167.6C199.35 167.853 199.377 168.107 199.404 168.362C199.409 168.388 199.409 168.413 199.413 168.44C199.444 168.721 199.473 168.996 199.508 169.269C199.655 170.477 199.822 171.683 200.026 172.885C200.506 175.704 201.175 178.409 202.075 180.998C203.418 184.884 205.277 188.508 207.776 191.871C208.026 192.214 208.287 192.553 208.557 192.884C208.604 192.953 208.654 193.013 208.707 193.079C208.88 193.292 209.057 193.507 209.235 193.718C209.472 194.007 209.721 194.29 209.974 194.576C209.999 194.66 210.043 194.738 210.104 194.807C218.854 204.62 230.949 210.381 244.14 210.227C251.617 210.147 259.047 208.933 266.528 209.004C273.974 209.075 281.312 210.288 288.44 212.407C302.769 216.663 315.653 224.238 329.129 230.502C340.561 235.815 351.989 241.125 363.42 246.438L364.004 244.979C354.522 240.571 345.042 236.168 335.559 231.764C331.138 229.708 326.709 227.649 322.284 225.591C321.572 225.261 320.854 224.949 320.161 224.573C314.696 221.631 309.237 218.797 303.535 216.323C290.049 210.467 275.985 206.775 261.187 207.575C253.658 207.983 246.018 209.277 238.478 208.446C231.584 207.69 224.972 204.986 219.322 201.005C216.501 199.017 213.938 196.718 211.623 194.16C211.6 194.056 211.542 193.954 211.453 193.853C209.84 192.069 208.448 190.204 207.252 188.258C207.246 188.26 207.248 188.256 207.248 188.256C207.1 188.018 206.961 187.783 206.821 187.548C206.819 187.542 206.816 187.536 206.814 187.53C206.788 187.495 206.764 187.456 206.744 187.418C206.715 187.367 206.685 187.319 206.66 187.27C206.656 187.268 206.656 187.268 206.657 187.264C206.653 187.262 206.655 187.258 206.655 187.258C206.645 187.244 206.636 187.23 206.631 187.218C206.627 187.217 206.624 187.211 206.624 187.211C206.498 186.991 206.377 186.774 206.262 186.553C206.256 186.556 206.258 186.552 206.258 186.552C206.134 186.328 206.012 186.1 205.896 185.869C205.891 185.868 205.889 185.862 205.886 185.856C205.002 184.159 204.25 182.405 203.617 180.59C202.674 177.899 201.989 175.072 201.51 172.115C201.369 171.252 201.246 170.392 201.139 169.533C201.071 169.018 201.013 168.507 200.96 167.994C200.953 167.986 200.957 167.977 200.954 167.971C200.645 165.111 200.482 162.244 200.39 159.372C201.397 161.332 203.01 162.743 205.81 162.763C210.064 162.792 216.15 160.882 218.307 156.913C218.868 155.883 219.209 154.706 219.357 153.457C219.49 152.33 219.469 151.143 219.308 149.944C218.993 147.669 218.184 145.35 216.994 143.327C215.853 141.378 214.361 139.701 212.626 138.595C214.682 139.506 216.416 141.424 217.815 143.68C219.078 145.707 220.071 148.01 220.796 150.106C220.834 150.221 220.872 150.336 220.915 150.452C220.912 150.461 220.919 150.469 220.917 150.473C221.24 151.438 221.501 152.349 221.707 153.162C223.145 158.917 224.063 164.797 224.981 170.652C225.166 171.826 225.223 173.147 225.71 174.238C225.732 174.281 225.851 174.369 225.975 174.443C225.949 174.433 225.921 174.417 225.897 174.402C225.94 174.429 225.986 174.453 226.018 174.47C226.005 174.465 225.99 174.454 225.979 174.445C226.174 174.553 226.379 174.66 226.574 174.767C227.711 175.386 228.892 175.943 230.057 176.489C233.102 177.93 236.202 179.07 239.47 179.904C241.346 180.385 243.389 180.809 245.329 180.645C246.761 180.525 248.133 180.084 249.332 179.106C252.089 176.864 254.21 173.358 254.706 169.735C254.719 169.641 254.73 169.551 254.741 169.461C254.746 169.438 254.744 169.417 254.748 169.394C254.953 167.456 254.591 165.644 253.811 164.009C253.7 163.766 253.576 163.532 253.441 163.298C253.266 162.98 253.072 162.669 252.86 162.37C252.861 162.365 252.861 162.365 252.855 162.368C252.648 162.056 252.423 161.762 252.182 161.472C254.311 160.9 256.385 159.843 258.187 158.449C262.948 154.755 265.775 148.676 262.571 142.772C260.285 138.564 255.114 136.636 251.075 134.593C245.307 131.675 239.531 128.753 233.772 125.804C227.91 122.798 222.047 119.797 216.18 116.794C213.557 115.452 210.932 113.979 208.086 113.145C207.838 113.07 207.592 113.002 207.343 112.942C206.355 112.686 205.346 112.517 204.328 112.483C202.741 112.421 201.532 111.932 200.051 111.345C187.961 106.511 175.631 102.267 163.42 97.763C160.507 96.6877 157.534 95.7729 154.623 94.6684C151.994 93.6769 148.963 92.5246 147.13 90.2843C143.603 85.9828 146.438 80.2552 150.512 77.5104C155.738 73.9924 161.985 75.7985 167.28 78.1101C173.182 80.679 179.004 83.3501 185.039 85.599C197.258 90.1463 209.789 93.7388 222.183 97.7491C234.584 101.767 246.624 106.402 258.19 112.445C271.13 119.207 283.474 127.063 296.478 133.716C309.54 140.396 323.234 145.757 337.318 149.846C337.475 150.148 337.8 150.303 338.13 150.26C338.332 150.237 338.442 150.211 338.494 150.192C338.74 150.261 338.986 150.364 339.226 150.445C340.283 150.803 341.345 151.163 342.398 151.519C346.271 152.824 350.138 154.131 354.003 155.443C365.316 159.265 376.632 163.093 387.946 166.915C390.083 167.636 392.215 168.359 394.349 169.088L394.947 167.59C382.455 163.367 369.962 159.147 357.474 154.925C352.864 153.366 348.259 151.808 343.648 150.253C342.115 149.734 340.244 148.732 338.556 148.66C338.48 148.565 338.379 148.494 338.25 148.458C325.368 144.74 312.801 139.959 300.751 134.071C289.056 128.349 277.968 121.508 266.602 115.187C255.222 108.865 243.572 103.391 231.272 99.1093C218.965 94.8305 206.419 91.2869 194.08 87.1041ZM338.733 149.148L338.746 149.153C338.743 149.172 338.742 149.187 338.736 149.204C338.734 149.183 338.736 149.165 338.733 149.148Z" fill="black"/>
<path d="M199.91 153.893C199.503 150.467 200.095 146.996 201.611 143.914C202.191 142.729 202.887 141.674 203.859 140.775C204.643 140.056 205.72 139.06 206.874 139.048C207.909 139.032 207.65 137.462 206.626 137.477C205.287 137.495 203.999 138.5 203.058 139.333C201.884 140.37 201.032 141.525 200.308 142.904C198.526 146.324 197.851 150.265 198.309 154.112C198.434 155.129 200.031 154.909 199.91 153.893Z" fill="black"/>
<path d="M201.665 142.391C197.573 139.251 191.562 139.096 187.33 142.148C186.128 143.015 185.107 144.13 184.388 145.428C183.618 146.816 183.303 148.392 183.123 149.955C182.786 152.95 182.87 156.092 183.825 158.971C184.769 161.814 186.587 164.622 188.88 166.532C189.672 167.192 190.65 165.897 189.861 165.243C188.024 163.718 186.624 161.553 185.697 159.355C184.681 156.954 184.44 154.254 184.591 151.662C184.753 148.855 185.248 146.116 187.422 144.145C189.171 142.56 191.395 141.703 193.726 141.566C196.212 141.416 198.721 142.171 200.694 143.679C201.508 144.308 202.484 143.018 201.665 142.391Z" fill="black"/>
<path d="M201.745 112.576C197.758 115.194 193.791 118.267 191.597 122.707C189.609 126.737 189.461 131.532 190.795 135.705C191.194 136.949 191.745 138.128 192.394 139.241C192.723 139.805 193.081 140.344 193.47 140.867C193.817 141.337 193.968 141.874 194.668 141.787C194.938 141.75 195.175 141.543 195.279 141.284C195.355 141.093 195.378 140.927 195.353 140.726C195.301 140.228 194.737 139.902 194.287 140.124C194.275 140.129 194.258 140.137 194.244 140.147C193.332 140.596 193.918 142.06 194.832 141.607C194.844 141.602 194.861 141.594 194.875 141.584C194.517 141.381 194.166 141.185 193.809 140.982C193.815 140.894 193.829 140.799 193.839 140.713C194.045 140.549 194.252 140.381 194.451 140.209C194.426 140.21 194.405 140.216 194.38 140.217C194.621 140.313 194.862 140.409 195.103 140.506C194.834 140.192 194.607 139.745 194.364 139.402C194.057 138.952 193.759 138.492 193.498 138.011C192.994 137.102 192.582 136.144 192.256 135.15C191.642 133.273 191.374 131.243 191.485 129.244C191.724 124.981 193.704 121.27 196.747 118.36C198.558 116.629 200.592 115.183 202.67 113.82C203.534 113.262 202.591 112.016 201.745 112.576Z" fill="black"/>
<path d="M250.82 160.81C241.291 156.574 231.402 153.15 221.625 149.559C220.67 149.21 220.222 150.306 221.18 150.659C230.958 154.25 240.846 157.674 250.375 161.911C251.309 162.325 251.754 161.225 250.82 160.81Z" fill="black"/>
<path d="M262.869 145.688C260.879 142.994 258.125 141.052 254.959 140.028C252.48 139.225 249.57 138.249 247.687 140.794C246.853 141.924 246.416 143.282 245.793 144.526C244.947 146.22 243.999 147.864 243.159 149.565C241.995 151.933 241.329 155.014 243.867 156.676C245.447 157.708 247.389 158.356 249.176 158.918C251.13 159.526 253.132 159.95 255.158 160.242C256.146 160.384 256.332 158.817 255.345 158.675C252.263 158.228 249.287 157.444 246.437 156.211C245.287 155.711 243.852 155.177 243.651 153.742C243.504 152.684 243.929 151.584 244.362 150.634C244.996 149.241 245.764 147.902 246.476 146.545C247.11 145.335 247.648 144.096 248.251 142.869C248.742 141.869 249.387 140.836 250.569 140.7C251.692 140.566 252.836 140.994 253.882 141.343C255.373 141.835 256.8 142.391 258.117 143.284C259.475 144.207 260.65 145.345 261.629 146.671C262.239 147.468 263.471 146.492 262.869 145.688Z" fill="black"/>
<path d="M249.48 176.949C246.997 177.371 244.431 177.288 241.961 176.655C240.81 176.36 239.605 175.97 238.563 175.389C238.116 175.142 237.659 174.818 237.433 174.363C237.168 173.829 237.252 173.212 237.3 172.657C237.529 170.032 237.781 167.348 238.757 164.895C239.173 163.855 239.715 162.551 240.659 161.859C241.598 161.17 242.993 161.567 244.061 161.805C247.133 162.484 250.066 163.793 252.653 165.571C253.517 166.164 254.478 164.935 253.618 164.343C250.915 162.485 247.911 161.138 244.717 160.366C243.397 160.047 241.93 159.689 240.616 160.106C239.291 160.525 238.522 161.734 237.907 162.853C236.388 165.619 236.017 168.854 235.728 171.961C235.604 173.253 235.479 174.598 236.43 175.688C237.304 176.689 238.678 177.218 239.911 177.653C243.072 178.761 246.482 179.056 249.739 178.506C250.758 178.33 250.503 176.775 249.48 176.949Z" fill="black"/>
<path d="M197.976 103.652C196.891 101.204 197.909 98.419 200.353 97.309C201.308 96.8767 200.615 95.3906 199.654 95.8254C198.083 96.5344 196.833 97.7715 196.239 99.3353C195.648 100.895 195.74 102.659 196.444 104.238C196.872 105.203 198.398 104.62 197.976 103.652Z" fill="black"/>
<path d="M173.955 177.709C173.676 177.04 173.4 176.366 173.139 175.688C172.908 175.093 172.757 174.5 172.883 173.865C173.136 172.606 174.218 171.598 175.117 170.754C175.436 170.456 175.553 169.985 175.262 169.614C175.008 169.29 174.439 169.169 174.116 169.466C172.9 170.604 171.663 171.86 171.286 173.541C170.925 175.199 171.848 176.836 172.453 178.337C172.848 179.317 174.347 178.683 173.955 177.709Z" fill="black"/>
<path d="M195.05 127.155C195.065 127.094 195.08 127.034 195.092 126.972C195.104 126.919 195.101 126.94 195.078 127.028C195.087 126.996 195.097 126.96 195.105 126.928C195.136 126.83 195.17 126.723 195.206 126.622C195.288 126.393 195.381 126.173 195.489 125.958C195.515 125.902 195.55 125.85 195.576 125.794C195.648 125.658 195.5 125.919 195.589 125.772C195.651 125.673 195.708 125.575 195.773 125.477C195.91 125.279 196.057 125.085 196.213 124.903C196.457 124.623 196.382 124.118 196.085 123.906C195.756 123.677 195.362 123.741 195.096 124.043C194.368 124.888 193.894 125.907 193.66 126.999C193.584 127.363 193.923 127.756 194.277 127.782C194.678 127.81 194.965 127.543 195.05 127.155Z" fill="black"/>
<path d="M297.515 182.556C294.248 176.989 288.664 173.025 282.282 171.818C281.258 171.624 281.082 173.22 282.106 173.414C287.853 174.507 293.074 178.145 296.022 183.178C296.548 184.061 298.046 183.45 297.515 182.556Z" fill="black"/>
<path d="M336.008 194.626C336.898 196.582 337.723 198.584 338.676 200.509C339.065 201.291 339.645 201.926 340.549 202.038C341.354 202.135 342.161 201.796 342.867 201.446C344.373 200.697 346.205 199.982 346.36 198.041C346.502 196.233 345.29 194.729 343.695 194.07C341.596 193.206 339.327 193.726 337.131 193.586C336.23 193.527 336.06 194.937 336.971 194.996C338.556 195.099 340.149 194.829 341.727 195.027C343.083 195.197 344.613 195.829 344.915 197.321C345.027 197.875 344.939 198.462 344.538 198.883C344.054 199.387 343.304 199.633 342.697 199.951C342.149 200.236 341.535 200.607 340.901 200.639C340.257 200.672 340.03 200.102 339.8 199.592C338.966 197.75 338.132 195.908 337.297 194.066C336.932 193.237 335.634 193.793 336.008 194.626Z" fill="black"/>
<path d="M343.267 201.349C344.167 202.138 345.066 202.926 345.968 203.71C346.606 204.27 347.293 204.808 348.089 205.126C348.842 205.423 349.69 205.483 350.42 205.096C351.283 204.639 351.688 203.739 352.006 202.87C352.406 201.768 352.806 200.667 353.195 199.567C353.467 198.798 353.726 198 353.798 197.176C353.973 195.277 352.918 193.704 350.979 193.347C349.834 193.134 348.644 193.361 347.525 193.576C346.246 193.823 344.968 194.069 343.688 194.32C342.808 194.491 343.013 195.869 343.9 195.695C345.714 195.344 347.552 194.858 349.394 194.687C350.164 194.616 351.071 194.615 351.72 195.099C352.225 195.475 352.426 196.069 352.425 196.677C352.422 198.236 351.617 199.808 351.099 201.241C350.837 201.973 350.639 202.846 350.174 203.478C349.776 204.022 349.203 204.067 348.603 203.827C347.858 203.534 347.252 202.983 346.662 202.467C345.814 201.725 344.962 200.98 344.115 200.238C343.428 199.649 342.592 200.755 343.267 201.349Z" fill="black"/>
<path d="M337.341 193.105C336.052 193.031 334.753 192.996 333.465 192.86C332.315 192.737 331.046 192.453 330.272 191.527C329.713 190.862 329.539 189.653 330.407 189.175C330.808 188.956 331.34 188.993 331.792 188.946C332.351 188.889 332.872 188.732 333.357 188.466C334.415 187.883 335.296 186.987 336.205 186.217C337.161 185.408 338.08 184.513 339.09 183.779C339.574 183.426 339.883 183.773 340.317 184.094C340.889 184.517 341.463 184.936 342.039 185.361C343.127 186.161 344.21 186.96 345.297 187.76C346.374 188.551 347.58 189.304 348.421 190.347C349.189 191.299 349.596 192.435 349.68 193.617C349.987 193.384 350.294 193.151 350.607 192.915C350.18 192.801 349.756 192.693 349.329 192.579C348.479 192.354 347.978 193.581 348.838 193.807C349.265 193.921 349.69 194.029 350.117 194.142C350.643 194.282 351.081 193.982 351.044 193.441C350.956 192.205 350.519 191.01 349.804 189.96C349.042 188.844 347.924 188.046 346.84 187.247C345.541 186.292 344.247 185.337 342.948 184.381C342.314 183.914 341.68 183.447 341.046 182.98C340.503 182.583 339.912 182.171 339.207 182.269C338.659 182.344 338.236 182.706 337.839 183.041C337.229 183.556 336.62 184.072 336.011 184.588C335.402 185.103 334.793 185.619 334.184 186.135C333.679 186.564 333.175 187.055 332.568 187.353C331.502 187.88 330.199 187.469 329.259 188.327C328.411 189.103 328.215 190.391 328.661 191.452C329.971 194.581 334.441 194.261 337.213 194.42C338.086 194.475 338.226 193.155 337.341 193.105Z" fill="black"/>
<path d="M331.938 192.341C331.166 192.573 330.563 193.096 330.079 193.706C329.564 194.354 329.054 195.132 328.757 195.901C328.091 197.605 329.081 199.614 329.634 201.249C329.95 202.184 330.27 203.121 330.639 204.037C330.947 204.801 331.363 205.577 332.06 206.069C333.485 207.081 335.428 206.592 336.617 205.524C337.421 204.804 337.965 203.89 338.492 202.97C339.086 201.932 339.657 200.885 340.206 199.82C340.614 199.03 339.29 198.506 338.884 199.291C338.372 200.277 337.849 201.254 337.297 202.214C336.823 203.042 336.326 203.925 335.581 204.55C334.988 205.047 334.144 205.394 333.344 205.173C332.501 204.941 332.148 204.06 331.867 203.332C331.504 202.399 331.177 201.454 330.855 200.507C330.546 199.594 330.186 198.666 330.001 197.724C329.806 196.753 330.217 196.044 330.723 195.254C331.171 194.555 331.657 193.876 332.499 193.622C333.377 193.358 332.799 192.08 331.938 192.341Z" fill="black"/>
<path d="M333.094 206.076C332.884 208.444 334.662 210.487 336.209 212.004C337.045 212.823 338.105 213.447 339.31 213.369C340.426 213.296 341.252 212.563 341.794 211.607C342.252 210.802 342.516 209.729 343.212 209.094C344.109 208.27 345.613 209.105 346.521 209.454C347.22 209.718 347.913 210 348.6 210.295C349.258 210.578 349.926 210.92 350.668 210.847C351.799 210.736 352.751 209.848 353.291 208.871C354.653 206.426 353.464 203.31 350.847 202.528C350.019 202.282 349.495 203.569 350.331 203.819C352.215 204.383 353.169 206.581 352.038 208.355C351.781 208.756 351.435 209.123 351.012 209.333C350.486 209.592 350.032 209.395 349.531 209.18C348.364 208.678 347.184 208.196 345.986 207.772C345.075 207.453 344.072 207.172 343.123 207.556C342.33 207.878 341.82 208.572 341.425 209.318C341.036 210.046 340.786 210.939 340.202 211.539C339.542 212.219 338.571 212.05 337.86 211.586C336.924 210.967 336.149 209.969 335.483 209.064C334.876 208.242 334.345 207.301 334.442 206.221C334.522 205.33 333.174 205.185 333.094 206.076Z" fill="black"/>
<path d="M354.008 207.119C357.158 204.582 359.044 200.637 359.204 196.605C359.284 194.607 358.965 192.596 358.184 190.751C357.725 189.659 357.085 188.718 356.08 188.067C355.083 187.42 353.934 186.991 352.822 186.582C350.562 185.755 347.638 185.463 346.028 187.667C345.491 188.401 346.612 189.256 347.149 188.521C348.358 186.863 350.647 187.291 352.293 187.893C353.277 188.256 354.334 188.623 355.221 189.19C356.087 189.745 356.566 190.52 356.949 191.46C358.233 194.628 358.024 198.29 356.651 201.395C355.859 203.185 354.665 204.768 353.141 205.996C352.434 206.576 353.298 207.693 354.008 207.119Z" fill="black"/>
<path d="M351.695 186.045C350.126 185.008 349.367 183.22 348.943 181.408C348.711 180.426 348.626 179.412 348.365 178.443C348.113 177.524 347.616 176.754 346.894 176.153C346.169 175.545 345.283 175.145 344.401 174.832C343.593 174.545 342.649 174.142 341.769 174.265C340.676 174.419 340.282 175.393 339.692 176.193C339.067 177.045 338.23 177.7 337.503 178.45C335.738 180.271 334.685 182.71 334.559 185.246C334.515 186.143 335.879 186.294 335.923 185.387C336.023 183.331 336.768 181.37 338.11 179.805C338.736 179.075 339.484 178.47 340.141 177.772C340.456 177.439 340.748 177.09 341.002 176.702C341.229 176.353 341.446 175.773 341.882 175.654C342.225 175.559 342.655 175.736 342.974 175.833C343.391 175.959 343.802 176.098 344.207 176.251C344.956 176.54 345.716 176.899 346.289 177.482C346.959 178.164 347.113 179.055 347.264 179.979C347.403 180.823 347.575 181.659 347.807 182.48C348.326 184.324 349.248 186.097 350.855 187.164C351.587 187.654 352.434 186.532 351.695 186.045Z" fill="black"/>
<path d="M333.903 186.401C331.874 186.256 329.991 185.34 328.677 183.768C327.509 182.368 326.828 180.624 326.331 178.865C325.77 176.893 325.402 174.855 324.978 172.854C324.482 170.538 323.991 168.223 323.498 165.903C323.193 166.151 322.888 166.4 322.577 166.65C325.641 168.37 328.712 170.086 331.776 171.805C333.137 172.566 334.663 173.251 335.799 174.347C336.769 175.283 337.31 176.635 337.268 178.01C337.239 178.882 338.569 179.029 338.596 178.146C338.641 176.658 338.239 175.209 337.348 174.038C336.301 172.661 334.714 171.889 333.253 171.067C329.863 169.169 326.473 167.27 323.083 165.372C322.649 165.129 322.063 165.65 322.162 166.119C322.959 169.859 323.711 173.616 324.559 177.347C325.238 180.329 326.176 183.38 328.431 185.497C329.868 186.846 331.775 187.629 333.73 187.768C334.597 187.824 334.769 186.461 333.903 186.401Z" fill="black"/>
<path d="M335.733 184.846C334.154 181.878 332.808 178.778 331.701 175.584C331.383 174.67 330.02 175.283 330.334 176.194C331.436 179.387 332.782 182.487 334.366 185.457C334.557 185.812 334.941 186.02 335.334 185.844C335.676 185.692 335.923 185.206 335.733 184.846Z" fill="black"/>
<path d="M329.475 181.869C330.45 182.16 331.424 182.451 332.401 182.738C332.72 182.834 333.124 182.695 333.262 182.304C333.386 181.96 333.282 181.498 332.937 181.397C331.962 181.106 330.988 180.814 330.011 180.528C329.692 180.431 329.288 180.57 329.15 180.961C329.03 181.307 329.132 181.763 329.475 181.869Z" fill="black"/>
<path d="M340.919 210.345C339.764 211.452 339.955 213.017 340.528 214.388C341.155 215.885 342.086 217.369 343.172 218.578C345.299 220.947 348.126 222.46 350.791 224.131C352.305 225.079 353.802 226.094 355.067 227.365C355.575 227.876 356.317 227.552 356.298 226.839C356.256 224.926 356.21 223.011 356.169 221.094C356.129 219.425 356.146 217.739 355.912 216.082C355.491 213.099 353.922 209.87 350.766 209.03C349.915 208.804 349.388 210.083 350.252 210.314C353.264 211.116 354.363 214.286 354.626 217.067C354.775 218.625 354.77 220.197 354.803 221.759C354.84 223.521 354.884 225.281 354.921 227.043C355.33 226.869 355.744 226.692 356.153 226.518C353.531 223.881 350.16 222.32 347.148 220.207C345.655 219.158 344.281 217.959 343.248 216.444C342.694 215.637 342.18 214.756 341.802 213.855C341.516 213.165 341.135 212.06 341.773 211.451C342.41 210.827 341.564 209.729 340.919 210.345Z" fill="black"/>
<path d="M342.48 208.928C343.49 210.41 344.496 211.891 345.506 213.373C346.009 214.111 346.516 214.855 347.019 215.593C347.255 215.94 347.488 216.282 347.724 216.63C347.858 216.825 347.994 217.026 348.128 217.221C348.197 217.322 348.262 217.417 348.331 217.517C348.431 217.698 348.457 217.719 348.405 217.576C348.451 217.463 348.495 217.353 348.54 217.24C348.672 217.18 348.809 217.123 348.941 217.063C349.056 217.109 349.166 217.154 349.281 217.199C349.261 217.187 349.238 217.172 349.218 217.16C349.307 217.307 349.396 217.455 349.485 217.603C349.479 217.581 349.474 217.555 349.468 217.533C349.259 216.688 347.903 216.873 348.113 217.728C348.238 218.241 348.702 218.549 349.226 218.373C349.75 218.197 349.899 217.603 349.689 217.128C349.469 216.631 349.066 216.172 348.757 215.722C348.402 215.204 348.053 214.684 347.698 214.166C346.318 212.141 344.943 210.118 343.563 208.093C343.061 207.365 341.986 208.204 342.48 208.928Z" fill="black"/>
<path d="M331.261 201.802C330.921 201.706 330.486 201.497 330.134 201.642C329.818 201.771 329.58 202.054 329.256 202.19C328.621 202.457 327.9 202.513 327.218 202.536C325.616 202.588 323.986 202.325 322.477 201.785C319.402 200.694 317.031 198.044 313.722 197.577C313.839 197.982 313.959 198.394 314.076 198.8C314.611 198.271 315.323 198.138 316.027 197.948C316.77 197.748 317.436 197.479 318.036 196.991C318.641 196.5 319.173 195.942 319.82 195.497C320.433 195.074 321.097 194.734 321.794 194.463C324.577 193.378 327.772 193.544 330.429 194.956C331.219 195.375 331.718 194.1 330.937 193.684C328.067 192.158 324.587 192.005 321.559 193.081C319.984 193.64 318.714 194.558 317.48 195.648C316.837 196.222 316.181 196.49 315.352 196.705C314.579 196.906 313.805 197.133 313.226 197.708C312.813 198.118 312.933 198.839 313.58 198.931C315.209 199.159 316.598 200.049 317.955 200.921C319.323 201.802 320.707 202.631 322.262 203.145C323.742 203.633 325.292 203.899 326.85 203.893C328.253 203.888 329.75 203.75 330.847 202.802C330.62 202.834 330.392 202.866 330.163 202.892C330.36 202.946 330.558 203.001 330.76 203.057C331.606 203.312 332.123 202.044 331.261 201.802Z" fill="black"/>
<path d="M323.601 199.883C325.608 199.506 327.645 199.111 329.698 199.194C330.059 199.208 330.395 198.983 330.441 198.603C330.48 198.264 330.21 197.878 329.846 197.861C327.667 197.777 325.531 198.156 323.4 198.556C323.044 198.625 322.781 198.946 322.836 199.314C322.893 199.667 323.246 199.952 323.601 199.883Z" fill="black"/>
<path d="M339.578 166.248C339.295 164.434 339.011 162.62 338.728 160.807C338.671 160.443 338.228 160.166 337.847 160.199C337.432 160.237 337.2 160.57 337.257 160.934C337.541 162.748 337.824 164.561 338.108 166.375C338.165 166.739 338.608 167.015 338.988 166.983C339.402 166.949 339.634 166.616 339.578 166.248Z" fill="black"/>
<path d="M325.884 209.478C324.44 210.032 323.136 211.078 322.179 212.405C321.963 212.705 321.988 213.176 322.266 213.379C322.544 213.581 322.943 213.528 323.174 213.209C323.278 213.063 323.39 212.92 323.506 212.779C323.565 212.711 323.62 212.641 323.682 212.575C323.723 212.531 323.771 212.479 323.701 212.552C323.726 212.522 323.756 212.493 323.782 212.463C324.039 212.195 324.31 211.949 324.6 211.724C324.739 211.613 324.884 211.513 325.028 211.414C325.11 211.355 324.944 211.466 325.028 211.414C325.069 211.39 325.109 211.36 325.15 211.336C325.223 211.289 325.301 211.244 325.376 211.203C325.688 211.023 326.012 210.874 326.34 210.746C326.666 210.623 326.841 210.129 326.711 209.819C326.567 209.452 326.231 209.348 325.884 209.478Z" fill="black"/>
<path d="M91.8384 91.4183C91.8136 91.4192 91.7907 91.4243 91.7678 91.4294C91.6807 91.4376 91.5998 91.4482 91.5146 91.4606C91.4997 91.4269 91.4763 91.3969 91.4446 91.3706C91.3894 91.3143 91.3048 91.2711 91.1884 91.2469C85.221 89.953 78.8052 89.3312 72.6979 88.3361C66.7768 87.3747 60.8834 86.3505 55.0087 85.2778C55.0018 85.2506 54.9967 85.2277 54.9916 85.2047C54.9347 84.7913 54.1941 84.791 53.9695 85.092C53.6912 85.0436 53.4171 84.9934 53.1406 84.9492C52.6743 84.863 52.1421 85.2546 52.2113 85.5819C52.6605 87.692 53.2286 89.7748 53.9048 91.8401C53.9481 91.9722 53.9933 92.1085 54.0366 92.2406C54.0849 92.3956 54.1394 92.553 54.192 92.7062C54.047 92.6745 53.9039 92.647 53.7589 92.6154C53.6036 92.5832 53.4423 92.5487 53.2889 92.5207C42.9433 90.3596 32.4717 88.5062 21.8739 86.9254C21.7448 86.9068 21.6161 86.9234 21.5009 86.9592C21.1747 87.053 20.9314 87.3118 20.9614 87.5506C20.997 87.802 21.0302 88.0595 21.0634 88.317C21.5144 91.8782 21.9069 95.8886 23.8468 99.0688C23.506 99.2094 23.5164 99.6888 23.9777 99.7066C35.3101 100.191 46.8457 99.8252 58.3045 99.2057C58.6123 99.5031 59.3385 99.5047 59.6821 99.131C61.4176 99.0342 63.1512 98.9332 64.883 98.828C65.4024 98.795 65.6272 98.4033 65.5244 98.0908C65.0458 96.6893 64.5968 95.2747 64.0705 93.8791C64.023 93.7489 63.9755 93.6187 63.9238 93.4903C63.8707 93.3474 63.8116 93.2022 63.7543 93.0612C63.9105 93.0727 64.0668 93.0843 64.2211 93.0917C64.3526 93.1041 64.4883 93.1147 64.6202 93.1169C73.1308 93.6797 82.0366 93.4729 90.6311 92.8694C90.7302 92.9113 90.8448 92.9312 90.9969 92.8993C91.1509 92.8715 91.2988 92.8414 91.4528 92.8137C91.9564 92.7221 92.1469 92.401 92.0496 92.1466C92.0272 92.096 91.9964 92.0491 91.9511 92.0036C92.0054 91.9897 92.056 91.9673 92.0944 91.9403C92.3918 91.7584 92.3036 91.3538 91.8384 91.4183ZM84.9385 91.5247C85.5148 91.5976 86.0822 91.6845 86.6524 91.755C86.0919 91.7407 85.5324 91.7057 84.9776 91.6586C84.863 91.6387 84.7507 91.6127 84.6343 91.5886C84.6727 91.5615 84.7032 91.5279 84.7294 91.4961C84.7991 91.5056 84.8688 91.5151 84.9385 91.5247Z" fill="#FFFFA5"/>
<path d="M20.1792 87.6623C20.7131 91.6506 21.016 95.8569 23.1269 99.3899C23.2056 99.0779 23.2759 98.7696 23.3527 98.4533C22.4979 98.9925 22.775 100.246 23.7202 100.458C24.2468 100.579 24.8598 100.529 25.4035 100.551C26.0337 100.575 26.6662 100.593 27.2987 100.611C29.7919 100.678 32.2847 100.71 34.7747 100.713C39.8128 100.714 44.8524 100.593 49.8857 100.39C52.7338 100.28 55.5792 100.141 58.4214 99.9836C58.2296 99.9373 58.0318 99.8887 57.84 99.8424C58.2526 100.149 58.7671 100.264 59.2683 100.179C59.5365 100.136 59.7244 100.002 59.9641 99.9065C60.1574 99.8311 60.556 99.8667 60.8372 99.8532C61.5756 99.8142 62.306 99.7685 63.0486 99.7276C63.7458 99.6865 64.5238 99.7257 65.2016 99.5722C65.6855 99.4591 66.1114 99.1347 66.2704 98.6511C66.4651 98.066 66.1485 97.475 65.9618 96.9274C65.4875 95.524 65.0216 94.1169 64.4738 92.7409C64.2027 93.1078 63.9274 93.4765 63.6558 93.8536C72.0101 94.4502 80.4073 94.3121 88.7564 93.7918C89.3254 93.757 89.9348 93.654 90.4934 93.6642C90.957 93.676 91.4025 93.6807 91.8701 93.5193C92.7451 93.2081 93.1459 92.2799 92.5572 91.5067C92.4597 91.9128 92.3616 92.3291 92.2598 92.7371C92.8259 92.502 93.2237 91.8976 92.9703 91.2787C92.6982 90.6177 91.995 90.611 91.3913 90.6812C91.6344 90.7754 91.8794 90.8738 92.1226 90.9679C91.849 90.5999 91.459 90.5152 91.0385 90.4188C90.4076 90.2793 89.772 90.152 89.1359 90.035C87.9703 89.8142 86.7996 89.616 85.6326 89.4262C83.2223 89.045 80.8053 88.7171 78.395 88.3813C73.4694 87.7005 68.5676 86.8682 63.6685 86.0194C60.8098 85.524 57.9496 85.014 55.096 84.496C55.3249 84.7175 55.5617 84.9455 55.7906 85.1669C55.5762 84.1123 54.2496 83.7209 53.4608 84.4779C53.6616 84.4194 53.854 84.3645 54.0549 84.306C53.2714 84.1634 52.5114 84.0054 51.861 84.5853C51.1393 85.2319 51.5097 86.1268 51.6964 86.9365C52.1813 88.9906 52.7743 91.0271 53.4558 93.0245C53.7268 92.6576 54.0021 92.2889 54.2737 91.9118C45.0337 89.9726 35.7494 88.2749 26.423 86.8126C25.1063 86.6032 23.7891 86.4042 22.4677 86.207C21.5276 86.0631 20.2439 86.2474 20.1683 87.4554C20.0996 88.4738 21.6774 88.6584 21.7443 87.6358C21.7376 87.6892 21.6032 87.7385 21.7216 87.7214C21.8255 87.7057 21.9251 87.7373 22.0257 87.7483C22.2821 87.7812 22.5379 87.8243 22.7919 87.8633C23.3429 87.9474 23.8981 88.0296 24.451 88.1179C25.553 88.286 26.6588 88.4626 27.7626 88.6349C29.8801 88.9692 31.9948 89.3198 34.1047 89.6825C38.3574 90.4137 42.5978 91.1856 46.8334 92.0151C49.2557 92.4918 51.6714 92.9765 54.088 93.486C54.7316 93.6199 55.0777 92.8872 54.9059 92.3733C54.3702 90.7854 53.8887 89.1835 53.4723 87.5578C53.3803 87.1902 53.2907 86.8165 53.2029 86.447C53.1773 86.3322 53.1467 85.9324 53.065 85.8274C53.076 85.6814 53.0213 85.6602 52.9074 85.7559C52.9369 85.7429 52.9604 85.7275 52.9856 85.7163C53.2417 85.6686 53.6039 85.8614 53.8636 85.8676C53.9974 85.8739 54.1443 85.8644 54.2731 85.8025C54.7263 85.5971 54.2812 85.7182 54.2046 85.374C54.276 85.7407 54.5329 85.98 54.8991 86.0449C59.7162 86.9248 64.539 87.772 69.3722 88.5742C74.0271 89.3494 78.6893 89.9701 83.3565 90.6592C84.6185 90.8473 85.8763 91.0374 87.1326 91.2583C87.7753 91.3674 88.4175 91.4867 89.0555 91.608C89.3702 91.6705 89.6953 91.7334 90.0101 91.7959C90.1611 91.83 90.8273 91.8782 90.8716 91.9443C91.0406 92.1671 91.3352 92.2637 91.6029 92.231C91.6838 92.2204 91.7606 92.2117 91.8416 92.2011C92.2304 92.1805 92.1523 91.8671 91.6013 91.2588C91.1111 91.4604 90.9991 92.0846 91.3039 92.4892C91.4642 92.0655 91.3924 91.9258 91.0853 92.0515C90.8481 92.0505 90.783 92.0743 90.8905 92.1124C90.694 92.1237 90.455 92.0731 90.244 92.0857C89.6689 92.1181 89.0891 92.1627 88.5056 92.1989C87.347 92.2675 86.1824 92.3337 85.0201 92.3938C82.6379 92.5093 80.2451 92.5892 77.8608 92.6199C73.1824 92.6919 68.4959 92.586 63.82 92.2536C63.2114 92.2101 62.7758 92.7858 63.0021 93.3663C63.5686 94.7844 64.041 96.229 64.5255 97.6783C64.5637 97.7875 64.6102 98.2004 64.7143 98.0939C64.8661 97.9361 64.4215 98.0469 64.3489 98.0538C63.962 98.0787 63.5731 98.0993 63.1759 98.1237C62.4 98.1693 61.6158 98.2186 60.8381 98.2599C60.4554 98.2829 60.0493 98.2759 59.665 98.3299C59.3992 98.3667 59.1644 98.6218 58.9211 98.6184C58.725 98.6194 58.5686 98.4365 58.3638 98.4061C57.9807 98.3486 57.5243 98.4445 57.1397 98.4633C55.6091 98.5451 54.0809 98.6208 52.5509 98.6923C46.4269 98.9698 40.2908 99.1519 34.158 99.1359C32.4685 99.1317 30.7776 99.113 29.0854 99.0797C28.2011 99.0623 27.3132 99.0365 26.4294 99.0088C26.0069 98.9989 25.5892 98.9769 25.1667 98.9671C24.9978 98.9611 24.8331 98.9533 24.6581 98.9449C24.5346 98.939 24.4069 98.935 24.2834 98.9291C23.8134 98.8345 23.8241 99.0868 24.3116 99.6879C24.5771 99.5252 24.6959 99.019 24.5373 98.7513C22.4972 95.3331 22.2278 91.2935 21.7105 87.434C21.6182 86.4162 20.0452 86.6528 20.1792 87.6623Z" fill="black"/>
<path d="M116.206 76.0465C116.2 76.0432 116.195 76.04 116.19 76.0412C116.092 75.9962 116.006 75.9431 115.912 75.8968C115.914 75.8677 115.916 75.8386 115.912 75.8062C115.896 75.7294 115.851 75.6363 115.765 75.5452C111.522 71.1496 106.529 67.0674 101.996 62.8509C97.6062 58.758 93.274 54.6304 88.9838 50.4818C88.9911 50.4559 89.0041 50.4333 89.0114 50.4074C89.1949 50.028 88.5799 49.6263 88.2213 49.7475C88.0207 49.5535 87.8145 49.3562 87.6151 49.1667C87.2764 48.8333 86.6165 48.8642 86.4908 49.1754C85.6925 51.1785 85.0102 53.2218 84.4248 55.3057C84.3875 55.4496 84.3489 55.589 84.3115 55.7329C84.2632 55.8893 84.225 56.0477 84.1812 56.2029C84.0682 56.0855 83.9564 55.9725 83.8389 55.8563C83.7385 55.7498 83.6347 55.6489 83.5298 55.5436C76.1236 48.0028 68.4372 40.6431 60.5024 33.4416C60.4011 33.3496 60.2792 33.2871 60.1543 33.2493C59.8429 33.1571 59.5102 33.233 59.406 33.4475C59.2942 33.6689 59.1836 33.8948 59.073 34.1206C57.4686 37.3407 55.5635 40.8956 55.4113 44.6295C55.042 44.5529 54.7909 44.9649 55.1607 45.2372C64.3194 51.9349 74.1234 58.0372 83.9961 63.8821C84.0861 64.3019 84.6922 64.706 85.1793 64.5835C86.6803 65.471 88.1732 66.3464 89.6763 67.2238C90.1241 67.4845 90.537 67.2817 90.6146 66.9693C90.9926 65.5292 91.4111 64.0973 91.7476 62.6446C91.7829 62.5108 91.8126 62.3738 91.8378 62.2379C91.8752 62.094 91.9036 61.9526 91.9353 61.8054C92.0682 61.9079 92.1953 62.0072 92.3326 62.1085C92.4259 62.1883 92.5268 62.2613 92.6277 62.3342C99.3935 67.5312 106.918 72.3028 114.397 76.5753C114.455 76.6648 114.547 76.7401 114.683 76.8034C114.824 76.8655 114.969 76.9264 115.11 76.9885C115.596 77.1959 115.935 77.0181 115.977 76.7343C115.984 76.6895 115.98 76.6381 115.971 76.5879C116.014 76.605 116.059 76.6119 116.098 76.6156C116.466 76.6542 116.638 76.2494 116.206 76.0465ZM110.355 72.3928C110.278 72.3182 110.206 72.247 110.128 72.1724C110.175 72.1693 110.225 72.1605 110.264 72.1452C110.309 72.1857 110.359 72.2294 110.403 72.2699C110.839 72.6628 111.274 73.0513 111.715 73.4284C111.256 73.1087 110.81 72.7663 110.376 72.4158C110.369 72.4081 110.362 72.4005 110.355 72.3928Z" fill="#FFFFA5"/>
<path d="M58.72 33.0545C56.9113 36.736 54.827 40.4398 54.6168 44.6289C54.8842 44.3653 55.1517 44.1017 55.4192 43.8381C54.3381 43.8303 53.7878 45.04 54.61 45.8011C55.4654 46.5962 56.5678 47.2288 57.5179 47.8979C59.5339 49.3288 61.575 50.7291 63.6334 52.1056C67.8082 54.8954 72.0489 57.5765 76.3297 60.1942C78.7445 61.6699 81.1735 63.1274 83.6033 64.5703C83.4794 64.4128 83.3576 64.2452 83.2337 64.0878C83.408 64.5898 83.7284 64.9615 84.2094 65.2037C84.4566 65.323 84.6825 65.3286 84.9342 65.3941C85.2004 65.4604 85.4503 65.6602 85.6902 65.8053C86.3258 66.1775 86.9671 66.553 87.5983 66.9264C88.2101 67.2812 88.8226 67.7265 89.4729 67.9944C89.9362 68.1888 90.4603 68.1852 90.8802 67.8851C91.3927 67.5216 91.4682 66.8848 91.6144 66.3149C91.9949 64.8837 92.3956 63.4566 92.7042 62.0067C92.2639 62.1261 91.818 62.2422 91.3822 62.3604C97.9662 67.4681 104.974 72.0072 112.178 76.1968C112.676 76.4868 113.194 76.7573 113.683 77.0642C114.12 77.3374 114.504 77.6295 115.008 77.7795C115.852 78.0235 116.829 77.558 116.769 76.5806C116.437 76.8332 116.1 77.087 115.768 77.344C116.374 77.4473 117.057 77.2907 117.228 76.5995C117.397 75.9039 116.862 75.4805 116.313 75.1994C116.448 75.4305 116.581 75.6572 116.712 75.8939C116.65 74.9076 115.509 74.1327 114.856 73.4879C113.998 72.6459 113.125 71.8221 112.245 71.0051C110.43 69.3286 108.577 67.6909 106.728 66.0475C102.991 62.7234 99.353 59.2912 95.7308 55.8452C93.6637 53.8739 91.5987 51.8926 89.5426 49.9088C89.6114 50.1624 89.6826 50.4249 89.7514 50.6786C90.1856 49.5863 88.975 48.8016 88.0126 48.967C88.2655 49.037 88.5228 49.1057 88.7778 49.1656C88.184 48.5957 87.5968 47.962 86.6918 48.1453C85.7879 48.3331 85.609 49.2224 85.3267 49.9773C84.5891 51.94 83.9574 53.9409 83.4145 55.9703C83.8547 55.8509 84.3006 55.7348 84.7364 55.6166C78.0168 48.759 71.1075 42.0819 64.0395 35.5768C63.059 34.6723 62.094 33.7016 61.0621 32.854C60.3286 32.2791 59.3062 32.2411 58.72 33.0545C58.1196 33.8861 59.5068 34.6707 60.095 33.8472C60.0885 33.8585 59.9529 34.0099 59.9267 33.9836C59.8569 33.9022 59.9977 34.0694 59.9836 34.035C60.0485 34.2037 60.3913 34.4117 60.529 34.532C60.948 34.9152 61.3646 35.2895 61.7779 35.6694C62.6046 36.4293 63.4369 37.1924 64.2648 37.9568C65.8524 39.4275 67.4266 40.9018 68.9988 42.3863C72.1581 45.375 75.2846 48.4013 78.3694 51.4675C80.1337 53.22 81.8813 54.9817 83.6249 56.7636C84.0414 57.1904 84.7949 56.9765 84.9512 56.4087C85.4101 54.703 85.9283 53.0052 86.5232 51.3439C86.6619 50.9575 86.8051 50.57 86.945 50.1881C86.9693 50.1194 87.0904 49.6327 87.1704 49.611C87.0414 49.646 87.0321 49.682 87.0632 49.7261C87.2241 49.95 87.5878 50.3052 87.8273 50.4313C87.9335 50.4885 88.3128 50.6197 88.4313 50.5111C88.2558 50.6734 88.3358 49.9829 88.2175 50.2682C88.1141 50.5207 88.2406 50.8638 88.4262 51.038C92.1009 54.5892 95.8055 58.1275 99.5327 61.6262C103.129 64.9933 106.848 68.217 110.48 71.5409C111.49 72.466 112.494 73.4025 113.473 74.3551C113.94 74.8111 114.375 75.3237 114.867 75.7446C114.506 75.4363 115.241 76.0347 115.123 75.8805C115.217 75.9983 115.184 76.2271 115.3 76.3725C115.366 76.4595 115.439 76.5162 115.526 76.5738C115.6 76.616 115.671 76.6492 115.747 76.6857C116.078 76.8828 116.232 76.5878 116.193 75.8102C115.723 75.7322 115.154 76.0107 115.192 76.5737C115.601 76.3766 115.639 76.2517 115.305 76.199C115.173 76.1681 115.059 76.1032 114.965 75.9999C114.769 75.8763 114.572 75.7482 114.374 75.6347C113.871 75.346 113.366 75.0528 112.869 74.7674C111.86 74.1811 110.86 73.5923 109.867 72.9923C107.86 71.7882 105.872 70.5502 103.909 69.277C100.001 66.7492 96.1818 64.0922 92.5043 61.2345C92.0683 60.8941 91.3181 60.9447 91.1779 61.5894C90.8612 63.0797 90.4479 64.5485 90.0549 66.0213C90.0622 65.9954 89.8491 66.6886 90.0045 66.5222C90.0336 66.5239 90.055 66.5324 90.0841 66.5341C89.9371 66.4497 89.7833 66.3577 89.6351 66.2689C89.3342 66.0925 89.039 65.9194 88.7382 65.743C88.0234 65.3254 87.3131 64.9066 86.604 64.4922C86.285 64.3017 85.9398 64.0322 85.5928 63.897C85.3731 63.8085 85.1329 63.8736 84.929 63.7904C84.7048 63.7031 84.6688 63.4119 84.4879 63.2556C84.1888 62.9975 83.7659 62.8113 83.4255 62.6122C82.1212 61.8338 80.8168 61.0553 79.5145 60.2668C74.2794 57.1053 69.0974 53.8578 64.0138 50.4451C62.6191 49.5096 61.2366 48.5661 59.8582 47.6024C59.1394 47.0998 58.4183 46.5884 57.7029 46.0802C57.3649 45.8375 57.027 45.5947 56.6834 45.3487C56.5473 45.2519 56.4112 45.155 56.2752 45.0582C56.1742 44.9852 56.0721 44.9078 55.9724 44.8393C55.6539 44.5101 55.471 44.6982 55.4139 45.4207C55.8589 45.4242 56.1947 45.0609 56.2163 44.6299C56.4144 40.7306 58.4273 37.2564 60.1015 33.8359C60.5439 32.9324 59.1721 32.1341 58.72 33.0545Z" fill="black"/>
<path d="M121.508 125.091C121.504 125.093 121.504 125.093 121.499 125.094C121.401 125.135 121.301 125.168 121.207 125.208C121.191 125.189 121.171 125.171 121.152 125.158C121.078 125.109 120.982 125.082 120.848 125.086C114.746 125.295 108.368 126.267 102.209 126.805C96.2324 127.327 90.2715 127.776 84.3109 128.181C84.3024 128.155 84.2866 128.136 84.2737 128.111C84.1183 127.72 83.3983 127.905 83.2539 128.252C82.9739 128.269 82.6954 128.292 82.4155 128.31C81.946 128.34 81.5217 128.855 81.6721 129.156C82.6225 131.092 83.6855 132.972 84.8466 134.811C84.9285 134.945 85.0147 135.077 85.101 135.209C85.18 135.333 85.2576 135.454 85.3367 135.578C85.188 135.583 85.0451 135.59 84.8979 135.599C84.739 135.602 84.5816 135.609 84.4256 135.621C73.8673 136.064 63.2565 136.839 52.5907 137.908C52.455 137.922 52.3249 137.969 52.2135 138.044C51.9381 138.211 51.7723 138.507 51.8621 138.725C51.9605 138.969 52.0603 139.218 52.1557 139.468C53.4667 142.804 54.8291 146.584 57.4872 149.189C57.1865 149.413 57.3208 149.873 57.7704 149.781C57.8755 149.762 57.9836 149.736 58.0872 149.713C58.0887 149.717 58.0916 149.711 58.0916 149.711C69.0846 147.407 80.0751 144.242 90.9188 140.862C91.2929 141.076 91.991 140.899 92.2354 140.456C93.8924 139.935 95.5481 139.409 97.1993 138.885C97.6918 138.731 97.8196 138.288 97.6355 138.018C96.8217 136.774 96.0447 135.508 95.1943 134.286C95.1396 134.207 95.0864 134.132 95.0317 134.053C94.918 133.896 94.8029 133.734 94.6891 133.577C94.8716 133.542 95.0555 133.512 95.2379 133.477C95.3386 133.459 95.4437 133.44 95.543 133.417C103.93 131.874 112.513 129.487 120.693 126.794C120.799 126.808 120.917 126.799 121.051 126.731C121.194 126.666 121.333 126.601 121.476 126.536C121.949 126.32 122.05 125.958 121.881 125.736C121.852 125.692 121.808 125.658 121.758 125.626C121.804 125.601 121.838 125.571 121.871 125.541C122.13 125.292 121.948 124.91 121.508 125.091ZM114.919 126.998C114.915 127 114.909 126.997 114.905 126.998C114.795 127.004 114.686 127.011 114.566 127.015C114.602 126.975 114.627 126.933 114.639 126.895C114.709 126.887 114.775 126.88 114.845 126.872C115.419 126.808 115.995 126.747 116.563 126.675C116.017 126.798 115.465 126.904 114.919 126.998Z" fill="#FFFFA5"/>
<path d="M51.1086 138.969C52.6324 142.784 53.9868 146.809 56.9535 149.784C56.9349 149.412 56.9149 149.036 56.8964 148.664C56.2848 149.274 56.5069 150.35 57.3867 150.555C57.8724 150.665 58.4207 150.458 58.8996 150.352C59.5288 150.216 60.1625 150.079 60.7903 149.939C63.2753 149.388 65.7577 148.799 68.2303 148.179C73.1563 146.94 78.0544 145.57 82.9254 144.131C85.678 143.313 88.4235 142.474 91.1647 141.622C90.9652 141.604 90.7614 141.588 90.5575 141.571C91.0075 141.765 91.4735 141.798 91.9442 141.636C92.2234 141.541 92.3981 141.393 92.6328 141.22C92.8205 141.082 93.0658 141.032 93.3507 140.94C94.0536 140.717 94.7565 140.495 95.4608 140.277C96.1666 140.049 96.9374 139.887 97.6076 139.578C98.0728 139.369 98.4275 138.969 98.4905 138.445C98.5583 137.86 98.182 137.415 97.8815 136.95C97.0551 135.667 96.2417 134.379 95.3492 133.146C95.2102 133.54 95.0697 133.944 94.9263 134.339C100.204 133.394 105.424 132.152 110.59 130.71C113.165 129.989 115.731 129.222 118.282 128.412C118.927 128.204 119.568 128.001 120.213 127.793C120.79 127.601 121.372 127.515 121.908 127.211C122.689 126.765 123.122 125.694 122.289 125.048C122.254 125.466 122.226 125.887 122.19 126.301C122.678 125.939 122.986 125.302 122.616 124.729C122.225 124.133 121.537 124.235 120.962 124.464C121.218 124.522 121.478 124.578 121.736 124.626C120.967 124.017 119.634 124.341 118.729 124.401C117.532 124.473 116.333 124.57 115.137 124.675C112.673 124.9 110.221 125.18 107.767 125.454C102.796 126 97.8193 126.407 92.8338 126.788C89.9801 127.008 87.134 127.206 84.279 127.407C84.5411 127.589 84.8047 127.775 85.0683 127.961C84.549 126.865 83.1674 126.89 82.5536 127.912C82.7778 127.767 82.9977 127.623 83.2277 127.481C82.4302 127.53 81.6389 127.539 81.1342 128.255C80.547 129.074 81.1286 129.87 81.5312 130.636C82.4882 132.488 83.552 134.281 84.6804 136.033C84.8909 135.621 85.1029 135.214 85.3135 134.801C75.9375 135.187 66.5739 135.82 57.2272 136.686C55.9292 136.805 54.6385 136.932 53.3434 137.059C52.7469 137.117 52.1334 137.121 51.6403 137.513C51.2617 137.81 50.9966 138.293 51.0826 138.784C51.1575 139.21 51.4443 139.558 51.9107 139.548C52.2941 139.536 52.7435 139.143 52.6744 138.72C52.6883 138.793 59.9736 138.037 60.6619 137.979C63.4137 137.743 66.1653 137.522 68.9211 137.329C74.4007 136.934 79.8897 136.628 85.3809 136.403C85.9887 136.381 86.3403 135.686 86.0141 135.171C85.0668 133.709 84.1708 132.21 83.3393 130.672C83.1357 130.297 82.9365 129.92 82.7519 129.544C82.6588 129.361 82.5791 129.144 82.4655 128.972C82.4503 129.045 82.438 129.112 82.4214 129.181C82.4656 129.123 82.5226 129.104 82.5895 129.117C82.894 129.13 83.3356 129.118 83.6078 128.986C83.7088 128.939 83.9681 128.782 83.9752 128.639C83.9606 128.969 83.4287 128.147 83.5689 128.446C83.7191 128.761 83.9776 129.022 84.3581 129C89.4613 128.654 94.5619 128.27 99.6586 127.843C104.646 127.423 109.613 126.805 114.598 126.333C115.96 126.202 117.323 126.091 118.69 126.003C119.34 125.962 120.013 125.992 120.653 125.906C121.011 125.858 120.906 125.878 120.698 125.819C120.863 125.867 120.963 125.995 121.161 126.008C121.27 126.017 121.364 126.006 121.476 125.979C121.549 125.951 121.627 125.921 121.704 125.891C122.072 125.772 121.951 125.472 121.355 124.977C120.972 125.26 120.831 125.902 121.257 126.23C121.371 125.79 121.302 125.682 121.05 125.889C120.938 125.964 120.821 126.007 120.687 126.011C120.452 126.078 120.232 126.13 119.999 126.205C119.435 126.392 118.877 126.568 118.311 126.75C117.183 127.11 116.048 127.463 114.916 127.809C112.676 128.49 110.429 129.134 108.166 129.744C103.648 130.958 99.0839 132.012 94.4733 132.834C93.9698 132.924 93.7769 133.645 94.0504 134.027C94.9487 135.263 95.7576 136.552 96.5827 137.831C96.6488 137.93 96.7619 138.16 96.8558 138.256C96.9018 138.323 96.9463 138.401 96.9967 138.467C97.0867 138.176 97.0409 138.08 96.8564 138.183C96.6193 138.139 95.968 138.46 95.74 138.534C94.9947 138.775 94.2509 139.006 93.5028 139.238C92.8613 139.441 92.1302 139.561 91.6178 139.998C91.5033 140.093 91.4546 140.152 91.3 140.168C91.1965 140.177 91.0138 140.077 90.903 140.079C90.6771 140.084 90.4065 140.205 90.2004 140.272C88.7041 140.736 87.2064 141.196 85.7117 141.65C79.7665 143.451 73.787 145.161 67.7628 146.673C66.0876 147.093 64.4053 147.506 62.7203 147.896C61.8835 148.094 61.0382 148.28 60.1972 148.464C59.7767 148.557 59.3562 148.649 58.9358 148.741C58.7679 148.776 58.597 148.817 58.4321 148.846C58.3065 148.877 58.1825 148.898 58.0525 148.93C57.5905 148.939 57.6041 149.206 58.0993 149.734C58.4153 149.423 58.3282 148.899 58.0422 148.613C55.2878 145.86 54.0599 142.032 52.6414 138.498C52.2492 137.539 50.7338 138.019 51.1086 138.969Z" fill="black"/>
</svg>
