<svg width="265" height="171" viewBox="0 0 265 171" fill="none" xmlns="http://www.w3.org/2000/svg">
<path d="M3.59328 82.5479C5.39398 85.1057 8.91415 85.7173 11.4677 83.9209L13.5678 82.4452C13.6619 82.612 13.7602 82.7746 13.8672 82.9328L18.4438 89.4385C19.6885 88.4676 20.9844 87.5565 22.3275 86.7139C24.1881 85.5377 26.13 84.494 28.1445 83.5787L23.1145 76.4315C22.999 76.2775 22.8835 76.1278 22.7595 75.9781L24.8511 74.5067C27.4046 72.7146 28.0205 69.1858 26.2241 66.6323C25.3258 65.3577 23.9914 64.5622 22.567 64.3184C21.1427 64.0746 19.62 64.3697 18.3497 65.2636L4.96627 74.6821C2.40849 76.4742 1.80112 79.9987 3.59328 82.5479Z" fill="#43005C"/>
<path d="M4.15049 82.2258C5.45932 84.0351 7.83319 84.7536 9.9333 84.0094C11.1395 83.5817 12.2131 82.6193 13.2481 81.8922C13.5304 81.6954 13.9624 81.8409 14.125 82.1231C14.8521 83.3807 15.7845 84.5441 16.6229 85.7331C17.4142 86.8623 18.2097 87.9872 19.001 89.1164C18.6631 89.0736 18.3295 89.0309 17.9916 88.9881C21.0284 86.6228 24.3219 84.6253 27.8206 83.0256C27.7437 83.3165 27.6667 83.6116 27.5897 83.9025C26.73 82.6835 25.8745 81.4602 25.0148 80.2412C24.1251 78.9751 23.2868 77.6363 22.3073 76.4345C22.0336 76.0965 22.0763 75.6816 22.4356 75.425C23.3509 74.7791 24.3989 74.1889 25.1859 73.3848C26.5418 72.0032 26.9609 69.9117 26.2851 68.1067C25.4895 65.9766 23.2526 64.6507 21.007 64.9116C19.8992 65.0399 19.0096 65.5874 18.1285 66.2076C14.1592 69.0006 10.1899 71.7937 6.21639 74.5867C5.54915 75.0572 4.86481 75.4935 4.33443 76.1308C2.88018 77.8759 2.88871 80.378 4.15049 82.2258C4.61671 82.9102 3.50464 83.5517 3.0427 82.8717C1.79376 81.041 1.59272 78.6885 2.50377 76.6697C3.0427 75.4806 3.94092 74.6209 4.98883 73.8852C7.01624 72.4566 9.04791 71.0323 11.0753 69.6037C13.1968 68.111 15.3226 66.6182 17.4441 65.1212C18.4321 64.4283 19.4416 63.8508 20.6649 63.6669C23.1799 63.2948 25.7248 64.4882 27.0251 66.6824C28.2612 68.7697 28.1671 71.5114 26.7513 73.4917C25.8232 74.792 24.3689 75.6218 23.0815 76.5243C23.1242 76.1864 23.167 75.8527 23.2098 75.5148C24.2363 76.7766 25.1217 78.1667 26.0541 79.4969C26.931 80.7459 27.8121 81.9948 28.6889 83.2438C28.8728 83.509 28.7573 83.988 28.4579 84.1206C25.0661 85.669 21.8325 87.5852 18.8898 89.882C18.5476 90.1515 18.1413 90.1215 17.8804 89.7537C17.0891 88.6245 16.2935 87.4996 15.5023 86.3704C14.6682 85.1814 13.7315 84.0222 13.0043 82.7605C13.2952 82.8374 13.5903 82.9144 13.8812 82.9914C12.5809 83.9067 11.2935 85.0188 9.71516 85.4038C7.15738 86.024 4.55683 84.9718 3.03414 82.8674C2.55509 82.2001 3.66716 81.5586 4.15049 82.2258Z" fill="#1D0932"/>
<path d="M59.9686 64.2741L250.365 102.491C255.925 103.607 261.34 100.002 262.457 94.4413L264.223 85.6345C265.339 80.0741 261.734 74.6592 256.173 73.5428L65.7771 35.3258C60.2167 34.2095 54.8017 37.8152 53.6854 43.3755L51.9189 52.1824C50.8025 57.7427 54.4039 63.1577 59.9686 64.2741Z" fill="#6C43BF"/>
<path d="M60.1368 63.6557C62.2454 64.0792 64.3498 64.5026 66.4585 64.926C72.1173 66.0638 77.776 67.1973 83.4348 68.335C91.6813 69.9903 99.932 71.6456 108.179 73.3008C117.965 75.2641 127.751 77.2316 137.542 79.1949C147.897 81.2736 158.256 83.3523 168.611 85.431C178.543 87.4242 188.475 89.4174 198.411 91.4106C206.952 93.1258 215.494 94.8409 224.031 96.5518C230.126 97.7751 236.226 98.9984 242.321 100.222C245.011 100.761 247.697 101.312 250.392 101.843C255.7 102.882 260.734 99.486 261.851 94.2165C262.27 92.2318 262.65 90.2386 263.048 88.2497C263.523 85.8801 264.109 83.5876 263.472 81.1709C262.462 77.3428 259.336 74.8321 255.554 74.0707C254.464 73.8526 253.377 73.6345 252.287 73.4163C247.389 72.4326 242.492 71.4488 237.594 70.4693C229.9 68.9252 222.205 67.3812 214.51 65.8371C205.011 63.9294 195.515 62.0218 186.015 60.1184C175.707 58.0483 165.395 55.9781 155.087 53.9122C144.958 51.8805 134.834 49.8445 124.706 47.8129C115.753 46.0164 106.801 44.22 97.849 42.4236C91.0654 41.0634 84.2817 39.699 77.498 38.3388C73.8709 37.6117 70.2396 36.8803 66.6125 36.1532C64.6065 35.7511 62.6347 35.61 60.6329 36.29C57.3138 37.4149 54.9998 40.2636 54.2812 43.6511C53.845 45.717 53.4515 47.7915 53.0366 49.8617C52.5875 52.0901 52.0657 54.2373 52.6345 56.517C53.5499 60.1655 56.4883 62.8687 60.1368 63.6557C60.9452 63.8311 60.603 65.0672 59.7946 64.8918C56.3044 64.139 53.3616 61.7737 51.9502 58.4803C50.8766 55.9738 51.0049 53.4631 51.5267 50.8583C51.9887 48.5571 52.4506 46.256 52.9125 43.9548C53.4729 41.1746 54.6662 38.6938 56.9246 36.8889C59.6663 34.6946 63.0667 34.1301 66.4457 34.8059C67.5834 35.0325 68.7212 35.2635 69.8589 35.4902C74.9317 36.5082 80.0002 37.5262 85.073 38.5441C92.9987 40.1353 100.924 41.7264 108.85 43.3175C118.551 45.2637 128.252 47.2141 137.957 49.1602C148.491 51.2732 159.026 53.3904 169.561 55.5033C179.754 57.5478 189.946 59.5966 200.139 61.6411C209.048 63.429 217.958 65.2169 226.867 67.0048C233.416 68.3179 239.964 69.6353 246.512 70.9484C249.652 71.5771 252.796 72.2059 255.935 72.8389C259.703 73.6002 262.864 75.9912 264.301 79.614C265.285 82.0991 265.088 84.5542 264.575 87.0992C264.113 89.4089 263.647 91.7186 263.185 94.0283C262.629 96.8042 261.346 99.2636 259.079 101.022C256.542 102.989 253.326 103.695 250.182 103.1C249.562 102.985 248.942 102.852 248.322 102.728C244.1 101.881 239.878 101.034 235.657 100.187C228.33 98.7161 220.999 97.2447 213.672 95.7733C204.313 93.8956 194.955 92.0179 185.596 90.136C175.151 88.0401 164.706 85.9443 154.261 83.8442C143.906 81.7655 133.551 79.6867 123.196 77.608C113.872 75.7346 104.547 73.8654 95.2185 71.992C88.0029 70.542 80.7829 69.0963 73.5672 67.6464C69.5082 66.8294 65.4491 66.0167 61.39 65.1998C60.8553 65.0928 60.325 64.9859 59.7903 64.879C58.9905 64.7336 59.3326 63.4975 60.1368 63.6557Z" fill="#1D0932"/>
<path d="M206.221 125.669L224.656 33.8243C225.691 28.666 222.35 23.6403 217.188 22.6052L206.922 20.5436C201.764 19.5085 196.738 22.849 195.703 28.0116L177.268 119.856C176.233 125.015 179.574 130.04 184.736 131.076L195.002 133.137C200.164 134.172 205.186 130.827 206.221 125.669Z" fill="#43005C"/>
<path d="M205.608 125.495C205.865 124.212 206.121 122.933 206.378 121.65C207.054 118.279 207.73 114.905 208.41 111.534C209.368 106.752 210.33 101.975 211.288 97.1928C212.392 91.688 213.5 86.1789 214.603 80.6742C215.72 75.1223 216.832 69.5705 217.948 64.0229C218.936 59.0956 219.928 54.1682 220.916 49.2409C221.635 45.6608 222.354 42.0808 223.072 38.5008C223.393 36.9054 223.718 35.3142 224.03 33.7188C224.599 30.8403 223.726 27.8291 221.673 25.7247C220.403 24.4287 218.786 23.5818 217.011 23.214C216.293 23.0643 215.574 22.9274 214.856 22.782C212.383 22.2858 209.915 21.7896 207.443 21.2935C206.344 21.0711 205.257 20.9257 204.128 21.0369C202.255 21.2208 200.441 22.0548 199.055 23.3252C197.558 24.7024 196.673 26.4775 196.275 28.4536C196.143 29.1123 196.01 29.7667 195.878 30.4254C195.292 33.351 194.706 36.2723 194.115 39.198C193.209 43.7147 192.302 48.2272 191.395 52.7439C190.317 58.1204 189.235 63.4969 188.157 68.869C187.028 74.4893 185.899 80.1096 184.774 85.7298C183.743 90.8582 182.717 95.9909 181.686 101.119C180.886 105.093 180.09 109.066 179.29 113.044C178.863 115.183 178.431 117.326 178.003 119.464C177.768 120.636 177.635 121.817 177.815 123.014C178.375 126.753 181.258 129.691 184.936 130.452C187.036 130.889 189.141 131.295 191.241 131.719C193.401 132.151 195.741 132.878 197.961 132.612C201.78 132.159 204.825 129.216 205.608 125.495C205.779 124.687 207.015 125.029 206.844 125.837C206.019 129.781 202.858 132.985 198.889 133.763C196.425 134.246 194.047 133.592 191.643 133.113C189.338 132.651 187.032 132.189 184.727 131.723C181.207 131.013 178.302 128.566 177.058 125.187C176.365 123.31 176.331 121.325 176.724 119.383C176.861 118.69 177.002 117.997 177.139 117.309C177.746 114.276 178.354 111.248 178.965 108.215C179.894 103.587 180.826 98.955 181.754 94.327C182.862 88.8137 183.965 83.3004 185.073 77.787C186.215 72.1069 187.353 66.4268 188.495 60.7466C189.526 55.6139 190.557 50.4813 191.587 45.3486C192.362 41.4906 193.136 37.6325 193.91 33.7744C194.291 31.8796 194.671 29.9848 195.052 28.0857C195.48 25.9471 196.493 23.9753 198.097 22.474C200.63 20.113 204.043 19.3131 207.392 19.9847C209.787 20.4637 212.182 20.947 214.578 21.4261C215.467 21.6057 216.357 21.7811 217.247 21.9607C218.825 22.2815 220.296 22.936 221.571 23.924C224.62 26.2979 226.015 30.2201 225.283 33.9968C225.211 34.3732 225.134 34.7539 225.057 35.1303C224.548 37.6624 224.039 40.1946 223.53 42.7267C222.666 47.0338 221.802 51.341 220.938 55.6439C219.86 61.0075 218.786 66.3712 217.708 71.7348C216.562 77.4406 215.416 83.1464 214.274 88.8522C213.205 94.1859 212.135 99.5153 211.062 104.849C210.21 109.092 209.359 113.335 208.508 117.574C208.021 120.012 207.529 122.445 207.041 124.884C206.977 125.2 206.913 125.521 206.849 125.837C206.682 126.646 205.446 126.304 205.608 125.495Z" fill="#1D0932"/>
<path d="M236.636 124.168L252.141 46.934C253.257 41.3736 249.652 35.9587 244.091 34.8423L235.284 33.0758C229.724 31.9595 224.309 35.5652 223.193 41.1255L207.688 118.359C206.571 123.92 210.177 129.335 215.738 130.451L224.544 132.217C230.109 133.334 235.52 129.732 236.636 124.168Z" fill="#43005C"/>
<path d="M236.024 123.996C236.255 122.845 236.486 121.699 236.716 120.548C237.324 117.529 237.927 114.509 238.534 111.493C239.385 107.246 240.241 102.995 241.092 98.7473C242.063 93.9098 243.034 89.068 244.005 84.2304C244.963 79.457 245.921 74.6837 246.879 69.9103C247.705 65.8084 248.526 61.7023 249.351 57.6004C249.907 54.8245 250.463 52.0486 251.024 49.277C251.396 47.4249 251.879 45.5857 251.635 43.6824C251.203 40.3205 248.928 37.3307 245.797 36.0304C244.056 35.3075 242.033 35.0894 240.198 34.7173C238.479 34.3708 236.768 34.0116 235.044 33.6822C231.682 33.0406 228.188 34.3024 225.951 36.8816C224.796 38.2161 224.112 39.8286 223.765 41.5437C223.645 42.1383 223.526 42.7328 223.406 43.3273C222.88 45.9536 222.349 48.5798 221.823 51.206C221.019 55.218 220.215 59.23 219.407 63.2378C218.457 67.977 217.503 72.7161 216.554 77.451C215.578 82.3099 214.603 87.1731 213.628 92.0321C212.764 96.3478 211.896 100.659 211.032 104.975C210.399 108.136 209.761 111.292 209.128 114.453C208.859 115.801 208.581 117.148 208.316 118.495C207.781 121.233 208.453 124.111 210.172 126.314C211.207 127.64 212.61 128.705 214.18 129.321C214.988 129.637 215.827 129.813 216.673 129.98C218.851 130.416 221.028 130.852 223.205 131.288C223.808 131.408 224.411 131.545 225.023 131.648C226.695 131.934 228.427 131.733 230.01 131.139C233.111 129.98 235.352 127.216 236.024 123.996C236.19 123.187 237.431 123.53 237.26 124.338C236.537 127.798 234.15 130.758 230.899 132.161C229.304 132.845 227.559 133.162 225.822 133.034C224.997 132.974 224.197 132.798 223.389 132.636C221.173 132.191 218.957 131.746 216.738 131.301C216.002 131.156 215.258 131.027 214.543 130.805C212.862 130.288 211.314 129.355 210.065 128.115C207.584 125.642 206.455 122.088 206.994 118.636C207.063 118.196 207.161 117.76 207.246 117.323C207.687 115.138 208.123 112.948 208.564 110.762C209.321 106.981 210.082 103.204 210.839 99.4231C211.789 94.7011 212.734 89.979 213.684 85.2612C214.685 80.2825 215.681 75.3081 216.682 70.3294C217.593 65.787 218.508 61.2403 219.419 56.6979C220.112 53.2377 220.809 49.7774 221.502 46.3128C221.845 44.6019 222.191 42.8868 222.533 41.1759C222.91 39.2939 223.709 37.5531 224.95 36.0817C227.204 33.4127 230.758 31.9456 234.24 32.2793C236.109 32.4589 237.974 32.9636 239.813 33.3315C241.669 33.7036 243.633 33.9431 245.442 34.5334C248.77 35.6155 251.413 38.2802 252.482 41.6122C253.081 43.4728 253.107 45.4189 252.726 47.3223C252.384 49.0289 252.042 50.7312 251.7 52.4378C251.007 55.8938 250.314 59.3498 249.617 62.8058C248.701 67.3653 247.786 71.9249 246.871 76.4844C245.874 81.4459 244.877 86.4032 243.885 91.3648C242.94 96.074 241.995 100.779 241.049 105.488C240.288 109.286 239.522 113.085 238.761 116.887C238.32 119.085 237.88 121.284 237.439 123.482C237.379 123.769 237.324 124.06 237.264 124.346C237.097 125.146 235.861 124.804 236.024 123.996Z" fill="#1D0932"/>
<path d="M92.1562 99.2797L110.3 8.88919C111.417 3.32881 116.831 -0.276868 122.392 0.839486L131.199 2.60595C136.759 3.72231 140.365 9.13728 139.248 14.6977L121.104 105.088C119.988 110.649 114.573 114.254 109.013 113.138L100.206 111.371C94.6455 110.255 91.0398 104.84 92.1562 99.2797Z" fill="#43005C"/>
<path d="M91.5392 99.1088C91.8001 97.8128 92.061 96.521 92.3176 95.225C93.002 91.8118 93.6863 88.3986 94.375 84.9854C95.3416 80.1607 96.3126 75.3359 97.2792 70.507C98.3913 64.9765 99.4991 59.4418 100.611 53.9113C101.723 48.3809 102.831 42.8462 103.943 37.3157C104.91 32.491 105.881 27.6663 106.847 22.8373C107.532 19.4241 108.216 16.0109 108.905 12.5977C109.166 11.3017 109.418 10.0057 109.683 8.71395C110.487 4.82595 113.4 1.6266 117.198 0.463197C118.948 -0.0757324 120.795 -0.127062 122.588 0.219393C123.396 0.37765 124.204 0.544468 125.013 0.707002C127.13 1.13045 129.251 1.54533 131.369 1.98161C135.158 2.76861 138.293 5.54452 139.534 9.21009C140.188 11.1391 140.214 13.158 139.816 15.1426C139.684 15.8141 139.547 16.4814 139.414 17.1529C138.82 20.1213 138.221 23.0897 137.626 26.0581C136.711 30.609 135.8 35.16 134.885 39.711C133.794 45.1388 132.707 50.5623 131.617 55.9901C130.492 61.5847 129.371 67.1836 128.246 72.7782C127.233 77.8381 126.215 82.8981 125.201 87.958C124.435 91.7733 123.67 95.5929 122.904 99.4081C122.528 101.277 122.156 103.146 121.779 105.011C121.356 107.124 120.402 109.075 118.901 110.632C116.296 113.339 112.472 114.455 108.806 113.737C106.616 113.309 104.431 112.86 102.245 112.419C101.509 112.274 100.778 112.129 100.042 111.979C98.1432 111.585 96.3767 110.696 94.931 109.4C92.0482 106.833 90.812 102.881 91.5392 99.1088C91.6974 98.3004 92.9336 98.6425 92.7753 99.4509C92.0439 103.253 93.6992 107.248 96.9584 109.366C99.0158 110.7 101.505 110.978 103.858 111.453C105.154 111.714 106.45 111.975 107.746 112.231C108.58 112.398 109.418 112.608 110.269 112.672C114.11 112.963 117.818 110.905 119.598 107.484C120.47 105.803 120.714 103.788 121.086 101.945C121.715 98.8179 122.339 95.6955 122.968 92.5689C123.884 88.0008 124.803 83.437 125.718 78.8689C126.801 73.4754 127.883 68.0861 128.965 62.6925C130.068 57.1963 131.172 51.7043 132.275 46.2081C133.268 41.2636 134.26 36.3234 135.252 31.3789C136.001 27.6535 136.749 23.9237 137.498 20.1983C137.861 18.3847 138.225 16.5712 138.589 14.7577C138.995 12.7303 138.837 10.6301 137.977 8.73533C136.595 5.69422 133.888 3.79514 130.663 3.145C128.302 2.67023 125.941 2.19545 123.584 1.72496C122.724 1.55387 121.865 1.34431 120.988 1.29298C119.076 1.17749 117.168 1.62659 115.513 2.59325C113.088 4.01328 111.462 6.39997 110.906 9.13739C110.804 9.6421 110.705 10.1468 110.603 10.6473C110.068 13.312 109.533 15.9767 108.999 18.6371C108.139 22.9229 107.279 27.2129 106.415 31.4987C105.363 36.7426 104.311 41.9864 103.259 47.2303C102.147 52.7779 101.03 58.3212 99.9182 63.8687C98.8874 69.0057 97.8566 74.1426 96.8258 79.2795C96.0089 83.3557 95.1919 87.4277 94.3707 91.5038C93.9002 93.8478 93.4297 96.1917 92.9592 98.5313C92.8993 98.835 92.8352 99.143 92.7753 99.4466C92.617 100.259 91.3809 99.9172 91.5392 99.1088Z" fill="#1D0932"/>
<path d="M64.262 89.5664L79.767 12.3326C80.8833 6.77219 86.2983 3.16649 91.8587 4.28284L100.665 6.04934C106.226 7.16569 109.832 12.5806 108.715 18.141L93.2103 95.3748C92.0939 100.935 86.679 104.541 81.1186 103.425L72.3118 101.658C66.7471 100.542 63.1457 95.131 64.262 89.5664Z" fill="#43005C"/>
<path d="M63.642 89.4002C63.8815 88.2111 64.1167 87.0263 64.3563 85.8372C64.9807 82.7234 65.6052 79.6096 66.2297 76.4958C67.1023 72.1501 67.9748 67.8002 68.8474 63.4545C69.8354 58.5314 70.8234 53.6127 71.8115 48.6896C72.7824 43.8606 73.7491 39.0316 74.72 34.2026C75.5369 30.1222 76.3582 26.0459 77.1751 21.9655C77.7055 19.3264 78.2359 16.6874 78.7619 14.0526C78.8774 13.4838 78.9887 12.9192 79.1041 12.3503C79.5105 10.34 80.4087 8.48368 81.7988 6.96954C84.1769 4.37327 87.7655 3.08155 91.2514 3.54349C93.0735 3.78729 94.8828 4.24497 96.6878 4.60425C98.5741 4.98493 100.614 5.21162 102.424 5.8917C105.691 7.11499 108.236 9.86523 109.164 13.2357C109.648 14.9936 109.635 16.7943 109.276 18.5736C109.152 19.1896 109.028 19.8055 108.904 20.4214C108.36 23.1203 107.821 25.8193 107.278 28.5182C106.453 32.6243 105.631 36.7305 104.806 40.8323C103.831 45.6912 102.856 50.5544 101.88 55.4133C100.892 60.3236 99.9085 65.2381 98.9205 70.1484C98.0522 74.4726 97.184 78.7969 96.3157 83.1255C95.704 86.1623 95.0967 89.2034 94.485 92.2402C94.2156 93.5833 94.0103 94.9648 93.6424 96.2865C92.6929 99.6954 90.0923 102.446 86.7732 103.643C85.1008 104.246 83.2915 104.4 81.5379 104.148C80.8792 104.054 80.2291 103.904 79.5789 103.772C77.3719 103.327 75.1605 102.886 72.9535 102.441C72.0852 102.266 71.2255 102.091 70.3957 101.77C68.7661 101.133 67.2905 100.127 66.1356 98.8058C63.8901 96.2223 62.9918 92.762 63.642 89.4002C63.8002 88.5918 65.0364 88.9339 64.8781 89.7423C64.228 93.1085 65.4342 96.5987 68.009 98.8614C69.2794 99.9777 70.832 100.701 72.4787 101.043C73.0519 101.162 73.625 101.274 74.1982 101.389C76.3539 101.821 78.5139 102.253 80.6696 102.689C83.2915 103.216 85.8835 102.98 88.2018 101.547C90.5072 100.127 92.0513 97.8049 92.5945 95.1658C92.6843 94.7381 92.7656 94.3104 92.8511 93.8827C93.3259 91.5174 93.8007 89.1521 94.2754 86.7868C95.0453 82.9587 95.811 79.1263 96.5809 75.2981C97.5219 70.6146 98.4628 65.931 99.3996 61.2475C100.379 56.3629 101.363 51.4783 102.342 46.5894C103.232 42.1582 104.122 37.7228 105.011 33.2916C105.687 29.9168 106.367 26.5421 107.043 23.1674C107.377 21.5078 107.71 19.8525 108.04 18.193C108.407 16.3666 108.3 14.5146 107.655 12.7609C106.5 9.62144 103.724 7.35022 100.473 6.67441C98.6981 6.30657 96.923 5.96012 95.1437 5.60511C93.2446 5.22444 91.26 4.64703 89.3096 4.74113C85.9563 4.90366 82.8681 6.90539 81.2984 9.86523C80.7723 10.8533 80.4857 11.9183 80.2675 13.009C79.8869 14.9123 79.5019 16.8157 79.1212 18.7191C78.4112 22.2606 77.6969 25.8022 76.9869 29.348C76.0801 33.869 75.1734 38.39 74.2623 42.9153C73.2786 47.8085 72.2991 52.7059 71.3153 57.599C70.3872 62.2141 69.4633 66.825 68.5351 71.4401C67.7952 75.1313 67.0509 78.8226 66.311 82.5181C65.8832 84.6481 65.4555 86.7782 65.0278 88.9083C64.9722 89.1863 64.9166 89.4686 64.861 89.7466C64.7198 90.5464 63.4795 90.2043 63.642 89.4002Z" fill="#1D0932"/>
<path d="M176.815 64.2164C167.11 62.266 157.4 60.3199 147.695 58.3695C144.971 57.822 142.246 57.2745 139.526 56.7313C138.717 56.5687 139.059 55.3326 139.868 55.4952C149.573 57.4456 159.282 59.3917 168.987 61.3421C171.712 61.8896 174.436 62.4371 177.157 62.9803C177.961 63.1428 177.619 64.379 176.815 64.2164Z" fill="#1D0932"/>
<path d="M0.640511 121.952C0.640511 148.633 22.2747 170.268 48.956 170.268C75.6373 170.268 97.2715 148.633 97.2715 121.952C97.2715 95.2752 75.6373 73.6367 48.956 73.6367C40.085 73.6367 31.7744 76.0277 24.6229 80.2022C24.1738 80.4674 23.7332 80.7326 23.2969 81.0064C21.4235 82.1869 19.6399 83.4829 17.9547 84.8986C16.7357 85.9123 15.5766 86.9902 14.473 88.1194C5.91003 96.8321 0.640511 108.774 0.640511 121.952Z" fill="#6C43BF"/>
<path d="M1.28393 121.95C1.29675 131.356 4.08551 140.612 9.31228 148.435C14.3594 155.988 21.5708 162.011 29.89 165.663C38.5428 169.461 48.3462 170.561 57.632 168.841C66.6612 167.169 75.1087 162.866 81.7684 156.54C88.4408 150.205 93.2014 141.989 95.34 133.041C97.5428 123.811 96.9183 113.982 93.5735 105.106C90.3784 96.6161 84.6812 89.0882 77.3971 83.6818C69.9419 78.1471 60.9383 74.8622 51.661 74.3532C39.5693 73.6859 27.5247 77.6766 18.2602 85.4825C9.73571 92.664 3.91013 102.758 1.98965 113.734C1.5106 116.441 1.2882 119.196 1.28393 121.95C1.28393 122.776 0.00075531 122.776 0.00075531 121.95C0.0221481 110.59 3.99995 99.499 11.2456 90.7435C19.1584 81.1839 30.5786 74.9178 42.8842 73.3737C52.9485 72.1119 63.3122 74.0495 72.2345 78.8742C80.4467 83.3183 87.3245 90.1361 91.837 98.3099C96.5248 106.796 98.5821 116.629 97.7267 126.287C96.8798 135.8 93.2313 144.91 87.3031 152.391C81.4818 159.735 73.5476 165.321 64.6723 168.332C55.4335 171.472 45.2538 171.741 35.8524 169.136C26.8018 166.626 18.5511 161.459 12.3277 154.431C6.04875 147.344 1.87845 138.473 0.522568 129.093C0.180389 126.728 0.0050354 124.345 0.00075531 121.954C0.00075531 121.125 1.28393 121.12 1.28393 121.95Z" fill="#1D0932"/>
<path d="M48.956 156.842C29.6848 156.842 14.0625 141.219 14.0625 121.948C14.0625 102.677 29.6848 87.0547 48.956 87.0547C68.2272 87.0547 83.8496 102.677 83.8496 121.948C83.8496 141.219 68.2272 156.842 48.956 156.842Z" fill="#FFFFA5"/>
<path d="M14.7021 121.948C14.7192 129.053 16.9263 136.016 21.0452 141.812C25.0231 147.406 30.716 151.769 37.1661 154.122C43.9369 156.59 51.4306 156.868 58.364 154.896C65.0151 153.001 70.9818 149.062 75.3916 143.741C79.8485 138.36 82.5773 131.606 83.1077 124.643C83.6509 117.513 81.97 110.319 78.2573 104.198C74.6859 98.3125 69.3522 93.5905 63.0903 90.7375C56.5676 87.7649 49.0952 86.9479 42.0763 88.3894C35.2713 89.7837 28.9966 93.2654 24.1976 98.2825C19.3814 103.317 16.1906 109.771 15.1085 116.653C14.8304 118.403 14.7064 120.173 14.7021 121.948C14.7021 122.774 13.4189 122.774 13.4189 121.948C13.4361 114.609 15.7115 107.359 19.9759 101.379C24.1419 95.5409 30.0188 91.0369 36.7555 88.5604C43.7444 85.9941 51.5418 85.7246 58.7019 87.7649C65.5968 89.7281 71.833 93.8214 76.3839 99.3604C81.0204 105.002 83.8306 111.974 84.3866 119.258C84.9469 126.598 83.1804 134.053 79.3609 140.349C75.6611 146.448 70.1135 151.397 63.6079 154.331C56.8242 157.389 49.1722 158.245 41.8753 156.782C34.8179 155.366 28.2609 151.726 23.2865 146.53C18.295 141.311 14.9374 134.592 13.8424 127.449C13.5644 125.627 13.4189 123.792 13.4147 121.953C13.4189 121.123 14.7021 121.123 14.7021 121.948Z" fill="#1D0932"/>
<path d="M43.1325 117.035C40.7801 115.076 38.4276 113.112 36.0709 111.149C35.7415 110.875 35.4079 110.597 35.0785 110.324C34.4455 109.793 35.3566 108.891 35.9853 109.417C38.3378 111.38 40.6903 113.339 43.047 115.302C43.3764 115.576 43.71 115.854 44.0393 116.128C44.6766 116.658 43.7656 117.561 43.1325 117.035Z" fill="#1D0932"/>
<path d="M47.3998 120.288C47.6265 115.361 48.02 110.442 48.5889 105.544C48.683 104.732 49.9661 104.723 49.872 105.544C49.3074 110.442 48.9097 115.361 48.683 120.288C48.6488 121.113 47.3613 121.118 47.3998 120.288Z" fill="#1D0932"/>
<path d="M21.5726 67.3858C22.6633 67.9333 23.493 69.0283 23.7197 70.2259C23.7539 70.397 23.7454 70.5638 23.6556 70.722C23.5786 70.8546 23.4246 70.9829 23.2706 71.0172C22.9541 71.0899 22.5478 70.9231 22.4793 70.568C22.4537 70.444 22.4237 70.3157 22.3895 70.1959C22.3681 70.1318 22.3467 70.0676 22.3253 70.0035C22.3168 69.9735 22.304 69.9479 22.2911 69.9179C22.2612 69.8452 22.3553 70.0548 22.304 69.9521C22.1927 69.7169 22.0687 69.4987 21.9147 69.2892C21.8506 69.1993 21.9874 69.379 21.9361 69.3191C21.9147 69.2977 21.8976 69.2721 21.8762 69.2464C21.8377 69.1994 21.795 69.1523 21.7522 69.1095C21.6624 69.0154 21.5726 68.9256 21.4742 68.8443C21.4528 68.823 21.4271 68.8058 21.4057 68.7845C21.3031 68.6989 21.5298 68.8743 21.4186 68.793C21.3672 68.7588 21.3202 68.7203 21.2689 68.6861C21.1577 68.6134 21.0379 68.5449 20.9181 68.485C20.6187 68.3353 20.5075 67.8862 20.6872 67.6082C20.8925 67.3088 21.2518 67.2233 21.5726 67.3858Z" fill="#1D0932"/>
<path d="M7.78356 108.383C6.95806 108.383 6.95806 107.1 7.78356 107.1C8.60907 107.1 8.61335 108.383 7.78356 108.383Z" fill="#1D0932"/>
<path d="M5.90431 114.031C5.07881 114.031 5.07881 112.748 5.90431 112.748C6.72981 112.748 6.72981 114.031 5.90431 114.031Z" fill="#1D0932"/>
<path d="M6.22993 118.416C6.22993 118.518 6.22993 118.625 6.22993 118.728C6.23421 118.818 6.21282 118.899 6.17432 118.976C6.14866 119.057 6.10589 119.126 6.04173 119.181C5.98185 119.245 5.9134 119.288 5.83641 119.314C5.75942 119.352 5.67817 119.374 5.58835 119.369C5.53274 119.361 5.47285 119.352 5.41725 119.348C5.31032 119.318 5.21623 119.262 5.13496 119.181C5.10074 119.138 5.06651 119.096 5.03657 119.053C4.97669 118.954 4.95104 118.843 4.95104 118.728C4.95104 118.625 4.95104 118.518 4.95104 118.416C4.94677 118.326 4.96813 118.244 5.00662 118.168C5.03229 118.086 5.07508 118.018 5.13924 117.962C5.19912 117.898 5.26755 117.855 5.34454 117.83C5.42153 117.791 5.50281 117.77 5.59263 117.774C5.64823 117.783 5.7081 117.791 5.7637 117.795C5.87063 117.825 5.96474 117.881 6.04601 117.962C6.08023 118.005 6.11444 118.048 6.14438 118.09C6.20426 118.189 6.22993 118.296 6.22993 118.416Z" fill="#1D0932"/>
<path d="M65.862 42.1406C65.0365 42.1406 65.0365 40.8574 65.862 40.8574C66.6918 40.8574 66.6918 42.1406 65.862 42.1406Z" fill="#1D0932"/>
<path d="M135.557 55.957C134.731 55.957 134.731 54.6738 135.557 54.6738C136.383 54.6738 136.387 55.957 135.557 55.957Z" fill="#1D0932"/>
<path d="M120.336 11.2207C119.51 11.2207 119.51 9.9375 120.336 9.9375C121.161 9.9375 121.161 11.2207 120.336 11.2207Z" fill="#1D0932"/>
<path d="M116.864 13.8765C116.851 13.7653 116.843 13.6499 116.83 13.5387C117.258 13.5387 117.685 13.5387 118.113 13.5387C118.109 13.5857 118.109 13.6327 118.117 13.6841C118.109 13.6285 118.1 13.5686 118.096 13.513C118.105 13.5686 118.122 13.6242 118.139 13.6755C118.117 13.6242 118.096 13.5729 118.075 13.5215C118.109 13.6028 118.156 13.6755 118.207 13.7482C118.173 13.7055 118.139 13.6627 118.109 13.6199C118.297 13.8551 118.549 14.0177 118.759 14.2273C119.054 14.5267 119.315 14.9416 119.302 15.3779C119.294 15.643 119.204 15.9082 119.024 16.105C118.862 16.2804 118.644 16.3573 118.417 16.3787C118.109 16.4044 117.775 16.2504 117.566 16.0365C117.407 15.874 117.301 15.6516 117.301 15.4206C117.301 15.1298 117.472 14.8689 117.724 14.7277C118.019 14.5652 118.438 14.6464 118.601 14.9587C118.759 15.2624 118.682 15.6602 118.37 15.8355C118.353 15.8441 118.34 15.8526 118.327 15.8654C118.37 15.8312 118.413 15.797 118.455 15.7671C118.443 15.7756 118.434 15.7885 118.425 15.797C118.46 15.7542 118.494 15.7115 118.524 15.6687C118.515 15.6815 118.511 15.6901 118.502 15.7029C118.524 15.6516 118.545 15.6003 118.567 15.5489C118.562 15.5575 118.562 15.566 118.558 15.5746C118.567 15.519 118.575 15.4591 118.579 15.4035C118.579 15.4164 118.579 15.4292 118.579 15.442C118.571 15.3864 118.562 15.3265 118.558 15.2709C118.562 15.288 118.567 15.3051 118.571 15.3223C118.549 15.2709 118.528 15.2196 118.507 15.1683C118.515 15.1897 118.528 15.211 118.545 15.2324C118.511 15.1896 118.477 15.1469 118.447 15.1041C118.472 15.134 118.498 15.1597 118.528 15.1854C118.485 15.1512 118.443 15.117 118.4 15.087C118.438 15.117 118.477 15.1383 118.524 15.1554C118.472 15.134 118.421 15.1127 118.37 15.0913C118.408 15.1084 118.447 15.1169 118.49 15.1255C118.434 15.1169 118.374 15.1084 118.319 15.1041C118.353 15.1084 118.387 15.1084 118.421 15.1041C118.366 15.1127 118.306 15.1212 118.25 15.1255C118.271 15.1212 118.293 15.1169 118.314 15.1084C118.263 15.1298 118.212 15.1511 118.16 15.1725C118.182 15.164 118.199 15.1554 118.216 15.1383C118.173 15.1726 118.13 15.2068 118.088 15.2367C118.105 15.2196 118.122 15.2068 118.135 15.1854C118.1 15.2281 118.066 15.2709 118.036 15.3137C118.053 15.288 118.07 15.2581 118.083 15.2281C118.062 15.2795 118.04 15.3308 118.019 15.3821C118.032 15.3436 118.041 15.3094 118.049 15.2666C118.041 15.3222 118.032 15.3821 118.028 15.4377C118.032 15.3907 118.032 15.3436 118.028 15.2923C118.036 15.3479 118.045 15.4078 118.049 15.4634C118.036 15.395 118.019 15.3265 117.989 15.2624C118.011 15.3137 118.032 15.365 118.053 15.4163C118.015 15.3265 117.964 15.2453 117.904 15.1683C117.938 15.2111 117.972 15.2538 118.002 15.2966C117.81 15.0528 117.549 14.886 117.33 14.6635C117.04 14.3641 116.809 13.9707 116.843 13.5387C116.856 13.3676 116.907 13.2093 117.031 13.0852C117.142 12.974 117.326 12.8885 117.484 12.8971C117.651 12.9056 117.822 12.9569 117.938 13.0852C118.058 13.2178 118.109 13.359 118.126 13.5387C118.139 13.6499 118.147 13.7653 118.16 13.8765C118.177 14.0305 118.079 14.223 117.972 14.3299C117.861 14.4411 117.677 14.5267 117.519 14.5181C117.352 14.5096 117.181 14.4582 117.065 14.3299C116.933 14.1973 116.881 14.0519 116.864 13.8765Z" fill="#1D0932"/>
<path d="M116.564 10.75C115.739 10.75 115.739 9.4668 116.564 9.4668C117.39 9.4668 117.39 10.75 116.564 10.75Z" fill="#1D0932"/>
<path d="M86.2106 14.3545C86.0181 16.2365 85.8299 18.1142 85.6375 19.9961C85.6032 20.3426 85.368 20.6377 84.9959 20.6377C84.6751 20.6377 84.3201 20.3426 84.3543 19.9961C84.5468 18.1142 84.735 16.2365 84.9274 14.3545C84.9616 14.008 85.1969 13.7129 85.569 13.7129C85.8898 13.7129 86.2448 14.008 86.2106 14.3545Z" fill="#1D0932"/>
<path d="M88.9512 15.2871C88.9512 15.3855 88.9512 15.4796 88.9512 15.5779C88.9512 16.4034 87.668 16.4034 87.668 15.5779C87.668 15.4796 87.668 15.3855 87.668 15.2871C87.668 14.4616 88.9512 14.4616 88.9512 15.2871C88.9512 15.3855 88.9512 15.4796 88.9512 15.5779C88.9512 16.4034 87.668 16.4034 87.668 15.5779C87.668 15.4796 87.668 15.3855 87.668 15.2871C87.668 14.4616 88.9512 14.4616 88.9512 15.2871Z" fill="#1D0932"/>
<path d="M243.537 43.5442C243.537 43.386 243.537 43.232 243.537 43.0738C243.533 42.9839 243.554 42.9027 243.593 42.8257C243.618 42.7444 243.661 42.676 243.725 42.6204C243.785 42.5562 243.853 42.5134 243.93 42.4878C244.007 42.4493 244.089 42.4279 244.179 42.4322C244.234 42.4407 244.294 42.4493 244.35 42.4536C244.457 42.4835 244.551 42.5391 244.632 42.6204C244.666 42.6632 244.7 42.7059 244.73 42.7487C244.79 42.8471 244.816 42.9583 244.816 43.0738C244.816 43.232 244.816 43.386 244.816 43.5442C244.82 43.6341 244.799 43.7153 244.76 43.7923C244.735 43.8736 244.692 43.942 244.628 43.9976C244.568 44.0618 244.499 44.1046 244.422 44.1302C244.345 44.1687 244.264 44.1901 244.174 44.1858C244.119 44.1773 244.059 44.1687 244.003 44.1644C243.896 44.1345 243.802 44.0789 243.721 43.9976C243.687 43.9549 243.652 43.9121 243.623 43.8693C243.567 43.7667 243.541 43.6597 243.537 43.5442Z" fill="#1D0932"/>
<path d="M245.594 48.8886C244.768 48.8886 244.768 47.6055 245.594 47.6055C246.419 47.6055 246.419 48.8886 245.594 48.8886Z" fill="#1D0932"/>
<path d="M242.332 45.9118C242.49 46.07 242.584 46.2754 242.593 46.4978C242.597 46.5748 242.584 46.6603 242.563 46.733C242.542 46.81 242.507 46.8827 242.465 46.9469C242.306 47.1778 242.058 47.3489 241.78 47.4003C241.583 47.4345 241.451 47.4388 241.258 47.4045C241.113 47.3789 240.985 47.3104 240.873 47.2206C240.711 47.0966 240.608 46.9383 240.544 46.7415C240.514 46.6389 240.501 46.5277 240.497 46.4208C240.493 46.3096 240.51 46.1941 240.531 46.0914C240.6 45.7621 240.826 45.4627 241.062 45.2274C241.19 45.1034 241.331 44.9922 241.472 44.8853C241.699 44.7099 242.045 44.7783 242.281 44.9023C242.413 44.9751 242.537 45.0991 242.61 45.2274C242.696 45.3814 242.721 45.5183 242.738 45.6894C242.747 45.8006 242.725 45.9203 242.7 46.0315C242.674 46.147 242.623 46.2582 242.572 46.3609C242.516 46.4721 242.439 46.5705 242.358 46.6603C242.281 46.7458 242.182 46.8228 242.08 46.8741C241.926 46.9469 241.853 46.9682 241.686 46.9811C241.601 46.9896 241.515 46.9768 241.434 46.9554C241.267 46.9169 241.109 46.8185 240.989 46.6945C240.873 46.579 240.801 46.4079 240.801 46.2411C240.801 46.0829 240.869 45.8947 240.989 45.7877C241.113 45.6765 241.271 45.591 241.442 45.5995C241.613 45.6081 241.776 45.6637 241.896 45.7877C241.909 45.8006 241.926 45.8134 241.938 45.8262C241.896 45.792 241.853 45.7578 241.81 45.7279C241.832 45.745 241.853 45.7578 241.874 45.7664C241.823 45.745 241.772 45.7236 241.72 45.7022C241.742 45.7107 241.763 45.7193 241.789 45.7193C241.733 45.7108 241.673 45.7022 241.618 45.6979C241.639 45.7022 241.66 45.7022 241.682 45.6979C241.626 45.7065 241.566 45.715 241.511 45.7193C241.536 45.715 241.558 45.7065 241.583 45.6979C241.532 45.7193 241.481 45.7407 241.429 45.7621C241.459 45.7492 241.485 45.7321 241.511 45.715C241.468 45.7493 241.425 45.7835 241.382 45.8134C241.421 45.7835 241.455 45.7492 241.485 45.7108C241.451 45.7535 241.417 45.7963 241.387 45.8391C241.429 45.7835 241.459 45.7279 241.485 45.6637C241.464 45.715 241.442 45.7664 241.421 45.8177C241.447 45.7578 241.464 45.6979 241.472 45.6338C241.464 45.6894 241.455 45.7492 241.451 45.8048C241.455 45.7578 241.459 45.7108 241.451 45.6637C241.459 45.7193 241.468 45.7792 241.472 45.8348C241.468 45.8048 241.459 45.7792 241.451 45.7535C241.472 45.8048 241.494 45.8562 241.515 45.9075C241.506 45.8861 241.494 45.8647 241.477 45.8433C241.511 45.8861 241.545 45.9289 241.575 45.9717C241.562 45.9545 241.549 45.9417 241.532 45.9289C241.575 45.9631 241.618 45.9973 241.66 46.0273C241.643 46.0144 241.626 46.0059 241.605 45.9973C241.656 46.0187 241.708 46.0401 241.759 46.0615C241.733 46.0487 241.703 46.0444 241.673 46.0401C241.729 46.0487 241.789 46.0572 241.844 46.0615C241.832 46.0615 241.819 46.0572 241.806 46.0572C241.913 46.0273 242.02 45.9973 242.131 45.9717C242.122 45.9802 242.114 45.9845 242.101 45.993C242.144 45.9588 242.187 45.9246 242.229 45.8947C242.067 46.023 241.913 46.1599 241.784 46.3224C241.819 46.2796 241.853 46.2369 241.883 46.1941C241.823 46.2711 241.772 46.3523 241.733 46.4422C241.755 46.3908 241.776 46.3395 241.797 46.2882C241.772 46.348 241.755 46.4122 241.746 46.4764C241.755 46.4208 241.763 46.3609 241.767 46.3053C241.759 46.3609 241.759 46.4122 241.767 46.4678C241.759 46.4122 241.75 46.3523 241.746 46.2967C241.75 46.3395 241.763 46.3823 241.776 46.425C241.755 46.3737 241.733 46.3224 241.712 46.2711C241.72 46.2967 241.733 46.3181 241.75 46.3352C241.716 46.2925 241.682 46.2497 241.652 46.2069C241.669 46.224 241.682 46.2411 241.703 46.2582C241.66 46.224 241.618 46.1898 241.575 46.1599C241.596 46.177 241.618 46.1898 241.643 46.1984C241.592 46.177 241.541 46.1556 241.489 46.1342C241.524 46.147 241.558 46.1556 241.596 46.1641C241.541 46.1556 241.481 46.147 241.425 46.1428C241.472 46.147 241.524 46.147 241.571 46.1428C241.515 46.1513 241.455 46.1599 241.4 46.1641C241.455 46.1556 241.515 46.1428 241.566 46.1171C241.515 46.1385 241.464 46.1598 241.412 46.1812C241.451 46.1641 241.485 46.1428 241.519 46.1171C241.477 46.1513 241.434 46.1855 241.391 46.2155C241.412 46.1984 241.429 46.1812 241.447 46.1599C241.412 46.2026 241.378 46.2454 241.348 46.2882C241.361 46.2711 241.37 46.2582 241.378 46.2368C241.357 46.2882 241.335 46.3395 241.314 46.3908C241.318 46.378 241.323 46.3652 241.327 46.3523C241.318 46.4079 241.31 46.4678 241.305 46.5234C241.305 46.5106 241.305 46.4978 241.305 46.4806C241.314 46.5362 241.323 46.5961 241.327 46.6517C241.323 46.6389 241.323 46.6218 241.314 46.609C241.335 46.6603 241.357 46.7116 241.378 46.763C241.37 46.7458 241.361 46.7287 241.348 46.7116C241.382 46.7544 241.417 46.7972 241.447 46.8399C241.438 46.8271 241.425 46.8143 241.412 46.8057C241.297 46.6902 241.224 46.5149 241.224 46.3523C241.224 46.1941 241.293 46.0059 241.412 45.8989C241.536 45.7877 241.695 45.7022 241.866 45.7108C242.05 45.7321 242.208 45.7877 242.332 45.9118Z" fill="#1D0932"/>
<path d="M242.592 60.9642C242.592 60.8059 242.592 60.6519 242.592 60.4937C242.587 60.4039 242.609 60.3226 242.647 60.2456C242.673 60.1643 242.716 60.0959 242.78 60.0403C242.84 59.9761 242.908 59.9334 242.985 59.9077C243.062 59.8692 243.143 59.8478 243.233 59.8521C243.289 59.8607 243.349 59.8692 243.404 59.8735C243.511 59.9034 243.605 59.959 243.687 60.0403C243.721 60.0831 243.755 60.1258 243.785 60.1686C243.845 60.267 243.871 60.3782 243.871 60.4937C243.871 60.6519 243.871 60.8059 243.871 60.9642C243.875 61.054 243.853 61.1353 243.815 61.2123C243.789 61.2935 243.747 61.3619 243.682 61.4176C243.622 61.4817 243.554 61.5245 243.477 61.5502C243.4 61.5887 243.319 61.61 243.229 61.6058C243.173 61.5972 243.113 61.5886 243.058 61.5844C242.951 61.5544 242.857 61.4988 242.776 61.4176C242.741 61.3748 242.707 61.332 242.677 61.2892C242.622 61.1866 242.592 61.0797 242.592 60.9642Z" fill="#1D0932"/>
<path d="M240.883 69.6132C240.057 69.6132 240.057 68.3301 240.883 68.3301C241.708 68.3301 241.708 69.6132 240.883 69.6132Z" fill="#1D0932"/>
<path d="M92.0812 129.913C92.3892 130.486 92.3421 131.179 92 131.731C91.6663 132.265 91.0804 132.659 90.4345 132.638C90.0153 132.625 89.7116 132.24 89.8143 131.825C89.9255 131.38 90.0538 130.922 90.3019 130.533C90.5714 130.105 90.9691 129.772 91.4653 129.644C91.9786 129.515 92.5688 129.609 92.9452 130.007C93.3002 130.384 93.3558 130.922 93.1591 131.389C92.9367 131.915 92.3806 132.291 91.7989 132.107C91.4781 132.005 91.2429 131.658 91.3498 131.316C91.4525 130.995 91.7946 130.76 92.1411 130.867C92.171 130.875 92.1967 130.884 92.2266 130.888C92.171 130.88 92.1112 130.871 92.0556 130.867C92.0898 130.871 92.124 130.871 92.1582 130.867C92.1026 130.875 92.0427 130.884 91.9871 130.888C92.0256 130.884 92.0641 130.871 92.0983 130.854C92.047 130.875 91.9957 130.897 91.9444 130.918C91.9828 130.901 92.0128 130.88 92.047 130.854C92.0042 130.888 91.9615 130.922 91.9187 130.952C91.9572 130.922 91.9914 130.888 92.0213 130.85C91.9871 130.893 91.9529 130.935 91.923 130.978C91.9615 130.927 91.9957 130.871 92.0213 130.807C92 130.858 91.9786 130.91 91.9572 130.961C91.9828 130.897 92 130.837 92.0128 130.768C92.0042 130.824 91.9957 130.884 91.9914 130.94C91.9999 130.875 91.9999 130.807 91.9914 130.743C91.9999 130.798 92.0085 130.858 92.0128 130.914C92.0042 130.863 91.9914 130.816 91.9743 130.768C91.9957 130.82 92.0171 130.871 92.0385 130.922C92.0213 130.884 92 130.845 91.97 130.811C92.0042 130.854 92.0385 130.897 92.0684 130.94C92.0342 130.901 92 130.867 91.9572 130.833C92 130.867 92.0427 130.901 92.0855 130.931C92.0342 130.893 91.9828 130.863 91.9272 130.837C91.9786 130.858 92.0299 130.88 92.0812 130.901C92.0171 130.875 91.9486 130.858 91.8759 130.845C91.9315 130.854 91.9914 130.863 92.047 130.867C91.9572 130.854 91.8674 130.854 91.7775 130.867C91.8331 130.858 91.893 130.85 91.9486 130.845C91.8374 130.863 91.7305 130.893 91.6236 130.935C91.6749 130.914 91.7262 130.892 91.7775 130.871C91.6834 130.914 91.5936 130.965 91.5123 131.029C91.5551 130.995 91.5979 130.961 91.6407 130.931C91.5508 130.999 91.4781 131.081 91.4054 131.171C91.4396 131.128 91.4739 131.085 91.5038 131.042C91.3926 131.192 91.3028 131.354 91.23 131.521C91.2514 131.47 91.2728 131.419 91.2942 131.367C91.1873 131.624 91.1188 131.893 91.0504 132.159C90.8451 131.889 90.6398 131.615 90.4302 131.346C90.4901 131.346 90.5457 131.346 90.6056 131.337C90.55 131.346 90.4901 131.354 90.4345 131.359C90.5243 131.346 90.6099 131.32 90.6954 131.286C90.6441 131.307 90.5927 131.329 90.5414 131.35C90.6312 131.312 90.7168 131.26 90.7938 131.2C90.751 131.235 90.7082 131.269 90.6655 131.299C90.7596 131.226 90.8408 131.145 90.9093 131.051C90.875 131.094 90.8408 131.136 90.8109 131.179C90.8836 131.085 90.9392 130.982 90.9863 130.875C90.9649 130.927 90.9435 130.978 90.9221 131.029C90.9649 130.922 90.9991 130.811 91.0162 130.696C91.0076 130.751 90.9991 130.811 90.9948 130.867C91.0076 130.768 91.0076 130.67 90.9948 130.572C91.0034 130.627 91.0119 130.687 91.0162 130.743C91.0034 130.653 90.982 130.567 90.9478 130.482C90.9691 130.533 90.9905 130.585 91.0119 130.636C90.9991 130.606 90.982 130.576 90.9691 130.546C90.8109 130.251 90.8836 129.836 91.2001 129.669C91.5038 129.524 91.9144 129.597 92.0812 129.913Z" fill="#1D0932"/>
<path d="M89.2527 136.947C88.4272 136.947 88.4272 135.664 89.2527 135.664C90.0824 135.664 90.0824 136.947 89.2527 136.947Z" fill="#1D0932"/>
<path d="M89.7227 128.471C88.8972 128.471 88.8972 127.188 89.7227 127.188C90.5482 127.188 90.5482 128.471 89.7227 128.471Z" fill="#1D0932"/>
<path d="M48.2821 125.977C45.6884 125.977 43.5857 123.874 43.5857 121.28C43.5857 118.687 45.6884 116.584 48.2821 116.584C50.8759 116.584 52.9785 118.687 52.9785 121.28C52.9785 123.874 50.8759 125.977 48.2821 125.977Z" fill="#FFFFA5"/>
<path d="M44.2254 121.277C44.2468 122.958 45.2819 124.511 46.8859 125.088C48.5069 125.674 50.3504 125.165 51.4411 123.831C52.5061 122.526 52.6259 120.636 51.7662 119.198C50.915 117.77 49.1998 116.974 47.5574 117.287C45.6284 117.654 44.2554 119.327 44.2254 121.277C44.2126 122.103 42.9294 122.103 42.9422 121.277C42.9722 119.049 44.3409 117.068 46.4282 116.273C48.5069 115.482 50.9791 116.145 52.3864 117.864C53.7978 119.592 54.0288 122.073 52.874 124.006C51.7234 125.935 49.4736 126.91 47.2751 126.517C44.7686 126.063 42.9765 123.784 42.9422 121.277C42.9337 120.452 44.2169 120.452 44.2254 121.277Z" fill="#1D0932"/>
</svg>
