<svg width="470" height="622" viewBox="0 0 470 622" fill="none" xmlns="http://www.w3.org/2000/svg">
<g clip-path="url(#clip0)">
<path d="M262.825 473.562C200.451 476.917 220.084 401.703 150.022 415.515C149.7 414.361 162.526 402.249 162.526 402.249L154.76 395.567L170.011 385.872L157.976 376.702C157.976 376.702 169.403 364.54 172.737 362.325C169.319 358.026 163.616 353.693 163.616 353.693L180.223 351.456C180.223 351.456 172.814 343.621 169.138 339.413C204.714 327.259 246.861 421.106 302.567 359.068C322.71 403.255 304.754 456.976 262.825 473.562Z" fill="#6C43BF"/>
<path d="M262.824 472.513C253.067 473.024 243.149 471.654 234.594 466.698C227.73 462.721 222.313 456.836 217.602 450.539C212.814 444.143 208.607 437.321 203.539 431.129C198.521 424.992 192.517 419.61 185.164 416.451C175.526 412.306 164.832 412.166 154.592 413.669C152.971 413.907 151.356 414.193 149.741 414.508C150.175 414.752 150.601 414.997 151.034 415.242C151.041 415.298 151.076 415.808 151.048 415.633C151.027 415.479 150.937 415.794 151.027 415.689C151.132 415.563 151.209 415.389 151.3 415.256C151.454 415.032 151.51 414.969 151.587 414.871C151.768 414.648 151.957 414.424 152.146 414.2C153.096 413.103 154.096 412.055 155.109 411.013C157.269 408.79 159.485 406.624 161.721 404.478C162.239 403.982 162.749 403.492 163.266 403.003C163.657 402.633 163.685 401.885 163.266 401.522C160.68 399.292 158.087 397.069 155.501 394.84C155.431 395.392 155.361 395.937 155.291 396.489C159.736 393.665 164.189 390.835 168.634 388.004C169.27 387.598 169.906 387.193 170.542 386.788C171.262 386.333 171.164 385.453 170.542 384.977C167.04 382.307 163.539 379.644 160.037 376.974C159.527 376.583 159.016 376.199 158.506 375.807C158.576 376.359 158.646 376.904 158.716 377.457C162.441 373.494 166.223 369.552 170.207 365.847C171.192 364.925 172.275 363.911 173.268 363.24C173.869 362.835 173.918 362.143 173.478 361.591C170.808 358.271 167.53 355.37 164.147 352.798C164.063 353.434 163.979 354.077 163.895 354.713C168.732 354.063 173.569 353.406 178.405 352.756C179.104 352.665 179.803 352.567 180.502 352.476C181.327 352.364 181.446 351.232 180.963 350.722C177.217 346.759 173.471 342.782 169.878 338.679C169.724 339.266 169.571 339.846 169.417 340.433C176.63 337.994 184.102 340.224 190.749 343.635C199.15 347.94 206.678 353.825 214.254 359.389C222.418 365.379 230.714 371.376 239.899 375.737C248.712 379.924 258.4 382.454 268.199 381.161C280.333 379.554 290.803 372.48 299.316 364.023C300.686 362.66 302.014 361.255 303.307 359.822C302.755 359.752 302.21 359.683 301.657 359.613C305.425 367.909 307.948 376.807 309.073 385.851C310.157 394.588 310.01 403.507 308.549 412.194C307.13 420.645 304.523 428.913 300.693 436.588C296.947 444.101 292.068 451.042 286.127 456.983C280.151 462.952 273.147 467.837 265.459 471.325C264.494 471.766 263.523 472.178 262.537 472.562C261.3 473.052 261.838 475.086 263.097 474.582C271.239 471.346 278.732 466.67 285.204 460.757C291.551 454.963 296.87 448.05 301 440.523C305.215 432.841 308.228 424.496 309.989 415.913C311.806 407.05 312.323 397.915 311.513 388.905C310.674 379.623 308.472 370.481 304.915 361.856C304.453 360.745 303.978 359.634 303.475 358.536C303.202 357.935 302.245 357.858 301.825 358.327C293.515 367.567 283.261 375.961 270.827 378.589C261.391 380.581 251.746 378.694 243.023 374.864C233.741 370.789 225.36 364.904 217.204 358.956C209.536 353.357 202.002 347.409 193.67 342.81C186.932 339.092 179.174 336.135 171.381 337.729C170.528 337.903 169.689 338.134 168.865 338.414C168.089 338.672 167.872 339.56 168.403 340.168C171.996 344.271 175.742 348.248 179.489 352.211C179.642 351.624 179.796 351.044 179.95 350.456C175.113 351.106 170.276 351.764 165.44 352.414C164.741 352.504 164.042 352.602 163.343 352.693C162.329 352.833 162.483 354.147 163.091 354.608C163.112 354.629 163.14 354.643 163.161 354.664C162.861 354.433 163.154 354.664 163.217 354.706C163.441 354.881 163.664 355.056 163.881 355.237C164.685 355.887 165.475 356.551 166.251 357.229C168.305 359.032 170.29 360.941 172.003 363.079C172.073 362.527 172.143 361.982 172.213 361.43C169.794 363.058 167.711 365.288 165.649 367.322C163.301 369.649 160.994 372.019 158.709 374.409C158.213 374.927 157.723 375.444 157.227 375.968C156.724 376.506 156.899 377.205 157.437 377.618C160.939 380.288 164.44 382.951 167.942 385.62C168.452 386.012 168.962 386.396 169.473 386.788C169.473 386.187 169.473 385.578 169.473 384.977C165.027 387.808 160.575 390.632 156.13 393.463C155.494 393.868 154.858 394.273 154.222 394.679C153.69 395.014 153.474 395.867 154.012 396.328C156.598 398.558 159.191 400.781 161.777 403.01C161.777 402.514 161.777 402.025 161.777 401.529C157.898 405.191 153.907 408.881 150.454 412.963C149.811 413.718 148.791 414.725 149.001 415.815C149.112 416.402 149.769 416.647 150.294 416.549C160.743 414.501 171.912 413.844 182.089 417.499C189.574 420.19 195.739 425.244 200.869 431.227C206 437.21 210.158 443.934 214.799 450.287C219.531 456.759 224.815 462.917 231.588 467.334C239.591 472.555 249.034 474.694 258.504 474.743C259.944 474.75 261.384 474.708 262.817 474.638C264.166 474.54 264.173 472.443 262.824 472.513Z" fill="#1D0932"/>
<path d="M343.41 490.412C404.414 473.127 426.787 566.423 488.938 540.555C479.858 536.885 476.58 512.08 476.58 512.08L496.787 510.025L483.856 491.908L506.027 486.512C506.027 486.512 504.461 473.672 499.1 468.5C506.3 467.571 518.957 455.108 518.957 455.108L497.71 445.407L516.952 421.014C516.952 421.014 451.062 461.546 406.329 414.87L343.41 490.412Z" fill="#6C43BF"/>
<path d="M343.686 491.426C354.17 488.469 365.046 488.679 375.327 492.341C385.043 495.808 393.661 501.826 401.65 508.228C410.023 514.931 417.907 522.242 426.371 528.833C434.437 535.11 443.146 540.869 452.994 543.916C463.443 547.153 474.473 546.705 484.803 543.232C486.292 542.728 487.76 542.176 489.214 541.568C490.199 541.156 490.199 539.96 489.214 539.548C487.445 538.814 486.04 537.137 484.999 535.55C483.608 533.439 482.574 531.105 481.7 528.742C480.057 524.283 478.939 519.621 478.1 514.952C477.968 514.211 477.842 513.47 477.723 512.722C477.688 512.506 477.66 512.282 477.625 512.065C477.604 511.933 477.555 511.562 477.625 512.086C477.276 512.436 476.926 512.785 476.577 513.135C482.469 512.534 488.361 511.94 494.253 511.339C495.099 511.255 495.937 511.164 496.783 511.08C497.489 511.01 498.195 510.213 497.692 509.5C493.918 504.209 490.136 498.918 486.362 493.627C485.831 492.879 485.293 492.131 484.761 491.384C484.552 491.894 484.342 492.411 484.132 492.921C490.605 491.349 497.07 489.769 503.542 488.197C504.465 487.973 505.38 487.749 506.303 487.526C506.701 487.428 507.128 486.952 507.072 486.512C506.764 484.003 506.233 481.508 505.555 479.068C504.444 475.056 502.871 470.737 499.838 467.759C499.684 468.346 499.53 468.927 499.376 469.514C503.046 469.003 506.485 466.627 509.42 464.516C512.426 462.349 515.277 459.959 518.003 457.457C518.576 456.933 519.149 456.401 519.702 455.856C520.142 455.423 520.114 454.493 519.492 454.207C513.285 451.376 507.086 448.545 500.879 445.708C499.998 445.309 499.125 444.904 498.244 444.505C498.314 445.058 498.384 445.603 498.454 446.155C500.613 443.422 502.766 440.682 504.926 437.949C508.386 433.56 511.853 429.171 515.312 424.781C516.109 423.775 516.899 422.768 517.696 421.762C518.381 420.895 517.521 419.441 516.424 420.112C514.229 421.461 511.915 422.628 509.609 423.761C503.884 426.563 497.943 428.947 491.877 430.89C483.762 433.49 475.374 435.314 466.868 435.992C457.286 436.754 447.577 436.055 438.323 433.371C427.846 430.331 418.292 424.753 410.317 417.33C409.205 416.296 408.129 415.227 407.073 414.129C406.71 413.745 405.948 413.696 405.592 414.129C403.495 416.645 401.405 419.154 399.308 421.671C394.304 427.682 389.292 433.693 384.288 439.704C378.214 446.994 372.14 454.284 366.073 461.574C360.845 467.85 355.617 474.127 350.382 480.403C347.845 483.451 345.273 486.47 342.77 489.538C342.735 489.58 342.7 489.622 342.666 489.664C341.806 490.692 343.281 492.187 344.147 491.146C346.244 488.63 348.334 486.121 350.431 483.604C355.435 477.593 360.447 471.582 365.451 465.572C371.525 458.282 377.599 450.991 383.666 443.701C388.894 437.425 394.122 431.148 399.357 424.872C401.076 422.803 402.803 420.741 404.522 418.672C405.312 417.722 406.305 416.778 406.969 415.737C406.997 415.695 407.038 415.653 407.073 415.611C406.577 415.611 406.088 415.611 405.592 415.611C413.504 423.837 423.093 430.317 433.871 434.14C443.195 437.446 453.169 438.697 463.031 438.313C471.929 437.97 480.756 436.356 489.297 433.86C495.965 431.91 502.48 429.422 508.763 426.473C510.762 425.536 512.733 424.55 514.676 423.502C515.55 423.034 516.577 422.6 517.36 421.985C517.395 421.957 517.437 421.936 517.479 421.915C517.053 421.363 516.633 420.818 516.207 420.266C514.047 422.999 511.894 425.739 509.735 428.471C506.275 432.861 502.808 437.25 499.348 441.64C498.552 442.646 497.762 443.653 496.965 444.659C496.595 445.134 496.497 445.994 497.175 446.309C503.381 449.139 509.581 451.97 515.788 454.808C516.668 455.206 517.542 455.612 518.423 456.01C518.353 455.458 518.283 454.913 518.213 454.36C513.963 458.54 509.224 462.587 504.01 465.502C502.389 466.41 500.669 467.228 498.81 467.48C498.006 467.591 497.839 468.731 498.349 469.234C501.173 472.009 502.563 476.084 503.584 479.816C504.017 481.417 504.381 483.031 504.674 484.667C504.765 485.156 504.842 485.645 504.919 486.141C504.94 486.281 504.947 486.435 504.982 486.575C504.891 486.218 504.961 486.407 504.975 486.505C505.233 486.169 505.485 485.834 505.744 485.492C499.271 487.064 492.806 488.644 486.334 490.216C485.411 490.44 484.496 490.664 483.573 490.887C482.958 491.034 482.553 491.88 482.944 492.425C486.718 497.716 490.5 503.007 494.274 508.298C494.805 509.046 495.343 509.794 495.875 510.542C496.175 510.018 496.476 509.493 496.783 508.962C490.891 509.563 484.999 510.157 479.107 510.759C478.261 510.842 477.422 510.933 476.577 511.017C476.073 511.066 475.444 511.457 475.528 512.065C475.934 515.099 476.535 518.104 477.248 521.082C478.499 526.31 480.099 531.741 483.007 536.312C484.412 538.521 486.194 540.527 488.654 541.554C488.654 540.883 488.654 540.205 488.654 539.534C478.415 543.777 467.323 545.37 456.468 542.693C446.613 540.261 437.827 534.858 429.789 528.819C421.248 522.396 413.399 515.12 405.13 508.354C397.03 501.728 388.474 495.451 378.759 491.419C368.806 487.288 358.021 486.17 347.453 488.336C346 488.637 344.553 488.993 343.127 489.392C341.834 489.769 342.386 491.789 343.686 491.426Z" fill="#1D0932"/>
<path d="M334.684 254.465C342.464 254.57 350.229 253.416 357.645 251.082C358.931 250.677 358.379 248.649 357.086 249.062C349.831 251.347 342.282 252.473 334.677 252.368C333.336 252.347 333.336 254.444 334.684 254.465Z" fill="#1D0932"/>
<path d="M341.531 491.919C341.468 491.961 341.398 492.024 341.335 492.073C341.14 492.227 340.944 492.373 340.734 492.555C324.575 505.213 244.335 565.777 160.301 536.267C160.602 535.904 160.846 535.512 161.084 535.107C161.098 535.107 161.098 535.093 161.098 535.093C164.173 529.955 166.557 524.42 168.15 518.647C168.814 516.312 169.339 513.943 169.73 511.531C169.653 511.503 169.562 511.454 169.492 511.413C169.583 510.958 169.66 510.49 169.73 510.029C160.93 506.122 153.361 496.958 142.855 498.922C143.17 497.643 143.457 496.448 143.638 495.414L143.652 495.4C143.652 495.372 143.666 495.358 143.68 495.323C145.442 492.157 148.126 489.626 150.872 487.257C170.59 470.182 194.626 459.103 217.112 445.865C228.462 439.19 249.668 422.248 250.06 421.947H250.074C251.807 421.905 253.541 421.919 255.26 421.989C255.784 422.017 256.315 422.031 256.861 422.066C268.617 422.835 280.205 426.365 290.354 432.404C300.062 438.191 308.303 446.075 316.306 454.05C327.21 464.912 338.302 476.919 341.531 491.919Z" fill="#FFFFA5"/>
<path d="M341.008 491.011C338.646 492.828 336.549 494.492 334.068 496.323C330.909 498.657 327.694 500.929 324.436 503.124C315.42 509.212 306.047 514.782 296.374 519.752C284.359 525.923 271.855 531.166 258.938 535.143C244.617 539.553 229.785 542.398 214.807 543.069C198.57 543.796 182.278 541.922 166.705 537.239C164.65 536.624 162.616 535.953 160.596 535.247C160.75 535.834 160.904 536.415 161.058 537.002C162.351 535.345 163.329 533.402 164.28 531.529C165.293 529.53 166.209 527.475 167.027 525.385C168.739 521.003 169.997 516.446 170.766 511.805C170.836 511.364 170.724 510.84 170.284 510.623C170.207 510.581 170.123 510.547 170.046 510.505C170.207 510.896 170.368 511.294 170.528 511.686C170.619 511.225 170.696 510.763 170.766 510.302C170.836 509.883 170.731 509.316 170.284 509.121C161.135 505.004 153.558 495.967 142.606 497.91C143.039 498.336 143.465 498.769 143.899 499.203C144.08 498.476 144.262 497.742 144.423 497.008C144.493 496.679 144.577 496.344 144.626 496.009C144.563 496.05 144.493 496.092 144.43 496.141C144.486 496.071 144.542 496.001 144.591 495.932C145.094 494.778 145.974 493.709 146.785 492.751C148.477 490.752 150.455 489.019 152.447 487.321C156.55 483.819 160.855 480.569 165.286 477.493C174.128 471.364 183.452 465.975 192.846 460.74C201.778 455.756 210.914 451.045 219.588 445.621C226.081 441.561 232.252 436.968 238.361 432.355C242.562 429.182 246.686 425.918 250.837 422.696C250.593 422.801 250.341 422.899 250.097 423.004C254.101 423.004 258.057 423.094 262.028 423.64C266.012 424.185 269.954 425.058 273.791 426.226C281.591 428.602 288.881 432.293 295.507 437.024C302.168 441.777 308.137 447.418 313.945 453.163C319.348 458.51 324.723 463.941 329.392 469.952C334.522 476.564 338.73 483.973 340.533 492.206C340.82 493.527 342.847 492.968 342.553 491.647C340.645 482.938 336.116 475.166 330.671 468.204C324.989 460.949 318.356 454.421 311.716 448.054C304.726 441.351 297.275 434.955 288.755 430.266C280.312 425.625 271.009 422.661 261.461 421.452C259.169 421.158 256.862 420.991 254.556 420.907C253.319 420.865 252.089 420.858 250.851 420.872C250.208 420.879 249.817 420.865 249.286 421.249C248.279 421.976 247.329 422.801 246.35 423.563C241.569 427.309 236.74 430.993 231.847 434.585C226.423 438.569 220.922 442.448 215.1 445.838C206.79 450.682 198.319 455.232 189.938 459.943C181.579 464.633 173.296 469.47 165.377 474.879C161.456 477.556 157.626 480.373 153.928 483.365C150.336 486.272 146.576 489.264 143.899 493.073C143.577 493.534 143.256 494.003 142.983 494.492C142.955 494.541 142.675 495.023 142.71 495.037C142.787 494.911 142.857 494.792 142.934 494.667C142.801 494.799 142.717 494.953 142.661 495.128C142.487 495.575 142.466 496.148 142.361 496.617C142.207 497.295 142.046 497.966 141.879 498.637C141.676 499.461 142.389 500.062 143.172 499.93C153.251 498.147 160.813 507.143 169.235 510.931C169.075 510.54 168.914 510.141 168.753 509.75C168.676 510.211 168.599 510.672 168.515 511.134C168.432 511.567 168.564 512.098 168.998 512.315C169.075 512.357 169.159 512.392 169.235 512.434C169.075 512.042 168.914 511.644 168.753 511.253C168.026 515.656 166.859 519.989 165.272 524.162C164.518 526.147 163.665 528.09 162.721 529.991C161.799 531.844 160.862 533.884 159.59 535.52C159.094 536.156 159.247 536.995 160.051 537.274C175.715 542.754 192.273 545.424 208.859 545.319C224.089 545.221 239.263 542.852 253.927 538.798C267.326 535.094 280.326 529.991 292.809 523.889C303.049 518.892 312.953 513.21 322.479 506.961C328.63 502.921 334.62 498.644 340.435 494.128C340.987 493.695 341.533 493.255 342.092 492.821C343.126 492.01 342.078 490.193 341.008 491.011Z" fill="#1D0932"/>
<path d="M249.827 420.82C249.681 420.953 249.52 421.072 249.359 421.198C249.254 421.296 249.184 421.407 249.143 421.533C249.08 421.659 249.045 421.792 249.052 421.939C249.045 422.085 249.08 422.218 249.143 422.344C249.184 422.477 249.254 422.589 249.359 422.679C249.429 422.735 249.499 422.791 249.569 422.84C249.73 422.938 249.911 422.98 250.1 422.98C250.191 422.966 250.289 422.952 250.38 422.945C250.554 422.896 250.708 422.805 250.841 422.673C250.995 422.547 251.162 422.428 251.309 422.295C251.414 422.197 251.484 422.085 251.526 421.96C251.589 421.834 251.624 421.701 251.617 421.554C251.624 421.407 251.589 421.274 251.526 421.149C251.484 421.016 251.414 420.904 251.309 420.813C251.239 420.757 251.169 420.701 251.1 420.652C250.939 420.555 250.757 420.513 250.568 420.513C250.478 420.527 250.38 420.541 250.289 420.548C250.114 420.597 249.953 420.687 249.827 420.82Z" fill="#1D0932"/>
<path d="M406.328 414.884C399.241 428.737 392.251 438.711 388.903 442.709C374.253 460.176 359.436 477.782 341.529 491.922C338.307 476.923 327.207 464.915 316.311 454.046C308.308 446.071 300.06 438.187 290.359 432.4C280.217 426.354 268.622 422.831 256.865 422.063C256.32 422.035 255.796 422.021 255.265 421.986C253.685 421.895 252.099 421.762 250.547 421.566C274.213 402.772 294.273 379.769 305.246 352.231C305.414 351.791 305.596 351.357 305.757 350.917C305.994 350.281 306.239 349.652 306.463 349.016C306.63 349.058 306.791 349.106 306.959 349.148C316.905 351.909 326.886 354.768 336.594 358.221C337.817 358.661 339.019 359.094 340.229 359.549C342.64 360.45 345.037 361.387 347.421 362.38C348.609 362.862 349.79 363.372 350.964 363.903C353.299 364.931 355.605 366.014 357.884 367.146C360.205 368.307 362.497 369.53 364.755 370.809C382.48 380.895 398.29 395.74 406.125 414.395V414.409H406.139C406.195 414.577 406.272 414.731 406.328 414.884Z" fill="#6C43BF"/>
<path d="M405.428 414.355C402.304 420.457 398.907 426.419 395.182 432.172C392.826 435.806 390.345 439.371 387.563 442.691C378.33 453.699 369.048 464.701 358.907 474.898C353.175 480.651 347.171 486.137 340.804 491.177C341.391 491.33 341.971 491.484 342.558 491.638C339.266 476.576 328.46 464.708 317.885 454.112C312.077 448.289 306.157 442.53 299.643 437.491C293.066 432.402 285.881 428.258 278.045 425.42C273.768 423.868 269.351 422.708 264.863 421.946C260.118 421.142 255.337 421.1 250.57 420.513C250.815 421.107 251.066 421.708 251.311 422.303C260.879 414.691 269.91 406.38 278.045 397.238C286.02 388.278 293.143 378.527 298.937 368.022C302.25 362.018 305.165 355.756 307.492 349.298C307.059 349.542 306.632 349.787 306.199 350.031C323.204 354.672 340.28 359.726 356.167 367.47C369.733 374.082 382.342 382.854 392.26 394.31C394.937 397.399 397.391 400.677 399.571 404.13C400.648 405.828 401.654 407.569 402.591 409.351C403.059 410.239 403.506 411.14 403.94 412.049C404.156 412.503 404.366 412.958 404.569 413.419C404.646 413.587 404.716 413.754 404.792 413.922C404.869 414.09 404.939 414.258 405.009 414.425C405.128 414.768 405.149 414.761 405.079 414.418C405.079 414.985 405.561 415.467 406.127 415.467C406.134 415.467 406.134 415.467 406.141 415.467C405.806 415.208 405.47 414.957 405.128 414.698C405.177 414.859 405.24 415.013 405.31 415.166C405.533 415.691 406.002 416.054 406.603 415.9C407.099 415.767 407.553 415.131 407.337 414.607C407.267 414.453 407.204 414.3 407.155 414.139C407.001 413.699 406.631 413.37 406.141 413.37C406.134 413.37 406.134 413.37 406.127 413.37C406.477 413.719 406.826 414.069 407.176 414.418C407.176 413.684 406.561 412.776 406.267 412.112C405.869 411.238 405.456 410.371 405.03 409.512C404.212 407.876 403.332 406.276 402.388 404.71C400.487 401.523 398.348 398.489 396.035 395.589C391.422 389.795 386.075 384.608 380.273 380.009C367.175 369.63 351.931 362.522 336.247 356.993C326.559 353.575 316.669 350.716 306.758 348.011C306.178 347.851 305.661 348.207 305.465 348.745C301.418 359.964 295.603 370.559 288.788 380.324C281.925 390.158 273.922 399.174 265.241 407.436C260.306 412.133 255.148 416.585 249.815 420.828C249.011 421.464 249.773 422.519 250.556 422.617C254.722 423.127 258.915 423.148 263.067 423.784C267.051 424.392 270.993 425.315 274.83 426.552C282.484 429.005 289.606 432.745 296.099 437.463C302.676 442.236 308.582 447.87 314.349 453.58C319.696 458.878 325.008 464.267 329.6 470.243C334.625 476.785 338.742 484.089 340.517 492.211C340.706 493.057 341.699 493.127 342.272 492.672C353.623 483.691 363.764 473.319 373.361 462.506C378.17 457.089 382.846 451.553 387.507 446.011C390.464 442.488 393.232 438.896 395.783 435.065C399.991 428.761 403.772 422.17 407.232 415.425C407.854 414.216 406.044 413.153 405.428 414.355Z" fill="#1D0932"/>
<path d="M169.506 511.406C169.142 513.349 168.695 515.25 168.164 517.13C166.563 522.903 164.187 528.432 161.111 533.576C160.797 534.086 160.496 534.583 160.084 535.023C153.241 533.604 142.463 529.313 139.779 523.043C137.697 518.171 140.548 508.079 142.463 500.509C153.087 498.251 160.685 507.415 169.506 511.406Z" fill="#1D0932"/>
<path d="M168.494 511.123C167.711 515.268 166.551 519.343 165.013 523.271C164.265 525.193 163.413 527.066 162.483 528.904C161.574 530.693 160.666 532.755 159.338 534.272C159.68 534.181 160.016 534.09 160.358 534C154.83 532.839 149.014 530.721 144.548 527.178C142.591 525.626 140.816 523.676 140.313 521.16C139.732 518.266 140.257 515.107 140.781 512.241C141.487 508.376 142.514 504.581 143.479 500.772C143.234 501.016 142.989 501.261 142.745 501.506C152.901 499.43 160.533 508.425 168.976 512.297C170.192 512.856 171.262 511.046 170.032 510.487C165.349 508.341 161.33 505.042 156.871 502.505C152.334 499.926 147.407 498.416 142.186 499.478C141.843 499.548 141.536 499.877 141.452 500.212C140.543 503.791 139.586 507.37 138.887 510.997C138.265 514.226 137.712 517.63 138.167 520.915C138.985 526.898 145.009 530.547 150.049 532.804C153.18 534.209 156.451 535.306 159.806 536.012C160.156 536.089 160.575 536.033 160.827 535.74C162.224 534.146 163.196 532.098 164.154 530.225C165.125 528.324 166.006 526.374 166.803 524.396C168.452 520.286 169.689 516.009 170.514 511.661C170.766 510.361 168.746 509.802 168.494 511.123Z" fill="#1D0932"/>
<path d="M333.516 205.572C332.81 205.859 332.076 206.048 331.328 206.188C331.517 206.859 331.699 207.536 331.887 208.207C332.621 208.026 333.348 207.816 334.075 207.592C334.334 207.516 334.564 207.348 334.704 207.11C334.837 206.886 334.893 206.551 334.809 206.299C334.725 206.048 334.571 205.803 334.327 205.67C334.075 205.552 333.789 205.489 333.516 205.572C332.796 205.796 332.069 206.013 331.328 206.188C331.077 206.25 330.832 206.446 330.699 206.67C330.566 206.893 330.51 207.229 330.594 207.481C330.678 207.732 330.832 207.977 331.077 208.11C331.335 208.249 331.594 208.27 331.887 208.214C332.628 208.068 333.369 207.879 334.075 207.599C334.215 207.565 334.334 207.502 334.432 207.411C334.543 207.334 334.634 207.236 334.704 207.117C334.837 206.893 334.893 206.558 334.809 206.306C334.725 206.055 334.571 205.81 334.327 205.677C334.089 205.559 333.768 205.468 333.516 205.572Z" fill="#1D0932"/>
<path d="M159.393 534.825C156.409 533.756 153.459 532.568 150.559 531.296C150.041 531.072 149.433 531.142 149.126 531.673C148.867 532.12 148.979 532.882 149.503 533.106C152.579 534.448 155.682 535.713 158.841 536.845C159.372 537.034 159.987 536.628 160.134 536.111C160.281 535.531 159.925 535.021 159.393 534.825Z" fill="#1D0932"/>
<path d="M406.477 414.616C406.358 414.553 406.267 414.483 406.162 414.421H406.148V414.407C398.313 395.745 382.503 380.899 364.778 370.82C346.703 360.525 326.566 354.57 306.493 349.027C307.233 347.056 307.911 345.05 308.54 343.016C311.252 334.349 313 325.41 315.034 316.568C319.961 295.076 326.545 273.946 334.688 253.432C334.359 253.432 334.038 253.418 333.709 253.418C332.731 253.39 331.717 253.341 330.816 252.964C329.774 252.524 328.964 251.727 328.181 250.93C320.541 243.186 313.363 234.966 306.702 226.348C305.633 224.964 304.549 223.517 304.109 221.812C303.599 219.806 304.018 217.695 304.459 215.661C304.927 213.473 305.409 211.279 305.877 209.077C306.206 207.525 306.541 205.96 306.884 204.387C314.419 208.245 323.386 209.259 331.62 207.218C332.402 207.064 333.143 206.868 333.807 206.603C342.341 203.842 349.68 197.677 353.958 189.828C372.494 197.831 370.537 234.882 384.872 250.266C388.143 253.796 392.134 256.549 395.769 259.688C444.94 312.018 425.481 377.265 406.477 414.616Z" fill="#FFFFA5"/>
<path d="M407.004 413.707C406.724 413.532 406.487 413.364 406.144 413.364C406.494 413.714 406.843 414.063 407.193 414.413C407.193 413.728 406.619 412.861 406.347 412.253C405.962 411.393 405.557 410.548 405.138 409.702C404.299 408.017 403.397 406.375 402.433 404.76C400.518 401.552 398.358 398.484 396.03 395.562C391.25 389.565 385.679 384.211 379.633 379.493C366.465 369.219 351.186 362.18 335.488 356.715C326.038 353.423 316.406 350.676 306.761 348.006C307.006 348.432 307.25 348.866 307.495 349.299C312.052 337.032 314.24 324.074 317.322 311.395C320.369 298.863 323.976 286.478 328.121 274.267C330.469 267.347 332.999 260.491 335.69 253.69C335.949 253.04 335.299 252.369 334.677 252.362C332.79 252.341 331.175 252.278 329.707 250.95C328.233 249.615 326.884 248.105 325.514 246.666C322.739 243.744 320.027 240.766 317.385 237.726C314.785 234.735 312.255 231.694 309.787 228.591C308.55 227.032 307.229 225.495 306.16 223.803C305.056 222.063 304.755 220.28 305.021 218.239C305.314 216.01 305.915 213.794 306.384 211.593C306.887 209.272 307.369 206.951 307.879 204.638C307.369 204.848 306.852 205.057 306.342 205.267C313.282 208.769 321.18 210.006 328.862 208.811C335.879 207.72 342.421 204.407 347.621 199.591C350.508 196.915 352.947 193.776 354.848 190.33C354.373 190.456 353.891 190.582 353.416 190.708C359.329 193.301 362.893 198.858 365.431 204.554C368.478 211.404 370.295 218.75 372.413 225.914C374.454 232.833 376.621 239.942 380.444 246.113C382.667 249.706 385.567 252.642 388.81 255.332C390.851 257.031 393.095 258.569 395.01 260.407C396.946 262.259 398.679 264.433 400.385 266.502C412.532 281.2 420.801 298.758 424.058 317.56C426.924 334.097 425.945 351.137 422.43 367.492C419.284 382.114 414.175 396.289 407.703 409.758C407.004 411.205 406.291 412.644 405.564 414.077C404.956 415.279 406.759 416.342 407.374 415.133C414.084 401.937 419.522 388.041 423.142 373.671C427.252 357.33 428.993 340.247 427.022 323.466C424.834 304.804 417.991 287.002 407.039 271.723C403.97 267.438 400.622 263.356 397.037 259.498C395.15 257.471 392.738 255.864 390.607 254.102C388.622 252.467 386.678 250.761 384.994 248.818C380.339 243.443 377.865 236.384 375.761 229.709C373.447 222.37 371.644 214.856 368.939 207.643C366.654 201.549 363.648 195.237 358.357 191.19C357.155 190.268 355.862 189.499 354.478 188.891C353.968 188.667 353.339 188.723 353.045 189.268C349.907 194.957 345.231 199.71 339.563 202.904C333.426 206.364 326.359 207.699 319.37 206.979C315.211 206.553 311.136 205.337 307.411 203.457C306.838 203.17 306.027 203.387 305.873 204.086C304.93 208.37 303.874 212.676 303.119 217.002C302.763 219.064 302.658 221.161 303.469 223.132C304.203 224.914 305.447 226.403 306.621 227.906C312.01 234.825 317.734 241.479 323.766 247.84C325.388 249.545 326.974 251.453 328.82 252.921C330.574 254.312 332.545 254.438 334.705 254.459C334.369 254.018 334.034 253.571 333.691 253.131C328.89 265.258 324.612 277.587 320.908 290.091C317.231 302.497 314.352 315.057 311.479 327.666C309.857 334.789 308.04 341.876 305.489 348.733C305.293 349.264 305.713 349.879 306.223 350.026C322.844 354.618 339.528 359.462 355.121 366.94C368.932 373.559 381.807 382.338 391.949 393.913C394.688 397.044 397.205 400.364 399.441 403.866C400.546 405.599 401.587 407.374 402.545 409.192C403.041 410.128 403.509 411.072 403.963 412.022C404.166 412.449 404.362 412.875 404.558 413.301C404.655 413.518 404.746 413.728 404.844 413.944C404.907 414.084 405.117 414.916 405.117 414.406C405.117 414.972 405.599 415.454 406.165 415.454C406.102 415.475 406.032 415.489 405.969 415.51C407.095 416.23 408.15 414.42 407.004 413.707Z" fill="#1D0932"/>
<path d="M333.516 205.572C332.81 205.859 332.076 206.048 331.328 206.188C331.517 206.859 331.699 207.536 331.887 208.207C332.621 208.026 333.348 207.816 334.075 207.592C334.334 207.516 334.564 207.348 334.704 207.11C334.837 206.886 334.893 206.551 334.809 206.299C334.725 206.048 334.571 205.803 334.327 205.67C334.075 205.552 333.789 205.489 333.516 205.572C332.796 205.796 332.069 206.013 331.328 206.188C331.077 206.25 330.832 206.446 330.699 206.67C330.566 206.893 330.51 207.229 330.594 207.481C330.678 207.732 330.832 207.977 331.077 208.11C331.335 208.249 331.594 208.27 331.887 208.214C332.628 208.068 333.369 207.879 334.075 207.599C334.215 207.565 334.334 207.502 334.432 207.411C334.543 207.334 334.634 207.236 334.704 207.117C334.837 206.893 334.893 206.558 334.809 206.306C334.725 206.055 334.571 205.81 334.327 205.677C334.089 205.559 333.768 205.468 333.516 205.572Z" fill="#1D0932"/>
<path d="M343.132 203.279C345.746 203.888 348.136 205.188 350.107 207.131C353.05 210.038 354.497 214.057 354.818 218.132C355.105 221.739 354.636 225.345 353.84 228.854C353.539 230.168 355.559 230.727 355.859 229.413C357.18 223.626 357.733 217.217 355.461 211.583C354.021 207.99 351.491 204.95 348.115 203.021C346.738 202.231 345.229 201.623 343.684 201.26C342.377 200.945 341.811 202.972 343.132 203.279Z" fill="#1D0932"/>
<path d="M383.333 265.43C392.259 274.251 400.045 284.386 405.315 295.821C410.956 308.052 413.283 321.723 411.018 335.066C409.509 343.978 406.14 352.428 401.604 360.221C400.926 361.389 402.736 362.444 403.414 361.277C411.186 347.906 415.359 332.585 413.549 317.096C411.99 303.754 406.419 291.235 398.738 280.311C394.614 274.44 389.91 268.988 384.808 263.949C383.857 262.998 382.376 264.48 383.333 265.43Z" fill="#1D0932"/>
<path d="M312.727 188.118C312.937 187.636 313.181 187.126 313.635 186.867C314.062 186.623 314.586 186.644 315.082 186.678C321.596 187.105 328.775 187.531 333.947 183.54C334.723 182.939 335.485 182.226 336.449 182.045C337.456 181.856 338.462 182.275 339.399 182.695C343.872 184.687 349.114 187.335 353.706 189.432C354.363 189.733 354.664 190.488 354.377 191.159C351.819 197.114 338.7 222.395 306.625 205.026C306.618 205.019 310.623 192.857 312.727 188.118Z" fill="#1D0932"/>
<path d="M313.631 188.644C313.918 188.015 314.044 187.715 314.778 187.701C315.337 187.694 315.903 187.771 316.462 187.806C317.678 187.883 318.894 187.945 320.118 187.966C322.347 188.015 324.584 187.924 326.793 187.568C328.917 187.219 331.007 186.562 332.887 185.492C333.838 184.947 334.649 184.234 335.543 183.612C336.676 182.822 337.647 183.067 338.863 183.591C343.469 185.59 347.929 187.917 352.493 190.014C353.052 190.273 353.534 190.322 353.325 190.937C353.227 191.21 353.08 191.482 352.954 191.741C352.661 192.356 352.353 192.964 352.032 193.558C347.747 201.498 340.681 208.054 331.524 209.613C323.074 211.046 314.498 208.061 307.145 204.105C307.306 204.497 307.467 204.895 307.627 205.286C309.473 199.716 311.262 194.026 313.631 188.644C314.17 187.421 312.366 186.352 311.821 187.589C309.375 193.139 307.502 198.982 305.608 204.741C305.468 205.167 305.698 205.713 306.09 205.922C313.345 209.829 321.627 212.765 329.987 211.926C335.795 211.346 341.149 208.942 345.559 205.14C348.886 202.267 351.619 198.688 353.73 194.837C354.408 193.6 355.806 191.524 355.463 190.091C355.163 188.84 354.058 188.449 353.003 187.959C351.773 187.386 350.557 186.806 349.334 186.226C346.922 185.073 344.511 183.899 342.085 182.773C339.87 181.746 337.347 180.173 334.942 181.522C333.922 182.095 333.083 182.955 332.07 183.556C331.07 184.15 330.001 184.611 328.882 184.947C326.59 185.646 324.199 185.863 321.816 185.891C320.593 185.905 319.37 185.87 318.154 185.814C316.944 185.758 315.7 185.562 314.491 185.611C313.17 185.667 312.359 186.436 311.835 187.596C311.269 188.812 313.079 189.875 313.631 188.644Z" fill="#1D0932"/>
<path d="M359.679 241.05C359.169 243.258 357.848 245.048 355.897 246.446C352.584 248.822 348.475 249.961 344.533 250.772C340.975 251.506 337.361 251.918 333.741 252.205C332.406 252.31 332.392 254.407 333.741 254.302C339.689 253.833 345.805 253.107 351.438 251.045C354.653 249.863 357.855 248.186 359.944 245.39C360.783 244.272 361.377 242.979 361.692 241.616C362.006 240.295 359.986 239.729 359.679 241.05Z" fill="#1D0932"/>
<path d="M162.664 511.04C173.617 509.489 184.415 506.924 194.893 503.401C205.405 499.864 215.609 495.37 225.311 489.988C230.769 486.962 236.06 483.649 241.177 480.077C242.274 479.308 241.226 477.491 240.121 478.267C231.098 484.571 221.508 490.051 211.486 494.615C201.463 499.179 191.006 502.814 180.32 505.477C174.316 506.973 168.235 508.154 162.105 509.021C160.777 509.209 161.343 511.229 162.664 511.04Z" fill="#1D0932"/>
<path d="M397.496 368.166C397.496 367.816 397.496 367.474 397.496 367.124C397.503 366.978 397.468 366.845 397.405 366.719C397.363 366.586 397.293 366.474 397.189 366.384C397.091 366.279 396.979 366.209 396.853 366.167C396.727 366.104 396.595 366.069 396.448 366.076C396.357 366.09 396.259 366.104 396.168 366.111C395.993 366.16 395.84 366.251 395.707 366.384C395.518 366.586 395.399 366.838 395.399 367.124C395.399 367.474 395.399 367.816 395.399 368.166C395.392 368.313 395.427 368.445 395.49 368.571C395.532 368.704 395.602 368.816 395.707 368.907C395.805 369.012 395.917 369.081 396.042 369.123C396.168 369.186 396.301 369.221 396.448 369.214C396.539 369.2 396.636 369.186 396.727 369.179C396.902 369.13 397.056 369.039 397.189 368.907C397.377 368.704 397.496 368.452 397.496 368.166Z" fill="#1D0932"/>
<path d="M243.676 473.129C243.676 473.345 243.676 473.555 243.676 473.772C243.676 475.121 245.773 475.121 245.773 473.772C245.773 473.555 245.773 473.345 245.773 473.129C245.773 471.78 243.676 471.773 243.676 473.129C243.676 473.345 243.676 473.555 243.676 473.772C243.676 475.121 245.773 475.121 245.773 473.772C245.773 473.555 245.773 473.345 245.773 473.129C245.773 471.78 243.676 471.773 243.676 473.129Z" fill="#1D0932"/>
<path d="M250.967 479.372C252.316 479.372 252.316 477.275 250.967 477.275C249.619 477.275 249.612 479.372 250.967 479.372Z" fill="#1D0932"/>
<path d="M261.344 481.453C262.693 481.453 262.693 479.356 261.344 479.356C259.995 479.356 259.995 481.453 261.344 481.453Z" fill="#1D0932"/>
<path d="M352.528 463.82C352.584 463.303 352.695 463.589 352.73 463.429C352.744 463.436 352.758 463.443 352.765 463.45C352.856 463.505 352.842 463.45 352.723 463.289C352.709 462.995 352.667 462.723 352.674 462.422C352.702 461.541 352.758 460.661 352.807 459.787C352.891 458.089 352.961 456.39 353.066 454.692C353.15 453.294 353.276 451.735 354.1 450.54C354.701 449.666 356.001 448.877 357.071 449.338C358.21 449.827 358.643 451.428 359.51 452.252C360.3 453.007 361.341 453.427 362.432 453.455C364.752 453.511 366.961 451.924 368.177 450.044C369.82 447.507 369.568 444.18 369.673 441.293C369.764 438.805 370.302 436.498 371.469 434.297C373.573 430.326 376.844 427.146 379.703 423.743C382.827 420.024 385.665 415.83 385.672 410.791C385.672 409.442 383.575 409.442 383.575 410.791C383.568 415.481 380.709 419.353 377.795 422.764C374.698 426.391 371.148 429.879 369.149 434.283C367.96 436.904 367.611 439.553 367.548 442.418C367.485 445.319 367.52 448.702 364.864 450.533C364.032 451.106 362.956 451.554 361.935 451.302C360.628 450.973 360.139 449.485 359.349 448.541C357.42 446.235 354.03 447.073 352.423 449.303C351.416 450.694 351.137 452.462 351.004 454.126C350.85 456.125 350.794 458.131 350.689 460.13C350.613 461.66 350.102 463.939 351.451 465.085C352.653 466.099 354.457 465.365 354.61 463.834C354.757 462.478 352.66 462.485 352.528 463.82Z" fill="#1D0932"/>
</g>
<defs>
<clipPath id="clip0">
<rect width="470" height="622" fill="white"/>
</clipPath>
</defs>
</svg>
