<svg width="470" height="622" viewBox="0 0 470 622" fill="none" xmlns="http://www.w3.org/2000/svg">
<g clip-path="url(#clip0)">
<path d="M275.805 487.299C274.869 498.875 276.251 511.194 280.328 522.053C278.255 519.148 276.759 515.472 275.823 510.876C271.169 487.822 271.432 464.83 271.747 441.395C271.747 441.076 271.651 440.828 271.484 440.642C293.676 427.384 314.336 410.361 332.451 390.708C331.506 411.999 333.247 433.867 333.746 455.132C334.183 474.448 337.349 498.343 328.629 516.083C329.188 510.371 329.337 504.596 329.153 498.839C328.961 492.64 329.145 482.481 326.625 476.76C322.086 466.477 303.516 469.896 295.512 471.18C284.01 473.013 276.925 473.731 275.805 487.299Z" fill="#6C43BF"/>
<path d="M315.576 344.766C322.786 350.912 321.648 360.415 320.553 368.305C316.792 368.018 312.901 368.349 309.253 369.247C301.644 371.113 294.842 374.809 288.05 378.166C284.037 380.145 280.007 382.089 275.985 384.059C275.264 378.148 274.43 371.461 274.995 365.097C275.472 364.957 275.837 364.617 275.776 364.033C275.69 363.161 275.577 362.29 275.49 361.418C276.845 354.208 280.45 347.756 288.693 343.85C296.293 340.25 308.957 339.099 315.576 344.766Z" fill="#6C43BF"/>
<path d="M323.541 523.476C323.497 512.06 323.133 500.626 322.894 489.2C322.636 476.598 321.927 450.655 321.98 450.575C326.033 433.775 318.903 367.228 318.043 359.688C326.68 333.522 360.448 326.882 376.241 349.911C384.435 361.845 380.276 377.486 379.301 392.066C378.254 407.859 377.146 423.66 376.055 439.443C373.971 469.985 371.905 500.51 369.795 531.052C369.13 540.57 367.72 550.24 363.587 556.968C367.019 547.682 368.42 537.54 367.214 527.309C366.824 524.029 366.514 519.323 363.995 517.193C360.643 514.35 353.664 516.213 349.896 516.329C343.458 516.525 335.761 515.758 329.482 517.577C327.859 518.058 326.636 518.102 325.616 519.912C323.47 523.744 325.11 533.03 325.545 537.219C326.148 543.226 327.336 549.045 328.986 554.723C326.343 551.131 324.188 546.942 322.619 542.557C322.486 542.219 322.317 541.978 322.122 541.809C323.239 535.757 323.576 529.358 323.541 523.476Z" fill="#6C43BF"/>
<path d="M328.966 369.579C337.57 374.993 338.19 384.986 333.115 392.439C328.949 398.569 317.489 407.864 308.257 405.207C300.711 403.031 291.007 391.433 291.452 384.695C292.02 376.353 308.825 368.772 317.289 367.938C317.62 367.911 317.839 367.711 317.926 367.503C319.656 367.403 321.385 367.403 323.123 367.557C325.027 367.729 326.818 368.101 328.469 368.627C328.434 368.972 328.565 369.325 328.966 369.579Z" fill="#FFFFA5"/>
<path d="M319.405 458.564C320.045 464.723 319.556 470.707 318.845 476.779C313.709 482.239 306.697 483 299.107 481.434C296.708 480.935 294.637 480.218 292.895 479.229C290.46 473.857 288.603 468.555 288.247 462.518C288.069 459.36 287.723 454.95 289.918 452.536C292.38 449.85 298.396 449.526 301.88 449.211C304.804 448.957 308.021 448.712 310.945 449.106C313.318 449.439 316.837 450.261 318.401 452.168C319.37 453.358 319.254 457.173 319.405 458.564Z" fill="#FFFFA5"/>
<path d="M366.155 457.813C366.759 464.95 364.608 471.897 360.629 478.119C360.345 478.551 360.455 478.974 360.72 479.267C357.902 480.933 354.334 481.977 349.778 482.132C343.09 482.383 337.225 480.13 332.523 476.566C330.153 470.318 328.561 463.975 328.268 457.381C328.223 456.389 327.747 454.205 328.232 453.308C329.787 450.442 333.557 449.7 336.722 449.562C340.592 449.381 344.49 449.252 348.36 449.174C351.699 449.105 355.395 448.682 358.707 449.044C365.038 449.726 365.743 452.85 366.155 457.813Z" fill="#FFFFA5"/>
<path d="M276.475 385.393C273.153 387.106 269.84 388.855 266.606 390.665C254.594 397.393 245.602 406.668 239.135 417.31C236.459 396.71 233.049 376.18 230.524 355.563C227.804 333.258 225.51 310.927 223.658 288.552C222.781 277.919 221.258 267.038 221.683 256.36C222.073 246.118 227.344 231.944 241.234 231.136C255.249 230.31 261.858 243.748 263.7 253.928C265.738 265.262 266.314 276.907 267.501 288.321C270.07 312.907 274.898 378.24 276.475 385.393Z" fill="#6C43BF"/>
<path d="M275.821 384.168C267.839 388.283 259.99 392.479 253.156 398.381C247.087 403.625 241.944 409.847 237.761 416.683C238.713 416.94 239.657 417.198 240.618 417.465C238.491 401.181 235.928 384.968 233.686 368.693C231.443 352.444 229.619 336.142 227.964 319.822C227.127 311.583 226.344 303.343 225.632 295.076C224.929 286.934 224.057 278.81 223.452 270.659C222.651 259.868 221.815 246.926 229.601 238.198C233.125 234.242 238.046 232.278 243.332 232.518C248.484 232.758 252.925 235.486 256.075 239.486C259.056 243.282 260.907 247.94 261.948 252.606C263.585 259.922 264.146 267.521 264.813 274.961C266.611 295.121 268.533 315.271 270.241 335.431C271.078 345.244 271.896 355.066 272.795 364.879C273.374 371.217 273.89 377.59 274.78 383.892C274.869 384.559 274.966 385.217 275.109 385.883C275.536 387.803 278.49 387.003 278.063 385.074C277.618 383.057 277.574 381.919 277.333 379.821C276.951 376.443 276.622 373.048 276.31 369.67C275.402 360.079 274.593 350.48 273.774 340.88C272.083 321.04 270.232 301.218 268.453 281.388C267.714 273.183 267.082 264.97 265.819 256.837C264.982 251.451 263.701 246.233 261.022 241.442C258.593 237.078 255.042 233.167 250.415 231.113C245.263 228.838 239.158 228.9 234.015 231.184C224.645 235.335 220.498 246.402 220.044 256.002C219.653 264.206 220.498 272.437 221.29 280.597C222.091 288.783 222.723 296.979 223.488 305.165C225.054 322.009 226.86 338.818 228.925 355.608C230.972 372.248 233.579 388.79 235.928 405.385C236.498 409.394 237.049 413.42 237.574 417.447C237.761 418.869 239.559 419.634 240.431 418.229C244.489 411.616 249.463 405.634 255.345 400.55C261.966 394.825 269.645 390.79 277.387 386.808C279.104 385.91 277.565 383.261 275.821 384.168Z" fill="black"/>
<path d="M266.211 416.338C266.816 416.595 266.379 417.482 265.746 417.281C259.903 415.396 255.512 411.39 253.242 406.377C252.963 405.791 254.135 405.37 254.414 405.947C256.759 410.649 260.908 414.161 266.211 416.338Z" fill="white"/>
<path d="M265.464 417.77C265.342 417.278 265.22 416.777 265.098 416.286C265.483 416.128 265.868 415.97 266.253 415.812C266.225 415.748 265.84 415.673 265.765 415.655C265.502 415.571 265.248 415.469 264.995 415.376C264.516 415.191 264.028 414.968 263.54 414.727C262.516 414.217 261.54 413.623 260.611 412.964C259.015 411.823 257.419 410.171 256.321 408.585C255.72 407.713 255.316 406.729 254.744 405.848C254.321 405.198 254.819 406.674 254.349 407.017C254.162 407.156 254.087 407.156 253.852 407.156C253.767 407.156 253.683 407.156 253.589 407.156C253.045 406.59 252.847 406.46 253.016 406.776C253.063 406.896 253.138 407.008 253.185 407.119C253.467 407.648 253.777 408.177 254.096 408.687C255.335 410.589 256.865 412.305 258.63 413.753C260.817 415.534 263.221 416.889 265.821 417.965C266.628 418.299 267.604 417.603 267.82 416.852C268.083 415.933 267.501 415.219 266.694 414.875C264.112 413.79 261.69 412.296 259.7 410.394C258.696 409.448 257.851 408.474 257.109 407.379C256.734 406.822 256.386 406.256 256.067 405.672C255.645 404.902 255.26 404.261 254.331 404.057C253.551 403.9 252.688 404.141 252.115 404.688C251.28 405.514 251.477 406.497 251.927 407.453C252.509 408.687 253.223 409.856 254.049 410.942C255.814 413.261 257.973 415.237 260.489 416.731C261.944 417.594 263.54 418.345 265.154 418.846C266.187 419.171 267.257 418.874 267.858 417.928C268.496 416.917 268.093 415.618 267.079 415.042C265.295 413.985 263.652 416.74 265.464 417.77Z" fill="black"/>
<path d="M264.618 424.692C265.27 425.167 264.337 425.934 263.694 425.486C258.877 422.147 254.566 418.438 250.799 414.263C249.712 413.063 244.868 409.156 247.159 407.43C247.34 407.292 247.557 407.309 247.738 407.43L248.019 407.62C248.3 407.81 248.001 408.25 247.666 408.138C247.539 408.086 249.395 410.855 249.749 411.252C250.555 412.175 251.397 413.089 252.248 413.978C253.443 415.229 254.684 416.428 255.961 417.61C258.677 420.094 261.584 422.466 264.618 424.692Z" fill="white"/>
<path d="M263.702 425.895C263.757 425.948 263.803 426.001 263.849 426.045C263.712 425.825 263.574 425.596 263.437 425.376C263.437 425.35 263.437 425.323 263.437 425.297C263.51 425.042 263.583 424.796 263.647 424.532C264.71 424.567 264.948 424.435 264.371 424.127C264.28 424.057 264.179 423.995 264.087 423.925C263.803 423.723 263.528 423.529 263.253 423.327C262.722 422.94 262.191 422.544 261.669 422.14C260.606 421.322 259.561 420.469 258.535 419.598C256.474 417.831 254.514 415.949 252.681 413.97C251.637 412.836 250.492 411.772 249.447 410.628C248.962 410.092 248.467 409.503 248.174 408.861C248.147 408.791 248.128 408.782 248.092 408.597C248.073 408.527 248.046 408.448 248.037 408.377C248.055 408.509 248.064 408.527 248.055 408.421C248.055 408.404 248.046 408.404 248.055 408.404C247.844 408.509 248.055 408.465 248.073 408.456C247.808 408.527 247.542 408.597 247.276 408.659C247.34 408.659 247.414 408.659 247.478 408.659C247.212 408.588 246.956 408.518 246.681 408.456C246.864 408.535 246.992 408.632 247.166 408.729C246.974 408.544 246.791 408.368 246.598 408.184C246.626 408.236 246.672 408.272 246.699 408.324C246.626 408.069 246.552 407.823 246.488 407.559C246.488 407.612 246.479 407.674 246.479 407.718C246.552 407.463 246.626 407.216 246.69 406.953C246.653 407.005 246.626 407.049 246.598 407.093C246.791 406.909 246.974 406.733 247.166 406.548C247.111 406.574 247.065 406.61 247.011 406.636C247.276 406.566 247.542 406.495 247.808 406.434C247.304 406.399 246.864 406.539 246.488 406.865C246.085 407.216 245.92 407.841 246.076 408.342C246.424 409.406 247.304 410.426 247.945 411.341C249.127 413.012 250.648 414.515 252.104 415.984C255.76 419.686 259.781 423.019 263.968 426.141C264.637 426.643 265.736 426.247 266.13 425.605C266.607 424.831 266.249 424.031 265.571 423.529C261.687 420.645 257.977 417.514 254.587 414.102C253.772 413.284 252.984 412.44 252.196 411.587C251.811 411.165 251.435 410.734 251.051 410.312C250.391 409.573 251.06 410.356 250.95 410.198C250.886 410.118 250.822 410.03 250.758 409.943C250.391 409.424 250.034 408.905 249.676 408.368C249.521 408.14 249.374 407.902 249.228 407.674C249.118 407.48 248.925 406.961 249.108 407.559C248.971 408.052 248.834 408.535 248.696 409.037C248.696 409.037 248.696 409.037 248.705 409.028C248.339 409.177 247.954 409.318 247.588 409.468C249.585 409.582 250.281 407.137 248.715 406.1C247.505 405.29 246.085 405.677 245.343 406.856C244.088 408.834 245.682 411.042 246.983 412.546C248.449 414.234 250.107 415.835 251.674 417.435C253.991 419.818 256.502 422.034 259.14 424.092C259.955 424.734 260.789 425.35 261.632 425.965C262.347 426.484 263.089 427.205 264.014 427.276C266.057 427.452 267.33 425.244 265.874 423.776C264.536 422.342 262.31 424.479 263.702 425.895Z" fill="black"/>
<path d="M255.954 417.609C254.678 416.427 253.438 415.228 252.244 413.977C251.393 413.08 250.552 412.166 249.746 411.252C249.393 410.855 247.538 408.086 247.665 408.138C248 408.258 248.298 407.81 248.018 407.62L247.737 407.43C247.547 407.309 247.33 407.292 247.158 407.43C244.869 409.155 249.71 413.063 250.796 414.262C254.57 418.446 258.877 422.147 263.691 425.485C264.334 425.933 265.275 425.174 264.614 424.691C261.583 422.474 258.678 420.102 255.954 417.609Z" fill="#6C43BF"/>
<path d="M257.079 416.552C254.911 414.515 252.963 412.338 250.915 410.205C250.567 409.836 251.107 410.512 250.851 410.126C250.759 409.985 250.649 409.854 250.558 409.713C250.347 409.406 250.137 409.099 249.927 408.791C249.726 408.484 249.534 408.186 249.332 407.878C249.204 407.685 248.893 406.93 249.104 407.589C248.966 408.08 248.829 408.563 248.692 409.064C248.692 409.064 248.692 409.064 248.701 409.055C248.335 409.204 247.951 409.344 247.585 409.494C248.628 409.555 249.561 408.774 249.616 407.764C249.662 406.93 249.095 406.298 248.363 405.921C246.653 405.043 245.025 406.649 244.897 408.23C244.714 410.67 247.128 412.821 248.756 414.41C251.226 416.824 253.503 419.388 256.137 421.653C257.719 423.013 259.365 424.313 261.057 425.559C262.448 426.595 264.359 428.263 265.978 426.542C266.819 425.647 266.591 424.409 265.676 423.654C264.725 422.873 263.691 422.153 262.731 421.389C260.783 419.827 258.89 418.22 257.079 416.552C255.616 415.209 253.384 417.342 254.847 418.685C256.274 420.002 257.737 421.275 259.247 422.504C259.978 423.101 260.728 423.698 261.469 424.278C262.21 424.857 263.097 425.384 263.755 426.051C263.618 425.831 263.481 425.603 263.344 425.384C263.344 425.357 263.344 425.331 263.344 425.305C263.417 425.05 263.49 424.804 263.554 424.541C264.615 424.576 264.853 424.444 264.277 424.137C264.185 424.067 264.085 424.005 263.993 423.935C263.71 423.733 263.435 423.54 263.161 423.338C262.621 422.952 262.1 422.557 261.579 422.153C260.518 421.337 259.475 420.485 258.451 419.616C256.393 417.843 254.436 415.973 252.607 413.997C251.555 412.865 250.421 411.803 249.378 410.661C248.893 410.126 248.399 409.538 248.116 408.897C248.079 408.826 248.07 408.818 248.034 408.633C248.015 408.563 247.997 408.484 247.979 408.414C247.997 408.546 248.006 408.563 247.997 408.458C247.997 408.44 247.988 408.44 247.997 408.44C247.787 408.537 247.997 408.502 248.015 408.493C247.75 408.563 247.494 408.633 247.22 408.695C247.284 408.695 247.357 408.695 247.421 408.695C247.156 408.625 246.899 408.554 246.625 408.493C246.808 408.572 246.936 408.668 247.11 408.765C246.918 408.581 246.735 408.405 246.543 408.221C246.57 408.273 246.616 408.309 246.643 408.361C246.57 408.107 246.497 407.861 246.433 407.597C246.433 407.65 246.424 407.712 246.424 407.755C246.497 407.501 246.57 407.255 246.634 406.992C246.607 407.044 246.57 407.097 246.543 407.132C246.735 406.948 246.918 406.772 247.11 406.588C247.055 406.614 247 406.649 246.954 406.676C247.22 406.605 247.485 406.535 247.75 406.474C247.247 406.439 246.808 406.579 246.433 406.904C246.031 407.255 245.866 407.878 246.021 408.379C246.232 409.011 246.689 409.599 247.055 410.143C247.476 410.767 247.896 411.408 248.363 412.004C250.293 414.401 252.552 416.578 254.811 418.685C256.292 420.037 258.524 417.904 257.079 416.552Z" fill="black"/>
<path d="M266.211 416.339C260.908 414.162 256.759 410.65 254.414 405.949C254.126 405.372 252.963 405.784 253.242 406.379C255.512 411.4 259.913 415.397 265.746 417.281C266.379 417.482 266.816 416.595 266.211 416.339Z" fill="#6C43BF"/>
<path d="M266.694 413.674C264.112 412.709 261.69 411.38 259.7 409.688C258.696 408.847 257.851 407.98 257.109 407.006C256.734 406.511 256.387 406.008 256.067 405.488C255.645 404.803 255.26 404.234 254.331 404.052C253.552 403.912 252.688 404.126 252.115 404.613C251.28 405.348 251.477 406.222 251.927 407.064C252.51 408.162 253.223 409.201 254.049 410.167C255.814 412.23 257.973 413.988 260.498 415.316C261.953 416.084 263.549 416.752 265.164 417.198C266.196 417.487 267.267 417.223 267.858 416.381C268.496 415.481 268.093 414.326 267.079 413.806C265.267 412.89 263.634 415.341 265.445 416.257C265.333 415.82 265.201 415.374 265.079 414.937C265.464 414.796 265.849 414.656 266.234 414.516C266.206 414.458 265.821 414.392 265.746 414.376C265.483 414.301 265.229 414.21 264.985 414.128C264.516 413.963 264.018 413.765 263.53 413.542C262.507 413.088 261.531 412.56 260.601 411.974C259.006 410.959 257.41 409.49 256.311 408.079C255.711 407.303 255.298 406.429 254.734 405.653C254.312 405.075 254.809 406.379 254.34 406.693C254.152 406.817 254.077 406.817 253.842 406.817C253.758 406.817 253.674 406.817 253.589 406.817C253.045 406.313 252.847 406.198 253.016 406.47C253.063 406.577 253.138 406.676 253.185 406.775C253.467 407.246 253.777 407.716 254.096 408.17C255.335 409.862 256.865 411.388 258.63 412.676C260.817 414.26 263.211 415.465 265.821 416.422C266.628 416.719 267.604 416.1 267.82 415.432C268.083 414.607 267.501 413.979 266.694 413.674Z" fill="black"/>
<path d="M409.615 520.225C405.891 551.753 405.651 583.45 408.728 614.969C408.728 615.005 408.737 615.04 408.737 615.075C408.781 615.546 408.834 616.016 408.879 616.486C408.826 616.494 408.781 616.494 408.737 616.494C407.974 616.53 408.905 617.568 409.003 617.568L409.029 617.976V617.993L415.191 731.539H255.281L260.317 639.021C260.804 636.068 261.531 630.48 261.593 629.806C261.806 627.367 261.992 624.92 262.179 622.472C262.356 622.268 262.391 621.958 262.241 621.745C262.267 621.301 262.312 620.867 262.338 620.432C262.826 613.541 263.198 606.65 263.331 599.75C263.597 586.572 263.003 573.366 260.866 560.311C258.685 547.017 254.642 534.158 248.879 521.733C243.435 509.973 236.954 498.559 232.592 486.427C225.34 466.206 227.459 442.713 237.052 422.812C237.069 422.776 237.087 422.75 237.105 422.714C237.247 422.421 237.389 422.129 237.539 421.836C237.628 421.65 237.717 421.464 237.814 421.277C237.823 421.339 237.841 421.384 237.85 421.437L238.577 419.956L239.135 418.803L239.348 418.368C239.57 417.96 239.8 417.561 240.04 417.162C240.146 416.958 240.261 416.754 240.385 416.559C241.733 414.262 243.178 412.036 244.721 409.881C245.04 409.393 245.368 408.897 245.705 408.418C245.741 408.365 245.776 408.32 245.812 408.267C246.29 407.593 246.787 406.928 247.31 406.272L247.337 406.245C248.347 404.977 249.438 403.735 250.599 402.52L250.608 402.511C257.231 395.603 266.08 389.678 274.698 384.889C275.159 384.623 275.62 384.366 276.09 384.118C276.125 384.1 276.161 384.082 276.196 384.064C276.302 384.011 276.4 383.949 276.506 383.896C276.834 383.719 277.171 383.541 277.499 383.364C284.495 379.639 291.162 376.695 296.163 374.602C296.597 374.424 297.014 374.247 297.422 374.078C297.448 374.069 297.466 374.061 297.484 374.052C298.645 373.582 299.683 373.156 300.605 372.784C301.545 372.411 302.351 372.092 302.999 371.826C303.069 371.799 303.132 371.773 303.194 371.746C303.132 371.781 303.069 371.817 303.007 371.861C302.263 372.296 301.527 372.757 300.8 373.245C300.569 373.387 300.339 373.546 300.108 373.697C298.911 374.486 297.679 375.284 296.526 376.162C294.097 377.981 292.004 380.091 291.322 382.956C291.136 383.736 291.056 384.508 291.082 385.279C291.18 389.412 293.964 393.43 296.517 396.711C296.562 396.764 296.597 396.818 296.642 396.871C299.47 400.525 302.901 404.622 307.84 406.085C311.758 407.256 315.979 406.44 319.898 404.578C320.908 404.099 321.91 403.549 322.868 402.946C327.301 400.179 331.096 396.294 333.25 392.907C333.365 392.729 333.472 392.561 333.569 392.392C333.578 392.383 333.587 392.366 333.587 392.357C334.456 390.902 335.209 389.403 335.812 387.896C335.812 387.887 335.812 387.887 335.812 387.878C337.062 384.747 337.621 381.555 337.089 378.539C336.956 377.75 336.743 376.97 336.442 376.207C336.025 375.125 335.431 374.078 334.66 373.085C334.615 373.032 334.58 372.979 334.536 372.925C334.589 372.97 334.642 373.014 334.686 373.058C335.635 373.839 336.433 374.655 337.089 375.533C337.586 376.18 338.002 376.854 338.348 377.573C339.323 379.568 339.74 381.865 339.651 384.597C339.456 390.273 336.761 395.895 333.064 400.667C331.628 402.529 330.04 404.267 328.391 405.828C327.602 406.573 326.725 407.345 325.776 408.134C325.004 408.781 324.189 409.438 323.329 410.103C323.249 410.174 323.151 410.245 323.063 410.316C309.063 421.127 285.124 434.217 285.621 434.474C285.585 434.518 284.211 447.99 284.787 454.686C285.302 460.566 285.718 467.483 288.307 472.999C288.325 473.044 288.343 473.079 288.36 473.124C289.185 474.835 290.55 476.281 292.253 477.469C292.581 477.691 292.918 477.904 293.263 478.108C293.973 478.533 294.726 478.915 295.524 479.261C295.56 479.305 295.586 479.341 295.622 479.385C295.711 479.5 295.826 479.562 295.941 479.598C296.065 479.633 296.189 479.633 296.313 479.598C302.192 481.895 309.737 482.116 314.684 480.183C316.697 479.403 318.417 478.374 319.88 477.177C320.013 477.061 320.146 476.955 320.279 476.84C320.563 476.769 320.82 476.591 320.899 476.29C320.908 476.272 320.917 476.236 320.917 476.219C321.485 475.669 322.008 475.092 322.486 474.498C322.611 474.347 322.726 474.206 322.823 474.055C323.063 473.762 323.276 473.461 323.471 473.15C323.533 473.07 323.586 472.991 323.639 472.911C324.118 472.184 324.535 471.43 324.916 470.658C324.934 470.632 324.942 470.605 324.951 470.578C325.129 470.224 325.288 469.869 325.43 469.505C325.528 469.301 325.616 469.088 325.696 468.876C325.802 469.062 325.918 469.248 326.033 469.425C326.21 469.736 326.405 470.037 326.609 470.33C326.618 470.348 326.627 470.365 326.645 470.383C327.806 472.13 329.18 473.762 330.723 475.252C331.317 475.829 331.947 476.387 332.594 476.911C332.833 477.106 333.073 477.301 333.321 477.487C334.03 478.028 334.757 478.542 335.52 479.012C338.676 481.008 342.223 482.4 345.946 482.923C348.908 483.349 351.984 483.225 355.07 482.418C356.497 482.037 357.934 481.522 359.361 480.839C359.68 480.689 359.982 480.529 360.283 480.369C360.425 480.289 360.567 480.21 360.7 480.13C361.95 479.411 363.04 478.596 363.998 477.7C367.731 474.179 369.389 469.416 370.054 464.326C371.357 454.269 371.978 444.105 372.909 434.004C374.824 413.482 376.748 392.951 378.645 372.429C379.31 365.165 380.072 357.45 377.173 350.514C377.182 350.505 377.173 350.505 377.173 350.505C377.067 350.248 376.96 349.991 376.845 349.743C376.739 349.53 376.641 349.317 376.535 349.104C376.544 348.297 376.553 347.481 376.553 346.665C376.686 328.724 375.826 310.747 375.338 292.806C375.09 283.37 374.833 273.933 374.584 264.497C374.354 255.797 373.086 246.574 374.646 237.935C376.295 228.881 383.885 222.761 394.462 224.863C403.497 226.672 410.049 232.703 412.984 240.312C416.034 248.179 415.706 256.684 415.307 264.861C414.855 274.208 414.58 283.556 414.713 292.912C415.245 331.056 420.635 369.014 421.105 407.158C421.575 445.249 414.074 482.48 409.615 520.225Z" fill="#6C43BF"/>
<path d="M417.276 314.927C416.573 301.911 416.262 288.894 416.662 275.851C417.009 264.536 418.93 252.353 415.221 241.394C410.605 227.721 390.965 215.733 378.494 227.694C371.886 234.034 372.259 244.364 372.606 252.77C373.113 265.095 373.54 277.411 373.86 289.745C374.198 302.256 374.696 314.768 374.981 327.288C375.123 333.406 375.212 339.533 375.168 345.66V346.05C375.168 346.733 375.194 347.336 375.248 347.877C375.319 348.524 375.426 349.1 375.559 349.659C375.844 350.803 376.253 351.902 376.733 353.525C377.632 356.522 377.872 359.652 377.881 362.755C377.872 376.464 375.595 390.42 374.323 404.067C373.006 418.112 371.654 432.148 370.48 446.202C369.804 454.218 370.142 464.557 366.255 472.014C365.072 474.284 363.498 476.288 361.381 477.884C360.954 478.203 360.5 478.513 360.029 478.797C359.299 479.24 358.517 479.639 357.681 479.985C349.995 483.186 341.91 481.528 335.488 477.121C334.99 476.784 334.501 476.421 334.029 476.057C333.166 475.374 332.33 474.647 331.548 473.858C331.058 473.388 330.587 472.892 330.124 472.377C329.004 471.118 327.99 469.753 327.1 468.307C327.073 468.263 327.038 468.21 327.011 468.166C326.264 466.942 324.707 467.359 324.209 468.529C324.147 468.671 324.085 468.822 324.014 468.964C323.818 469.425 323.604 469.868 323.364 470.294C323.284 470.453 323.204 470.613 323.115 470.764C323.089 470.817 323.062 470.861 323.026 470.905C322.786 471.349 322.519 471.774 322.235 472.182C321.318 473.539 320.26 474.727 319.077 475.729C315.59 478.717 311.045 480.171 305.77 480.003C302.39 479.897 298.966 479.356 296.022 478.026H296.013C294.483 477.334 293.077 476.421 291.868 475.241C291.192 474.585 290.569 473.84 290.026 472.998C289.973 472.901 289.911 472.803 289.857 472.705C289.342 471.863 288.906 470.932 288.559 469.904C284.734 458.563 286.638 446.991 286.931 435.393C287.758 435.243 289.368 433.833 289.991 433.469C293.922 431.12 297.854 428.796 301.768 426.402C308.981 422.004 316.373 417.535 323.115 412.322C323.213 412.242 323.32 412.171 323.418 412.082C324.316 411.391 325.206 410.672 326.077 409.936C326.851 409.307 327.607 408.651 328.354 407.986C329.946 406.567 331.548 404.909 333.051 403.073C340.54 393.976 345.726 380.631 335.63 371.933C335.506 371.826 335.372 371.747 335.23 371.693C334.038 371.179 332.393 372.323 333.104 373.6C333.131 373.662 333.166 373.715 333.211 373.777C333.291 373.883 333.362 373.99 333.433 374.096C333.442 374.096 333.442 374.105 333.442 374.105C333.504 374.203 333.567 374.291 333.629 374.389C337.356 380.144 335.737 387.086 331.654 392.93C331.645 392.939 331.645 392.939 331.636 392.947C329.662 395.767 327.118 398.33 324.316 400.378C323.791 400.75 323.266 401.114 322.733 401.451C319.21 403.703 315.412 405.104 311.926 405.175C304.365 405.334 298.886 398.268 295.194 392.504C292.535 388.363 291.218 383.513 294.892 379.576C296.964 377.368 299.695 375.657 302.337 374.079C302.853 373.768 303.369 373.458 303.876 373.156C304.125 373.006 304.303 372.793 304.409 372.562C304.623 372.128 304.614 371.605 304.436 371.17C304.24 370.674 303.84 370.283 303.306 370.257C303.12 370.239 302.915 370.275 302.693 370.363C302.568 370.416 302.444 370.461 302.319 370.514H302.31C293.762 373.981 285.286 377.581 277.129 381.846C276.693 382.068 276.257 382.298 275.821 382.529C275.777 382.555 275.732 382.573 275.688 382.6C275.208 382.857 274.736 383.105 274.274 383.362C272.219 384.488 270.182 385.65 268.181 386.874C263.484 389.746 259.126 392.876 255.141 396.335C249.155 401.513 244.005 407.427 239.78 414.299C239.344 414.991 238.926 415.7 238.525 416.418C238.436 416.551 238.365 416.684 238.285 416.826C238.027 417.287 237.769 417.757 237.52 418.227C237.173 418.857 236.844 419.504 236.515 420.16C236.382 420.266 236.275 420.399 236.195 420.559C224.907 443.214 223.253 468.955 232.957 492.426C238.445 505.735 245.926 518.149 251.147 531.573C256.342 544.936 259.419 558.919 260.727 573.177C263.36 601.835 259.028 630.28 257.463 658.849C256.137 683.082 254.812 707.307 253.487 731.54H256.511C257.614 711.439 258.708 691.346 259.802 671.245C260.318 661.873 260.834 652.483 261.35 643.101C261.43 641.594 261.474 640.087 261.652 638.579C263.004 626.706 264.169 614.922 264.516 602.961C265.343 574.666 261.892 546.886 249.884 521.004C243.773 507.836 235.999 495.103 232.094 481.031C228.519 468.166 228.625 454.413 231.703 441.467C233.242 435.003 235.519 428.779 238.436 422.811C238.605 422.696 238.748 422.519 238.863 422.288C240.9 418.129 243.24 414.308 245.864 410.779C245.855 410.77 245.864 410.77 245.864 410.77C246.184 410.335 246.504 409.919 246.824 409.502C246.833 409.493 246.842 409.484 246.851 409.475C246.895 409.404 246.949 409.333 247.002 409.271C247.073 409.183 247.136 409.094 247.207 409.014C247.207 409.005 247.207 409.005 247.216 409.005C247.216 408.997 247.225 408.997 247.225 408.997C247.242 408.97 247.26 408.943 247.278 408.926C247.278 408.917 247.287 408.908 247.287 408.908C247.589 408.527 247.892 408.154 248.203 407.791C248.194 407.782 248.203 407.782 248.203 407.782C248.514 407.4 248.835 407.019 249.164 406.647C249.164 406.638 249.173 406.629 249.181 406.62C251.583 403.827 254.18 401.229 256.973 398.8C261.109 395.191 265.672 391.945 270.618 388.975C272.059 388.106 273.509 387.273 274.968 386.466C275.839 385.978 276.711 385.508 277.591 385.047C277.6 385.029 277.618 385.029 277.627 385.02C282.519 382.422 287.527 380.081 292.597 377.865C289.813 381.066 288.443 384.958 290.409 389.977C293.398 397.603 301.163 407.117 309.8 408.136C312.041 408.402 314.389 408.172 316.729 407.542C318.837 406.975 320.945 406.088 322.973 404.944C326.815 402.754 330.382 399.651 333.149 396.077C335.817 392.646 337.747 388.78 338.485 384.887C338.325 389.214 336.137 393.683 333.104 397.798C330.382 401.504 326.976 404.927 323.747 407.72C323.569 407.87 323.391 408.021 323.213 408.181C323.195 408.181 323.186 408.199 323.177 408.199C321.683 409.466 320.242 410.584 318.935 411.532C309.675 418.218 299.82 424.061 290.009 429.887C288.043 431.057 285.721 432.104 284.12 433.753C284.058 433.824 283.987 434.099 283.942 434.374C283.942 434.32 283.951 434.258 283.96 434.205C283.942 434.303 283.934 434.4 283.925 434.471C283.925 434.445 283.934 434.409 283.942 434.383C283.889 434.808 283.845 435.252 283.791 435.677C283.498 438.151 283.346 440.66 283.204 443.134C282.804 449.607 282.982 455.965 283.827 462.402C284.307 466.1 285.01 470.054 286.691 473.406C287.927 475.88 289.697 478.017 292.304 479.462C298.281 482.787 306.064 484.073 312.895 482.37C313.073 482.326 313.242 482.282 313.411 482.237C313.455 482.229 313.491 482.211 313.535 482.202C317.147 481.182 320.127 479.24 322.493 476.678C322.848 476.305 323.177 475.915 323.498 475.507C323.942 474.967 324.361 474.399 324.743 473.805C324.752 473.805 324.752 473.805 324.743 473.796C325.152 473.202 325.517 472.59 325.864 471.952C328.408 475.348 331.779 478.301 335.559 480.526C345.566 486.396 358.454 487.105 366.718 477.157C372.606 470.063 372.357 459.441 373.122 450.76C374.216 438.364 375.31 425.95 376.466 413.545C377.649 400.919 378.824 388.292 379.998 375.657C380.522 370.009 381.278 364.263 380.736 358.579C380.691 358.083 380.638 357.595 380.567 357.107C380.318 355.156 379.9 353.232 379.233 351.388C378.21 348.506 378.219 345.997 378.21 342.929C378.21 317.862 376.982 292.786 376.306 267.737C376.146 261.761 375.657 255.794 375.55 249.8C375.443 244.391 375.337 238.148 378.032 233.272C383.2 223.89 395.466 224.866 403.284 230.186C413.309 237.013 414.545 249.471 414.198 260.591C413.825 272.978 413.211 285.294 413.504 297.69C414.109 322.783 416.644 347.753 418.334 372.775C420.015 397.815 420.336 422.652 417.801 447.648C414.963 475.614 409.742 503.296 407.145 531.298C404.538 559.424 404.743 587.736 407.5 615.836C407.073 616.332 407.029 617.024 407.34 617.582C407.527 617.928 407.652 618.106 407.723 618.185C407.776 618.673 407.767 619.187 407.794 619.675C407.91 621.821 408.025 623.975 408.141 626.112C408.577 633.968 409.004 641.816 409.422 649.663C410.676 672.619 411.921 695.585 413.175 718.541C413.415 722.877 413.647 727.204 413.869 731.54H416.973C415.595 706.19 414.207 680.839 412.828 655.497C412.321 646.143 411.814 636.797 411.299 627.442C411.13 624.33 411.583 620.269 410.507 617.201C410.622 616.997 410.676 616.767 410.649 616.509C408.087 590.822 407.652 564.939 409.564 539.19C411.432 514.194 415.737 489.482 418.912 464.645C422.079 439.783 423.538 415.044 422.399 389.995C421.252 364.937 418.619 339.976 417.276 314.927ZM409.76 617.866V617.893C409.724 617.902 409.697 617.91 409.662 617.91C409.697 617.893 409.733 617.884 409.76 617.866Z" fill="black"/>
<path d="M302.044 373.091C307.878 369.913 314.506 368.492 321.099 368.999C323.632 369.189 326.015 369.678 328.318 370.773C330.163 371.66 332.713 372.873 333.561 374.928C334.328 376.766 336.95 375.182 336.191 373.362C335.202 370.981 332.484 369.397 330.322 368.311C327.63 366.953 324.956 366.256 321.973 365.948C314.586 365.205 307.057 366.817 300.509 370.384C298.779 371.334 300.315 374.032 302.044 373.091Z" fill="black"/>
<path d="M323.86 368.006C326.549 358.446 322.529 347.59 314.048 342.207C311.64 340.678 308.915 339.649 306.082 339.292C303.05 338.907 300.008 339.471 297.084 340.266C291.49 341.805 285.932 344.201 281.47 347.966C277.061 351.686 273.341 356.944 271.567 362.408C270.951 364.295 273.966 365.117 274.572 363.239C275.984 358.867 278.854 354.816 282.121 351.588C285.688 348.055 290.341 345.694 295.084 344.112C300.216 342.395 305.466 341.322 310.545 343.799C314.627 345.793 317.75 349.155 319.66 353.224C321.706 357.561 322.149 362.587 320.864 367.192C320.321 369.097 323.326 369.919 323.86 368.006Z" fill="black"/>
<path d="M377.217 346.833C369.687 341.577 361.359 336.683 351.854 335.933C343.229 335.261 334.551 338.423 328.044 343.792C326.105 345.394 324.391 347.221 322.865 349.177C322.093 350.168 321.384 351.194 320.729 352.262C320.137 353.218 319.284 353.873 319.94 355.062C320.2 355.519 320.738 355.795 321.277 355.795C321.672 355.795 321.986 355.717 322.327 355.528C323.179 355.08 323.359 353.839 322.641 353.193C322.623 353.175 322.596 353.15 322.569 353.132C321.115 351.823 318.916 353.916 320.379 355.226C320.397 355.243 320.424 355.269 320.451 355.286C320.559 354.502 320.657 353.735 320.765 352.951C320.927 352.9 321.106 352.857 321.268 352.813C321.708 353.063 322.156 353.313 322.605 353.546C322.587 353.503 322.56 353.468 322.542 353.425C322.542 353.925 322.542 354.425 322.542 354.925C322.91 354.218 323.547 353.494 323.987 352.813C324.571 351.943 325.181 351.081 325.854 350.272C327.119 348.72 328.537 347.299 330.081 346.006C332.998 343.568 336.435 341.638 340.088 340.405C347.878 337.786 355.929 338.673 363.306 342.034C367.695 344.033 371.734 346.635 375.656 349.375C377.271 350.521 378.824 347.945 377.217 346.833Z" fill="black"/>
<path d="M326.072 469.041C326.834 448.978 325.887 428.854 325.317 408.809C325.257 406.851 322.979 406.834 323.032 408.8C323.602 428.845 324.549 448.97 323.787 469.032C323.714 470.999 325.999 471.008 326.072 469.041Z" fill="black"/>
<path d="M361.719 479.774C365.113 474.291 366.616 467.978 366.182 461.588C365.847 456.581 365.511 450.684 359.615 449.136C356.999 448.453 354.259 448.643 351.589 448.418C347.956 448.115 344.341 447.597 340.7 447.311C335.635 446.922 329.651 447.934 328.493 453.658C327.777 457.221 328.007 461.156 328.281 464.753C328.59 468.679 329.262 472.562 330.19 476.392C330.641 478.26 333.575 477.473 333.125 475.606C331.719 469.777 330.994 463.897 331.162 457.922C331.233 455.509 331.162 452.56 333.584 451.177C335.37 450.156 337.641 450.13 339.648 450.225C342.591 450.364 345.535 450.779 348.469 451.081C351.085 451.35 353.684 451.427 356.309 451.626C358.448 451.791 360.755 452.206 361.843 454.22C362.886 456.132 362.939 458.484 363.062 460.602C363.248 463.62 363.274 466.569 362.62 469.561C361.94 472.648 360.747 475.562 359.076 478.26C358.086 479.921 360.711 481.425 361.719 479.774Z" fill="black"/>
<path d="M296.259 478.183C293.73 474.046 292.045 469.399 291.41 464.532C291.115 462.263 290.95 459.83 291.245 457.552C291.367 456.577 291.619 455.529 292.271 454.8C293.035 453.943 294.2 453.651 295.225 453.342C300.082 451.874 305.061 450.407 310.144 450.398C312.299 450.398 315.018 450.435 316.93 451.628C318.833 452.813 319.12 455.593 319.459 457.67C320.44 463.648 320.197 469.827 318.868 475.723C318.425 477.691 321.309 478.53 321.752 476.57C323.143 470.41 323.403 464.077 322.5 457.816C322.126 455.228 321.718 452.348 320.032 450.298C318.338 448.229 315.627 447.719 313.185 447.418C307.155 446.68 301.107 448.33 295.347 450.034C292.948 450.735 290.455 451.473 289.186 453.952C288.022 456.23 288.057 459.065 288.161 461.58C288.439 468.023 290.35 474.329 293.661 479.76C294.704 481.455 297.302 479.888 296.259 478.183Z" fill="black"/>
<path d="M390.478 333.723C394.077 330.033 399.784 329.862 403.516 333.438C404.971 334.836 407.132 332.534 405.668 331.127C403.277 328.825 400.172 327.475 396.953 327.532C393.742 327.589 390.655 329.016 388.335 331.402C386.915 332.857 389.049 335.168 390.478 333.723Z" fill="black"/>
<path d="M240.919 343.714C241.917 342.737 242.924 341.76 243.949 340.811C244.847 339.971 245.8 339.277 247.024 339.049C249.456 338.602 252.032 339.816 254.182 340.82C254.944 341.176 255.87 341.048 256.323 340.263C256.723 339.579 256.532 338.474 255.77 338.109C252.867 336.749 249.737 335.434 246.462 335.964C243.241 336.502 240.973 339.323 238.723 341.477C237.253 342.883 239.458 345.11 240.919 343.714Z" fill="black"/>
<path d="M346.369 345.289C346.488 345.274 346.607 345.258 346.726 345.234C346.829 345.219 346.789 345.227 346.615 345.25C346.678 345.242 346.75 345.234 346.813 345.227C347.012 345.211 347.226 345.195 347.432 345.187C347.901 345.172 348.361 345.179 348.821 345.219C348.94 345.227 349.059 345.25 349.178 345.258C349.472 345.289 348.901 345.211 349.226 345.266C349.448 345.305 349.663 345.336 349.885 345.383C350.337 345.485 350.79 345.611 351.226 345.76C351.901 345.995 352.75 345.501 352.917 344.819C353.091 344.066 352.694 343.407 351.964 343.148C349.932 342.45 347.774 342.332 345.654 342.693C344.948 342.819 344.488 343.705 344.694 344.356C344.932 345.093 345.615 345.415 346.369 345.289Z" fill="black"/>
<path d="M320.575 568.063C328.191 558.243 331.286 545.428 328.882 533.158C328.497 531.188 325.518 532.014 325.904 533.983C328.057 545.038 325.285 556.973 318.395 565.84C317.193 567.41 319.355 569.652 320.575 568.063Z" fill="black"/>
<path d="M339.713 635.858C338.522 632.128 338.813 628.107 340.684 624.634C342.352 621.545 344.982 619.082 347.771 616.934C350.896 614.522 354.276 612.409 357.551 610.219C361.337 607.678 365.124 605.146 368.919 602.605C368.257 602.237 367.595 601.869 366.924 601.493C366.042 608.2 365.168 614.915 364.285 621.622C363.897 624.6 363.764 627.816 362.617 630.631C361.637 633.035 359.607 634.968 357.118 635.875C355.538 636.448 356.227 638.929 357.824 638.347C360.516 637.363 362.82 635.61 364.276 633.18C365.989 630.323 366.236 626.935 366.659 623.735C367.63 616.318 368.601 608.901 369.572 601.484C369.696 600.535 368.345 599.859 367.577 600.372C361.461 604.47 355.282 608.499 349.219 612.683C344.373 616.028 339.59 619.886 337.418 625.429C336.033 628.962 335.997 632.932 337.145 636.525C337.666 638.116 340.225 637.449 339.713 635.858Z" fill="black"/>
<path d="M343.797 638.022C347.975 633.077 352.553 628.455 357.473 624.193C358.879 622.971 356.809 620.973 355.404 622.185C350.484 626.438 345.905 631.06 341.727 636.014C341.229 636.61 341.132 637.444 341.727 638.022C342.245 638.524 343.289 638.618 343.797 638.022Z" fill="black"/>
<path d="M310.289 642.146C310.219 641.468 310.28 640.541 309.77 640.015C309.313 639.543 308.637 639.32 308.162 638.838C307.231 637.893 306.615 636.645 306.088 635.442C304.849 632.616 304.155 629.514 304.041 626.429C303.794 620.153 306.835 614.02 305.306 607.771C304.664 608.27 304.014 608.778 303.373 609.277C304.7 609.857 305.447 611.034 306.29 612.157C307.178 613.342 308.136 614.341 309.436 615.063C310.746 615.794 312.126 616.347 313.382 617.185C314.578 617.978 315.659 618.923 316.643 619.975C320.571 624.174 322.557 630.004 321.933 635.763C321.749 637.474 324.385 637.457 324.57 635.763C325.247 629.54 323.032 623.211 318.945 618.566C316.819 616.151 314.27 614.537 311.44 613.111C309.955 612.371 309.006 611.39 308.03 610.062C307.116 608.823 306.158 607.601 304.717 606.977C303.689 606.532 302.485 607.263 302.784 608.484C303.54 611.56 302.942 614.68 302.353 617.728C301.756 620.804 301.263 623.871 301.457 627.018C301.641 630.013 302.274 632.973 303.399 635.754C304.41 638.259 305.728 640.835 308.206 642.119C307.986 641.736 307.767 641.352 307.556 640.96C307.6 641.352 307.644 641.745 307.688 642.146C307.837 643.839 310.474 643.857 310.289 642.146Z" fill="black"/>
<path d="M336.483 135.237C336.464 135.194 336.438 135.156 336.412 135.119C336.336 134.969 336.259 134.832 336.176 134.689C336.225 134.638 336.262 134.575 336.286 134.499C336.348 134.36 336.365 134.178 336.324 133.953C334.372 122.36 330.898 110.447 328.311 98.8177C325.798 87.5455 323.416 76.2781 321.134 65.0095C321.178 64.9776 321.215 64.9521 321.253 64.9265C321.951 64.5294 321.422 63.2052 320.724 63.0188C320.611 62.4867 320.505 61.9608 320.386 61.4351C320.207 60.5399 319.127 59.8684 318.591 60.2259C315.14 62.5373 311.823 65.0417 308.614 67.7268C308.409 67.8986 308.197 68.0767 307.992 68.2485C307.75 68.4458 307.507 68.6557 307.271 68.8592C307.224 68.5774 307.171 68.3019 307.124 68.0201C307.07 67.7195 307.017 67.4064 306.957 67.1121C303.425 47.073 299.254 27.0288 294.504 6.95351C294.445 6.70947 294.324 6.49126 294.177 6.31097C293.776 5.79478 293.14 5.54485 292.734 5.76916C292.31 6.0125 291.874 6.25599 291.437 6.49948C285.393 9.85107 278.505 13.4195 274.206 19.1605C273.711 18.6517 272.862 19.0129 273.16 19.8503C280.393 40.4553 289.294 60.8152 298.592 80.8568C298.28 81.6196 298.796 82.9189 299.71 83.266C301.123 86.2993 302.543 89.3263 303.969 92.3469C304.399 93.2518 305.26 93.3736 305.745 92.9664C307.909 91.1091 310.117 89.2953 312.235 87.357C312.434 87.179 312.633 87.001 312.826 86.8168C313.043 86.6197 313.26 86.4102 313.472 86.2069C313.563 86.4945 313.653 86.7821 313.751 87.0634C313.822 87.3073 313.9 87.5574 313.991 87.7948C319.068 103.411 325.804 119.184 333.026 134.116C333.022 134.323 333.068 134.543 333.234 134.792C333.393 135.047 333.553 135.29 333.713 135.545C334.236 136.38 334.947 136.491 335.332 136.135C335.406 136.059 335.468 135.971 335.517 135.857C335.581 135.944 335.657 136.019 335.733 136.068C336.27 136.47 336.931 136.023 336.483 135.237ZM331.361 122.979C331.642 124.061 331.892 125.137 332.174 126.207C331.799 125.195 331.461 124.17 331.149 123.144C331.103 122.925 331.069 122.706 331.029 122.481C331.105 122.53 331.187 122.56 331.262 122.585C331.295 122.716 331.328 122.847 331.361 122.979Z" fill="#FFFFA5"/>
<path d="M291.975 4.45303C285.227 8.25827 277.924 11.8064 273.117 18.1055C273.731 18.0231 274.332 17.9283 274.952 17.8395C273.377 16.6969 271.334 18.0884 271.631 19.9298C271.792 20.957 272.319 22.0177 272.668 23.0051C273.076 24.1487 273.496 25.2922 273.917 26.4357C275.578 30.9407 277.303 35.42 279.077 39.8735C282.676 48.8805 286.495 57.8033 290.457 66.6555C292.689 71.6685 294.971 76.6558 297.284 81.624C297.229 81.2481 297.175 80.8597 297.121 80.4838C296.868 81.4405 297.029 82.4427 297.54 83.2776C297.809 83.7263 298.181 83.9667 298.524 84.3267C298.797 84.6185 299.019 85.3564 299.244 85.8495C299.841 87.1415 300.445 88.4147 301.049 89.7129C301.621 90.9299 302.107 92.3487 302.866 93.4506C303.414 94.2349 304.298 94.7644 305.276 94.7029C306.461 94.6327 307.291 93.6442 308.137 92.9191C310.307 91.068 312.489 89.2294 314.557 87.2665C313.708 87.0442 312.852 86.8156 311.984 86.5997C316.889 101.961 323.138 116.873 330.036 131.427C330.505 132.419 331.124 133.435 331.506 134.441C331.816 135.278 332.126 136.077 332.749 136.798C333.93 138.14 335.876 138.193 336.838 136.588C336.042 136.704 335.228 136.826 334.426 136.936C335.25 137.78 336.615 138.059 337.54 137.163C338.528 136.204 338.037 134.942 337.48 133.913C337.485 134.415 337.485 134.924 337.49 135.426C337.952 134.674 337.825 133.916 337.697 133.095C337.495 131.868 337.268 130.64 337.023 129.42C336.584 127.178 336.102 124.944 335.607 122.722C334.566 118.141 333.424 113.586 332.302 109.037C329.998 99.7449 327.982 90.3871 325.997 81.0226C324.84 75.5579 323.707 70.0804 322.593 64.609C322.361 65.1764 322.123 65.7627 321.89 66.3302C323.622 65.1932 323.374 62.5418 321.457 61.6729C321.705 61.99 321.94 62.2948 322.189 62.6119C321.884 61.1095 321.623 59.6379 320.121 58.8896C318.449 58.0618 317.114 59.3636 315.8 60.2761C312.475 62.6111 309.258 65.1269 306.175 67.7729C307.024 67.9952 307.88 68.2238 308.749 68.4397C305.61 50.5358 302.009 32.7251 297.957 15.0075C297.39 12.504 296.804 10.0071 296.212 7.50393C295.797 5.72035 294.55 3.55733 292.337 4.28569C290.467 4.89085 291.265 7.84342 293.141 7.23192C293.041 7.25817 292.856 7.05322 292.972 7.25269C293.074 7.42721 293.089 7.62784 293.141 7.81549C293.265 8.29722 293.371 8.78545 293.483 9.26733C293.726 10.3124 293.976 11.3637 294.214 12.4152C294.701 14.5054 295.176 16.6083 295.657 18.7049C296.573 22.7291 297.457 26.76 298.317 30.7911C300.05 38.916 301.701 47.0481 303.246 55.2129C304.125 59.8838 304.985 64.5487 305.802 69.233C306.022 70.4791 307.58 70.5741 308.375 69.8998C310.831 67.807 313.351 65.8013 315.959 63.8949C316.551 63.4677 317.155 63.0403 317.752 62.6192C317.939 62.4916 318.632 62.151 318.761 61.9299C319.03 61.8452 319.029 61.7323 318.777 61.5971C318.821 61.6405 318.865 61.6714 318.903 61.7086C319.171 62.1322 319.086 62.9176 319.26 63.3862C319.345 63.6299 319.467 63.8858 319.669 64.0717C320.361 64.7351 319.826 64.026 320.386 63.643C319.782 64.0328 319.538 64.6631 319.684 65.3642C321.554 74.6044 323.487 83.8314 325.507 93.0448C327.449 101.92 329.672 110.698 331.776 119.534C332.342 121.925 332.901 124.309 333.404 126.713C333.669 127.94 333.914 129.173 334.153 130.4C334.267 131.008 334.387 131.634 334.5 132.241C334.547 132.535 334.937 133.761 334.85 133.887C334.573 134.349 334.611 134.944 334.861 135.4C334.937 135.537 335.008 135.668 335.085 135.805C335.399 136.485 335.904 136.122 336.597 134.702C335.887 133.97 334.691 134.216 334.185 135.05C335.057 135.033 335.256 134.805 334.811 134.346C334.644 133.921 334.555 133.822 334.563 134.041C334.403 133.698 334.322 133.235 334.149 132.866C333.68 131.862 333.186 130.857 332.704 129.84C331.753 127.818 330.803 125.783 329.864 123.748C327.955 119.572 326.102 115.352 324.343 111.111C320.87 102.799 317.709 94.3459 314.961 85.7496C314.604 84.6305 313.263 84.2632 312.387 85.0828C310.257 87.1091 308.012 88.9861 305.768 90.8883C305.6 91.0345 304.895 91.4129 305.16 91.5228C305.551 91.6814 305.035 90.9658 304.971 90.841C304.649 90.167 304.335 89.4867 304.007 88.7939C303.371 87.4396 302.722 86.0729 302.093 84.7122C301.778 84.0444 301.5 83.3135 301.129 82.6652C300.873 82.2163 300.249 81.9788 300.081 81.5415C299.94 81.1917 300.155 80.7814 300.063 80.3934C299.892 79.6675 299.394 78.9202 299.085 78.2461C297.845 75.5684 296.617 72.8907 295.396 70.2065C290.522 59.4573 285.811 48.6184 281.456 37.6435C280.256 34.6203 279.081 31.5843 277.93 28.5354C277.329 26.9422 276.741 25.3363 276.159 23.7366C275.874 22.9744 275.615 22.2118 275.331 21.4496C275.221 21.1434 275.117 20.8434 275.007 20.5246C274.929 20.2996 274.845 20.0684 274.767 19.8434C274.6 18.9355 274.157 19.1351 273.431 20.4361C273.912 20.7945 274.901 20.645 275.266 20.1702C279.919 14.08 286.948 10.7107 293.477 7.02724C295.231 6.13477 293.683 3.49205 291.975 4.45303Z" fill="black"/>
<path d="M381.379 167.81C381.381 167.798 381.383 167.785 381.377 167.778C381.388 167.57 381.421 167.379 381.437 167.178C381.49 167.16 381.543 167.142 381.598 167.112C381.724 167.029 381.859 166.883 381.96 166.662C386.785 155.936 390.513 144.093 394.811 132.975C398.99 122.202 403.272 111.507 407.622 100.873C407.673 100.867 407.723 100.874 407.774 100.869C408.584 100.926 408.862 99.5392 408.389 98.9847C408.593 98.4875 408.798 97.9777 408.994 97.4858C409.348 96.6422 408.821 95.4845 408.175 95.4822C404.024 95.487 399.883 95.7278 395.739 96.1709C395.456 96.2069 395.179 96.2376 394.895 96.2737C394.581 96.2992 394.27 96.3442 393.961 96.3767C394.09 96.0908 394.213 95.8101 394.336 95.5171C394.455 95.2613 394.561 95.0038 394.674 94.7409C402.861 76.1112 410.523 57.1099 417.725 37.7776C417.817 37.5308 417.842 37.2681 417.82 37.0179C417.762 36.3952 417.389 35.8547 416.931 35.8219C416.455 35.7802 415.972 35.744 415.49 35.7077C408.586 35.1412 400.87 34.2766 394.086 36.6734C393.959 35.9585 393.043 35.8042 392.821 36.66C387.394 57.82 383.493 79.7081 380.101 101.535C379.415 101.996 379.126 103.368 379.693 104.151C379.18 107.469 378.682 110.764 378.188 114.078C378.042 115.065 378.699 115.658 379.313 115.573C382.158 115.22 385.017 114.944 387.854 114.507C388.119 114.475 388.385 114.43 388.646 114.378C388.93 114.342 389.203 114.292 389.489 114.243C389.4 114.554 389.314 114.852 389.231 115.17C389.155 115.394 389.096 115.626 389.038 115.859C384.584 131.668 381.432 148.529 379.141 164.954C379.022 165.121 378.953 165.339 378.937 165.629C378.927 165.925 378.922 166.228 378.912 166.525C378.889 167.542 379.448 168.02 379.986 167.893C380.071 167.873 380.16 167.828 380.243 167.777C380.243 167.866 380.263 167.951 380.284 168.023C380.479 168.71 381.325 168.728 381.379 167.81ZM383.729 154.739C383.806 154.547 383.882 154.368 383.96 154.176C383.999 154.258 384.051 154.341 384.106 154.4C384.065 154.508 384.023 154.629 383.982 154.737C383.592 155.797 383.208 156.852 382.849 157.91C383.093 156.861 383.386 155.819 383.702 154.793C383.711 154.775 383.72 154.757 383.729 154.739Z" fill="#FFFFA5"/>
<path d="M417.141 34.3134C409.267 33.7117 401.156 32.633 393.517 35.2517C394.18 35.5413 394.842 35.831 395.504 36.1207C394.746 34.1827 392.19 34.0636 391.417 36.0775C390.607 38.1749 390.264 40.5978 389.747 42.7745C388.63 47.4012 387.586 52.0508 386.597 56.7146C384.593 66.1716 382.832 75.669 381.212 85.1928C380.3 90.5644 379.431 95.9484 378.588 101.323C378.781 100.989 378.994 100.652 379.187 100.318C378.414 100.988 377.978 101.827 377.889 102.86C377.853 103.387 378.004 103.795 378.067 104.291C378.139 104.815 377.96 105.404 377.872 105.937C377.661 107.339 377.448 108.754 377.232 110.149C377.035 111.496 376.677 112.91 376.663 114.264C376.646 115.231 377.027 116.165 377.864 116.701C378.88 117.358 380.073 117.038 381.196 116.892C384.026 116.549 386.864 116.245 389.676 115.76C389.148 115.059 388.622 114.344 388.099 113.65C383.674 129.071 380.569 144.842 378.229 160.715C378.067 161.814 377.953 162.932 377.754 164.025C377.578 165.002 377.331 165.898 377.423 166.906C377.59 168.59 379.12 170.003 380.825 169.197C380.136 168.783 379.441 168.363 378.745 167.954C378.993 169.111 379.761 170.22 381.119 170.031C382.483 169.836 382.858 168.577 382.968 167.395C382.651 167.801 382.341 168.201 382.011 168.604C383.73 167.788 384.3 165.194 384.986 163.567C385.878 161.431 386.727 159.282 387.558 157.124C389.257 152.681 390.861 148.198 392.477 143.718C395.748 134.661 399.283 125.705 402.854 116.767C404.901 111.662 406.967 106.555 409.043 101.461C408.639 101.765 408.221 102.08 407.817 102.384C410.079 102.38 410.617 99.6549 409.633 98.0527C409.689 98.5547 409.75 99.0639 409.825 99.5624C410.42 98.0937 411.133 96.591 410.158 95.1041C409.176 93.6225 407.459 93.9383 405.907 93.9733C401.872 94.0578 397.843 94.3586 393.827 94.8387C394.355 95.5404 394.882 96.2545 395.404 96.9491C402.86 80.035 409.858 62.9107 416.435 45.6258C417.351 43.2265 418.396 40.8075 419.174 38.3571C419.677 36.6347 419.014 34.7799 417.141 34.3134C415.225 33.8346 414.814 36.8752 416.707 37.3381C416.682 37.3346 416.315 37.2005 416.343 37.1348C416.438 36.9518 416.24 37.3231 416.292 37.2733C416.036 37.5098 415.91 38.2713 415.793 38.6034C415.407 39.6263 415.036 40.6386 414.652 41.6491C413.885 43.67 413.116 45.7035 412.341 47.7298C410.847 51.619 409.336 55.4871 407.806 59.3586C404.722 67.1427 401.547 74.895 398.27 82.6014C396.399 87.0078 394.499 91.3912 392.559 95.7818C392.094 96.8315 393.015 98.0257 394.142 97.8992C397.519 97.5003 400.925 97.213 404.32 97.0891C405.11 97.0609 405.905 97.0398 406.687 97.0169C406.828 97.0113 407.784 96.8798 407.88 97.0074C407.725 96.8019 407.654 96.8109 407.598 96.898C407.313 97.3457 406.938 98.2497 406.883 98.768C406.857 98.9987 406.893 99.7706 407.172 99.9049C406.757 99.707 408.048 99.3566 407.454 99.3489C406.928 99.3446 406.405 99.816 406.227 100.272C402.505 109.38 398.828 118.531 395.238 127.695C391.789 136.531 388.685 145.484 385.339 154.353C384.407 156.82 383.45 159.283 382.447 161.714C381.966 162.876 381.361 164.02 380.959 165.199C381.253 164.334 380.709 166.076 380.9 165.755C380.756 166.007 380.323 166.111 380.146 166.422C380.038 166.603 379.989 166.773 379.948 166.97C379.926 167.132 379.917 167.283 379.906 167.446C379.79 168.177 380.428 168.242 381.79 167.616C381.593 166.72 380.689 165.902 379.71 166.373C380.355 166.964 380.605 166.942 380.46 166.307C380.421 166.048 380.456 165.8 380.573 165.556C380.654 165.118 380.742 164.674 380.804 164.239C380.96 163.133 381.124 162.022 381.278 160.929C381.605 158.706 381.943 156.498 382.306 154.293C383.024 149.845 383.816 145.407 384.689 140.987C386.414 132.194 388.434 123.468 390.914 114.851C391.211 113.828 390.584 112.523 389.331 112.733C386.441 113.233 383.52 113.544 380.606 113.894C380.657 113.888 379.266 114.003 379.675 114.162C379.692 114.215 379.692 114.259 379.71 114.313C379.756 113.99 379.81 113.649 379.863 113.32C379.964 112.656 380.062 112.005 380.162 111.341C380.398 109.765 380.639 108.196 380.873 106.632C380.985 105.925 381.22 105.116 381.214 104.399C381.215 103.943 380.927 103.56 380.93 103.136C380.926 102.673 381.421 102.4 381.571 101.965C381.818 101.246 381.849 100.357 381.962 99.606C382.421 96.7178 382.88 93.8297 383.359 90.938C385.268 79.3197 387.37 67.7348 389.837 56.2076C390.512 53.0458 391.211 49.8999 391.948 46.7468C392.333 45.1028 392.732 43.4481 393.129 41.8059C393.321 41.0282 393.513 40.2506 393.708 39.4605C393.784 39.148 393.859 38.8356 393.935 38.5231C393.994 38.2905 394.059 38.0526 394.11 37.8253C394.471 37.0207 394.004 36.8283 392.672 37.2426C392.983 38.0405 393.873 38.3812 394.659 38.1117C401.771 35.6787 409.42 36.7937 416.732 37.3416C418.663 37.4868 419.11 34.4638 417.141 34.3134Z" fill="black"/>
<path d="M297.494 212.346C297.488 212.339 297.488 212.339 297.482 212.333C297.338 212.187 297.208 212.03 297.07 211.891C297.092 211.849 297.11 211.8 297.12 211.757C297.154 211.59 297.134 211.399 297.03 211.163C292.295 200.405 286 189.698 280.635 179.07C275.43 168.76 270.367 158.425 265.381 148.059C265.422 148.025 265.445 147.983 265.48 147.943C266.068 147.386 265.223 146.23 264.5 146.22C264.268 145.732 264.029 145.25 263.797 144.763C263.407 143.945 262.183 143.555 261.753 144.038C258.971 147.121 256.37 150.366 253.912 153.756C253.732 153.998 253.558 154.246 253.384 154.495C253.217 154.725 253.058 154.95 252.891 155.18C252.777 154.918 252.662 154.668 252.541 154.411C252.422 154.129 252.296 153.853 252.164 153.582C243.825 135.024 234.855 116.61 225.32 98.307C225.197 98.0751 225.02 97.876 224.807 97.7303C224.312 97.357 223.665 97.2721 223.339 97.5886C222.972 97.9391 222.599 98.2954 222.22 98.6447C217.193 103.373 211.41 108.51 208.652 115.124C208.039 114.746 207.311 115.316 207.797 116.054C207.907 116.228 208.03 116.403 208.146 116.571C208.139 116.577 208.152 116.578 208.152 116.578C220.128 134.583 233.642 151.967 247.435 168.936C247.321 169.758 248.137 170.879 249.102 171C251.218 173.589 253.341 176.173 255.459 178.751C256.087 179.521 256.971 179.432 257.322 178.91C258.964 176.566 260.67 174.273 262.248 171.879C262.35 171.724 262.446 171.576 262.548 171.421C262.748 171.106 262.954 170.784 263.154 170.469C263.346 170.77 263.532 171.077 263.724 171.379C263.829 171.546 263.939 171.72 264.05 171.881C272.804 185.77 283.207 199.408 293.867 212.106C293.918 212.306 294.019 212.511 294.234 212.701C294.454 212.91 294.669 213.113 294.889 213.322C295.612 214.013 296.332 213.934 296.607 213.474C296.666 213.391 296.694 213.287 296.717 213.176C296.793 213.239 296.871 213.278 296.95 213.317C297.579 213.602 298.132 213.004 297.494 212.346ZM289.375 201.931C289.369 201.924 289.37 201.912 289.364 201.905C289.275 201.714 289.186 201.523 289.092 201.313C289.189 201.347 289.283 201.362 289.359 201.356C289.423 201.475 289.482 201.588 289.547 201.707C290.073 202.688 290.593 203.675 291.127 204.638C290.516 203.75 289.933 202.839 289.375 201.931Z" fill="#FFFFA5"/>
<path d="M222.368 96.4177C216.638 101.869 210.411 107.167 207.212 114.597C207.864 114.298 208.522 113.993 209.174 113.694C207.647 113.037 205.881 114.203 206.144 115.922C206.295 116.869 207.056 117.702 207.588 118.482C208.281 119.51 208.978 120.544 209.677 121.567C212.439 125.615 215.267 129.631 218.143 133.608C223.879 141.529 229.829 149.305 235.884 156.984C239.312 161.321 242.775 165.629 246.258 169.92C246.147 169.551 246.031 169.175 245.914 168.799C245.89 169.742 246.163 170.599 246.789 171.324C247.158 171.755 247.549 171.961 248.025 172.257C248.407 172.494 248.672 172.897 249.04 173.34C249.94 174.438 250.84 175.535 251.733 176.639C252.646 177.737 253.486 179 254.517 179.977C255.222 180.659 256.192 181.007 257.174 180.745C258.267 180.449 258.794 179.458 259.41 178.588C261.113 176.194 262.834 173.819 264.4 171.343C263.597 171.376 262.774 171.413 261.965 171.439C267.427 180.198 273.379 188.643 279.649 196.846C282.779 200.934 285.983 204.973 289.255 208.955C290.089 209.958 290.909 210.96 291.742 211.963C292.497 212.858 293.068 213.837 293.995 214.578C295.35 215.654 297.574 215.664 298.133 213.712C297.361 213.95 296.588 214.2 295.823 214.431C296.818 215.046 298.177 215.14 298.938 214.07C299.723 212.945 299.05 211.787 298.229 210.923C298.308 211.422 298.394 211.928 298.493 212.422C299.033 210.613 297.5 208.461 296.745 206.886C295.761 204.797 294.731 202.724 293.687 200.662C291.523 196.417 289.272 192.233 287.027 188.043C282.498 179.547 278.213 170.941 273.968 162.301C271.535 157.357 269.146 152.411 266.746 147.451C266.609 148.049 266.464 148.653 266.32 149.258C267.91 147.545 266.877 145.094 264.611 144.727C265.031 145.024 265.445 145.314 265.864 145.624C265.205 144.233 264.624 142.825 262.984 142.434C261.099 141.97 260.092 143.579 259.011 144.846C256.384 147.881 253.94 151.064 251.613 154.334C252.5 154.416 253.381 154.503 254.268 154.585C246.877 138.1 239.051 121.814 230.823 105.724C229.683 103.488 228.534 101.271 227.379 99.0477C226.851 98.0223 226.404 96.9288 225.351 96.3275C224.55 95.8629 223.497 95.7342 222.681 96.2386C221.972 96.6773 221.555 97.4391 221.907 98.2655C222.203 98.9418 223.226 99.4647 223.933 99.0385C223.813 99.1156 230.372 111.599 230.967 112.788C233.355 117.539 235.717 122.3 238.032 127.088C242.655 136.601 247.126 146.195 251.453 155.85C251.927 156.921 253.421 157.053 254.108 156.102C256.045 153.363 258.083 150.69 260.239 148.104C260.764 147.472 261.295 146.847 261.836 146.248C262.097 145.95 262.427 145.653 262.652 145.327C262.511 145.352 262.383 145.378 262.249 145.397C262.384 145.435 262.458 145.524 262.483 145.652C262.678 146.206 263.015 146.987 263.445 147.379C263.601 147.526 264.066 147.878 264.327 147.788C263.727 147.998 264.816 146.46 264.382 146.924C263.926 147.417 263.646 148.066 263.956 148.731C268.222 157.606 272.555 166.449 276.961 175.255C281.277 183.87 285.931 192.309 290.34 200.882C291.546 203.224 292.72 205.582 293.853 207.961C294.391 209.095 294.819 210.319 295.43 211.402C295.771 212.007 295.661 211.833 295.618 211.419C295.65 211.75 295.493 212.019 295.61 212.383C295.673 212.584 295.759 212.743 295.887 212.925C295.991 213.035 296.099 213.153 296.208 213.27C296.684 213.843 297.134 213.412 297.594 211.992C296.813 211.511 295.565 211.717 295.283 212.712C296.151 212.603 296.295 212.402 295.744 212.099C295.53 211.953 295.371 211.775 295.266 211.538C294.98 211.165 294.729 210.808 294.429 210.446C293.691 209.572 292.978 208.699 292.247 207.819C290.797 206.06 289.356 204.282 287.926 202.506C285.109 198.988 282.352 195.431 279.643 191.823C274.245 184.614 269.098 177.208 264.333 169.553C263.812 168.717 262.385 168.888 261.898 169.65C260.331 172.139 258.605 174.507 256.908 176.896C256.777 177.085 256.447 177.452 256.343 177.688C256.255 177.818 256.148 177.954 256.066 178.091C256.65 178.044 256.79 177.893 256.474 177.637C256.384 177.181 255.343 176.247 255.048 175.892C254.084 174.732 253.14 173.568 252.19 172.396C251.37 171.394 250.633 170.173 249.485 169.569C249.233 169.433 249.092 169.388 248.953 169.123C248.863 168.945 248.912 168.546 248.83 168.349C248.659 167.949 248.248 167.552 247.982 167.231C246.082 164.889 244.19 162.54 242.309 160.192C234.84 150.852 227.509 141.385 220.501 131.696C218.552 129.002 216.611 126.29 214.71 123.556C213.759 122.202 212.822 120.823 211.89 119.452C211.425 118.766 210.959 118.081 210.494 117.395C210.311 117.12 210.116 116.844 209.946 116.569C209.801 116.367 209.676 116.16 209.525 115.951C209.179 115.131 208.712 115.347 208.122 116.609C208.903 116.952 209.778 116.422 210.083 115.706C213.037 108.814 219.002 103.883 224.306 98.8209C225.739 97.4346 223.798 95.0688 222.368 96.4177Z" fill="black"/>
</g>
<defs>
<clipPath id="clip0">
<rect width="470" height="622" fill="white"/>
</clipPath>
</defs>
</svg>
