<svg width="80" height="80" viewBox="0 0 80 80" fill="none" xmlns="http://www.w3.org/2000/svg">
<path d="M79.0012 20.5052C79.0012 9.46688 70.0529 0.518555 59.0146 0.518555H20.2405C9.20223 0.518555 0.253906 9.46688 0.253906 20.5052V59.2793C0.253906 70.3176 9.20223 79.2659 20.2405 79.2659H59.0146C70.0529 79.2659 79.0012 70.3176 79.0012 59.2793V20.5052Z" fill="#C23172"/>
<path d="M62.2613 17.9022L9.60199 38.423C7.89635 39.0878 7.99968 41.5354 9.75544 42.0538L23.1367 46.0052L28.1306 61.8514C28.6523 63.5066 30.7498 64.0084 31.9641 62.7686L38.8825 55.7044L52.4572 65.6686C54.1184 66.888 56.4843 65.982 56.9061 63.965L65.8967 20.9809C66.337 18.8754 64.2655 17.1212 62.2613 17.9022ZM55.6592 27.4415L31.1993 49.0714C30.9555 49.2871 30.8003 49.5855 30.764 49.9089L29.8223 58.2804C29.7915 58.5535 29.4095 58.5896 29.3279 58.3273L25.4534 45.8424C25.2759 45.2708 25.5073 44.6515 26.0158 44.3362L54.9005 26.4217C55.5647 26.0094 56.2448 26.9238 55.6592 27.4415Z" fill="white"/>
</svg>
