<svg width="64" height="64" viewBox="0 0 64 64" fill="none" xmlns="http://www.w3.org/2000/svg">
<path d="M63.084 16.0112C63.084 7.16845 55.879 0 46.9912 0H16.0929C7.20502 0 0 7.16845 0 16.0112V47.0729C0 55.9156 7.20502 63.084 16.0929 63.084H46.9912C55.879 63.084 63.084 55.9156 63.084 47.0729V16.0112Z" fill="#6C43BF"/>
<path d="M16.4779 19.2132C17.9762 22.942 19.8751 26.4576 22.376 29.6137C22.7077 30.0337 23.1258 30.4071 23.5663 30.7111C24.2097 31.1564 24.8167 30.9999 25.0783 30.2582C25.355 29.4799 25.6089 27.9025 25.624 27.0851C25.6653 24.9495 25.6179 23.5499 25.504 21.4168C25.4302 20.0507 24.9483 18.8511 22.9542 18.489C22.3384 18.3768 22.2812 17.8659 22.6768 17.3564C23.5005 16.2954 24.6479 16.1264 25.8921 16.0594C27.9086 15.9497 29.9326 16.0393 31.9516 16.0594C32.774 16.0671 33.6014 16.1338 34.4113 16.3118C35.4677 16.5439 36.0334 17.2907 36.2075 18.33C36.2977 18.8662 36.344 19.4174 36.3314 19.9598C36.2789 22.291 36.1675 24.6209 36.1411 26.9508C36.1299 27.8653 36.1961 28.8026 36.3902 29.6932C36.6619 30.9344 37.5005 31.246 38.358 30.3492C39.4469 29.2102 40.407 27.9285 41.3082 26.6267C42.9454 24.2589 44.1683 21.6604 45.221 18.9812C45.7655 17.5987 46.1823 17.2984 47.658 17.2947C50.4318 17.2883 53.2056 17.2858 55.9794 17.2947C56.4713 17.2972 56.9857 17.3439 57.4501 17.4928C58.2036 17.735 58.5028 18.3544 58.3263 19.1403C57.9144 20.982 56.9269 22.5474 55.8692 24.0524C54.1719 26.4668 52.3932 28.8232 50.6559 31.2098C50.4344 31.5138 50.2392 31.838 50.0576 32.1672C49.4079 33.3504 49.453 34.0139 50.4005 34.999C51.9088 36.567 53.5236 38.034 54.9843 39.6449C56.0458 40.8168 57.0283 42.0882 57.8695 43.4266C58.9334 45.1195 58.2762 46.7139 56.2886 46.9977C55.0382 47.1756 48.9301 46.9991 48.6144 46.9977C46.9722 46.9903 45.5328 46.4162 44.3736 45.2923C43.0844 44.041 41.9127 42.6685 40.6748 41.3629C40.3018 40.9693 39.9037 40.5921 39.4745 40.2628C38.4618 39.4845 37.4679 39.6573 36.9948 40.8558C36.5905 41.8852 36.2413 44.5883 36.2249 44.8192C36.1399 46.0264 35.3776 46.7959 34.0357 46.8703C30.1617 47.0822 26.4078 46.647 22.9106 44.7586C19.9465 43.1591 17.5796 40.8974 15.5293 38.2597C12.2724 34.0703 9.69983 29.4651 7.35116 24.7247C7.23113 24.4824 4.85228 19.381 4.78835 19.14C4.57586 18.3332 4.77408 17.5625 5.45052 17.2972C5.87222 17.1318 13.7154 17.2966 13.8458 17.3037C15.0973 17.372 15.9507 17.9041 16.4779 19.2132Z" fill="white"/>
</svg>
