<svg width="64" height="63" viewBox="0 0 64 63" fill="none" xmlns="http://www.w3.org/2000/svg">
<path d="M19.168 5.9502H57.373V50.1311C57.373 57.0472 51.6383 62.6538 44.5641 62.6538H19.168V5.9502Z" fill="white"/>
<path d="M16.9272 0.939453C8.08446 0.939453 0.916016 7.94771 0.916016 16.5928V46.9604C0.916016 55.6055 8.08446 62.6137 16.9272 62.6137H34.5121V38.7902H26.2994V29.0648H34.5121V20.8972C34.5121 14.9571 39.4375 10.1418 45.5134 10.1418H54.0991V18.8871H47.9556C46.025 18.8871 44.4598 20.4173 44.4598 22.3048V29.065H53.9448L52.6339 38.7904H44.4598V62.6137H47.9889C56.8316 62.6137 64 55.6055 64 46.9604V16.5928C64 7.94771 56.8316 0.939453 47.9889 0.939453H16.9272Z" fill="#6C43BF"/>
</svg>
