<svg width="79" height="80" viewBox="0 0 79 80" fill="none" xmlns="http://www.w3.org/2000/svg">
<path d="M58.7607 0.518555H19.9866C8.94832 0.518555 0 9.46688 0 20.5052V59.2793C0 70.3176 8.94832 79.2659 19.9866 79.2659H58.7607C69.799 79.2659 78.7473 70.3176 78.7473 59.2793V20.5052C78.7473 9.46687 69.799 0.518555 58.7607 0.518555Z" fill="#C23172"/>
<path d="M11.8379 67.4607L15.6952 53.761C13.2147 49.547 11.9087 44.7525 11.9087 39.8272C11.9087 24.662 24.2465 12.3242 39.4118 12.3242C54.577 12.3242 66.9146 24.662 66.9146 39.8272C66.9146 54.9925 54.577 67.3302 39.4118 67.3302C34.6864 67.3302 30.0593 66.1207 25.966 63.8239L11.8379 67.4607ZM26.6883 58.8204L27.5301 59.3344C31.099 61.5132 35.2077 62.6648 39.4118 62.6648C52.0044 62.6648 62.2492 52.4199 62.2492 39.8272C62.2492 27.2346 52.0044 16.9896 39.4118 16.9896C26.8191 16.9896 16.5742 27.2346 16.5742 39.8272C16.5742 44.215 17.8212 48.4759 20.1802 52.1493L20.7471 53.0321L18.5259 60.9215L26.6883 58.8204Z" fill="white"/>
<path d="M31.6851 27.0263L29.9005 26.929C29.34 26.8984 28.7901 27.0857 28.3665 27.4538C27.5013 28.2051 26.1179 29.6576 25.693 31.5504C25.0594 34.3726 26.0386 37.8285 28.5729 41.2844C31.1073 44.7402 35.8303 50.2696 44.1819 52.6312C46.8732 53.3922 48.9902 52.8791 50.6236 51.8343C51.9173 51.0067 52.8091 49.6785 53.1305 48.1769L53.4155 46.8461C53.506 46.4231 53.2912 45.9938 52.8983 45.8127L46.8669 43.0327C46.4754 42.8523 46.0111 42.9663 45.7478 43.3076L43.38 46.3771C43.2011 46.609 42.8949 46.7009 42.6185 46.6038C40.997 46.0339 35.5654 43.7591 32.585 38.0182C32.4558 37.7692 32.4879 37.467 32.6713 37.2546L34.9342 34.6368C35.1654 34.3695 35.2238 33.9937 35.0848 33.6688L32.485 27.5863C32.3466 27.2625 32.0364 27.0455 31.6851 27.0263Z" fill="white"/>
</svg>
